<?xml version="1.0" standalone="no"?>
<!DOCTYPE svg PUBLIC "-//W3C//DTD SVG 1.1//EN" "http://www.w3.org/Graphics/SVG/1.1/DTD/svg11.dtd" >
<svg xmlns="http://www.w3.org/2000/svg">
<metadata>
This is a custom SVG webfont generated by Font Squirrel.
</metadata>
<defs>
<font id="webfontGbwQtsUM" horiz-adv-x="1050" >
<font-face units-per-em="1200" ascent="960" descent="-240" />
<missing-glyph horiz-adv-x="600" />
<glyph unicode=" "  horiz-adv-x="600" />
<glyph unicode="&#x09;" horiz-adv-x="600" />
<glyph unicode="&#xa0;" horiz-adv-x="600" />
<glyph unicode="!" horiz-adv-x="450" d="M0 150h150v-150h-150v150zM0 1050h150v-750h-150v750z" />
<glyph unicode="&#x22;" horiz-adv-x="750" d="M0 1050h150v-300h-150v300zM300 1050h150v-300h-150v300z" />
<glyph unicode="#" d="M750 450h-150v-150h-150v150h-150v-150h-150v150h-150v150h150v150h-150v150h150v150h150v-150h150v150h150v-150h150v-150h-150v-150h150v-150zM450 600v150h-150v-150h150z" />
<glyph unicode="$" d="M300 600v300h-150v-300h150zM450 450v-300h150v300h-150zM750 1050v-150h-300v-300h300v-600h-750v150h300v300h-300v600h750z" />
<glyph unicode="%" horiz-adv-x="1350" d="M900 1050h150v-150h-150v-150h-150v-150h-150v-150h-150v-150h-150v-150h-150v-150h-150v150h150v150h150v150h150v150h150v150h150v150h150v150zM0 1050h150v-300h-150v300zM900 300h150v-300h-150v300z" />
<glyph unicode="&#x26;" horiz-adv-x="1200" d="M150 450v-300h450v300h-450zM600 600v300h-300v-300h300zM750 300h150v-150h-150v-150h-750v600h150v450h600v-750z" />
<glyph unicode="'" horiz-adv-x="450" d="M0 1050h150v-300h-150v300z" />
<glyph unicode="(" horiz-adv-x="600" d="M150 150h150v-150h-150v150h-150v750h150v150h150v-150h-150v-750z" />
<glyph unicode=")" horiz-adv-x="600" d="M0 150h150v750h-150v150h150v-150h150v-750h-150v-150h-150v150z" />
<glyph unicode="*" d="M600 1050h150v-150h-150v-150h-150v-150h300v-150h-300v-150h150v-150h150v-150h-150v150h-150v150h-150v-150h-150v-150h-150v150h150v150h150v150h-300v150h300v150h-150v150h-150v150h150v-150h150v-150h150v150h150v150z" />
<glyph unicode="+" d="M300 900h150v-300h300v-150h-300v-300h-150v300h-300v150h300v300z" />
<glyph unicode="," horiz-adv-x="450" d="M0 150h150v-300h-150v300z" />
<glyph unicode="-" d="M0 750h750v-150h-750v150z" />
<glyph unicode="." horiz-adv-x="450" d="M0 150h150v-150h-150v150z" />
<glyph unicode="/" horiz-adv-x="1350" d="M900 1050h150v-150h-150v-150h-150v-150h-150v-150h-150v-150h-150v-150h-150v-150h-150v150h150v150h150v150h150v150h150v150h150v150h150v150z" />
<glyph unicode="0" horiz-adv-x="900" d="M450 900h-300v-750h300v750zM0 1050h600v-1050h-600v1050z" />
<glyph unicode="1" horiz-adv-x="600" d="M0 1050h300v-1050h-150v900h-150v150z" />
<glyph unicode="2" d="M150 150h600v-150h-750v600h600v300h-600v150h750v-600h-600v-300z" />
<glyph unicode="3" d="M0 600h600v300h-600v150h750v-1050h-750v150h600v300h-600v150z" />
<glyph unicode="4" d="M600 1050h150v-1050h-150v450h-600v600h150v-450h450v450z" />
<glyph unicode="5" d="M0 1050h750v-150h-600v-300h600v-600h-750v150h600v300h-450v150h-150v450z" />
<glyph unicode="6" d="M600 450h-450v-300h450v300zM750 1050v-150h-600v-300h600v-600h-750v1050h750z" />
<glyph unicode="7" d="M750 1050v-1050h-150v900h-600v150h750z" />
<glyph unicode="8" d="M750 0h-750v1050h750v-1050zM600 450h-450v-300h450v300zM150 600h450v300h-450v-300z" />
<glyph unicode="9" d="M600 600v300h-450v-300h450zM0 150h600v300h-600v600h750v-1050h-750v150z" />
<glyph unicode=":" horiz-adv-x="450" d="M0 150h150v-150h-150v150zM0 750h150v-150h-150v150z" />
<glyph unicode=";" horiz-adv-x="450" d="M0 150h150v-300h-150v300zM0 750h150v-150h-150v150z" />
<glyph unicode="&#x3c;" horiz-adv-x="900" d="M450 1050h150v-150h-150v-150h-150v-150h-150v-150h150v-150h150v-150h150v-150h-150v150h-150v150h-150v150h-150v150h150v150h150v150h150v150z" />
<glyph unicode="=" d="M0 450h750v-150h-750v150zM0 750h750v-150h-750v150z" />
<glyph unicode="&#x3e;" horiz-adv-x="900" d="M0 1050h150v-150h150v-150h150v-150h150v-150h-150v-150h-150v-150h-150v-150h-150v150h150v150h150v150h150v150h-150v150h-150v150h-150v150z" />
<glyph unicode="?" d="M150 450h600v-150h-750v450h600v150h-600v150h750v-450h-600v-150zM150 150h450v-150h-450v150z" />
<glyph unicode="@" horiz-adv-x="1200" d="M900 150v-150h-900v1050h900v-750h-600v450h300v-300h150v450h-600v-750h750z" />
<glyph unicode="A" d="M600 450h-450v-450h-150v1050h750v-1050h-150v450zM150 600h450v300h-450v-300z" />
<glyph unicode="B" d="M750 0h-750v1050h750v-450h-150v-150h150v-450zM594 894h-438v-288h438v288zM594 444h-438v-288h438v288z" />
<glyph unicode="C" d="M150 150h600v-150h-750v1050h750v-150h-600v-750z" />
<glyph unicode="D" d="M750 0h-750v1050h600v-150h150v-900zM594 894h-438v-738h438v738z" />
<glyph unicode="E" d="M150 150h600v-150h-750v1050h750v-150h-600v-300h600v-150h-600v-300z" />
<glyph unicode="F" d="M0 1050h150v-1050h-150v1050zM0 1050h750v-150h-750v150zM150 600h600v-150h-600v150z" />
<glyph unicode="G" d="M300 600h450v-600h-750v1050h750v-150h-600v-750h450v300h-300v150z" />
<glyph unicode="H" d="M600 1050h150v-1050h-150v450h-450v-450h-150v1050h150v-450h450v450z" />
<glyph unicode="I" horiz-adv-x="450" d="M0 1050h150v-1050h-150v1050z" />
<glyph unicode="J" d="M600 1050h150v-1050h-750v150h600v900z" />
<glyph unicode="K" d="M600 300h150v-300h-150v300h-150v150h-300v-450h-150v1050h150v-450h300v150h150v300h150v-300h-150v-150h-150v-150h150v-150z" />
<glyph unicode="L" d="M150 150h600v-150h-750v1050h150v-900z" />
<glyph unicode="M" horiz-adv-x="1350" d="M1050 1050v-1050h-150v900h-300v-900h-150v900h-300v-900h-150v1050h1050z" />
<glyph unicode="N" d="M750 1050v-1050h-150v900h-450v-900h-150v1050h750z" />
<glyph unicode="O" d="M750 0h-750v1050h750v-1050zM150 150h450v750h-450v-750z" />
<glyph unicode="P" d="M150 450v-450h-150v1050h750v-600h-600zM150 600h450v300h-450v-300z" />
<glyph unicode="Q" d="M0 0v1050h750v-1050h-750zM300 450h150v-300h150v750h-450v-750h150v300z" />
<glyph unicode="R" d="M750 0h-150v450h-450v-450h-150v1050h750v-450h-150v-150h150v-450zM594 894h-438v-288h438v288z" />
<glyph unicode="S" d="M0 1050h750v-150h-600v-300h600v-600h-750v150h600v300h-600v600z" />
<glyph unicode="T" d="M0 1050h750v-150h-300v-900h-150v900h-300v150z" />
<glyph unicode="U" d="M600 1050h150v-1050h-750v1050h150v-900h450v900z" />
<glyph unicode="V" d="M600 1050h150v-750h-150v-150h-150v-150h-450v1050h150v-900h300v150h150v750z" />
<glyph unicode="W" horiz-adv-x="1350" d="M900 1050h150v-1050h-1050v1050h150v-900h300v450h150v-450h300v900z" />
<glyph unicode="X" d="M600 450h150v-450h-150v450h-450v-450h-150v450h150v150h-150v450h150v-450h450v450h150v-450h-150v-150z" />
<glyph unicode="Y" d="M0 150h600v300h-600v600h150v-450h450v450h150v-1050h-750v150z" />
<glyph unicode="Z" d="M0 1050h750v-450h-150v-150h-450v-300h600v-150h-750v450h150v150h450v300h-600v150z" />
<glyph unicode="[" horiz-adv-x="600" d="M300 1050v-150h-150v-750h150v-150h-300v1050h300z" />
<glyph unicode="\" horiz-adv-x="1350" d="M900 150h150v-150h-150v150h-150v150h-150v150h-150v150h-150v150h-150v150h-150v150h150v-150h150v-150h150v-150h150v-150h150v-150h150v-150z" />
<glyph unicode="]" horiz-adv-x="600" d="M0 150h150v750h-150v150h300v-1050h-300v150z" />
<glyph unicode="^" horiz-adv-x="900" d="M450 1350h150v-150h-150v150h-150v-150h-150v150h150v150h150v-150z" />
<glyph unicode="_" d="M0 0h750v-150h-750v150z" />
<glyph unicode="`" horiz-adv-x="600" d="M150 1200h150v-150h-150v150h-150v150h150v-150z" />
<glyph unicode="a" d="M600 450h-450v-450h-150v1050h750v-1050h-150v450zM150 600h450v300h-450v-300z" />
<glyph unicode="b" d="M750 0h-750v1050h750v-450h-150v-150h150v-450zM594 894h-438v-288h438v288zM594 444h-438v-288h438v288z" />
<glyph unicode="c" d="M150 150h600v-150h-750v1050h750v-150h-600v-750z" />
<glyph unicode="d" d="M750 0h-750v1050h600v-150h150v-900zM594 894h-438v-738h438v738z" />
<glyph unicode="e" d="M150 150h600v-150h-750v1050h750v-150h-600v-300h600v-150h-600v-300z" />
<glyph unicode="f" d="M0 1050h150v-1050h-150v1050zM0 1050h750v-150h-750v150zM150 600h600v-150h-600v150z" />
<glyph unicode="g" d="M300 600h450v-600h-750v1050h750v-150h-600v-750h450v300h-300v150z" />
<glyph unicode="h" d="M600 1050h150v-1050h-150v450h-450v-450h-150v1050h150v-450h450v450z" />
<glyph unicode="i" horiz-adv-x="450" d="M0 1050h150v-1050h-150v1050z" />
<glyph unicode="j" d="M600 1050h150v-1050h-750v150h600v900z" />
<glyph unicode="k" d="M600 300h150v-300h-150v300h-150v150h-300v-450h-150v1050h150v-450h300v150h150v300h150v-300h-150v-150h-150v-150h150v-150z" />
<glyph unicode="l" d="M150 150h600v-150h-750v1050h150v-900z" />
<glyph unicode="m" horiz-adv-x="1350" d="M1050 1050v-1050h-150v900h-300v-900h-150v900h-300v-900h-150v1050h1050z" />
<glyph unicode="n" d="M750 1050v-1050h-150v900h-450v-900h-150v1050h750z" />
<glyph unicode="o" d="M750 0h-750v1050h750v-1050zM150 150h450v750h-450v-750z" />
<glyph unicode="p" d="M150 450v-450h-150v1050h750v-600h-600zM150 600h450v300h-450v-300z" />
<glyph unicode="q" d="M0 0v1050h750v-1050h-750zM300 450h150v-300h150v750h-450v-750h150v300z" />
<glyph unicode="r" d="M750 0h-150v450h-450v-450h-150v1050h750v-450h-150v-150h150v-450zM594 894h-438v-288h438v288z" />
<glyph unicode="s" d="M0 1050h750v-150h-600v-300h600v-600h-750v150h600v300h-600v600z" />
<glyph unicode="t" d="M0 1050h750v-150h-300v-900h-150v900h-300v150z" />
<glyph unicode="u" d="M600 1050h150v-1050h-750v1050h150v-900h450v900z" />
<glyph unicode="v" d="M600 1050h150v-750h-150v-150h-150v-150h-450v1050h150v-900h300v150h150v750z" />
<glyph unicode="w" horiz-adv-x="1350" d="M900 1050h150v-1050h-1050v1050h150v-900h300v450h150v-450h300v900z" />
<glyph unicode="x" d="M600 450h150v-450h-150v450h-450v-450h-150v450h150v150h-150v450h150v-450h450v450h150v-450h-150v-150z" />
<glyph unicode="y" d="M0 150h600v300h-600v600h150v-450h450v450h150v-1050h-750v150z" />
<glyph unicode="z" d="M0 1050h750v-450h-150v-150h-450v-300h600v-150h-750v450h150v150h450v300h-600v150z" />
<glyph unicode="{" horiz-adv-x="750" d="M300 150h150v-150h-150v150h-150v300h-150v150h150v300h150v150h150v-150h-150v-750z" />
<glyph unicode="|" horiz-adv-x="450" d="M0 1050h150v-1050h-150v1050z" />
<glyph unicode="}" horiz-adv-x="750" d="M300 600h150v-150h-150v-300h-150v-150h-150v150h150v750h-150v150h150v-150h150v-300z" />
<glyph unicode="~" horiz-adv-x="1350" d="M900 1650h150v-450h-600v300h-300v-300h-150v450h600v-300h300v300z" />
<glyph unicode="&#xa1;" horiz-adv-x="450" d="M0 750h150v-750h-150v750zM0 1050h150v-150h-150v150z" />
<glyph unicode="&#xa2;" d="M300 450v150h-150v-150h150zM300 900h150v-150h300v-150h-300v-150h300v-150h-300v-150h-150v150h-300v450h300v150z" />
<glyph unicode="&#xa3;" d="M600 300h150v-300h-600v600h-150v150h150v300h150v-300h150v-150h-150v-450h300v150z" />
<glyph unicode="&#xa4;" horiz-adv-x="1200" d="M450 600h-150v-150h150v150zM0 300h150v450h-150v150h150v-150h450v150h150v-150h-150v-450h150v-150h-150v150h-450v-150h-150v150z" />
<glyph unicode="&#xa5;" d="M0 300h300v150h-300v600h150v-450h450v450h150v-600h-300v-150h300v-150h-300v-150h-150v150h-300v150z" />
<glyph unicode="&#xa6;" horiz-adv-x="450" d="M0 1050h150v-300h-150v300zM0 300h150v-300h-150v300z" />
<glyph unicode="&#xa7;" d="M600 450v150h-450v-150h450zM0 150h600v150h-600v750h750v-150h-600v-150h600v-750h-750v150z" />
<glyph unicode="&#xa8;" horiz-adv-x="750" d="M0 600h150v-150h-150v150zM300 600h150v-150h-150v150z" />
<glyph unicode="&#xa9;" horiz-adv-x="1350" d="M1050 150h-150v-150h-750v150h-150v750h150v150h750v-150h150v-750zM750 300h-450v450h450v-150h-300v-150h300v-150zM894 894h-738v-738h738v738z" />
<glyph unicode="&#xaa;" horiz-adv-x="1200" d="M0 150h750v-150h-750v150zM600 600h-450v-300h-150v750h750v-750h-150v300zM150 750h450v150h-450v-150z" />
<glyph unicode="&#xab;" horiz-adv-x="1200" d="M300 900h150v-150h-150v-150h-150v-150h150v-150h150v-150h-150v150h-150v150h-150v150h150v150h150v150zM750 900h150v-150h-150v-150h-150v-150h150v-150h150v-150h-150v150h-150v150h-150v150h150v150h150v150z" />
<glyph unicode="&#xac;" horiz-adv-x="900" d="M600 600v-450h-150v300h-450v150h600z" />
<glyph unicode="&#xad;" d="M0 750h750v-150h-750v150z" />
<glyph unicode="&#xae;" horiz-adv-x="1350" d="M1050 150h-150v-150h-750v150h-150v750h150v150h750v-150h150v-750zM750 600h-300v-300h-150v450h450v-150zM894 894h-738v-738h738v738z" />
<glyph unicode="&#xaf;" d="M0 1050h750v-150h-750v150z" />
<glyph unicode="&#x2c9;" d="M0 1050h750v-150h-750v150z" />
<glyph unicode="&#xb2;" d="M150 150h600v-150h-750v600h600v300h-600v150h750v-600h-600v-300z" />
<glyph unicode="&#xb3;" d="M0 600h600v300h-600v150h750v-1050h-750v150h600v300h-600v150z" />
<glyph unicode="&#xb9;" horiz-adv-x="600" d="M0 1050h300v-1050h-150v900h-150v150z" />
<glyph unicode="&#xba;" d="M750 0h-750v1050h750v-1050zM150 150h450v750h-450v-750z" />
<glyph unicode="&#xbb;" d="M0 900h150v-150h-150v150zM150 750h150v-150h-150v150zM300 600h150v-150h-150v150zM150 450h150v-150h-150v150zM0 300h150v-150h-150v150zM750 600h150v-150h-150v150zM600 750h150v-150h-150v150zM450 900h150v-150h-150v150zM600 450h150v-150h-150v150zM450 300h150 v-150h-150v150z" />
<glyph unicode="&#xbf;" horiz-adv-x="900" d="M0 750h750v-450h-600v-150h600v-150h-750v450h600v150h-600v150zM150 1050h450v-150h-450v150z" />
<glyph unicode="&#xc0;" d="M600 450h-450v-450h-150v1050h750v-1050h-150v450zM150 600h450v300h-450v-300zM300 1350h150v-150h-150v150zM150 1500h150v-150h-150v150z" />
<glyph unicode="&#xc1;" d="M600 450h-450v-450h-150v1050h750v-1050h-150v450zM150 600h450v300h-450v-300zM300 1350h150v-150h-150v150zM450 1500h150v-150h-150v150z" />
<glyph unicode="&#xc2;" d="M600 450h-450v-450h-150v1050h750v-1050h-150v450zM150 600h450v300h-450v-300zM450 1350h150v-150h-150v150h-150v-150h-150v150h150v150h150v-150z" />
<glyph unicode="&#xc3;" horiz-adv-x="1350" d="M900 1650h150v-450h-600v300h-300v-300h-150v450h600v-300h300v300zM750 450h-450v-450h-150v1050h750v-1050h-150v450zM300 600h450v300h-450v-300z" />
<glyph unicode="&#xc4;" d="M600 450h-450v-450h-150v1050h750v-1050h-150v450zM150 600h450v300h-450v-300zM150 1500h150v-300h-150v300zM450 1500h150v-300h-150v300z" />
<glyph unicode="&#xc5;" d="M600 450h-450v-450h-150v1050h750v-1050h-150v450zM150 600h450v300h-450v-300zM450 1500h-150v-150h150v150zM150 1650h450v-450h-450v450z" />
<glyph unicode="&#xc6;" horiz-adv-x="1650" d="M150 600h450v300h-450v-300zM750 150h600v-150h-750v450h-450v-450h-150v1050h1350v-150h-600v-300h600v-150h-600v-300z" />
<glyph unicode="&#xc7;" d="M300 -150h150v150h-450v1050h750v-150h-600v-750h600v-150h-150v-300h-300v150z" />
<glyph unicode="&#xc8;" d="M150 150h600v-150h-750v1050h750v-150h-600v-300h600v-150h-600v-300zM300 1350h150v-150h-150v150zM150 1500h150v-150h-150v150z" />
<glyph unicode="&#xc9;" d="M150 150h600v-150h-750v1050h750v-150h-600v-300h600v-150h-600v-300zM300 1350h150v-150h-150v150zM450 1500h150v-150h-150v150z" />
<glyph unicode="&#xca;" d="M150 150h600v-150h-750v1050h750v-150h-600v-300h600v-150h-600v-300zM150 1350h150v-150h-150v150zM300 1500h150v-150h-150v150zM450 1350h150v-150h-150v150z" />
<glyph unicode="&#xcb;" d="M150 150h600v-150h-750v1050h750v-150h-600v-300h600v-150h-600v-300zM150 1500h150v-300h-150v300zM450 1500h150v-300h-150v300z" />
<glyph unicode="&#xcc;" horiz-adv-x="600" d="M150 1050h150v-1050h-150v1050zM150 1350h150v-150h-150v150zM0 1500h150v-150h-150v150z" />
<glyph unicode="&#xcd;" horiz-adv-x="600" d="M0 1050h150v-1050h-150v1050zM0 1350h150v-150h-150v150zM150 1500h150v-150h-150v150z" />
<glyph unicode="&#xce;" horiz-adv-x="750" d="M150 1050h150v-1050h-150v1050zM0 1500h150v-300h-150v300zM300 1500h150v-300h-150v300z" />
<glyph unicode="&#xcf;" horiz-adv-x="750" d="M150 1050h150v-1050h-150v1050zM0 1500h150v-300h-150v300zM300 1500h150v-300h-150v300z" />
<glyph unicode="&#xd0;" d="M750 0h-750v1050h600v-150h150v-900zM594 894h-438v-288h300v-162h-300v-288h438v738z" />
<glyph unicode="&#xd1;" horiz-adv-x="1350" d="M900 1650h150v-450h-600v300h-300v-300h-150v450h600v-300h300v300zM900 1050v-1050h-150v900h-450v-900h-150v1050h750z" />
<glyph unicode="&#xd2;" d="M750 0h-750v1050h750v-1050zM150 150h450v750h-450v-750zM300 1350h150v-150h-150v150zM150 1500h150v-150h-150v150z" />
<glyph unicode="&#xd3;" d="M750 0h-750v1050h750v-1050zM150 150h450v750h-450v-750zM300 1350h150v-150h-150v150zM450 1500h150v-150h-150v150z" />
<glyph unicode="&#xd4;" d="M750 0h-750v1050h750v-1050zM150 150h450v750h-450v-750zM150 1350h150v-150h-150v150zM300 1500h150v-150h-150v150zM450 1350h150v-150h-150v150z" />
<glyph unicode="&#xd5;" horiz-adv-x="1350" d="M900 1650h150v-450h-600v300h-300v-300h-150v450h600v-300h300v300zM750 900h-450v-750h450v750zM150 1050h750v-1050h-750v1050z" />
<glyph unicode="&#xd6;" d="M750 0h-750v1050h750v-1050zM150 150h450v750h-450v-750zM150 1500h150v-300h-150v300zM450 1500h150v-300h-150v300z" />
<glyph unicode="&#xd7;" horiz-adv-x="600" d="M0 450h150v150h-150v150h150v-150h150v150h150v-150h-150v-150h150v-150h-150v150h-150v-150h-150v150z" />
<glyph unicode="&#xd8;" d="M750 150h-150v-150h-450v150h-150v750h150v150h450v-150h150v-750zM597 897h-444v-444h144v150h150v150h150v144zM597 597h-144v-150h-150v-150h-150v-144h444v444zM0 1050h150v-150h-150v150zM600 1050h150v-150h-150v150zM600 150h150v-150h-150v150zM0 150h150v-150 h-150v150z" />
<glyph unicode="&#xd9;" d="M600 1050h150v-1050h-750v1050h150v-900h450v900zM300 1350h150v-150h-150v150zM150 1500h150v-150h-150v150z" />
<glyph unicode="&#xda;" d="M600 1050h150v-1050h-750v1050h150v-900h450v900zM300 1350h150v-150h-150v150zM450 1500h150v-150h-150v150z" />
<glyph unicode="&#xdb;" d="M600 1050h150v-1050h-750v1050h150v-900h450v900zM150 1350h150v-150h-150v150zM300 1500h150v-150h-150v150zM450 1350h150v-150h-150v150z" />
<glyph unicode="&#xdc;" d="M600 1050h150v-1050h-750v1050h150v-900h450v900zM150 1500h150v-300h-150v300zM450 1500h150v-300h-150v300z" />
<glyph unicode="&#xdd;" d="M0 150h600v300h-600v600h150v-450h450v450h150v-1050h-750v150zM300 1350h150v-150h-150v150zM450 1500h150v-150h-150v150z" />
<glyph unicode="&#xde;" horiz-adv-x="900" d="M750 300h-600v-300h-150v1050h150v-300h600v-450zM150 450h450v150h-450v-150z" />
<glyph unicode="&#xdf;" horiz-adv-x="900" d="M300 150h300v300h-300v150h300v300h-450v-1200h-150v1350h600v-150h150v-300h-150v-150h150v-300h-150v-150h-300v150z" />
<glyph unicode="&#xe0;" d="M600 450h-450v-450h-150v1050h750v-1050h-150v450zM150 600h450v300h-450v-300zM300 1350h150v-150h-150v150zM150 1500h150v-150h-150v150z" />
<glyph unicode="&#xe1;" d="M600 450h-450v-450h-150v1050h750v-1050h-150v450zM150 600h450v300h-450v-300zM300 1350h150v-150h-150v150zM450 1500h150v-150h-150v150z" />
<glyph unicode="&#xe2;" d="M600 450h-450v-450h-150v1050h750v-1050h-150v450zM150 600h450v300h-450v-300zM450 1350h150v-150h-150v150h-150v-150h-150v150h150v150h150v-150z" />
<glyph unicode="&#xe3;" horiz-adv-x="1350" d="M900 1650h150v-450h-600v300h-300v-300h-150v450h600v-300h300v300zM750 450h-450v-450h-150v1050h750v-1050h-150v450zM300 600h450v300h-450v-300z" />
<glyph unicode="&#xe4;" d="M600 450h-450v-450h-150v1050h750v-1050h-150v450zM150 600h450v300h-450v-300zM150 1500h150v-300h-150v300zM450 1500h150v-300h-150v300z" />
<glyph unicode="&#xe5;" d="M600 450h-450v-450h-150v1050h750v-1050h-150v450zM150 600h450v300h-450v-300zM450 1500h-150v-150h150v150zM150 1650h450v-450h-450v450z" />
<glyph unicode="&#xe6;" horiz-adv-x="1650" d="M150 600h450v300h-450v-300zM750 150h600v-150h-750v450h-450v-450h-150v1050h1350v-150h-600v-300h600v-150h-600v-300z" />
<glyph unicode="&#xe7;" d="M300 -150h150v150h-450v1050h750v-150h-600v-750h600v-150h-150v-300h-300v150z" />
<glyph unicode="&#xe8;" d="M150 150h600v-150h-750v1050h750v-150h-600v-300h600v-150h-600v-300zM300 1350h150v-150h-150v150zM150 1500h150v-150h-150v150z" />
<glyph unicode="&#xe9;" d="M150 150h600v-150h-750v1050h750v-150h-600v-300h600v-150h-600v-300zM300 1350h150v-150h-150v150zM450 1500h150v-150h-150v150z" />
<glyph unicode="&#xea;" d="M150 150h600v-150h-750v1050h750v-150h-600v-300h600v-150h-600v-300zM150 1350h150v-150h-150v150zM300 1500h150v-150h-150v150zM450 1350h150v-150h-150v150z" />
<glyph unicode="&#xeb;" d="M150 150h600v-150h-750v1050h750v-150h-600v-300h600v-150h-600v-300zM150 1500h150v-300h-150v300zM450 1500h150v-300h-150v300z" />
<glyph unicode="&#xec;" horiz-adv-x="600" d="M150 1050h150v-1050h-150v1050zM150 1350h150v-150h-150v150zM0 1500h150v-150h-150v150z" />
<glyph unicode="&#xed;" horiz-adv-x="600" d="M0 1050h150v-1050h-150v1050zM0 1350h150v-150h-150v150zM150 1500h150v-150h-150v150z" />
<glyph unicode="&#xee;" horiz-adv-x="750" d="M150 1050h150v-1050h-150v1050zM0 1500h150v-300h-150v300zM300 1500h150v-300h-150v300z" />
<glyph unicode="&#xef;" horiz-adv-x="750" d="M150 1050h150v-1050h-150v1050zM0 1500h150v-300h-150v300zM300 1500h150v-300h-150v300z" />
<glyph unicode="&#xf0;" d="M750 0h-750v1050h600v-150h150v-900zM594 894h-438v-288h300v-162h-300v-288h438v738z" />
<glyph unicode="&#xf1;" horiz-adv-x="1350" d="M900 1650h150v-450h-600v300h-300v-300h-150v450h600v-300h300v300zM900 1050v-1050h-150v900h-450v-900h-150v1050h750z" />
<glyph unicode="&#xf2;" d="M750 0h-750v1050h750v-1050zM150 150h450v750h-450v-750zM300 1350h150v-150h-150v150zM150 1500h150v-150h-150v150z" />
<glyph unicode="&#xf3;" d="M750 0h-750v1050h750v-1050zM150 150h450v750h-450v-750zM300 1350h150v-150h-150v150zM450 1500h150v-150h-150v150z" />
<glyph unicode="&#xf4;" d="M750 0h-750v1050h750v-1050zM150 150h450v750h-450v-750zM150 1350h150v-150h-150v150zM300 1500h150v-150h-150v150zM450 1350h150v-150h-150v150z" />
<glyph unicode="&#xf5;" horiz-adv-x="1350" d="M900 1650h150v-450h-600v300h-300v-300h-150v450h600v-300h300v300zM750 900h-450v-750h450v750zM150 1050h750v-1050h-750v1050z" />
<glyph unicode="&#xf6;" d="M750 0h-750v1050h750v-1050zM150 150h450v750h-450v-750zM150 1500h150v-300h-150v300zM450 1500h150v-300h-150v300z" />
<glyph unicode="&#xf7;" d="M0 600h750v-150h-750v150zM300 1050h150v-300h-150v300zM300 300h150v-300h-150v300z" />
<glyph unicode="&#xf8;" d="M750 150h-150v-150h-450v150h-150v750h150v150h450v-150h150v-750zM597 897h-444v-444h144v150h150v150h150v144zM597 597h-144v-150h-150v-150h-150v-144h444v444zM0 1050h150v-150h-150v150zM600 1050h150v-150h-150v150zM600 150h150v-150h-150v150zM0 150h150v-150 h-150v150z" />
<glyph unicode="&#xf9;" d="M600 1050h150v-1050h-750v1050h150v-900h450v900zM300 1350h150v-150h-150v150zM150 1500h150v-150h-150v150z" />
<glyph unicode="&#xfa;" d="M600 1050h150v-1050h-750v1050h150v-900h450v900zM300 1350h150v-150h-150v150zM450 1500h150v-150h-150v150z" />
<glyph unicode="&#xfb;" d="M600 1050h150v-1050h-750v1050h150v-900h450v900zM150 1350h150v-150h-150v150zM300 1500h150v-150h-150v150zM450 1350h150v-150h-150v150z" />
<glyph unicode="&#xfc;" d="M600 1050h150v-1050h-750v1050h150v-900h450v900zM150 1500h150v-300h-150v300zM450 1500h150v-300h-150v300z" />
<glyph unicode="&#xfd;" d="M0 150h600v300h-600v600h150v-450h450v450h150v-1050h-750v150zM300 1350h150v-150h-150v150zM450 1500h150v-150h-150v150z" />
<glyph unicode="&#xfe;" horiz-adv-x="900" d="M750 300h-600v-300h-150v1050h150v-300h600v-450zM150 450h450v150h-450v-150z" />
<glyph unicode="&#xff;" d="M0 150h600v300h-600v600h150v-450h450v450h150v-1050h-750v150zM150 1350h150v-150h-150v150zM450 1350h150v-150h-150v150z" />
<glyph unicode="&#x152;" horiz-adv-x="2100" d="M1200 150h600v-150h-750v1050h750v-150h-600v-300h600v-150h-600v-300zM750 0h-750v1050h750v-1050zM150 150h450v750h-450v-750z" />
<glyph unicode="&#x153;" horiz-adv-x="2100" d="M1200 150h600v-150h-750v1050h750v-150h-600v-300h600v-150h-600v-300zM750 0h-750v1050h750v-1050zM150 150h450v750h-450v-750z" />
<glyph unicode="&#x178;" d="M150 1272h150v-150h-150v150zM450 1272h150v-150h-150v150zM0 150h600v300h-600v600h150v-450h450v450h150v-1050h-750v150z" />
<glyph unicode="&#x2c6;" horiz-adv-x="900" d="M450 1350h150v-150h-150v150h-150v-150h-150v150h150v150h150v-150z" />
<glyph unicode="&#x2dc;" horiz-adv-x="600" d="M375 522h150v-450h-600v300h-300v-300h-150v450h600v-300h300v300z" />
<glyph unicode="&#x2000;" horiz-adv-x="825" />
<glyph unicode="&#x2001;" horiz-adv-x="1650" />
<glyph unicode="&#x2002;" horiz-adv-x="825" />
<glyph unicode="&#x2003;" horiz-adv-x="1650" />
<glyph unicode="&#x2004;" horiz-adv-x="550" />
<glyph unicode="&#x2005;" horiz-adv-x="412" />
<glyph unicode="&#x2006;" horiz-adv-x="275" />
<glyph unicode="&#x2007;" horiz-adv-x="275" />
<glyph unicode="&#x2008;" horiz-adv-x="206" />
<glyph unicode="&#x2009;" horiz-adv-x="330" />
<glyph unicode="&#x200a;" horiz-adv-x="91" />
<glyph unicode="&#x2010;" d="M0 750h750v-150h-750v150z" />
<glyph unicode="&#x2011;" d="M0 750h750v-150h-750v150z" />
<glyph unicode="&#x2013;" horiz-adv-x="600" d="M120 300v120h360v-120h-360z" />
<glyph unicode="&#x2014;" horiz-adv-x="1200" d="M120 300v120h960v-120h-960z" />
<glyph unicode="&#x2018;" horiz-adv-x="600" d="M150 1200h150v-150h-150v150h-150v150h150v-150z" />
<glyph unicode="&#x2019;" horiz-adv-x="450" d="M0 1050h150v-300h-150v300z" />
<glyph unicode="&#x201c;" horiz-adv-x="750" d="M0 1050h150v-300h-150v300zM300 1050h150v-300h-150v300z" />
<glyph unicode="&#x201d;" horiz-adv-x="750" d="M0 1050h150v-300h-150v300zM300 1050h150v-300h-150v300z" />
<glyph unicode="&#x2026;" horiz-adv-x="1350" d="M900 150h150v-150h-150v150zM450 150h150v-150h-150v150zM0 150h150v-150h-150v150z" />
<glyph unicode="&#x202f;" horiz-adv-x="330" />
<glyph unicode="&#x2039;" horiz-adv-x="900" d="M450 1050h150v-150h-150v-150h-150v-150h-150v-150h150v-150h150v-150h150v-150h-150v150h-150v150h-150v150h-150v150h150v150h150v150h150v150z" />
<glyph unicode="&#x203a;" horiz-adv-x="900" d="M0 1050h150v-150h150v-150h150v-150h150v-150h-150v-150h-150v-150h-150v-150h-150v150h150v150h150v150h150v150h-150v150h-150v150h-150v150z" />
<glyph unicode="&#x205f;" horiz-adv-x="412" />
<glyph unicode="&#x2122;" horiz-adv-x="2400" d="M2100 1050v-1050h-150v900h-300v-900h-150v900h-300v-900h-150v1050h1050zM0 1050h750v-150h-300v-900h-150v900h-300v150z" />
</font>
</defs>
</svg>
