<?xml version="1.0" standalone="no"?>
<!DOCTYPE svg PUBLIC "-//W3C//DTD SVG 1.1//EN" "http://www.w3.org/Graphics/SVG/1.1/DTD/svg11.dtd" >
<svg>
<metadata>
Created by FontForge 20090914 at Wed Aug 24 22:57:53 2011
 By www-data
Copyright &#194;&#169; 2002, James Goggin/Practise. www.lineto.com. All rights reserved.
</metadata>
<defs>
<font id="CourierSans-Light" horiz-adv-x="600" >
  <font-face 
    font-family="CourierSans-Light"
    font-weight="400"
    font-stretch="normal"
    units-per-em="1000"
    panose-1="2 0 0 4 8 0 0 2 0 4"
    ascent="745"
    descent="-255"
    x-height="556"
    cap-height="712.001"
    bbox="-128.999 -302.999 1053 1085"
    underline-thickness="50"
    underline-position="-50"
    unicode-range="U+000D-U+FB02"
  />
<missing-glyph 
d="M90 712h420v-712h-420v712zM434 76v560h-268v-560h268z" />
    <glyph glyph-name=".notdef" 
d="M90 712h420v-712h-420v712zM434 76v560h-268v-560h268z" />
    <glyph glyph-name=".null" horiz-adv-x="0" 
 />
    <glyph glyph-name=".null" horiz-adv-x="0" 
 />
    <glyph glyph-name="nonmarkingreturn" unicode="&#xd;" horiz-adv-x="431" 
 />
    <glyph glyph-name="space" unicode=" " horiz-adv-x="431" 
 />
    <glyph glyph-name="exclam" unicode="!" horiz-adv-x="431" 
d="M247 295c-1.33301 -19.333 -12.001 -29 -32.001 -29c-19.333 0 -30 9.66699 -32 29l-22 431c-1.33301 18.667 3 33.167 13 43.5s23.667 15.5 41 15.5c18 0 31.833 -5.16699 41.5 -15.5s13.834 -24.833 12.501 -43.5zM300.999 66c0 -25.333 -7.83301 -45.167 -23.5 -59.5
s-36.5 -21.5 -62.5 -21.5c-25.333 0 -46 7.5 -62 22.5s-24 34.5 -24 58.5c0 25.333 8 45 24 59s36.667 21 62 21c26 0 46.833 -7 62.5 -21s23.5 -33.667 23.5 -59z" />
    <glyph glyph-name="quotedbl" unicode="&#x22;" horiz-adv-x="480" 
d="M355 551c-0.666992 -6 -1.33301 -11.668 -2 -17.001s-4.66699 -8 -12 -8h-15c-7.33301 0 -11.5 2.66699 -12.5 8s-1.83301 11 -2.5 17l-21 260c0 8 3.33301 12 10 12h67c3.33301 0 6 -0.666992 8 -2s2.33301 -4.66602 1 -9.99902zM170.001 550.999
c-0.666992 -6 -1.5 -11.668 -2.5 -17.001s-5.16699 -8 -12.5 -8h-15c-7.33301 0 -11.333 2.66699 -12 8s-1.66699 11 -3 17l-20 260c0 8 3 12 9 12h67c3.33301 0 6 -0.666992 8 -2s2.66699 -4.66602 2 -9.99902z" />
    <glyph glyph-name="numbersign" unicode="#" horiz-adv-x="866" 
d="M792 512c0 -12 -6.66797 -17.999 -20.001 -17.999h-150l-71 -196h164c12.667 0 19 -6.33301 19 -19c0 -5.33301 -1 -9.33301 -3 -12s-7.33301 -4 -16 -4h-176l-106 -291c-4.66699 -13.333 -10.667 -20 -18 -20c-4 0 -9.16699 1.16699 -15.5 3.5s-9.5 7.16602 -9.5 14.499
c0 4.66699 1.33301 9.66699 4 15l100 278h-220l-104 -291c-4.66699 -13.333 -11 -20 -19 -20c-2.66699 0 -7.16699 1 -13.5 3s-9.5 7 -9.5 15v7c0 2 0.666992 4.66699 2 8l101 278h-142c-9.33301 0 -15.166 1.33301 -17.499 4s-3.5 6.66699 -3.5 12c0 12.667 7 19 21 19h155
l72 196h-171c-8.66699 0 -14.334 1.16699 -17.001 3.5s-4 6.5 -4 12.5c0 13.333 7 20 21 20h183l105 289c5.33301 14.667 12 22 20 22c4.66699 0 9.66699 -1.66699 15 -5s8 -8 8 -14v-7c0 -2 -0.666992 -4.66699 -2 -8l-101 -277h219l105 289
c6.66699 14.667 13.334 22 20.001 22c3.33301 0 7.83301 -1.33301 13.5 -4s8.5 -7.66699 8.5 -15c0 -4 -1 -9 -3 -15l-100 -277h136c13.333 0 20 -6 20 -18zM358.999 494.001l-71 -196h219l72 196h-220z" />
    <glyph glyph-name="dollar" unicode="$" horiz-adv-x="706" 
d="M589 240c0 -24.667 -5.00293 -47.4912 -15.0029 -68.4912s-24 -39.5 -42 -55.5s-40 -29.333 -66 -40s-55 -17.667 -87 -21v-169c0 -22.667 -9 -34 -27 -34c-17.333 0 -26 11.333 -26 34v169c-18.667 1.33301 -39.834 5.66602 -63.501 12.999s-46 17.166 -67 29.499
s-39 27.5 -54 45.5s-23.167 38 -24.5 60c-0.666992 10.667 0.666016 19.334 3.99902 26.001s9.66602 10 18.999 10c8.66699 0 15.334 -2.33301 20.001 -7s7.66699 -13.667 9 -27c0.666992 -12.667 6.33398 -25 17.001 -37s24.5 -22.5 41.5 -31.5s36.167 -16.333 57.5 -22
s43.666 -8.5 66.999 -8.5c26.667 0 51.334 3.5 74.001 10.5s42.334 16.5 59.001 28.5s29.667 26.167 39 42.5s14 34.166 14 53.499c0 24.667 -5.33301 44.667 -16 60s-24.834 27.666 -42.501 36.999s-37.5 16.5 -59.5 21.5s-44 9.5 -66 13.5
c-25.333 4.66699 -50.666 10.167 -75.999 16.5s-48 15.666 -68 27.999s-36.167 28.5 -48.5 48.5s-18.5 46 -18.5 78c0 22 4.66699 43 14 63s22.333 37.833 39 53.5s36 28.667 58 39s46 17.166 72 20.499v70c0 22 8.66699 33 26 33c18 0 27 -11 27 -33v-70
c16 -1.33301 34.333 -5.33301 55 -12s40.5 -15.667 59.5 -27s35 -25.333 48 -42s19.5 -35.334 19.5 -56.001c0 -5.33301 -1.16699 -11 -3.5 -17s-7.5 -9 -15.5 -9s-15 2.33301 -21 7s-9.66699 11.667 -11 21c-1.33301 11.333 -6.66602 22.166 -15.999 32.499
s-21 19.333 -35 27s-30 13.834 -48 18.501s-36.667 7 -56 7c-22 0 -42.833 -3.5 -62.5 -10.5s-36.667 -16.333 -51 -28s-25.833 -25.5 -34.5 -41.5s-13 -33 -13 -51c0 -17.333 2.66699 -31.833 8 -43.5s14.5 -21.834 27.5 -30.501s30.667 -16.334 53 -23.001
s50.833 -13.334 85.5 -20.001c26.667 -5.33301 53.334 -11.5 80.001 -18.5s50.334 -17 71.001 -30s37.5 -30 50.5 -51s19.5 -48.5 19.5 -82.5z" />
    <glyph glyph-name="percent" unicode="%" horiz-adv-x="827" 
d="M400 610c0 -21.333 -4 -41.5 -12 -60.5s-19 -35.5 -33 -49.5s-30.333 -25.167 -49 -33.5s-38.667 -12.5 -60 -12.5s-41.333 4.16699 -60 12.5s-35 19.5 -49 33.5s-25 30.5 -33 49.5s-12 39.167 -12 60.5s4 41.5 12 60.5s19 35.5 33 49.5s30.333 25.167 49 33.5
s38.667 12.5 60 12.5s41.333 -4.16699 60 -12.5s35 -19.5 49 -33.5s25 -30.5 33 -49.5s12 -39.167 12 -60.5zM721 670c0 -5.33301 -3.33398 -11.332 -10.001 -17.999l-582 -579c-6 -6.66699 -12 -10 -18 -10c-4 0 -8 1.66699 -12 5s-6 7.66602 -6 12.999
c0 4.66699 3.33301 10.334 10 17.001l582 580c6.66699 6.66699 13.334 10 20.001 10c5.33301 0 9.33301 -1.83301 12 -5.5s4 -7.83398 4 -12.501zM733.999 141.001c0 -21.333 -4.16699 -41.5 -12.5 -60.5s-19.5 -35.5 -33.5 -49.5s-30.333 -25.167 -49 -33.5
s-38.667 -12.5 -60 -12.5s-41.333 4.16699 -60 12.5s-34.834 19.5 -48.501 33.5s-24.5 30.5 -32.5 49.5s-12 39.167 -12 60.5c0 22 4 42.5 12 61.5s18.833 35.5 32.5 49.5s29.834 25.167 48.501 33.5s38.667 12.5 60 12.5s41.5 -4.16699 60.5 -12.5s35.5 -19.5 49.5 -33.5
s25 -30.5 33 -49.5s12 -39.5 12 -61.5zM363.999 610.001c0 16.667 -3.16504 32.334 -9.49805 47.001s-14.833 27.334 -25.5 38.001s-23.167 19 -37.5 25s-29.5 9 -45.5 9s-31.167 -3 -45.5 -9s-26.833 -14.333 -37.5 -25s-19 -23.334 -25 -38.001s-9 -30.334 -9 -47.001
s3.16699 -32.167 9.5 -46.5s14.666 -26.833 24.999 -37.5s22.666 -19.167 36.999 -25.5s29.5 -9.5 45.5 -9.5s31.167 3.16699 45.5 9.5s26.833 14.833 37.5 25.5s19.167 23.167 25.5 37.5s9.5 29.833 9.5 46.5zM697.001 141.001c0 16.667 -2.99805 32.334 -8.99805 47.001
s-14.333 27.334 -25 38.001s-23.167 19.167 -37.5 25.5s-29.833 9.5 -46.5 9.5c-16 0 -31.167 -3.16699 -45.5 -9.5s-26.833 -14.833 -37.5 -25.5s-19 -23.334 -25 -38.001s-9 -30.334 -9 -47.001s3.16699 -32.167 9.5 -46.5s14.666 -26.833 24.999 -37.5
s22.666 -19.167 36.999 -25.5s29.5 -9.5 45.5 -9.5c16.667 0 32.167 3.16699 46.5 9.5s26.833 14.833 37.5 25.5s19 23.167 25 37.5s9 29.833 9 46.5z" />
    <glyph glyph-name="ampersand" unicode="&#x26;" horiz-adv-x="670" 
d="M578 10c0 -7.33301 -3.5 -13.332 -10.5 -17.999s-13.167 -7 -18.5 -7c-10 0 -18 4.66699 -24 14l-56 85c-23.333 -29.333 -49.666 -53.166 -78.999 -71.499s-63.333 -27.5 -102 -27.5c-26.667 0 -51.667 5 -75 15s-43.333 25.667 -60 47
c-17.333 21.333 -29.666 42.5 -36.999 63.5s-11 41.833 -11 62.5c0 40 13 78.833 39 116.5s62 73.5 108 107.5l-55 80c-16 24 -24 48.333 -24 73c0 18 4 35.167 12 51.5s18.667 30.666 32 42.999s29.166 22.166 47.499 29.499s37.833 11 58.5 11
c12.667 0 27.667 -2.5 45 -7.5s33.666 -11.167 48.999 -18.5s28.333 -15.5 39 -24.5s16 -17.5 16 -25.5c0 -7.33301 -2.33301 -13.333 -7 -18s-10.334 -7 -17.001 -7c-3.33301 0 -6.5 0.333008 -9.5 1s-6.16699 2 -9.5 4c-16 8.66699 -31.833 17.834 -47.5 27.501
s-33.5 14.5 -53.5 14.5c-30.667 0 -54.334 -8 -71.001 -24s-25 -34.667 -25 -56c0 -8.66699 1.33301 -17.334 4 -26.001s7.33398 -17.667 14.001 -27l217 -318c13.333 25.333 24.5 51 33.5 77s16.167 50.333 21.5 73c1.33301 7.33301 4.5 12.666 9.5 15.999s10.167 5 15.5 5
c7.33301 0 14 -2.33301 20 -7s9 -10.667 9 -18c0 -4 -0.666992 -7.33301 -2 -10c-6 -21.333 -14.167 -48.666 -24.5 -81.999s-26.166 -68 -47.499 -104l67 -99c6 -8 9 -15 9 -21zM282 354.001c-40 -25.333 -71.166 -52.832 -93.499 -82.499s-33.5 -60.167 -33.5 -91.5
c0 -16.667 3.66699 -33.5 11 -50.5s17.166 -32.5 29.499 -46.5s26.5 -25.333 42.5 -34s32.667 -13 50 -13c32 0 60 8.66699 84 26s45.667 39.666 65 66.999z" />
    <glyph glyph-name="quotesingle" unicode="'" horiz-adv-x="295" 
d="M170 551c-0.666992 -6 -1.5 -11.668 -2.5 -17.001s-5.16699 -8 -12.5 -8h-15c-7.33301 0 -11.333 2.66699 -12 8s-1.66699 11 -3 17l-20 260c0 8 3 12 9 12h67c3.33301 0 6 -0.666992 8 -2s2.66699 -4.66602 2 -9.99902z" />
    <glyph glyph-name="parenleft" unicode="(" horiz-adv-x="437" 
d="M320 -218c0 -7.33301 -2.5 -13.166 -7.5 -17.499s-10.833 -6.5 -17.5 -6.5c-8.66699 0 -15.667 3.66699 -21 11c-22 27.333 -42.5 60.833 -61.5 100.5s-35.5 81.167 -49.5 124.5s-25.167 86.666 -33.5 129.999s-12.5 82.666 -12.5 117.999c0 36.667 4 76.834 12 120.501
s19.167 87.334 33.5 131.001s31 85.334 50 125.001s39.5 74.167 61.5 103.5c3.33301 4.66699 7 7.66699 11 9s8.33301 2 13 2c6 0 11.167 -2.33301 15.5 -7s6.5 -10.667 6.5 -18c0 -2 -0.166992 -3.83301 -0.5 -5.5s-1.5 -4.16699 -3.5 -7.5
c-43.333 -80 -74.666 -158.333 -93.999 -235s-29 -149.334 -29 -218.001c0 -68 9.66699 -139.5 29 -214.5s50.666 -152.167 93.999 -231.5c2 -3.33301 3.16699 -5.83301 3.5 -7.5s0.5 -3.83398 0.5 -6.50098z" />
    <glyph glyph-name="parenright" unicode=")" horiz-adv-x="437" 
d="M320 242c0 -35.333 -4.16602 -74.666 -12.499 -117.999s-19.5 -86.666 -33.5 -129.999s-30.667 -84.833 -50 -124.5s-40 -73.167 -62 -100.5c-5.33301 -7.33301 -12.333 -11 -21 -11c-6 0 -11.5 2.16699 -16.5 6.5s-7.5 10.166 -7.5 17.499
c0 2.66699 0.166992 4.83398 0.5 6.50098s1.5 4.16699 3.5 7.5c43.333 79.333 74.666 156.5 93.999 231.5s29 146.5 29 214.5c0 68.667 -9.66699 141.334 -29 218.001s-50.666 155 -93.999 235c-2 3.33301 -3.16699 5.83301 -3.5 7.5s-0.5 3.5 -0.5 5.5
c0 7.33301 2.33301 13.333 7 18s10 7 16 7c4 0 7.83301 -0.666992 11.5 -2s7.16699 -4.33301 10.5 -9c22 -29.333 42.667 -63.833 62 -103.5s36.166 -81.334 50.499 -125.001s25.5 -87.334 33.5 -131.001s12 -83.834 12 -120.501z" />
    <glyph glyph-name="asterisk" unicode="*" horiz-adv-x="713" 
d="M597 550c0 -6 -3 -9.66895 -9 -11.002l-208 -47l140 -160c3.33301 -2 5 -5 5 -9c0 -1.33301 -1.66699 -3.66602 -5 -6.99902l-38 -28c-0.666992 -0.666992 -2.33398 -1 -5.00098 -1c-1.33301 0 -3.33301 0.333008 -6 1s-4.66699 2.33398 -6 5.00098l-108 183l-109 -183
c-2 -4 -5.66699 -6 -11 -6c-2 0 -4 0.333008 -6 1l-38 28c-2.66699 4 -4 6.33301 -4 7c0 3.33301 1.33301 6.33301 4 9l140 160l-208 47c-5.33301 1.33301 -8 5 -8 11v4l15 44c0.666992 4.66699 3.33398 7 8.00098 7c1.33301 0 3.33301 -0.666992 6 -2l197 -84l-21 213
c0 3.33301 1 6.33301 3 9s4.66699 4 8 4h47c3.33301 0 6 -1.33301 8 -4s3 -5.66699 3 -9l-21 -213l197 84c2.66699 1.33301 4.66699 2 6 2c5.33301 0 8.33301 -2.33301 9 -7l15 -44v-4z" />
    <glyph glyph-name="plus" unicode="+" horiz-adv-x="779" 
d="M699 349c0 -8 -2.66602 -14.5 -7.99902 -19.5s-14.333 -7.5 -27 -7.5h-248v-247c0 -12.667 -2.33301 -21.5 -7 -26.5s-11.334 -7.5 -20.001 -7.5c-8 0 -14.5 2.5 -19.5 7.5s-7.5 13.833 -7.5 26.5v247h-248c-12 0 -20.667 2.5 -26 7.5s-8 11.5 -8 19.5
s2.66699 14.5 8 19.5s14 7.5 26 7.5h248v249c0 12 2.5 20.667 7.5 26s11.5 8 19.5 8c18 0 27 -11.333 27 -34v-249h248c12.667 0 21.667 -2.5 27 -7.5s8 -11.5 8 -19.5z" />
    <glyph glyph-name="comma" unicode="," horiz-adv-x="397" 
d="M327 191c0 -4 -1.33301 -8.33301 -4 -13l-173 -360c-2 -3.33301 -3.5 -6 -4.5 -8s-2.83301 -3 -5.5 -3c-2 0 -4 0.333008 -6 1l-47 19c-5.33301 2 -8 5 -8 9c0 2 0.333008 4.33301 1 7l86 337c2 8 4.16699 13.167 6.5 15.5s7.83301 3.5 16.5 3.5h127
c7.33301 0 11 -2.66699 11 -8z" />
    <glyph glyph-name="hyphen" unicode="-" horiz-adv-x="779" 
d="M668 349c0 -8 -2.66699 -14.5 -8 -19.5s-14.666 -7.5 -27.999 -7.5h-487c-12 0 -20.667 2.5 -26 7.5s-8 11.5 -8 19.5s2.66699 14.5 8 19.5s14 7.5 26 7.5h487c13.333 0 22.666 -2.5 27.999 -7.5s8 -11.5 8 -19.5z" />
    <glyph glyph-name="period" unicode="." horiz-adv-x="385" 
d="M280 80c0 -24.667 -8.5 -45.667 -25.5 -63s-37.5 -26 -61.5 -26c-24.667 0 -45.5 8.66699 -62.5 26s-25.5 38 -25.5 62c0 24.667 8.5 45.5 25.5 62.5s37.5 25.5 61.5 25.5c24.667 0 45.5 -8.5 62.5 -25.5s25.5 -37.5 25.5 -61.5z" />
    <glyph glyph-name="slash" unicode="/" horiz-adv-x="1157" 
d="M1041 830c0 -5.33301 -1.49805 -10.165 -4.49805 -14.498s-6.16699 -8.16602 -9.5 -11.499l-858 -857c-4 -3.33301 -8 -6.33301 -12 -9s-8.66699 -4 -14 -4c-7.33301 0 -13.5 2.66699 -18.5 8s-7.5 11 -7.5 17c0 5.33301 1.33301 10.166 4 14.499
s5.66699 8.16602 9 11.499l859 858c3.33301 3.33301 7.16602 6.5 11.499 9.5s9.16602 4.5 14.499 4.5c6.66699 0 12.667 -2.83301 18 -8.5s8 -11.834 8 -18.501z" />
    <glyph glyph-name="zero" unicode="0" horiz-adv-x="664" 
d="M560 379c0 -26 -1.33301 -53.833 -4 -83.5s-7.33398 -59.334 -14.001 -89.001s-15.5 -58.167 -26.5 -85.5s-25 -51.333 -42 -72s-37.167 -37.334 -60.5 -50.001s-50.333 -19 -81 -19s-57.5 6.33301 -80.5 19s-43 29.334 -60 50.001s-31 44.667 -42 72
s-19.833 55.833 -26.5 85.5s-11.334 59.334 -14.001 89.001s-4 57.5 -4 83.5s1.33301 53.833 4 83.5s7.33398 59.167 14.001 88.5s15.5 57.666 26.5 84.999s25 51.5 42 72.5s37 37.667 60 50s49.833 18.5 80.5 18.5s57.667 -6.16699 81 -18.5s43.5 -29 60.5 -50
s31 -45.167 42 -72.5s19.833 -55.666 26.5 -84.999s11.334 -58.833 14.001 -88.5s4 -57.5 4 -83.5zM506 379c0 33.333 -3.00098 70 -9.00098 110s-15.833 77.333 -29.5 112s-31.667 63.667 -54 87s-49.5 35 -81.5 35s-59.167 -11.667 -81.5 -35s-40.166 -52.333 -53.499 -87
s-23 -72 -29 -112s-9 -76.667 -9 -110s3 -70.166 9 -110.499s15.833 -77.833 29.5 -112.5s31.5 -63.667 53.5 -87s49 -35 81 -35s59 11.667 81 35s39.833 52.333 53.5 87s23.667 72.167 30 112.5s9.5 77.166 9.5 110.499z" />
    <glyph glyph-name="one" unicode="1" horiz-adv-x="648" 
d="M544 27c0 -8 -2.66699 -14.501 -8 -19.501s-14.333 -7.5 -27 -7.5h-369c-12 0 -20.667 2.5 -26 7.5s-8 11.5 -8 19.5c0 18 11.333 27 34 27h160v670l-144 -39c-3.33301 -0.666992 -6.16602 -1.16699 -8.49902 -1.5s-4.5 -0.5 -6.5 -0.5
c-8.66699 0 -15.334 2.66699 -20.001 8s-7 12 -7 20c0 12.667 9.66699 21.334 29 26.001l165 45c3.33301 1.33301 6.33301 2.33301 9 3s5.66699 1 9 1c18 0 27 -11.333 27 -34v-698h156c23.333 0 35 -9 35 -27z" />
    <glyph glyph-name="two" unicode="2" horiz-adv-x="695" 
d="M590 27c0 -8.66699 -2.50293 -15.335 -7.50293 -20.002s-14.167 -7 -27.5 -7h-422c-2.66699 0 -6 0.166992 -10 0.5s-8 1.33301 -12 3s-7.5 4.33398 -10.5 8.00098s-4.5 8.83398 -4.5 15.501s3 13 9 19l345 366c30 32 52.167 59.833 66.5 83.5s21.5 47.5 21.5 71.5
c0 22.667 -5 44.167 -15 64.5s-23.5 38 -40.5 53s-36.667 27 -59 36s-46.166 13.5 -71.499 13.5c-30 0 -59.167 -7.16699 -87.5 -21.5s-51.833 -32.5 -70.5 -54.5l-30 -37c-8 -8.66699 -16.333 -13 -25 -13c-6 0 -12 2.66699 -18 8s-9 11 -9 17
c0 6.66699 4.33301 15.334 13 26.001l31 37c12 14 26 26.667 42 38s32.833 21 50.5 29s35.334 14 53.001 18s34.167 6 49.5 6c32 0 62.333 -6 91 -18s53.834 -28 75.501 -48s39 -43.333 52 -70s19.5 -54.334 19.5 -83.001c0 -30.667 -7.5 -60 -22.5 -88s-39.5 -60 -73.5 -96
l-305 -331h368c12.667 0 21.5 -2.33301 26.5 -7s7.5 -11 7.5 -19z" />
    <glyph glyph-name="three" unicode="3" horiz-adv-x="713" 
d="M609 214c0 -33.333 -6.83008 -64.1602 -20.4971 -92.4932s-32.167 -52.833 -55.5 -73.5s-51 -36.834 -83 -48.501s-66.333 -17.5 -103 -17.5c-18.667 0 -38.5 2 -59.5 6s-41.667 9.5 -62 16.5s-39.833 15.5 -58.5 25.5s-35 21 -49 33
c-3.33301 3.33301 -6.33301 7.16602 -9 11.499s-4 9.16602 -4 14.499c0 7.33301 2.66699 13.666 8 18.999s11.666 8 18.999 8c6 0 13.667 -3 23 -9c32 -23.333 63.667 -40.5 95 -51.5s64.333 -16.5 99 -16.5c28 0 54.333 4.33301 79 13s46.167 20.834 64.5 36.501
s32.833 34 43.5 55s16 43.833 16 68.5c0 22.667 -6 44.667 -18 66s-28 40.166 -48 56.499s-43.333 29.5 -70 39.5s-54.667 15 -84 15c-24 0 -36 9.33301 -36 28s11.667 28 35 28c22 0 44.5 1.66699 67.5 5s43.667 9.83301 62 19.5s33.5 23.167 45.5 40.5
s18 39.666 18 66.999c0 20 -4 39.333 -12 58s-19.333 35 -34 49s-31.834 25.333 -51.501 34s-41.167 13 -64.5 13c-20 0 -37.5 -1.16699 -52.5 -3.5s-29 -5.83301 -42 -10.5s-25.833 -10.5 -38.5 -17.5s-26.667 -15.167 -42 -24.5c-8.66699 -4.66699 -16 -7 -22 -7
s-11.833 2.66699 -17.5 8s-8.5 11.666 -8.5 18.999c0 9.33301 7.33301 18.333 22 27c20.667 12 38.834 22 54.501 30s31 14.667 46 20s30.667 9.16602 47 11.499s36.166 3.5 59.499 3.5c29.333 0 57 -5.83301 83 -17.5s48.667 -27.167 68 -46.5
s34.666 -41.666 45.999 -66.999s17 -51.333 17 -78c0 -36 -9.83301 -68.333 -29.5 -97s-47.167 -51.667 -82.5 -69c42.667 -20.667 76.5 -48.834 101.5 -84.501s37.5 -73.5 37.5 -113.5z" />
    <glyph glyph-name="four" unicode="4" horiz-adv-x="706" 
d="M601 231c0 -8 -2.50098 -14.4971 -7.50098 -19.4971s-13.833 -7.5 -26.5 -7.5h-77v-170c0 -12 -2.66699 -20.667 -8 -26s-12 -8 -20 -8c-18 0 -27 11.333 -27 34v170h-295c-10.667 0 -19.167 2 -25.5 6s-9.5 12 -9.5 24c0 8 2.33301 16.667 7 26l285 492
c8.66699 14.667 17.334 22 26.001 22c1.33301 0 3.5 -0.333008 6.5 -1s6.16699 -1.33398 9.5 -2.00098l31 -5c5.33301 -0.666992 10 -3.83398 14 -9.50098s6 -13.5 6 -23.5v-475h76c13.333 0 22.5 -2.33301 27.5 -7s7.5 -11.334 7.5 -20.001zM434.999 710.003l-260 -452h260
v452z" />
    <glyph glyph-name="five" unicode="5" horiz-adv-x="688" 
d="M583 252c0 -42 -6.33984 -79.6709 -19.0068 -113.004s-30.5 -61.666 -53.5 -84.999s-50.667 -41.166 -83 -53.499s-67.833 -18.5 -106.5 -18.5c-37.333 0 -70.666 3.83301 -99.999 11.5s-60.666 18.167 -93.999 31.5c-16.667 6.66699 -25 15.667 -25 27
c0 8 2.5 14.5 7.5 19.5s11.167 7.5 18.5 7.5c3.33301 0 6.33301 -0.333008 9 -1s5.66699 -1.66699 9 -3c29.333 -11.333 56.833 -21 82.5 -29s54.834 -12 87.501 -12c64.667 0 116.5 18.667 155.5 56s58.5 91 58.5 161c0 28 -4.5 53.167 -13.5 75.5s-21.667 41.5 -38 57.5
s-35.666 28.167 -57.999 36.5s-46.833 12.5 -73.5 12.5s-54 -3.83301 -82 -11.5s-55.333 -18.167 -82 -31.5c-7.33301 -3.33301 -12.666 -5.83301 -15.999 -7.5s-7.33301 -2.5 -12 -2.5c-15.333 0 -23 9.33301 -23 28v341c0 8.66699 2.5 15.334 7.5 20.001s13.833 7 26.5 7
h330c22.667 0 34 -9 34 -27c0 -8 -2.66699 -14.5 -8 -19.5s-14 -7.5 -26 -7.5h-313v-276c33.333 14.667 62.833 24.834 88.5 30.501s52.834 8.5 81.501 8.5c32.667 0 63 -5.66699 91 -17s52.333 -27.333 73 -48s36.834 -45.167 48.501 -73.5s17.5 -59.833 17.5 -94.5z" />
    <glyph glyph-name="six" unicode="6" horiz-adv-x="659" 
d="M555 236c0 -33.333 -5.50195 -65.334 -16.502 -96.001s-26 -57.667 -45 -81s-41 -42 -66 -56s-51.833 -21 -80.5 -21c-51.333 0 -92.666 12.833 -123.999 38.5s-55.833 58 -73.5 97s-29.5 81.5 -35.5 127.5s-9 89.333 -9 130c0 58 8.66699 112 26 162
s41.833 93.5 73.5 130.5s69.334 66 113.001 87s91.5 31.5 143.5 31.5h48c12.667 0 21.667 -2.5 27 -7.5s8 -11.5 8 -19.5c0 -18 -11.667 -27 -35 -27h-48c-38 0 -75 -7.83301 -111 -23.5s-68 -37.834 -96 -66.501s-50.5 -63 -67.5 -103s-25.5 -84 -25.5 -132v-71
c8 18.667 18.333 36.667 31 54s27 32.333 43 45s33.5 22.834 52.5 30.501s39.167 11.5 60.5 11.5c28 0 54.5 -6.66699 79.5 -20s47 -31.166 66 -53.499s34 -48 45 -77s16.5 -59.167 16.5 -90.5zM500.998 228.999c0 25.333 -4.16699 49.666 -12.5 72.999s-19.833 44 -34.5 62
s-31.5 32.333 -50.5 43s-39.167 16 -60.5 16s-41.833 -5.33301 -61.5 -16s-36.834 -25 -51.501 -43s-26.334 -38.667 -35.001 -62s-13 -47.666 -13 -72.999s4.33301 -49.666 13 -72.999s20.334 -43.833 35.001 -61.5s31.834 -31.834 51.501 -42.501s40.167 -16 61.5 -16
s41.5 5.33301 60.5 16s35.833 24.834 50.5 42.501s26.167 38.167 34.5 61.5s12.5 47.666 12.5 72.999z" />
    <glyph glyph-name="seven" unicode="7" horiz-adv-x="672" 
d="M567 750c0 -9.33301 -0.831055 -18.1689 -2.49805 -26.502s-3.83398 -17.166 -6.50098 -26.499l-214 -682c-5.33301 -17.333 -14.333 -26 -27 -26c-8 0 -14.5 2.33301 -19.5 7s-7.5 11.334 -7.5 20.001c0 2.66699 0.166992 5.16699 0.5 7.5
s1.16602 5.16602 2.49902 8.49902l217 691h-371c-12.667 0 -21.5 2.33301 -26.5 7s-7.5 11.334 -7.5 20.001c0 8 2.5 14.5 7.5 19.5s13.833 7.5 26.5 7.5h392c24 0 36 -9 36 -27z" />
    <glyph glyph-name="eight" unicode="8" horiz-adv-x="679" 
d="M574 209c0 -31.333 -6.16602 -60.833 -18.499 -88.5s-29.166 -52 -50.499 -73s-46.333 -37.5 -75 -49.5s-59.334 -18 -92.001 -18c-32 0 -62.167 6 -90.5 18s-53 28.5 -74 49.5s-37.667 45.333 -50 73s-18.5 57.167 -18.5 88.5c0 40 11.167 76.5 33.5 109.5
s54.5 60.167 96.5 81.5c-40.667 22.667 -70.5 48 -89.5 76s-28.5 61.333 -28.5 100c0 28.667 6 55.667 18 81s28 47.5 48 66.5s43.333 34.167 70 45.5s55 17 85 17c30.667 0 59.5 -5.66699 86.5 -17s50.667 -26.5 71 -45.5s36.333 -41.167 48 -66.5s17.5 -52.333 17.5 -81
c0 -38.667 -9.33301 -72 -28 -100s-48.334 -53.333 -89.001 -76c41.333 -21.333 73.333 -48.5 96 -81.5s34 -69.5 34 -109.5zM507.001 576c0 21.333 -4.33203 41.5 -12.999 60.5s-20.667 35.5 -36 49.5s-33.333 25.167 -54 33.5s-42.667 12.5 -66 12.5
s-45 -4.16699 -65 -12.5s-37.5 -19.5 -52.5 -33.5s-26.833 -30.5 -35.5 -49.5s-13 -39.167 -13 -60.5s4.16699 -41 12.5 -59s20 -33.833 35 -47.5s32.667 -24.334 53 -32.001s42.166 -11.5 65.499 -11.5c24 0 46.333 3.83301 67 11.5s38.5 18.334 53.5 32.001
s26.833 29.5 35.5 47.5s13 37.667 13 59zM520.002 205c0 23.333 -4.66406 45.166 -13.9971 65.499s-22 38 -38 53s-35.167 26.667 -57.5 35s-46.5 12.5 -72.5 12.5c-25.333 0 -49 -4.16699 -71 -12.5s-41 -20 -57 -35s-28.5 -32.667 -37.5 -53s-13.5 -42.166 -13.5 -65.499
s4.66699 -45.5 14 -66.5s22.166 -39.167 38.499 -54.5s35.333 -27.5 57 -36.5s44.834 -13.5 69.501 -13.5c25.333 0 49.166 4.5 71.499 13.5s41.666 21.167 57.999 36.5s29.166 33.5 38.499 54.5s14 43.167 14 66.5z" />
    <glyph glyph-name="nine" unicode="9" horiz-adv-x="659" 
d="M555 394c0 -57.333 -8.49902 -110.833 -25.499 -160.5s-41 -93 -72 -130s-68 -66.167 -111 -87.5s-90.167 -32 -141.5 -32h-55c-22.667 0 -34 9 -34 27c0 8 2.5 14.333 7.5 19s13.833 7 26.5 7h48c36.667 0 73 7.5 109 22.5s68.167 36.167 96.5 63.5
s51.166 60.333 68.499 99s26 81.667 26 129v82c-8 -19.333 -18.333 -37.5 -31 -54.5s-27 -31.833 -43 -44.5s-33.667 -22.834 -53 -30.501s-39.333 -11.5 -60 -11.5c-28 0 -54.5 6.66699 -79.5 20s-46.833 31.166 -65.5 53.499s-33.5 48 -44.5 77s-16.5 59.167 -16.5 90.5
c0 32.667 5.5 64.334 16.5 95.001s25.833 57.834 44.5 81.501s40.5 42.5 65.5 56.5s51.833 21 80.5 21c34 0 63.667 -5.83301 89 -17.5s47 -27.5 65 -47.5s32.833 -43.333 44.5 -70s20.667 -54.5 27 -83.5s10.833 -58.5 13.5 -88.5s4 -58.667 4 -86zM477.001 540
c0 25.333 -4.33301 49.666 -13 72.999s-20.334 43.833 -35.001 61.5s-31.834 31.834 -51.501 42.501s-40.167 16 -61.5 16s-41.5 -5.33301 -60.5 -16s-35.667 -24.834 -50 -42.501s-25.666 -38.167 -33.999 -61.5s-12.5 -47.666 -12.5 -72.999s4.16699 -49.666 12.5 -72.999
s19.666 -44 33.999 -62s31 -32.333 50 -43s39.167 -16 60.5 -16s41.833 5.33301 61.5 16s36.834 25 51.501 43s26.334 38.667 35.001 62s13 47.666 13 72.999z" />
    <glyph glyph-name="colon" unicode=":" horiz-adv-x="385" 
d="M280 481c0 -24.667 -8.5 -45.667 -25.5 -63s-37.5 -26 -61.5 -26c-24.667 0 -45.5 8.66699 -62.5 26s-25.5 38 -25.5 62c0 24.667 8.5 45.5 25.5 62.5s37.5 25.5 61.5 25.5c24.667 0 45.5 -8.5 62.5 -25.5s25.5 -37.5 25.5 -61.5zM280 80
c0 -24.667 -8.5 -45.667 -25.5 -63s-37.5 -26 -61.5 -26c-24.667 0 -45.5 8.66699 -62.5 26s-25.5 38 -25.5 62c0 24.667 8.5 45.5 25.5 62.5s37.5 25.5 61.5 25.5c24.667 0 45.5 -8.5 62.5 -25.5s25.5 -37.5 25.5 -61.5z" />
    <glyph glyph-name="semicolon" unicode=";" horiz-adv-x="424" 
d="M320 481c0 -24.667 -8.66699 -45.667 -26 -63s-38.333 -26 -63 -26c-24 0 -44.5 8.66699 -61.5 26s-25.5 38 -25.5 62c0 24.667 8.5 45.5 25.5 62.5s37.5 25.5 61.5 25.5c24.667 0 45.667 -8.5 63 -25.5s26 -37.5 26 -61.5zM321 191c0 -4 -1.33301 -8.33398 -4 -13.001
l-173 -360c-2 -3.33301 -3.5 -6.16602 -4.5 -8.49902s-2.83301 -3.16602 -5.5 -2.49902c-0.666992 -0.666992 -2.66699 -0.333984 -6 0.999023l-47 19c-5.33301 2 -8 5 -8 9c0 2 0.333008 4.33301 1 7l86 337c2 8 4.16699 13.167 6.5 15.5s7.83301 3.5 16.5 3.5h127
c7.33301 0 11 -2.66699 11 -8z" />
    <glyph glyph-name="less" unicode="&#x3c;" horiz-adv-x="776" 
d="M673 620c0 -10 -8.00098 -18.999 -24.001 -26.999l-471 -239l471 -238c15.333 -8 23 -16.667 23 -26c0 -7.33301 -2.33301 -13.833 -7 -19.5s-10.667 -8.5 -18 -8.5c-6.66699 0 -14 2 -22 6l-509 258c-9.33301 4.66699 -15.666 9.66699 -18.999 15s-5 10 -5 14
c0 3.33301 1.33301 7.5 4 12.5s8.66699 10.167 18 15.5l512 258c8.66699 4 15.667 6 21 6c7.33301 0 13.5 -2.83301 18.5 -8.5s7.5 -11.834 7.5 -18.501z" />
    <glyph glyph-name="equal" unicode="=" horiz-adv-x="774" 
d="M694 472c0 -18 -11.667 -27 -35 -27h-545c-22.667 0 -34 9 -34 27c0 8 2.66699 14.5 8 19.5s14 7.5 26 7.5h545c12.667 0 21.667 -2.5 27 -7.5s8 -11.5 8 -19.5zM694 236c0 -18 -11.667 -27 -35 -27h-545c-22.667 0 -34 9 -34 27c0 8 2.66699 14.5 8 19.5s14 7.5 26 7.5
h545c12.667 0 21.667 -2.5 27 -7.5s8 -11.5 8 -19.5z" />
    <glyph glyph-name="greater" unicode="&#x3e;" horiz-adv-x="776" 
d="M685 355c0 -4 -1.66602 -8.66699 -4.99902 -14s-9.33301 -10.333 -18 -15l-511 -258c-8 -4 -15 -6 -21 -6c-6.66699 0 -12.334 2.66699 -17.001 8s-7 11.666 -7 18.999c0 10.667 7.33301 19.667 22 27l470 238l-470 239c-15.333 7.33301 -23 16.333 -23 27
c0 6.66699 2.5 12.834 7.5 18.501s10.833 8.5 17.5 8.5c6 0 13 -2 21 -6l511 -258c9.33301 -5.33301 15.5 -10.5 18.5 -15.5s4.5 -9.16699 4.5 -12.5z" />
    <glyph glyph-name="question" unicode="?" horiz-adv-x="622" 
d="M530 536c0 -26.667 -6.16699 -50.666 -18.5 -71.999s-28 -40 -47 -56s-40.5 -29.5 -64.5 -40.5s-47.333 -19.833 -70 -26.5v-73c0 -11.333 -2 -20.166 -6 -26.499s-10.667 -9.5 -20 -9.5c-18.667 0 -28 12 -28 36v95c0 5.33301 1.66699 9.5 5 12.5s7.33301 5.5 12 7.5
c18 6.66699 37.5 14.5 58.5 23.5s40.833 19.667 59.5 32s34.167 26.5 46.5 42.5s18.5 34.333 18.5 55c0 21.333 -4.33301 41.666 -13 60.999s-20.334 36.5 -35.001 51.5s-32 26.833 -52 35.5s-41.333 13 -64 13c-13.333 0 -27.666 -1.66699 -42.999 -5s-30.5 -8 -45.5 -14
s-29.167 -13.167 -42.5 -21.5s-24.333 -17.5 -33 -27.5c-9.33301 -10 -18.333 -15 -27 -15c-7.33301 0 -14 2.66699 -20 8s-9 11.666 -9 18.999c0 8.66699 4.66699 17.667 14 27c28 28 60 49.167 96 63.5s74 21.5 114 21.5c30.667 0 59.167 -5.66699 85.5 -17
s49 -26.833 68 -46.5s33.833 -42.667 44.5 -69s16 -54.5 16 -84.5zM401 68.001c0 -25.333 -9.33301 -44.499 -28 -57.499s-41.667 -19.5 -69 -19.5s-50.333 6.5 -69 19.5s-28 32.167 -28 57.5c0 24 9.33301 42.5 28 55.5s41.667 19.5 69 19.5s50.333 -6.33301 69 -19
s28 -31.334 28 -56.001z" />
    <glyph glyph-name="at" unicode="@" horiz-adv-x="631" 
d="M502 237c0 -15.333 -7.99707 -22.9951 -23.9971 -22.9951c-14.667 0 -22 10 -22 30c-24 -10.667 -44 -18.334 -60 -23.001s-31.667 -7 -47 -7c-20 0 -37.833 4.16699 -53.5 12.5s-28.667 19.666 -39 33.999s-18.333 30.833 -24 49.5s-8.5 38 -8.5 58
c0 33.333 5.16699 61.5 15.5 84.5s25.333 41.667 45 56s43.834 24.666 72.501 30.999s61.334 9.5 98.001 9.5v34c0 20.667 -1.66699 42.667 -5 66s-9.83301 44.833 -19.5 64.5s-22.834 36 -39.501 49s-38.334 19.5 -65.001 19.5s-50 -7 -70 -21s-36.833 -32.167 -50.5 -54.5
s-24.834 -47.5 -33.501 -75.5s-15.334 -56.333 -20.001 -85s-7.83398 -56 -9.50098 -82s-2.5 -48.333 -2.5 -67c0 -23.333 0.833008 -50 2.5 -80s5.33398 -60.333 11.001 -91s13.5 -60.834 23.5 -90.501s23.167 -56.167 39.5 -79.5s36.333 -42 60 -56s52.167 -21 85.5 -21
c12 0 23 1.33301 33 4s19.5 5.5 28.5 8.5l26 8.5c8.33301 2.66699 17.166 4 26.499 4c1.33301 0 3.16602 -1.16699 5.49902 -3.5s3.5 -5.83301 3.5 -10.5c0 -12 -5.16699 -21.667 -15.5 -29s-22.5 -12.833 -36.5 -16.5s-28.333 -6 -43 -7s-26.334 -1.5 -35.001 -1.5
c-36 0 -67.667 6.66699 -95 20s-50.666 31.166 -69.999 53.499s-35.333 48.5 -48 78.5s-22.667 61.5 -30 94.5s-12.5 66.667 -15.5 101s-4.5 67.5 -4.5 99.5c0 28.667 1.16699 59.5 3.5 92.5s6.83301 65.667 13.5 98s15.667 63.5 27 93.5s25.833 56.5 43.5 79.5
s38.834 41.333 63.501 55s54 20.5 88 20.5c60 0 103.5 -22 130.5 -66s40.5 -116 40.5 -216v-303zM455.003 515.005c-27.333 0 -52.3311 -1.83105 -74.998 -5.49805s-42.334 -10.834 -59.001 -21.501s-29.667 -25.334 -39 -44.001s-14 -43 -14 -73
c0 -15.333 2 -30.166 6 -44.499s10.333 -27 19 -38s19.667 -19.667 33 -26s29.333 -9.5 48 -9.5c11.333 0 24.166 2.16699 38.499 6.5s28.5 9.16602 42.5 14.499v241z" />
    <glyph glyph-name="A" unicode="A" horiz-adv-x="728" 
d="M672 12c0 -4 -2.33203 -9.00098 -6.99902 -15.001s-12 -9 -22 -9c-9.33301 0 -16 4.66699 -20 14l-12 28l-78 202h-337l-79 -202c-3.33301 -9.33301 -7 -18.666 -11 -27.999s-10.667 -14 -20 -14c-10 0 -17.167 3 -21.5 9s-6.5 11 -6.5 15c0 5.33301 1.5 11.5 4.5 18.5
l8.5 19.5l249 647c5.33301 12.667 10.666 22 15.999 28s14.666 9 27.999 9c12.667 0 21.834 -2.83301 27.501 -8.5s11.167 -15.167 16.5 -28.5l250 -647l9 -19.5c3.33301 -7 5 -13.167 5 -18.5zM364.001 672.999l-152 -396h303z" />
    <glyph glyph-name="B" unicode="B" horiz-adv-x="723" 
d="M643 194c0 -27.333 -5.16699 -52.834 -15.5 -76.501s-24.833 -44.167 -43.5 -61.5s-40.5 -31 -65.5 -41s-51.833 -15 -80.5 -15h-274c-23.333 0 -35 8.66699 -35 26v662c0 16 11.667 24 35 24h215c30 0 57.833 -4.5 83.5 -13.5s48 -21.5 67 -37.5
s33.833 -34.833 44.5 -56.5s16 -45.167 16 -70.5c0 -34 -7.66699 -64.667 -23 -92s-40.333 -51 -75 -71c49.333 -17.333 86.833 -41.166 112.5 -71.499s38.5 -65.5 38.5 -105.5zM540 530.999c0 18.667 -4.16699 35.6689 -12.5 51.002s-19.666 28.666 -33.999 39.999
s-31.333 20.166 -51 26.499s-40.834 9.5 -63.501 9.5h-196v-267h175c26.667 0 51.167 3.66699 73.5 11s41.5 17.5 57.5 30.5s28.5 27.833 37.5 44.5s13.5 34.667 13.5 54zM593 196.001c0 29.333 -7.66699 53.333 -23 72s-34.666 33.167 -57.999 43.5s-48.5 17.333 -75.5 21
s-51.833 5.5 -74.5 5.5h-179v-284h251c22.667 0 43.667 3.5 63 10.5s36.166 16.833 50.499 29.5s25.5 27.667 33.5 45s12 36.333 12 57z" />
    <glyph glyph-name="C" unicode="C" horiz-adv-x="781" 
d="M689 135c0 -12.667 -15.9971 -34 -47.9971 -64c-30 -28.667 -63.5 -50.5 -100.5 -65.5s-74.833 -22.5 -113.5 -22.5c-55.333 0 -104.5 9.66699 -147.5 29s-79.167 46 -108.5 80s-51.833 73.667 -67.5 119s-23.5 94 -23.5 146s6.66699 101 20 147s33.333 86 60 120
s60 60.833 100 80.5s87 29.5 141 29.5c38.667 0 76.5 -7.33301 113.5 -22s70.5 -36.667 100.5 -66c32 -30 48 -51.333 48 -64c0 -7.33301 -2.5 -13.5 -7.5 -18.5s-11.167 -7.5 -18.5 -7.5c-9.33301 0 -17.333 4 -24 12c-30 35.333 -61.167 63.5 -93.5 84.5
s-69.5 31.5 -111.5 31.5c-46.667 0 -87.5 -8.66699 -122.5 -26s-64 -40.833 -87 -70.5s-40.167 -64.334 -51.5 -104.001s-17 -81.834 -17 -126.501c0 -45.333 6.66699 -87.666 20 -126.999s32.833 -73.666 58.5 -102.999s57.167 -52.333 94.5 -69s80 -25 128 -25
c43.333 0 81.166 10.5 113.499 31.5s63.166 49.167 92.499 84.5c8 8 16.333 12 25 12c7.33301 0 13.666 -2.5 18.999 -7.5s8 -11.167 8 -18.5z" />
    <glyph glyph-name="D" unicode="D" horiz-adv-x="752" 
d="M673 355c0 -61.333 -8.66895 -114.166 -26.002 -158.499s-42.166 -81.166 -74.499 -110.499s-71.666 -51 -117.999 -65s-98.5 -21 -156.5 -21h-147c-7.33301 0 -12.833 1.83301 -16.5 5.5s-5.5 11.167 -5.5 22.5v656c0 11.333 1.83301 18.833 5.5 22.5
s9.16699 5.5 16.5 5.5h196c52.667 0 99.334 -8.83301 140.001 -26.5s74.667 -42.334 102 -74.001s48.166 -69.334 62.499 -113.001s21.5 -91.5 21.5 -143.5zM618.998 355c0 44.667 -5.49902 85.667 -16.499 123s-27.833 69.333 -50.5 96s-50.834 47.334 -84.501 62.001
s-73.5 22 -119.5 22h-165v-604h120c50.667 0 95.667 5.66699 135 17s72.5 29.166 99.5 53.499s47.333 55.5 61 93.5s20.5 83.667 20.5 137z" />
    <glyph glyph-name="E" unicode="E" horiz-adv-x="695" 
d="M615 27c0 -8 -2.66699 -14.5 -8 -19.5s-14.666 -7.5 -27.999 -7.5h-430c-6 0 -10.833 1.66699 -14.5 5s-5.5 11 -5.5 23v656c0 12 1.83301 19.667 5.5 23s8.5 5 14.5 5h430c13.333 0 22.666 -2.5 27.999 -7.5s8 -11.5 8 -19.5s-2.66699 -14.5 -8 -19.5
s-14.666 -7.5 -27.999 -7.5h-396v-242h214c13.333 0 22.666 -2.5 27.999 -7.5s8 -11.5 8 -19.5c0 -9.33301 -2.66699 -16.166 -8 -20.499s-14.666 -6.5 -27.999 -6.5h-212v-308h394c13.333 0 22.666 -2.33301 27.999 -7s8 -11.334 8 -20.001z" />
    <glyph glyph-name="F" unicode="F" horiz-adv-x="663" 
d="M571 686c0 -18.667 -11.666 -27.999 -34.999 -27.999h-353v-242h216c12 0 20.667 -2.5 26 -7.5s8 -11.5 8 -19.5c0 -18 -11.333 -27 -34 -27h-216v-341c0 -12.667 -2.5 -21.834 -7.5 -27.501s-11.5 -8.5 -19.5 -8.5s-14.5 2.66699 -19.5 8s-7.5 14.333 -7.5 27v664
c0 11.333 1.83301 18.833 5.5 22.5s9.16699 5.5 16.5 5.5h384c13.333 0 22.666 -2 27.999 -6s8 -10.667 8 -20z" />
    <glyph glyph-name="G" unicode="G" horiz-adv-x="809" 
d="M694 64c0 -9.33301 -0.996094 -16.5 -2.99609 -21.5s-7.33301 -10.167 -16 -15.5c-14.667 -8 -31.167 -15 -49.5 -21s-37.5 -10.667 -57.5 -14s-40.167 -5.83301 -60.5 -7.5s-39.5 -2.5 -57.5 -2.5c-55.333 0 -105 9 -149 27s-81.5 43.167 -112.5 75.5
s-54.833 71.166 -71.5 116.499s-25 95.666 -25 150.999c0 52 7.83301 101 23.5 147s38.167 86.333 67.5 121s65.166 62 107.499 82s90.166 30 143.499 30c20 0 40.667 -2.16699 62 -6.5s42.166 -10.333 62.499 -18s39.833 -17 58.5 -28s35.334 -23.5 50.001 -37.5
c5.33301 -5.33301 9 -10 11 -14s3 -8 3 -12c0 -6.66699 -2.83301 -12.667 -8.5 -18s-11.167 -8 -16.5 -8c-8 0 -16.667 4.33301 -26 13c-24.667 22.667 -54.834 40.834 -90.501 54.501s-70.5 20.5 -104.5 20.5c-45.333 0 -85.833 -8.83301 -121.5 -26.5
s-65.834 -41.667 -90.501 -72s-43.667 -65.333 -57 -105s-20 -81.5 -20 -125.5c0 -46 7 -88.333 21 -127s34 -71.667 60 -99s57.667 -48.666 95 -63.999s79.333 -23 126 -23c15.333 0 31.5 0.666992 48.5 2s34 3.5 51 6.5s33.5 6.83301 49.5 11.5s30.333 10.667 43 18v186
h-162c-12 0 -20.667 2.5 -26 7.5s-8 11.5 -8 19.5c0 18 11.333 27 34 27h197c12.667 0 19 -6.66699 19 -20v-230z" />
    <glyph glyph-name="H" unicode="H" horiz-adv-x="716" 
d="M587 21c0 -24 -9 -36 -27 -36c-8 0 -14.5 2.66699 -19.5 8s-7.5 14.666 -7.5 27.999v327h-350v-327c0 -13.333 -2.33301 -22.666 -7 -27.999s-11.334 -8 -20.001 -8c-7.33301 0 -13.666 2.33301 -18.999 7s-8 12 -8 22v682c0 13.333 2.33301 22.666 7 27.999
s11.334 8 20.001 8c8 0 14.5 -2.66699 19.5 -8s7.5 -14.666 7.5 -27.999v-293h350v293c0 13.333 2.16699 22.666 6.5 27.999s11.166 8 20.499 8c8 0 14.5 -2.66699 19.5 -8s7.5 -14.666 7.5 -27.999v-675z" />
    <glyph glyph-name="I" unicode="I" horiz-adv-x="727" 
d="M610 27c0 -8.66699 -2.66699 -15.332 -8 -19.999s-14.666 -7 -27.999 -7h-423c-22.667 0 -34 9 -34 27c0 8 2.66699 14.5 8 19.5s14 7.5 26 7.5h186v604h-186c-22.667 0 -34 9 -34 27c0 8 2.66699 14.5 8 19.5s14 7.5 26 7.5h423c13.333 0 22.666 -2.5 27.999 -7.5
s8 -11.5 8 -19.5c0 -8.66699 -2.66699 -15.334 -8 -20.001s-14.666 -7 -27.999 -7h-184v-604h184c13.333 0 22.666 -2.5 27.999 -7.5s8 -11.5 8 -19.5z" />
    <glyph glyph-name="J" unicode="J" horiz-adv-x="673" 
d="M556 235c0 -44 -4.16406 -81.8311 -12.4971 -113.498s-21.833 -57.834 -40.5 -78.501s-43 -35.834 -73 -45.501s-67 -14.5 -111 -14.5c-44.667 0 -82.334 4.83301 -113.001 14.5s-55.334 24.667 -74.001 45s-32 46.333 -40 78s-12 69.5 -12 113.5v7
c0 13.333 2.5 22.666 7.5 27.999s11.5 8 19.5 8c8.66699 0 15.334 -2.66699 20.001 -8s7 -14.666 7 -27.999v-7c0 -38 2.5 -69.667 7.5 -95s14.333 -45.5 28 -60.5s32.5 -25.667 56.5 -32s55 -9.5 93 -9.5c34 0 62.667 3.83301 86 11.5s42.166 19.667 56.499 36
s24.666 37 30.999 62s9.5 54.833 9.5 89.5v464c0 22.667 9 34 27 34c8 0 14.5 -2.66699 19.5 -8s7.5 -14 7.5 -26v-465z" />
    <glyph glyph-name="K" unicode="K" horiz-adv-x="692" 
d="M613 10c0 -7.33301 -2.99805 -13.5 -8.99805 -18.5s-12.667 -7.5 -20 -7.5c-8 0 -16 7.33301 -24 22l-32.5 61.5c-11.667 23 -24.334 46.5 -38.001 70.5s-28.334 48 -44.001 72s-32.667 45.833 -51 65.5s-37.5 36.5 -57.5 50.5s-41.333 23.333 -64 28l-90 -91v-242
c0 -13.333 -2.33301 -22.666 -7 -27.999s-11.334 -8 -20.001 -8c-8 0 -14.5 2.66699 -19.5 8s-7.5 14.666 -7.5 27.999v679c0 22.667 9 34 27 34c8 0 14.5 -2.66699 19.5 -8s7.5 -14 7.5 -26v-359l375 381c9.33301 9.33301 18.333 14 27 14
c6.66699 0 12.667 -2.83301 18 -8.5s8 -11.5 8 -17.5c0 -4 -0.833008 -8 -2.5 -12s-5.16699 -8.66699 -10.5 -14l-287 -290c36.667 -8 69.667 -25.833 99 -53.5s55.833 -59.334 79.5 -95.001s44.834 -72.667 63.501 -111l52 -102.5c5.33301 -9.33301 8 -16.666 8 -21.999z
" />
    <glyph glyph-name="L" unicode="L" horiz-adv-x="686" 
d="M613 27c0 -8 -2.66699 -14.5 -8 -19.5s-14.333 -7.5 -27 -7.5h-427c-6.66699 -0 -12 1.83301 -16 5.5s-6 11.167 -6 22.5v669c0 12.667 2.5 21.667 7.5 27s11.5 8 19.5 8s14.5 -2.66699 19.5 -8s7.5 -14.333 7.5 -27v-643h395c23.333 0 35 -9 35 -27z" />
    <glyph glyph-name="M" unicode="M" horiz-adv-x="792" 
d="M675 22c1.33301 -13.333 -0.333008 -22.667 -5 -28s-11.667 -8 -21 -8c-8 0 -14.167 2.33301 -18.5 7s-7.16602 13.667 -8.49902 27l-19 647l-159 -411c-4.66699 -12 -10.334 -20.167 -17.001 -24.5s-17 -6.5 -31 -6.5c-13.333 0 -23.333 2.16699 -30 6.5
s-12.334 12.5 -17.001 24.5l-158 411l-20 -647c-0.666992 -22.667 -9.33398 -34 -26.001 -34c-8.66699 0 -15.667 2.5 -21 7.5s-7.66602 14.5 -6.99902 28.5l20 663c0.666992 19.333 6.33398 31.833 17.001 37.5s21 8.5 31 8.5c15.333 0 26.5 -2.33301 33.5 -7
s12.5 -12.334 16.5 -23.001l161 -417l161 417c4 10.667 9.83301 18.334 17.5 23.001s19.167 7 34.5 7c10 0 20.167 -3 30.5 -9s15.833 -18.333 16.5 -37z" />
    <glyph glyph-name="N" unicode="N" horiz-adv-x="747" 
d="M617 11c0 -8 -3.50098 -14.5 -10.501 -19.5s-15.167 -7.5 -24.5 -7.5c-12.667 0 -22.167 2 -28.5 6s-13.166 12.333 -20.499 25l-350 633v-630c0 -23.333 -9 -35 -27 -35c-8 0 -14.5 2.83301 -19.5 8.5s-7.5 14.5 -7.5 26.5v688c0 8 3.5 14.5 10.5 19.5
s15.833 7.5 26.5 7.5c12.667 0 22 -2 28 -6s12.667 -12.333 20 -25l349 -631v629c0 12 2.5 20.667 7.5 26s11.5 8 19.5 8c18 0 27 -11.333 27 -34v-689z" />
    <glyph glyph-name="O" unicode="O" horiz-adv-x="802" 
d="M723 357c0 -50 -7.00098 -97.667 -21.001 -143s-34.667 -85.166 -62 -119.499s-61 -61.666 -101 -81.999s-86 -30.5 -138 -30.5c-51.333 0 -96.833 10.333 -136.5 31s-73.167 48.167 -100.5 82.5s-48.166 74.166 -62.499 119.499s-21.5 92.666 -21.5 141.999
c0 50 7 97.667 21 143s34.5 85.166 61.5 119.499s60.5 61.666 100.5 81.999s86 30.5 138 30.5s98 -10.167 138 -30.5s73.667 -47.666 101 -81.999s48 -74.166 62 -119.499s21 -93 21 -143zM668.999 357c0 42.667 -5.66797 83.3291 -17.001 121.996
s-28.166 72.834 -50.499 102.501s-50.333 53.167 -84 70.5s-72.5 26 -116.5 26c-44.667 0 -83.667 -8.66699 -117 -26s-61.166 -40.666 -83.499 -69.999s-39 -63.5 -50 -102.5s-16.5 -79.833 -16.5 -122.5c0 -42 5.66699 -82.5 17 -121.5s28.333 -73.167 51 -102.5
s50.5 -52.833 83.5 -70.5s71.5 -26.5 115.5 -26.5s82.833 8.66699 116.5 26s61.667 40.833 84 70.5s39.166 63.834 50.499 102.501s17 79.334 17 122.001z" />
    <glyph glyph-name="P" unicode="P" horiz-adv-x="691" 
d="M611 497c0 -34 -4.83301 -64.334 -14.5 -91.001s-25.5 -49.167 -47.5 -67.5s-50.5 -32.166 -85.5 -41.499s-77.833 -14 -128.5 -14h-152v-262c0 -13.333 -2.33301 -22.666 -7 -27.999s-11.334 -8 -20.001 -8c-8 0 -14.5 2.66699 -19.5 8s-7.5 14.666 -7.5 27.999v662
c0 12 1.83301 19.667 5.5 23s8.83398 5 15.501 5h185c50 0 92.5 -4.83301 127.5 -14.5s63.5 -23.5 85.5 -41.5s38 -40.333 48 -67s15 -57 15 -91zM557 498.999c0 58 -17.167 98.834 -51.5 122.501s-85.5 35.5 -153.5 35.5h-169v-320h169c70.667 0 122.5 12.167 155.5 36.5
s49.5 66.166 49.5 125.499z" />
    <glyph glyph-name="Q" unicode="Q" horiz-adv-x="855" 
d="M787 7c0 -6 -2.66895 -11.665 -8.00195 -16.998s-11.333 -8 -18 -8c-8.66699 0 -17 4.33301 -25 13l-98 97c-27.333 -34 -60.666 -60.833 -99.999 -80.5s-85 -29.5 -137 -29.5c-51.333 0 -96.833 10.333 -136.5 31s-73.167 48.167 -100.5 82.5
s-48.166 74.166 -62.499 119.499s-21.5 92.666 -21.5 141.999c0 50 7 97.667 21 143s34.5 85.166 61.5 119.499s60.5 61.666 100.5 81.999s86 30.5 138 30.5s98 -10.167 138 -30.5s73.667 -47.666 101 -81.999s48 -74.166 62 -119.499s21 -93 21 -143
c0 -40 -4.5 -78.667 -13.5 -116s-22.5 -71.666 -40.5 -102.999l105 -105c5.33301 -5.33301 8.83301 -9.83301 10.5 -13.5s2.5 -7.83398 2.5 -12.501zM668.998 357.002c0 42.667 -5.66895 83.3301 -17.002 121.997s-28.166 72.834 -50.499 102.501s-50.333 53.167 -84 70.5
s-72.5 26 -116.5 26c-44.667 0 -83.667 -8.66699 -117 -26s-61.166 -40.666 -83.499 -69.999s-39 -63.5 -50 -102.5s-16.5 -79.833 -16.5 -122.5c0 -42 5.66699 -82.5 17 -121.5s28.333 -73.167 51 -102.5s50.5 -52.833 83.5 -70.5s71.5 -26.5 115.5 -26.5
c44.667 0 83.5 8.5 116.5 25.5s60.5 39.833 82.5 68.5l-176 176c-9.33301 10.667 -14 19.667 -14 27c0 6.66699 2.66699 12.834 8 18.501s11 8.5 17 8.5c6.66699 0 15.334 -4.66699 26.001 -14l169 -169c13.333 26.667 23.166 55.167 29.499 85.5s9.5 61.833 9.5 94.5z" />
    <glyph glyph-name="R" unicode="R" horiz-adv-x="724" 
d="M645 10c0 -6 -2.83398 -11.668 -8.50098 -17.001s-12.167 -8 -19.5 -8c-9.33301 0 -18.333 6.66699 -27 20l-147 224c-8 12.667 -16.5 24.834 -25.5 36.501s-19.167 22 -30.5 31s-24.166 16.333 -38.499 22s-31.166 8.5 -50.499 8.5h-115v-306
c0 -13.333 -2.33301 -22.666 -7 -27.999s-11.334 -8 -20.001 -8c-8 0 -14.5 2.66699 -19.5 8s-7.5 14.666 -7.5 27.999v662c0 12 1.83301 19.667 5.5 23s8.83398 5 15.501 5h253c28.667 0 55.667 -5 81 -15s47.333 -23.833 66 -41.5s33.5 -38.167 44.5 -61.5
s16.5 -48 16.5 -74c0 -24.667 -4.83301 -48 -14.5 -70s-22.667 -41.5 -39 -58.5s-35.833 -31 -58.5 -42s-47 -17.833 -73 -20.5c15.333 -9.33301 28.666 -20.5 39.999 -33.5s22 -27.167 32 -42.5l138 -218c6 -9.33301 9 -17.333 9 -24zM550.999 518.999
c0 18.667 -3.83301 36.3301 -11.5 52.9971s-18.167 31.334 -31.5 44.001s-29 22.667 -47 30s-37.333 11 -58 11h-220v-276h220c20.667 0 40 3.66699 58 11s33.667 17.333 47 30s23.833 27.334 31.5 44.001s11.5 34.334 11.5 53.001z" />
    <glyph glyph-name="S" unicode="S" horiz-adv-x="738" 
d="M646 187c0 -20 -4.66504 -42.1709 -13.998 -66.5039s-24.833 -47 -46.5 -68s-49.834 -38.667 -84.501 -53s-77.334 -21.5 -128.001 -21.5c-44.667 0 -84.5 6.16699 -119.5 18.5s-64.5 28.833 -88.5 49.5s-42.167 44.667 -54.5 72s-18.5 55.666 -18.5 84.999
c0 21.333 9 32 27 32c8 0 14.5 -2.33301 19.5 -7s7.5 -12.667 7.5 -24c0 -27.333 6.33301 -51.5 19 -72.5s29.334 -39 50.001 -54s44.5 -26.333 71.5 -34s55.167 -11.5 84.5 -11.5c24.667 0 50 2.83301 76 8.5s49.833 14.834 71.5 27.501s39.334 28.834 53.001 48.501
s20.5 43.167 20.5 70.5c0 20 -4.33301 37.667 -13 53s-20 28.5 -34 39.5s-29.5 19.833 -46.5 26.5s-33.833 11.334 -50.5 14.001l-118 18c-24.667 4 -49.334 10.833 -74.001 20.5s-46.834 22.334 -66.501 38.001s-35.667 34.334 -48 56.001s-18.5 46.167 -18.5 73.5
c0 34 6.5 64 19.5 90s30.667 47.5 53 64.5s48.333 29.833 78 38.5s61.167 13 94.5 13c41.333 0 77.833 -6.83301 109.5 -20.5s58.167 -30 79.5 -49s37.5 -39 48.5 -60s16.5 -38.833 16.5 -53.5c0 -12.667 -1.16699 -22.5 -3.5 -29.5s-8.5 -10.5 -18.5 -10.5
c-8 0 -14.833 2.5 -20.5 7.5s-9.16699 12.833 -10.5 23.5c-2 14.667 -7.83301 30 -17.5 46s-23 30.833 -40 44.5s-37.5 25 -61.5 34s-51.333 13.5 -82 13.5c-25.333 0 -49.5 -2.83301 -72.5 -8.5s-43.167 -14.5 -60.5 -26.5s-31.333 -27.667 -42 -47s-16 -43 -16 -71
c0 -32 14.333 -60.333 43 -85s67.667 -40.667 117 -48l119 -18c23.333 -4 46.333 -10.833 69 -20.5s43 -22.5 61 -38.5s32.5 -34.667 43.5 -56s16.5 -45.333 16.5 -72z" />
    <glyph glyph-name="T" unicode="T" horiz-adv-x="740" 
d="M673 684c0 -8 -2.66602 -14.5 -7.99902 -19.5s-14.666 -7.5 -27.999 -7.5h-240v-636c0 -13.333 -2.5 -22.666 -7.5 -27.999s-11.5 -8 -19.5 -8c-8.66699 0 -15.334 2.66699 -20.001 8s-7 14.666 -7 27.999v636h-241c-12.667 0 -21.5 2.5 -26.5 7.5s-7.5 11.5 -7.5 19.5
c0 8.66699 2.5 15.334 7.5 20.001s13.833 7 26.5 7h535c13.333 0 22.666 -2.33301 27.999 -7s8 -11.334 8 -20.001z" />
    <glyph glyph-name="U" unicode="U" horiz-adv-x="760" 
d="M631 245c0 -40.667 -5.83105 -77.334 -17.498 -110.001s-28.334 -60.334 -50.001 -83.001s-48 -40 -79 -52s-65.833 -18 -104.5 -18s-73.5 6 -104.5 18s-57.333 29.333 -79 52s-38.334 50.334 -50.001 83.001s-17.5 69.334 -17.5 110.001v455c0 22.667 9 34 27 34
c8 0 14.5 -2.66699 19.5 -8s7.5 -14 7.5 -26v-455c0 -32 4.66699 -60.833 14 -86.5s22.5 -47.5 39.5 -65.5s37.667 -32 62 -42s51.5 -15 81.5 -15s57.167 5 81.5 15s45 24 62 42s30.167 39.833 39.5 65.5s14 54.5 14 86.5v455c0 22.667 9 34 27 34
c8 0 14.5 -2.66699 19.5 -8s7.5 -14 7.5 -26v-455z" />
    <glyph glyph-name="V" unicode="V" horiz-adv-x="775" 
d="M695 707c0 -6.66699 -1.33105 -13 -3.99805 -19l-247 -649c-6 -16.667 -12.333 -29.834 -19 -39.501s-18.667 -14.5 -36 -14.5c-18.667 0 -31.334 4.83301 -38.001 14.5s-13 22.834 -19 39.501l-248 649c-2.66699 6 -4 12 -4 18c0 8 2.66699 14.333 8 19s12 7 20 7
c11.333 0 20 -8.33301 26 -25l253 -663l254 663c6 16.667 15 25 27 25c7.33301 0 13.666 -2.16699 18.999 -6.5s8 -10.5 8 -18.5z" />
    <glyph glyph-name="W" unicode="W" horiz-adv-x="787" 
d="M696 700c0 -0.666992 -0.333008 -2.66699 -1 -6l-113 -678c-1.33301 -9.33301 -4.33301 -16.666 -9 -21.999s-12.667 -8 -24 -8c-7.33301 0 -13.5 1.83301 -18.5 5.5s-9.16699 11.167 -12.5 22.5l-124 417l-125 -417c-3.33301 -11.333 -7.5 -18.833 -12.5 -22.5
s-10.833 -5.5 -17.5 -5.5c-9.33301 0 -16.833 2.66699 -22.5 8s-9.5 12.666 -11.5 21.999l-113 678c-0.666992 3.33301 -1 5.33301 -1 6v5c0 18.667 9.33301 28 28 28c13.333 0 22 -10.333 26 -31l99 -585l119 398c3.33301 10 7.33301 17 12 21s10 6 16 6
c7.33301 0 13.833 -1.5 19.5 -4.5s10.167 -10.5 13.5 -22.5l120 -398l98 585c4 20.667 13 31 27 31c8 0 14.5 -2.33301 19.5 -7s7.5 -11.667 7.5 -21v-5z" />
    <glyph glyph-name="X" unicode="X" horiz-adv-x="743" 
d="M651 10c0 -6 -2.83301 -11.833 -8.5 -17.5s-11.5 -8.5 -17.5 -8.5c-8 0 -17 6 -27 18l-227 310l-225 -310c-8 -12 -17 -18 -27 -18c-6.66699 0 -12.834 2.83301 -18.501 8.5s-8.5 11.5 -8.5 17.5c0 7.33301 3.33301 15.333 10 24l236 325l-236 324
c-6.66699 8.66699 -10 16.667 -10 24s2.83301 13.5 8.5 18.5s11.834 7.5 18.501 7.5c10 0 19 -6 27 -18l225 -310l227 310c10 12 19 18 27 18c6 0 11.833 -2.66699 17.5 -8s8.5 -11.333 8.5 -18c0 -7.33301 -3.33301 -15.333 -10 -24l-236 -324l236 -325
c6.66699 -8.66699 10 -16.667 10 -24z" />
    <glyph glyph-name="Y" unicode="Y" horiz-adv-x="690" 
d="M604 707c0 -3.33301 -0.669922 -6.66699 -2.00293 -10l-5 -12l-226 -412v-252c0 -13.333 -2.16699 -22.666 -6.5 -27.999s-11.166 -8 -20.499 -8c-7.33301 0 -13.333 2.5 -18 7.5s-7 13.167 -7 24.5v256l-226 412l-5 12c-1.33301 3.33301 -2 6.66602 -2 9.99902
c0 6.66699 2.83301 12.5 8.5 17.5s11.834 7.5 18.501 7.5c9.33301 0 18.333 -7.33301 27 -22l204 -373l206 373c8.66699 14.667 17.667 22 27 22c6.66699 0 12.834 -2.33301 18.501 -7s8.5 -10.667 8.5 -18z" />
    <glyph glyph-name="Z" unicode="Z" horiz-adv-x="690" 
d="M598 685c0 -7.33301 -3.00098 -15.002 -9.00098 -23.002l-419 -608h388c12.667 0 21.834 -2.5 27.501 -7.5s8.5 -11.5 8.5 -19.5c0 -18 -12 -27 -36 -27h-437c-7.33301 0 -14 2.33301 -20 7s-9 10.667 -9 18s3.33301 15.333 10 24l415 609h-380
c-13.333 0 -22.666 2.33301 -27.999 7s-8 11.334 -8 20.001c0 8 2.66699 14.5 8 19.5s14.666 7.5 27.999 7.5h435c6 0 11.833 -2.66699 17.5 -8s8.5 -11.666 8.5 -18.999z" />
    <glyph glyph-name="bracketleft" unicode="[" horiz-adv-x="437" 
d="M320 -196c0 -8 -2.66699 -14.5 -8 -19.5s-14.333 -7.5 -27 -7.5h-144c-16 0 -24 7.66699 -24 23v964c0 14.667 8 22 24 22h144c12.667 0 21.667 -2.5 27 -7.5s8 -11.5 8 -19.5c0 -18 -11.667 -27 -35 -27h-114v-901h114c23.333 0 35 -9 35 -27z" />
    <glyph glyph-name="backslash" unicode="\" horiz-adv-x="1169" 
d="M1053 -46c0 -6.66699 -2.83203 -12.834 -8.49902 -18.501s-11.834 -8.5 -18.501 -8.5c-5.33301 0 -10.166 1.66699 -14.499 5s-8.16602 6.66602 -11.499 9.99902l-870 869c-3.33301 3.33301 -6.33301 7.16602 -9 11.499s-4 8.83301 -4 13.5
c0 6.66699 2.66699 12.834 8 18.501s11.333 8.5 18 8.5c5.33301 0 10.166 -1.33301 14.499 -4s8.16602 -5.66699 11.499 -9l869 -870c4 -3.33301 7.5 -7.16602 10.5 -11.499s4.5 -9.16602 4.5 -14.499z" />
    <glyph glyph-name="bracketright" unicode="]" horiz-adv-x="437" 
d="M320 -200c0 -15.333 -8.33301 -23.001 -25 -23.001h-144c-12 0 -20.667 2.5 -26 7.5s-8 11.5 -8 19.5c0 18 11.333 27 34 27h115v901h-115c-22.667 0 -34 9 -34 27c0 12.667 4.16699 20.334 12.5 23.001s15.5 4 21.5 4h144c16.667 0 25 -7.33301 25 -22v-964z" />
    <glyph glyph-name="asciicircum" unicode="^" horiz-adv-x="640" 
d="M525 589c0 -3.33301 -1.16895 -6.33203 -3.50195 -8.99902s-5.16602 -4 -8.49902 -4s-6.66602 1.66699 -9.99902 5l-183 183l-183 -183c-3.33301 -3.33301 -7.33301 -5 -12 -5c-2 0 -4.5 1.16699 -7.5 3.5s-4.5 5.16602 -4.5 8.49902s1.33301 6.33301 4 9l176 223
c1.33301 2 3.83301 4.33301 7.5 7s10.167 4 19.5 4c8.66699 0 15 -1.33301 19 -4s6.66699 -5 8 -7l176 -223c1.33301 -2 2 -4.66699 2 -8z" />
    <glyph glyph-name="underscore" unicode="_" horiz-adv-x="824" 
d="M720 -250c0 -8 -2.66699 -14.5 -8 -19.5s-14.333 -7.5 -27 -7.5h-545c-13.333 0 -22.5 2.5 -27.5 7.5s-7.5 11.5 -7.5 19.5s2.5 14.5 7.5 19.5s13.833 7.5 26.5 7.5h546c12.667 0 21.667 -2.5 27 -7.5s8 -11.5 8 -19.5z" />
    <glyph glyph-name="grave" unicode="`" horiz-adv-x="775" 
d="M499 636l-306 108c-7.33301 3.33301 -11 7.33301 -11 12c0 2.66699 0.333008 5 1 7l22 45c4 6.66699 9.33301 10 16 10c2 0 4.66699 -1 8 -3l279 -162z" />
    <glyph glyph-name="a" unicode="a" horiz-adv-x="681" 
d="M566 22c0 -24.667 -9.00488 -36.9961 -27.0049 -36.9961s-27 12.333 -27 37v52c-72 -59.333 -148.667 -89 -230 -89c-28 0 -53.667 5 -77 15s-43.333 23.333 -60 40s-29.667 36 -39 58s-14 45 -14 69c0 28.667 6.5 54.667 19.5 78s31.167 43.333 54.5 60s51 29.5 83 38.5
s66.667 13.5 104 13.5c24 0 48 -1.33301 72 -4s52.333 -7.33398 85 -14.001v77c0 29.333 -13.167 53 -39.5 71s-62.166 27 -107.499 27c-20.667 0 -38.167 -1 -52.5 -3s-27.666 -4.66699 -39.999 -8s-24.5 -7.33301 -36.5 -12s-26.333 -9.66699 -43 -15
c-5.33301 -1.33301 -9.66602 -2 -12.999 -2c-7.33301 0 -13.666 2 -18.999 6s-8 10.333 -8 19c0 8 4.33301 15.333 13 22s19.834 12.5 33.501 17.5s29 9.33301 46 13s33.667 6.66699 50 9s31.333 4.16602 45 5.49902s24.5 2 32.5 2c28 0 53.833 -3.83301 77.5 -11.5
s44.167 -18.334 61.5 -32.001s31 -29.834 41 -48.501s15 -38.667 15 -60v-394zM509.995 282.004c-20.667 6 -44.6699 11 -72.0029 15s-53.666 6 -78.999 6c-30.667 0 -59 -3.5 -85 -10.5s-48.5 -16.5 -67.5 -28.5s-33.833 -26.333 -44.5 -43s-16 -35 -16 -55
c0 -16 3.16699 -31.667 9.5 -47s15.333 -28.833 27 -40.5s25.667 -21.167 42 -28.5s34.5 -11 54.5 -11c24.667 0 47.5 2.5 68.5 7.5s40.833 12.167 59.5 21.5s36.334 20.5 53.001 33.5s33.334 27.833 50.001 44.5v136z" />
    <glyph glyph-name="b" unicode="b" horiz-adv-x="769" 
d="M684 274c0 -39.333 -7.5 -76.1699 -22.5 -110.503s-35.333 -64.333 -61 -90s-55.834 -46 -90.501 -61s-71.334 -22.5 -110.001 -22.5c-47.333 0 -90.5 9.83301 -129.5 29.5s-71.5 46.834 -97.5 81.501v-73c0 -11.333 -2 -20.5 -6 -27.5s-11 -10.5 -21 -10.5
c-19.333 0 -29 12.333 -29 37v722c0 24.667 9.33301 37 28 37s28 -12.333 28 -37v-305c26 34.667 58.5 62.334 97.5 83.001s82.167 31 129.5 31c38.667 0 75.334 -7.5 110.001 -22.5s64.834 -35.333 90.501 -61s46 -55.667 61 -90s22.5 -71.166 22.5 -110.499zM633 273.996
c0 32 -6.16699 62.333 -18.5 91s-29 53.5 -50 74.5s-45.667 37.667 -74 50s-58.5 18.5 -90.5 18.5s-62.333 -6.16699 -91 -18.5s-53.5 -29 -74.5 -50s-37.667 -45.833 -50 -74.5s-18.5 -59 -18.5 -91s6.16699 -62.167 18.5 -90.5s29 -53 50 -74s45.833 -37.667 74.5 -50
s59 -18.5 91 -18.5s62.167 6.16699 90.5 18.5s53 29 74 50s37.667 45.667 50 74s18.5 58.5 18.5 90.5z" />
    <glyph glyph-name="c" unicode="c" horiz-adv-x="723" 
d="M637 114c0 -15.333 -18 -35.3301 -54 -59.9971c-32 -22 -65.5 -39 -100.5 -51s-73.5 -18 -115.5 -18c-40.667 0 -77.834 7.5 -111.501 22.5s-62.667 35.667 -87 62s-43.166 57.333 -56.499 93s-20 74.167 -20 115.5s6.66699 79.666 20 114.999s32.166 66 56.499 92
s53.333 46.333 87 61s70.834 22 111.501 22c42 0 80.5 -5.83301 115.5 -17.5s68.5 -28.834 100.5 -51.501c36 -24 54 -44 54 -60c0 -6.66699 -2.33301 -12.334 -7 -17.001s-10.334 -7 -17.001 -7c-4 0 -7.5 0.666992 -10.5 2s-7.16699 4.66602 -12.5 9.99902
c-31.333 32 -65.5 55.167 -102.5 69.5s-77.833 21.5 -122.5 21.5c-32 0 -61.667 -6.33301 -89 -19s-50.833 -29.667 -70.5 -51s-35 -46.666 -46 -75.999s-16.5 -60.333 -16.5 -93s5.5 -63.667 16.5 -93s26.333 -55.166 46 -77.499s43.167 -40 70.5 -53s57 -19.5 89 -19.5
c44.667 0 85.5 7.16699 122.5 21.5s71.167 37.5 102.5 69.5c5.33301 5.33301 9.5 8.66602 12.5 9.99902s6.5 2 10.5 2c6.66699 0 12.334 -2.33301 17.001 -7s7 -10.667 7 -18z" />
    <glyph glyph-name="d" unicode="d" horiz-adv-x="769" 
d="M653 27c0 -24.667 -10.333 -36.9961 -31 -36.9961c-9.33301 0 -15.833 3.5 -19.5 10.5s-5.5 16.167 -5.5 27.5v73c-26 -34.667 -58.833 -61.834 -98.5 -81.501s-82.5 -29.5 -128.5 -29.5c-39.333 0 -76.166 7.5 -110.499 22.5s-64.333 35.333 -90 61s-46 55.667 -61 90
s-22.5 71.166 -22.5 110.499s7.5 76.166 22.5 110.499s35.333 64.333 61 90s55.667 46 90 61s71.166 22.5 110.499 22.5c46 0 88.833 -10.333 128.5 -31s72.5 -48.334 98.5 -83.001v305c0 24.667 9.33301 37 28 37s28 -12.333 28 -37v-722zM604 274.004
c0 32 -6.16699 62.333 -18.5 91s-29 53.5 -50 74.5s-45.833 37.667 -74.5 50s-59 18.5 -91 18.5s-62.167 -6.16699 -90.5 -18.5s-53 -29 -74 -50s-37.667 -45.833 -50 -74.5s-18.5 -59 -18.5 -91s6.16699 -62.167 18.5 -90.5s29 -53 50 -74s45.667 -37.667 74 -50
s58.5 -18.5 90.5 -18.5s62.333 6.16699 91 18.5s53.5 29 74.5 50s37.667 45.667 50 74s18.5 58.5 18.5 90.5z" />
    <glyph glyph-name="e" unicode="e" horiz-adv-x="737" 
d="M648 305c1.33301 -17.333 -1.33398 -28.832 -8.00098 -34.499s-17.334 -8.5 -32.001 -8.5h-464c0 -8 1.66699 -19 5 -33s8.83301 -29.5 16.5 -46.5s17.5 -34.167 29.5 -51.5s27 -33 45 -47s38.833 -25.5 62.5 -34.5s50.834 -13.5 81.501 -13.5
c18.667 0 38 1.83301 58 5.5s39.333 8.5 58 14.5s36.334 13.333 53.001 22s31.334 18 44.001 28c3.33301 3.33301 7.16602 5.5 11.499 6.5s8.16602 1.5 11.499 1.5c6.66699 0 12.5 -2.16699 17.5 -6.5s7.5 -11.166 7.5 -20.499c0 -12 -9 -24 -27 -36s-40.167 -23 -66.5 -33
s-54.666 -18 -84.999 -24s-57.833 -9 -82.5 -9c-42.667 0 -81.834 8.16699 -117.501 24.5s-66.5 38.5 -92.5 66.5s-46.167 60.667 -60.5 98s-21.5 77 -21.5 119c0 35.333 7.33301 69.5 22 102.5s34.667 62.167 60 87.5s54.833 45.666 88.5 60.999s69.5 23 107.5 23
s73.333 -6.83301 106 -20.5s61.334 -32.334 86.001 -56.001s44.5 -51.5 59.5 -83.5s23.833 -66 26.5 -102zM594 317.001c-4.66699 28.667 -13.5 55.167 -26.5 79.5s-29.333 45.5 -49 63.5s-42.167 32 -67.5 42s-52.333 15 -81 15c-39.333 0 -73.333 -8.5 -102 -25.5
s-52.167 -36.667 -70.5 -59s-31.833 -44.5 -40.5 -66.5s-13 -38.333 -13 -49h450z" />
    <glyph glyph-name="f" unicode="f" horiz-adv-x="649" 
d="M600 734c0 -9.33301 -2.66895 -15.501 -8.00195 -18.501s-11.666 -4.5 -18.999 -4.5c-4.66699 0 -12.5 0.833008 -23.5 2.5s-23.333 3.66699 -37 6s-27.5 4.33301 -41.5 6s-26.667 2.5 -38 2.5c-45.333 0 -80.166 -9.5 -104.499 -28.5s-36.5 -43.5 -36.5 -73.5v-104h231
c13.333 0 22.5 -2.33301 27.5 -7s7.5 -11.667 7.5 -21c0 -7.33301 -2.33301 -13.333 -7 -18s-13 -7 -25 -7h-236v-447c0 -11.333 -2 -20.333 -6 -27s-11 -10 -21 -10c-18.667 0 -28 12.333 -28 37v447h-108c-23.333 0 -35 8.33301 -35 25c0 19.333 11.667 29 35 29h108v103
c0 22.667 4.66699 43.834 14 63.501s22.333 36.667 39 51s36.5 25.5 59.5 33.5s47.833 12 74.5 12c64.667 0 110.5 -4.33301 137.5 -13s40.5 -21.667 40.5 -39z" />
    <glyph glyph-name="g" unicode="g" horiz-adv-x="720" 
d="M603 -34c0 -38.667 -7.1709 -70.9951 -21.5039 -96.9951s-33.5 -46.833 -57.5 -62.5s-52.167 -26.834 -84.5 -33.501s-66.5 -10 -102.5 -10c-12 0 -24.833 0.333008 -38.5 1s-26.5 2.16699 -38.5 4.5s-21.833 5.66602 -29.5 9.99902s-11.5 10.5 -11.5 18.5
c0 16.667 9.33301 25 28 25c19.333 0 37.333 -1.66699 54 -5s36 -5 58 -5c36 0 66.333 4.5 91 13.5s44.334 21 59.001 36s25.167 32.667 31.5 53s9.5 41.833 9.5 64.5v167c-22 -30.667 -50.333 -54.834 -85 -72.501s-74 -26.5 -118 -26.5c-37.333 0 -71.833 6.5 -103.5 19.5
s-59.167 31 -82.5 54s-41.666 50.167 -54.999 81.5s-20 65.666 -20 102.999s6.33301 71.833 19 103.5s30.334 59.167 53.001 82.5s49.834 41.666 81.501 54.999s66.167 20 103.5 20c44.667 0 84.5 -9.33301 119.5 -28s64.167 -44 87.5 -76v72c0 12 2.5 20.667 7.5 26
s11.5 8 19.5 8c17.333 0 26 -11 26 -33v-569zM545.996 306.005c0 29.333 -4.99707 56.5 -14.9971 81.5s-24 46.833 -42 65.5s-39.333 33.167 -64 43.5s-51.667 15.5 -81 15.5c-30 0 -57.333 -5.16699 -82 -15.5s-46 -24.833 -64 -43.5s-32 -40.5 -42 -65.5
s-15 -52.167 -15 -81.5s5.16699 -56.5 15.5 -81.5s24.666 -46.5 42.999 -64.5s40.166 -32.167 65.499 -42.5s52.666 -15.5 81.999 -15.5s56.166 5.16699 80.499 15.5s45.333 24.5 63 42.5s31.334 39.5 41.001 64.5s14.5 52.167 14.5 81.5z" />
    <glyph glyph-name="h" unicode="h" horiz-adv-x="664" 
d="M561 21c0 -14 -2.50098 -23.5 -7.50098 -28.5s-11.5 -7.5 -19.5 -7.5c-8.66699 0 -15.5 2.66699 -20.5 8s-7.5 14.666 -7.5 27.999v327c0 26.667 -4.16699 50 -12.5 70s-19.5 36.5 -33.5 49.5s-30.167 22.667 -48.5 29s-37.166 9.5 -56.499 9.5
c-23.333 0 -46 -4.33301 -68 -13s-41.5 -20.667 -58.5 -36s-30.833 -33.666 -41.5 -54.999s-16 -44.666 -16 -69.999v-311c0 -13.333 -2.33301 -22.666 -7 -27.999s-11.334 -8 -20.001 -8c-8 0 -14.5 2.66699 -19.5 8s-7.5 14.666 -7.5 27.999v729
c0 13.333 2.33301 22.666 7 27.999s11.334 8 20.001 8c8 0 14.5 -2.66699 19.5 -8s7.5 -14 7.5 -26v-280c12 17.333 25.167 31.5 39.5 42.5s29.333 19.833 45 26.5s31.834 11.167 48.501 13.5s33 3.5 49 3.5c30 0 57.667 -5.16699 83 -15.5s47.166 -24.5 65.499 -42.5
s32.833 -39.5 43.5 -64.5s16 -51.833 16 -80.5v-334z" />
    <glyph glyph-name="i" unicode="i" horiz-adv-x="323" 
d="M207 750c0 -17.333 -2.16992 -29.834 -6.50293 -37.501s-17.166 -11.5 -38.499 -11.5s-34.166 3.83301 -38.499 11.5s-6.5 20.167 -6.5 37.5v10c0 14.667 0.333008 26.5 1 35.5s2.33398 15.833 5.00098 20.5s7 7.83398 13 9.50098s14.667 2.5 26 2.5
s20 -0.833008 26 -2.5s10.5 -4.66699 13.5 -9s4.66699 -10.833 5 -19.5s0.5 -20 0.5 -34v-13zM190.997 20.999c0 -13.333 -2.33203 -22.666 -6.99902 -27.999s-11.334 -8 -20.001 -8c-8 0 -14.5 2.66699 -19.5 8s-7.5 14.666 -7.5 27.999v512c0 12.667 2.5 21.667 7.5 27
s11.5 8 19.5 8c18 0 27 -11.333 27 -34v-513z" />
    <glyph glyph-name="j" unicode="j" horiz-adv-x="390" 
d="M272 750c0 -17.333 -2 -29.834 -6 -37.501s-16.667 -11.5 -38 -11.5s-34.333 3.83301 -39 11.5s-7 20.167 -7 37.5v10c0 14.667 0.333008 26.5 1 35.5s2.5 15.833 5.5 20.5s7.5 7.83398 13.5 9.50098s14.667 2.5 26 2.5c10.667 0 19 -0.833008 25 -2.5
s10.5 -4.66699 13.5 -9s4.66699 -10.833 5 -19.5s0.5 -20 0.5 -34v-13zM255 -34.001c0 -38.667 -7.16504 -70.998 -21.498 -96.998s-33.5 -46.833 -57.5 -62.5s-52 -26.834 -84 -33.501s-66 -10 -102 -10c-12.667 0 -26 0.333008 -40 1s-26.833 2.16699 -38.5 4.5
s-21.334 5.66602 -29.001 9.99902s-11.5 10.5 -11.5 18.5c0 8.66699 2 15 6 19s11.333 6 22 6c19.333 0 37.166 -1.66699 53.499 -5s35.833 -5 58.5 -5c36 0 66.333 4.5 91 13.5s44.5 21 59.5 36s25.667 32.667 32 53s9.5 41.833 9.5 64.5v554c0 23.333 8.33301 35 25 35
c18 0 27 -11.333 27 -34v-568z" />
    <glyph glyph-name="k" unicode="k" horiz-adv-x="635" 
d="M579 11c0 -6.66699 -2.5 -12.6689 -7.5 -18.002s-10.833 -8 -17.5 -8c-9.33301 0 -18.666 5 -27.999 15l-276 296l-79 -65v-210c0 -13.333 -2.5 -22.666 -7.5 -27.999s-11.5 -8 -19.5 -8s-14.5 2.66699 -19.5 8s-7.5 14.666 -7.5 27.999v731c0 12 2.5 20.667 7.5 26
s11.5 8 19.5 8s14.5 -2.66699 19.5 -8s7.5 -14 7.5 -26v-451l306 257c9.33301 7.33301 17.666 11 24.999 11c6 0 12 -2.66699 18 -8s9 -11 9 -17c0 -9.33301 -5.66699 -18.333 -17 -27l-220 -185l274 -295c5.33301 -5.33301 8.83301 -10.166 10.5 -14.499
s2.5 -8.16602 2.5 -11.499z" />
    <glyph glyph-name="l" unicode="l" horiz-adv-x="312" 
d="M183 21c0 -13.333 -2.33203 -22.667 -6.99902 -28s-11.334 -8 -20.001 -8c-8 0 -14.5 2.66699 -19.5 8s-7.5 14.333 -7.5 27v732c0 22.667 9 34 27 34c8 0 14.5 -2.66699 19.5 -8s7.5 -14 7.5 -26v-731z" />
    <glyph glyph-name="m" unicode="m" horiz-adv-x="802" 
d="M685 18c0 -12 -2.33594 -20.4971 -7.00293 -25.4971s-11.334 -7.5 -20.001 -7.5c-18 0 -27 12 -27 36v411c0 24 -7 43.833 -21 59.5s-31.333 23.5 -52 23.5c-11.333 0 -22.333 -0.666992 -33 -2s-21.167 -4.66602 -31.5 -9.99902s-20.666 -13.333 -30.999 -24
s-21.5 -25.334 -33.5 -44.001v-415c0 -23.333 -9 -35 -27 -35s-27 11 -27 33v408c0 25.333 -7.33301 46.5 -22 63.5s-32.667 25.5 -54 25.5c-10.667 0 -21 -0.833008 -31 -2.5s-20.167 -5.33398 -30.5 -11.001s-21 -13.667 -32 -24s-22.5 -24.5 -34.5 -42.5v-413
c0 -24.667 -9 -37 -27 -37s-27 11.667 -27 35v513c0 23.333 9 35 27 35c8 0 14.5 -2.66699 19.5 -8s7.5 -14.333 7.5 -27v-20c22.667 24.667 43.834 40.5 63.501 47.5s41.167 10.5 64.5 10.5c26 0 48.833 -4 68.5 -12s36.167 -25.667 49.5 -53
c22.667 27.333 45.334 45 68.001 53s46 12 70 12c18 0 34.833 -3.66699 50.5 -11s29.334 -17.333 41.001 -30s21 -27.334 28 -44.001s10.5 -34.334 10.5 -53.001v-415z" />
    <glyph glyph-name="n" unicode="n" horiz-adv-x="659" 
d="M555 21c0 -13.333 -2.50098 -22.6641 -7.50098 -27.9971s-11.5 -8 -19.5 -8c-9.33301 0 -16.166 2.66699 -20.499 8s-6.5 14.666 -6.5 27.999v370c0 38 -12.833 68.5 -38.5 91.5s-60.167 34.5 -103.5 34.5c-24 0 -45.167 -3.83301 -63.5 -11.5
s-34.833 -17.834 -49.5 -30.501s-28 -27.167 -40 -43.5s-23.667 -33.5 -35 -51.5v-359c0 -13.333 -2.33301 -22.666 -7 -27.999s-11.334 -8 -20.001 -8c-8 0 -14.5 2.66699 -19.5 8s-7.5 14.666 -7.5 27.999v513c0 22.667 9 34 27 34c8 0 14.5 -2.66699 19.5 -8
s7.5 -14 7.5 -26v-74c54 74 117.667 111 191 111c26.667 0 51.834 -4.5 75.501 -13.5s44.167 -21.333 61.5 -37s31 -33.834 41 -54.501s15 -43 15 -67v-378z" />
    <glyph glyph-name="o" unicode="o" horiz-adv-x="760" 
d="M674 277c0 -45.333 -7.49902 -86.166 -22.499 -122.499s-35.833 -67 -62.5 -92s-57.834 -44.167 -93.501 -57.5s-74.167 -20 -115.5 -20s-79.833 6.66699 -115.5 20s-66.834 32.666 -93.501 57.999s-47.5 56 -62.5 92s-22.5 76.667 -22.5 122s7.5 86 22.5 122
s35.667 66.5 62 91.5s57.5 44.167 93.5 57.5s74.667 20 116 20s79.833 -6.66699 115.5 -20s66.834 -32.5 93.501 -57.5s47.5 -55.5 62.5 -91.5s22.5 -76.667 22.5 -122zM624.001 277c0 37.333 -6.33301 70.666 -19 99.999s-30.167 54.166 -52.5 74.499
s-48.333 35.833 -78 46.5s-61.5 16 -95.5 16s-65.667 -5.33301 -95 -16s-54.833 -26.167 -76.5 -46.5s-38.667 -45.166 -51 -74.499s-18.5 -62.666 -18.5 -99.999s6.16699 -70.666 18.5 -99.999s29.333 -54.333 51 -75s47.167 -36.334 76.5 -47.001s61 -16 95 -16
s65.833 5.33301 95.5 16s55.667 26.167 78 46.5s39.833 45.333 52.5 75s19 63.167 19 100.5z" />
    <glyph glyph-name="p" unicode="p" horiz-adv-x="759" 
d="M674 282c0 -40 -7.33301 -77.5 -22 -112.5s-34.5 -65.667 -59.5 -92s-54.333 -47 -88 -62s-69.5 -22.5 -107.5 -22.5c-46 0 -88.667 10.667 -128 32s-72 50.333 -98 87v-332c0 -23.333 -9 -35 -27 -35c-8 0 -14.5 2.5 -19.5 7.5s-7.5 13.833 -7.5 26.5v754
c0 12.667 2.5 21.667 7.5 27s11.5 8 19.5 8c18 0 27 -11.667 27 -35v-83c26 36 58.667 64.833 98 86.5s82 32.5 128 32.5c38 0 73.833 -7.5 107.5 -22.5s63 -35.5 88 -61.5s44.833 -56.5 59.5 -91.5s22 -72.167 22 -111.5zM622 283c0 31.333 -6 60.999 -18 88.999
s-28 52.667 -48 74s-43.333 38.166 -70 50.499s-55 18.5 -85 18.5c-30.667 0 -60 -6.5 -88 -19.5s-52.5 -30.167 -73.5 -51.5s-37.667 -46 -50 -74s-18.5 -57 -18.5 -87c0 -30.667 6.16699 -60.167 18.5 -88.5s29 -53.5 50 -75.5s45.333 -39.5 73 -52.5
s57.167 -19.5 88.5 -19.5c30 0 58.333 6.33301 85 19s50 29.834 70 51.501s36 46.834 48 75.501s18 58.667 18 90z" />
    <glyph glyph-name="q" unicode="q" horiz-adv-x="759" 
d="M643 -221c0 -12.667 -2.5 -21.5 -7.5 -26.5s-11.833 -7.5 -20.5 -7.5c-17.333 0 -26 11.667 -26 35v333c-25.333 -36 -58 -65 -98 -87s-83 -33 -129 -33c-38 0 -73.833 7.5 -107.5 22.5s-63 35.5 -88 61.5s-44.667 56.5 -59 91.5s-21.5 72.167 -21.5 111.5
c0 40 7.16699 77.5 21.5 112.5s34 65.667 59 92s54.333 47 88 62s69.5 22.5 107.5 22.5c46 0 88.667 -10.667 128 -32s72 -50 98 -86v82c0 12.667 2.5 21.667 7.5 27s11.5 8 19.5 8c18.667 0 28 -11.667 28 -35v-754zM589 280c0 30.667 -6 60.1689 -18 88.502
s-28.5 53.333 -49.5 75s-45.5 39 -73.5 52s-57.667 19.5 -89 19.5c-30 0 -58.333 -6.16699 -85 -18.5s-50.167 -29.166 -70.5 -50.499s-36.333 -46 -48 -74s-17.5 -57.667 -17.5 -89s5.83301 -61.333 17.5 -90s27.667 -53.834 48 -75.501s43.833 -38.834 70.5 -51.501
s55 -19 85 -19c31.333 0 61 6.5 89 19.5s52.5 30.167 73.5 51.5s37.5 46.166 49.5 74.499s18 57.5 18 87.5z" />
    <glyph glyph-name="r" unicode="r" horiz-adv-x="604" 
d="M542 501c0 -6.66699 -2.33008 -12.667 -6.99707 -18s-10.334 -8 -17.001 -8c-8.66699 0 -16.667 3.66699 -24 11c-9.33301 10 -21.833 17.167 -37.5 21.5s-30.834 6.5 -45.501 6.5c-17.333 0 -36.166 -5.83301 -56.499 -17.5s-40.833 -26 -61.5 -43
s-40.334 -34.833 -59.001 -53.5l-63 -63v-316c0 -13.333 -2.5 -22.666 -7.5 -27.999s-11.5 -8 -19.5 -8s-14.5 2.66699 -19.5 8s-7.5 14.666 -7.5 27.999v512c0 23.333 9 35 27 35c8 0 14.5 -2.66699 19.5 -8s7.5 -14.333 7.5 -27v-118l10 9l47.5 46.5
c17.667 17 36.5 32.667 56.5 47s40.5 26.333 61.5 36s41.5 14.5 61.5 14.5c9.33301 0 19.5 -0.5 30.5 -1.5s22.167 -3 33.5 -6s22.166 -7.5 32.499 -13.5s19.833 -13.667 28.5 -23c6 -6 9 -13.667 9 -23z" />
    <glyph glyph-name="s" unicode="s" horiz-adv-x="677" 
d="M584 150c0 -25.333 -5.83203 -48.5029 -17.499 -69.5029s-28.167 -39 -49.5 -54s-46.833 -26.5 -76.5 -34.5s-62.834 -12 -99.501 -12c-56.667 0 -101.5 6.5 -134.5 19.5s-58 28.167 -75 45.5s-27.833 34.833 -32.5 52.5s-7 31.167 -7 40.5s2.5 17.166 7.5 23.499
s12.167 9.5 21.5 9.5c19.333 0 29 -12 29 -36c0 -14.667 4.83301 -28.167 14.5 -40.5s22.834 -23 39.501 -32s36.5 -16 59.5 -21s48.167 -7.5 75.5 -7.5c28 0 53.667 2.66699 77 8s43.5 13 60.5 23s30.167 21.667 39.5 35s14 28 14 44c0 26.667 -6.83301 47.5 -20.5 62.5
s-30.334 26.5 -50.001 34.5s-40.167 13.333 -61.5 16l-56 7c-26 2.66699 -52 6.66699 -78 12s-49.667 13.5 -71 24.5s-38.666 26.167 -51.999 45.5s-20 45 -20 77c0 20 5.33301 39 16 57s25.667 33.5 45 46.5s42 23.333 68 31s54.667 11.5 86 11.5
c20.667 0 43.834 -2.5 69.501 -7.5s49.834 -13 72.501 -24s41.667 -25.5 57 -43.5s23 -40.333 23 -67c0 -8 -1.33301 -15.167 -4 -21.5s-7.66699 -9.5 -15 -9.5c-9.33301 0 -17 2.5 -23 7.5s-9.33301 12.5 -10 22.5c-2 28 -18.5 49.833 -49.5 65.5s-70.833 23.5 -119.5 23.5
c-23.333 0 -44.833 -2.33301 -64.5 -7s-36.834 -11.167 -51.501 -19.5s-26 -18.166 -34 -29.499s-12 -23.666 -12 -36.999c0 -24 6.16699 -42.667 18.5 -56s27.666 -23.166 45.999 -29.499s38.166 -10.666 59.499 -12.999l59 -6.5c21.333 -2 45 -5.5 71 -10.5
s50.5 -13.5 73.5 -25.5s42.333 -28.333 58 -49s23.5 -48 23.5 -82z" />
    <glyph glyph-name="t" unicode="t" horiz-adv-x="702" 
d="M641 70c0 -10.667 -8.66797 -21.168 -26.001 -31.501s-38.833 -19.5 -64.5 -27.5s-52.667 -14.333 -81 -19s-53.5 -7 -75.5 -7c-27.333 0 -52.333 3.66699 -75 11s-42 17.833 -58 31.5s-28.5 29.834 -37.5 48.501s-13.5 39.334 -13.5 62.001v333h-89
c-23.333 0 -35 9 -35 27c0 8 2.66699 14.5 8 19.5s14.333 7.5 27 7.5h89v174c0 23.333 9 35 27 35c8 0 14.5 -2.66699 19.5 -8s7.5 -14 7.5 -26v-175h267c13.333 0 22.666 -2.5 27.999 -7.5s8 -11.5 8 -19.5c0 -8.66699 -2.66699 -15.334 -8 -20.001s-14.666 -7 -27.999 -7
h-267v-333c0 -30 11.833 -54 35.5 -72s55.834 -27 96.501 -27c16 0 33.333 1.33301 52 4s37 6.33398 55 11.001s34.833 10.167 50.5 16.5s29.167 12.833 40.5 19.5c3.33301 1.33301 7 2.66602 11 3.99902s7.66699 2 11 2c7.33301 0 13.333 -1.83301 18 -5.5s7 -10.5 7 -20.5
z" />
    <glyph glyph-name="u" unicode="u" horiz-adv-x="678" 
d="M561 20c0 -12.667 -2.50293 -21.665 -7.50293 -26.998s-11.5 -8 -19.5 -8s-14.667 2.66699 -20 8s-8 14.666 -8 27.999v70c-26 -34.667 -55.667 -60.334 -89 -77.001s-67.666 -25 -102.999 -25c-26.667 0 -52 4.5 -76 13.5s-45 21.167 -63 36.5s-32.167 33.333 -42.5 54
s-15.5 43 -15.5 67v374c0 22.667 9 34 27 34c8 0 14.5 -2.66699 19.5 -8s7.5 -14 7.5 -26v-367c0 -18 3.66699 -34.667 11 -50s17.333 -28.5 30 -39.5s27.834 -19.5 45.501 -25.5s37.167 -9 58.5 -9c22.667 0 43.167 3.83301 61.5 11.5s35.333 18 51 31
s29.834 27.833 42.501 44.5s24.667 33.667 36 51v353c0 22.667 9 34 27 34c8 0 14.5 -2.83301 19.5 -8.5s7.5 -14.5 7.5 -26.5v-513z" />
    <glyph glyph-name="v" unicode="v" horiz-adv-x="673" 
d="M605 544c0 -7.33301 -1.66602 -14.333 -4.99902 -21l-231 -517c-6.66699 -16 -15.334 -24 -26.001 -24h-7c-6.66699 0 -12.5 1.5 -17.5 4.5s-9.83301 9.5 -14.5 19.5l-231 517c-3.33301 6.66699 -5 13.667 -5 21c0 6.66699 2.66699 12.334 8 17.001s12 7 20 7
c10 0 18.667 -7.66699 26 -23l215 -481l214 481c3.33301 8.66699 7.33301 14.667 12 18s9.66699 5 15 5c8 0 14.5 -2.33301 19.5 -7s7.5 -10.334 7.5 -17.001z" />
    <glyph glyph-name="w" unicode="w" horiz-adv-x="775" 
d="M704 542c0 -2 -0.164062 -4.16699 -0.49707 -6.5s-1.16602 -5.83301 -2.49902 -10.5l-159 -516c-3.33301 -12.667 -7.83301 -20.667 -13.5 -24s-12.834 -5 -21.501 -5c-5.33301 0 -12 1.66699 -20 5s-13.667 11.333 -17 24l-83 286l-82 -286
c-3.33301 -12.667 -8.33301 -20.334 -15 -23.001s-13.667 -4 -21 -4c-8.66699 0 -16 1.33301 -22 4s-11 10.334 -15 23.001l-158 516c-1.33301 4.66699 -2.16602 8.16699 -2.49902 10.5s-0.5 4.16602 -0.5 5.49902c0 17.333 9.66699 26 29 26c12.667 0 21 -8.66699 25 -26
l143 -466l86 300c3.33301 12 8.16602 19.5 14.499 22.5s13.166 4.5 20.499 4.5c8 0 14.5 -1.66699 19.5 -5s9.16699 -10.666 12.5 -21.999l86 -301l142 467c5.33301 17.333 14.666 26 27.999 26c7.33301 0 13.666 -2.33301 18.999 -7s8 -10.667 8 -18z" />
    <glyph glyph-name="x" unicode="x" horiz-adv-x="718" 
d="M633 11c0 -6 -2.83203 -11.834 -8.49902 -17.501s-11.834 -8.5 -18.501 -8.5c-8.66699 0 -17 5 -25 15l-222 240l-220 -240c-9.33301 -10 -18 -15 -26 -15c-6.66699 0 -12.834 2.83301 -18.501 8.5s-8.5 11.834 -8.5 18.501s4 14.667 12 24l224 243l-219 238
c-8 8.66699 -12 17 -12 25c0 7.33301 2.83301 13.5 8.5 18.5s11.5 7.5 17.5 7.5c6.66699 0 15.334 -4.66699 26.001 -14l216 -235l217 235c4.66699 5.33301 9.16699 9 13.5 11s8.83301 3 13.5 3c6 0 12 -2.66699 18 -8s9 -11.333 9 -18c0 -8 -4.66699 -16 -14 -24l-220 -239
l224 -243c8.66699 -8.66699 13 -17 13 -25z" />
    <glyph glyph-name="y" unicode="y" horiz-adv-x="721" 
d="M653 546c0 -5.33301 -1.99805 -12.333 -5.99805 -21l-380 -744c-7.33301 -14.667 -16 -22 -26 -22c-7.33301 0 -13.833 2.5 -19.5 7.5s-8.5 11.167 -8.5 18.5c0 4.66699 2 11.667 6 21l123 240l-244 476l-4 11.5c-1.33301 3.66699 -2 6.5 -2 8.5c0 7.33301 3 13.5 9 18.5
s12.667 7.5 20 7.5c9.33301 0 17.666 -7.33301 24.999 -22l225 -441l228 445c7.33301 14.667 16.333 22 27 22c7.33301 0 13.666 -2.5 18.999 -7.5s8 -11.167 8 -18.5z" />
    <glyph glyph-name="z" unicode="z" horiz-adv-x="688" 
d="M597 522c0 -7.33301 -0.668945 -15.001 -2.00195 -23.001s-6.66602 -16.333 -15.999 -25l-420 -420h390c23.333 0 35 -9 35 -27c0 -8 -2.83301 -14.5 -8.5 -19.5s-14.5 -7.5 -26.5 -7.5h-424c-11.333 0 -19.666 3.33301 -24.999 10s-8 14.667 -8 24
c0 6.66699 0.833008 14 2.5 22s7.5 16.667 17.5 26l418 420h-391c-12.667 0 -21.5 2.33301 -26.5 7s-7.5 11.334 -7.5 20.001c0 8 2.5 14.5 7.5 19.5s13.833 7.5 26.5 7.5h424c12 0 20.667 -3.33301 26 -10s8 -14.667 8 -24z" />
    <glyph glyph-name="braceleft" unicode="{" horiz-adv-x="486" 
d="M369 -196c0 -18.667 -11 -27.999 -33 -27.999c-17.333 0 -33.333 3.33301 -48 10s-27.5 16 -38.5 28s-19.667 26 -26 42s-9.5 33.333 -9.5 52v264c0 21.333 -6 38.833 -18 52.5s-27.667 21.167 -47 22.5c-12 1.33301 -20.333 4.5 -25 9.5s-7 11.833 -7 20.5
c0 9.33301 2.33301 16.333 7 21s13 7.33398 25 8.00098c19.333 1.33301 35 9.16602 47 23.499s18 31.5 18 51.5v266c0 18.667 3.16699 36 9.5 52s15 30 26 42s23.833 21.333 38.5 28s30.667 10 48 10c22 0 33 -9.66699 33 -29c0 -9.33301 -2.66699 -16 -8 -20
s-13.666 -6.66699 -24.999 -8c-19.333 -2 -35.333 -9.83301 -48 -23.5s-19 -30.834 -19 -51.501v-266c0 -24.667 -3.5 -44.5 -10.5 -59.5s-20.167 -29.833 -39.5 -44.5c19.333 -15.333 32.5 -30.5 39.5 -45.5s10.5 -34.833 10.5 -59.5v-264c0 -20.667 6.33301 -38 19 -52
s28.667 -21.667 48 -23c11.333 -1.33301 19.666 -4 24.999 -8s8 -11 8 -21z" />
    <glyph glyph-name="bar" unicode="|" horiz-adv-x="386" 
d="M220 -267c0 -13.333 -2.33203 -22.666 -6.99902 -27.999s-11.334 -8 -20.001 -8c-8 0 -14.5 2.66699 -19.5 8s-7.5 14.666 -7.5 27.999v1185c0 12 2.5 20.667 7.5 26s11.5 8 19.5 8s14.5 -2.66699 19.5 -8s7.5 -14 7.5 -26v-1185z" />
    <glyph glyph-name="braceright" unicode="}" horiz-adv-x="486" 
d="M369 277c0 -17.333 -10.667 -27.334 -32 -30.001c-18.667 -1.33301 -34.167 -9 -46.5 -23s-18.5 -31.333 -18.5 -52v-264c0 -18.667 -3.16699 -36 -9.5 -52s-15 -30 -26 -42s-24 -21.333 -39 -28s-30.833 -10 -47.5 -10c-22 0 -33 9.33301 -33 28c0 10 2.83301 17 8.5 21
s14.167 6.66699 25.5 8c19.333 1.33301 35 9 47 23s18 31.333 18 52v264c0 24.667 3.66699 44.5 11 59.5s20.666 30.167 39.999 45.5c-19.333 14.667 -32.666 29.5 -39.999 44.5s-11 34.833 -11 59.5v266c0 20.667 -6 37.834 -18 51.501s-27.667 21.5 -47 23.5
c-11.333 1.33301 -19.833 4 -25.5 8s-8.5 10.667 -8.5 20c0 19.333 11 29 33 29c16.667 0 32.5 -3.33301 47.5 -10s28 -16 39 -28s19.667 -26 26 -42s9.5 -33.333 9.5 -52v-266c0 -20 6.16699 -37.167 18.5 -51.5s27.833 -22.166 46.5 -23.499
c21.333 -0.666992 32 -10.334 32 -29.001z" />
    <glyph glyph-name="asciitilde" unicode="~" horiz-adv-x="769" 
d="M652 406c0 -10.667 -5.66504 -20.165 -16.998 -28.498s-21 -15.166 -29 -20.499c-17.333 -10.667 -34 -18.167 -50 -22.5s-32 -6.5 -48 -6.5c-17.333 0 -35.833 2.66699 -55.5 8s-40 11.166 -61 17.499s-42.333 12.166 -64 17.499s-42.834 8 -63.501 8
c-16.667 0 -32.167 -2.16699 -46.5 -6.5s-27.333 -9.33301 -39 -15l-30.5 -15c-8.66699 -4.33301 -15.667 -6.5 -21 -6.5c-4 0 -6.66699 2 -8 6s-2 7.33301 -2 10c0 10.667 5.33301 20.167 16 28.5s20 15.166 28 20.499c17.333 10.667 34.166 18 50.499 22s32.833 6 49.5 6
c18 0 37.167 -2.5 57.5 -7.5s41 -10.667 62 -17s42 -12 63 -17s41.167 -7.5 60.5 -7.5c16.667 0 32.167 2.16699 46.5 6.5s27.333 9.33301 39 15l30.5 15c8.66699 4.33301 15.667 6.5 21 6.5c4 0 6.83301 -2 8.5 -6s2.5 -7.66699 2.5 -11z" />
    <glyph glyph-name="uni00A0" unicode="&#xa0;" horiz-adv-x="431" 
 />
    <glyph glyph-name="exclamdown" unicode="&#xa1;" horiz-adv-x="431" 
d="M301 704c0 -25.333 -7.83301 -44.999 -23.5 -58.999s-36.5 -21 -62.5 -21c-25.333 0 -46 7 -62 21s-24 33.667 -24 59s8 45.166 24 59.499s36.667 21.5 62 21.5s46 -7.5 62 -22.5s24 -34.5 24 -58.5zM269 44.001c1.33301 -18.667 -2.83301 -33.167 -12.5 -43.5
s-23.5 -15.5 -41.5 -15.5c-17.333 0 -31 5.16699 -41 15.5s-14.333 24.833 -13 43.5l22 431c2 19.333 12.667 29 32 29c20 0 30.667 -9.66699 32 -29z" />
    <glyph glyph-name="cent" unicode="&#xa2;" horiz-adv-x="653" 
d="M567 226c0 -7.33301 -5.83301 -15.9951 -17.5 -25.9951s-26.834 -19.667 -45.501 -29s-40 -17.5 -64 -24.5s-48 -11.167 -72 -12.5v-148c0 -24 -9.66699 -36 -29 -36c-16.667 0 -25 12 -25 36v148c-33.333 4 -63.5 13 -90.5 27s-50.333 32.167 -70 54.5
s-34.834 48 -45.501 77s-16 60.167 -16 93.5c0 34 5.83301 64.667 17.5 92s27.5 51.166 47.5 71.499s43.5 37.166 70.5 50.499s55.833 23.333 86.5 30v131c0 24.667 8.33301 37 25 37c19.333 0 29 -12.333 29 -37v-130c24 -0.666992 48 -4.33398 72 -11.001
s45.333 -14.834 64 -24.501s33.834 -19.5 45.501 -29.5s17.5 -18.667 17.5 -26c0 -9.33301 -2.33301 -16 -7 -20s-10 -6 -16 -6c-9.33301 0 -18.333 3.33301 -27 10c-21.333 18 -46.166 31.333 -74.499 40s-59.5 13 -93.5 13c-29.333 0 -56.333 -4.83301 -81 -14.5
s-46 -23 -64 -40s-32.167 -37.167 -42.5 -60.5s-15.5 -48.666 -15.5 -75.999c0 -28.667 5 -55.334 15 -80.001s24 -46 42 -64s39.167 -32 63.5 -42s50.833 -15 79.5 -15c32.667 0 64 5.16699 94 15.5s55.667 24.166 77 41.499c8.66699 6.66699 17.667 10 27 10
c6.66699 0 12.167 -2 16.5 -6s6.5 -10.667 6.5 -20z" />
    <glyph glyph-name="sterling" unicode="&#xa3;" horiz-adv-x="680" 
d="M576 73c0 -5.33301 -2.33691 -11.3389 -7.00391 -18.0059c-15.333 -20 -35.166 -34.5 -59.499 -43.5s-49.5 -13.5 -75.5 -13.5c-16.667 0 -32.5 1.83301 -47.5 5.5s-29.833 7.83398 -44.5 12.501s-29.5 8.83398 -44.5 12.501s-30.833 5.5 -47.5 5.5
c-15.333 0 -29.666 -2 -42.999 -6s-25.333 -11.667 -36 -23c-6 -6 -12 -9 -18 -9c-7.33301 0 -14 3 -20 9s-9 12.667 -9 20c0 6 3 12 9 18l46.5 45c13 12 23.667 24.5 32 37.5s14.5 28 18.5 45s6 40.167 6 69.5c0 5.33301 -1.16699 13 -3.5 23s-5.16602 20.5 -8.49902 31.5
l-9.5 31c-3 9.66699 -4.83301 16.834 -5.5 21.501h-55c-24.667 0 -37 8.66699 -37 26c0 18.667 12.333 28 37 28h42c-13.333 42 -22.833 77.167 -28.5 105.5s-8.5 51.5 -8.5 69.5c0 26 5 50.5 15 73.5s23.5 43.167 40.5 60.5s37 31 60 41s47.5 15 73.5 15
c32.667 0 63.834 -5.66699 93.501 -17s56.834 -27.666 81.501 -48.999c4 -4 6.66699 -8.5 8 -13.5s2 -9.16699 2 -12.5c0 -6.66699 -2.66699 -12.5 -8 -17.5s-11.333 -7.5 -18 -7.5c-5.33301 0 -9.5 1.5 -12.5 4.5s-7.5 6.83301 -13.5 11.5
c-12 10.667 -23.333 19.167 -34 25.5s-21.167 11.166 -31.5 14.499s-20.833 5.5 -31.5 6.5s-22.334 1.5 -35.001 1.5c-18 0 -35.167 -3.66699 -51.5 -11s-30.833 -17.166 -43.5 -29.499s-22.667 -26.666 -30 -42.999s-11 -33.5 -11 -51.5c0 -12 1 -25 3 -39
s4.83301 -28.333 8.5 -43l11.5 -44c4 -14.667 8 -28 12 -40l4 -11h220c24 0 36 -9.33301 36 -28c0 -17.333 -12 -26 -36 -26h-209c0.666992 -6.66699 2.5 -15.167 5.5 -25.5l9 -32.5c3 -11.333 5.66699 -22.166 8 -32.499s3.5 -18.5 3.5 -24.5
c0 -34 -3.66699 -61.833 -11 -83.5s-17.666 -41.167 -30.999 -58.5c18 0 38 -2.33301 60 -7s41.333 -11 58 -19c9.33301 -4.66699 19.833 -7.83398 31.5 -9.50098s23.5 -2.5 35.5 -2.5c18.667 0 36.667 2.83301 54 8.5s30.666 15.167 39.999 28.5
c7.33301 7.33301 14.333 11 21 11c7.33301 0 14 -2.66699 20 -8s9 -11.666 9 -18.999z" />
    <glyph glyph-name="currency" unicode="&#xa4;" 
d="M550 371c0 -28 -8.83398 -50.832 -26.501 -68.499s-40.5 -26.5 -68.5 -26.5h-73c11.333 -16.667 17 -35.334 17 -56.001c0 -28 -8.83301 -50.833 -26.5 -68.5s-40.5 -26.5 -68.5 -26.5h-254v254c0 28 8.83301 50.833 26.5 68.5s40.5 26.5 68.5 26.5
c20.667 0 39.334 -5.66699 56.001 -17v73c0 28 8.83301 50.833 26.5 68.5s40.5 26.5 68.5 26.5s50.833 -8.83301 68.5 -26.5s26.5 -40.5 26.5 -68.5v-64h64c28 0 50.833 -8.83301 68.5 -26.5s26.5 -40.5 26.5 -68.5zM532.999 371.001
c0 23.333 -7.16895 42.168 -21.502 56.501s-33.166 21.5 -56.499 21.5h-81v81c0 23.333 -7.16699 42.166 -21.5 56.499s-33.166 21.5 -56.499 21.5s-42.166 -7.16699 -56.499 -21.5s-21.5 -33.166 -21.5 -56.499v-237h237c23.333 0 42.166 7.16699 56.499 21.5
s21.5 33.166 21.5 56.499z" />
    <glyph glyph-name="yen" unicode="&#xa5;" horiz-adv-x="727" 
d="M622 394c0 -8 -2.49805 -14.333 -7.49805 -19s-14.167 -7 -27.5 -7h-145l-47 -88h192c22.667 0 34 -9 34 -27c0 -16.667 -11.333 -25 -34 -25h-196v-207c0 -13.333 -2.5 -22.666 -7.5 -27.999s-11.833 -8 -20.5 -8c-7.33301 0 -13.5 2.5 -18.5 7.5s-7.5 13.167 -7.5 24.5
v211h-197c-22.667 0 -34 8.33301 -34 25c0 18 11.333 27 34 27h192l-47 88h-145c-22.667 0 -34 8.66699 -34 26c0 18 11.333 27 34 27h116l-144 264c-4.66699 8.66699 -7 16 -7 22c0 6.66699 2.66699 12.5 8 17.5s11.666 7.5 18.999 7.5c8.66699 0 17.667 -7.33301 27 -22
l204 -373l205 373c4.66699 7.33301 9 12.833 13 16.5s8.66699 5.5 14 5.5c7.33301 0 13.666 -2.33301 18.999 -7s8 -10.667 8 -18c0 -6 -2.33301 -13.333 -7 -22l-144 -264h116c13.333 0 22.5 -2.33301 27.5 -7s7.5 -11.334 7.5 -20.001z" />
    <glyph glyph-name="brokenbar" unicode="&#xa6;" horiz-adv-x="325" 
d="M189 439c0 -12 -2.5 -20.667 -7.5 -26s-11.5 -8 -19.5 -8s-14.5 2.66699 -19.5 8s-7.5 14 -7.5 26v386c0 12.667 2.5 21.667 7.5 27s11.5 8 19.5 8s14.5 -2.66699 19.5 -8s7.5 -14.333 7.5 -27v-386zM189 -175c0 -12 -2.5 -20.667 -7.5 -26s-11.5 -8 -19.5 -8
s-14.5 2.66699 -19.5 8s-7.5 14 -7.5 26v387c0 12 2.5 20.667 7.5 26s11.5 8 19.5 8s14.5 -2.66699 19.5 -8s7.5 -14 7.5 -26v-387z" />
    <glyph glyph-name="section" unicode="&#xa7;" horiz-adv-x="752" 
d="M659 188c0 -29.333 -11.667 -52.8291 -35 -70.4961s-52 -28.167 -86 -31.5c7.33301 -14.667 11 -30.667 11 -48c0 -22.667 -4 -43.5 -12 -62.5s-19 -35.333 -33 -49s-30.833 -24.334 -50.5 -32.001s-40.834 -11.5 -63.501 -11.5h-210
c-9.33301 0 -17.666 2.16699 -24.999 6.5s-11 11.5 -11 21.5c0 11.333 3.66699 19.166 11 23.499s15.666 6.5 24.999 6.5h209c14.667 0 28.334 2.5 41.001 7.5s23.5 11.667 32.5 20s16 18.166 21 29.499s7.5 23.333 7.5 36c0 14 -5.66699 28 -17 42s-25 27.167 -41 39.5
s-32.5 23.5 -49.5 33.5l-41.5 24l-76 43c-61.333 34.667 -105.666 66.167 -132.999 94.5s-41 58.166 -41 89.499c0 28 11.5 50.833 34.5 68.5s52.5 28.834 88.5 33.501c-8 16 -12 32 -12 48c0 21.333 4 41.333 12 60s19 35 33 49s30.333 25.167 49 33.5s38.667 12.5 60 12.5
h215c9.33301 0 17.666 -2.33301 24.999 -7s11 -11.667 11 -21c0 -11.333 -3.5 -19.333 -10.5 -24s-15.167 -7 -24.5 -7h-213c-12.667 0 -25 -2.66699 -37 -8s-22.5 -12.333 -31.5 -21s-16.333 -18.5 -22 -29.5s-8.5 -22.167 -8.5 -33.5c0 -23.333 15.167 -47.5 45.5 -72.5
s71.833 -51.5 124.5 -79.5l70 -37c18.667 -10 37.5 -20.833 56.5 -32.5s36 -24.667 51 -39s27.167 -30.333 36.5 -48s14 -36.834 14 -57.501zM601 192.004c0 14 -9.83301 30.666 -29.5 49.999s-53.5 42.666 -101.5 69.999l-74 42l-49 29c-13.333 8 -25 15.333 -35 22
s-19 13.167 -27 19.5s-16.333 13.5 -25 21.5c-6 -1.33301 -15 -2.16602 -27 -2.49902s-24.167 -1.66602 -36.5 -3.99902s-23.166 -6.5 -32.499 -12.5s-14 -15.333 -14 -28c0 -14 6.33301 -27.833 19 -41.5s27.5 -26.667 44.5 -39s34 -23.333 51 -33l38.5 -21.5l71 -41
l43.5 -26l32.5 -20c9.33301 -6 17.333 -11.667 24 -17s13 -11 19 -17c8.66699 0 19.167 0.333008 31.5 1s24.166 2.5 35.499 5.5s21 7.83301 29 14.5s12 16 12 28z" />
    <glyph glyph-name="dieresis" unicode="&#xa8;" horiz-adv-x="775" 
d="M594 732c0 -19.333 -5.83203 -34.834 -17.499 -46.501s-26.834 -17.5 -45.501 -17.5s-34 6 -46 18s-18 27.333 -18 46c0 16.667 6.5 31.334 19.5 44.001s27.5 19 43.5 19c18.667 0 34 -6 46 -18s18 -27 18 -45zM306.001 731.999c0 -19.333 -5.33301 -34.835 -16 -46.502
s-25.667 -17.5 -45 -17.5c-18.667 0 -34.167 6.16699 -46.5 18.5s-18.5 27.5 -18.5 45.5c0 16.667 6.33301 31.334 19 44.001s27.667 19 45 19s32 -6.16699 44 -18.5s18 -27.166 18 -44.499z" />
    <glyph glyph-name="copyright" unicode="&#xa9;" horiz-adv-x="1080" 
d="M963 363c0 -58.667 -10.998 -113.836 -32.998 -165.503s-52 -96.667 -90 -135s-82.833 -68.666 -134.5 -90.999s-106.834 -33.5 -165.501 -33.5c-59.333 0 -114.666 11 -165.999 33s-96 52.167 -134 90.5s-68 83.333 -90 135s-33 107.167 -33 166.5
c0 58.667 11 113.834 33 165.501s52 96.5 90 134.5s82.667 68 134 90s106.666 33 165.999 33c58.667 0 113.667 -11 165 -33s96.166 -52.167 134.499 -90.5s68.5 -83.166 90.5 -134.499s33 -106.333 33 -165zM920.002 362.998c0 52 -10.001 101.167 -30.001 147.5
s-47.167 86.666 -81.5 120.999s-74.666 61.5 -120.999 81.5s-95.5 30 -147.5 30c-52.667 0 -102 -10 -148 -30s-86.167 -47.167 -120.5 -81.5s-61.5 -74.666 -81.5 -120.999s-30 -95.5 -30 -147.5c0 -52.667 10 -102 30 -148s47.167 -86.167 81.5 -120.5
s74.5 -61.5 120.5 -81.5s95.333 -30 148 -30c52 0 101 10 147 30s86.333 47.333 121 82s62 75 82 121s30 95 30 147zM724.001 220.998c0 -10.667 -11.002 -26 -33.002 -46c-20 -19.333 -42.333 -34 -67 -44s-49.667 -15 -75 -15c-37.333 0 -70.333 6.5 -99 19.5
s-52.834 30.833 -72.501 53.5s-34.667 49.334 -45 80.001s-15.5 63.334 -15.5 98.001c0 34 4.33301 66.333 13 97s22 57.5 40 80.5s40.333 41.167 67 54.5s58 20 94 20c54.667 0 102.667 -19.667 144 -59c10 -9.33301 18 -18 24 -26s9 -15 9 -21
c0 -7.33301 -2.33301 -13 -7 -17s-10 -6 -16 -6c-3.33301 0 -7 0.666992 -11 2s-7.66699 3.66602 -11 6.99902c-18.667 22.667 -38 40.5 -58 53.5s-43 19.5 -69 19.5c-28.667 0 -53.667 -5.33301 -75 -16s-39.166 -25.334 -53.499 -44.001s-25.166 -40.667 -32.499 -66
s-11 -52.333 -11 -81c0 -28 4.16699 -54.333 12.5 -79s20.5 -46.167 36.5 -64.5s35.5 -32.833 58.5 -43.5s49.5 -16 79.5 -16c26.667 0 50 6.66699 70 20s39.333 31 58 53c6 7.33301 13 11 21 11c6.66699 0 12.334 -2.33301 17.001 -7s7 -10.667 7 -18z" />
    <glyph glyph-name="ordfeminine" unicode="&#xaa;" horiz-adv-x="717" 
d="M539 323c0 -19.333 -7.00098 -28.999 -21.001 -28.999c-16 0 -24 9.66699 -24 29v41c-28.667 -24 -58 -41.667 -88 -53s-62 -17 -96 -17c-22.667 0 -43.334 4 -62.001 12s-34.5 18.667 -47.5 32s-23.167 28.833 -30.5 46.5s-11 36.167 -11 55.5
c0 23.333 5.16699 44.333 15.5 63s24.833 34.667 43.5 48s40.834 23.666 66.501 30.999s53.5 11 83.5 11c19.333 0 38.666 -1.16699 57.999 -3.5s42 -6.16602 68 -11.499v62c0 23.333 -10.667 42.166 -32 56.499s-50 21.5 -86 21.5c-7.33301 0 -17.833 -0.5 -31.5 -1.5
s-27.5 -3.16699 -41.5 -6.5c-20 -5.33301 -36 -10.666 -48 -15.999s-20.667 -8 -26 -8s-10.666 1.66699 -15.999 5s-8 8.66602 -8 15.999c0 10.667 7.5 19.5 22.5 26.5s32.333 12.667 52 17s39.334 7.5 59.001 9.5s34.5 3 44.5 3c22 0 42.5 -3.16699 61.5 -9.5
s35.5 -15 49.5 -26s25 -24 33 -39s12 -31.167 12 -48.5v-317zM575.999 212.001c0 -18 -11.666 -27 -34.999 -27h-365c-23.333 0 -35 9 -35 27c0 8 2.66699 14.5 8 19.5s14.333 7.5 27 7.5h364c13.333 0 22.666 -2.5 27.999 -7.5s8 -11.5 8 -19.5zM494 533.001
c-16.667 4.66699 -35.998 8.16504 -57.998 10.498s-43 3.5 -63 3.5c-24.667 0 -47.334 -2.66699 -68.001 -8s-38.5 -12.666 -53.5 -21.999s-26.667 -20.666 -35 -33.999s-12.5 -28 -12.5 -44c0 -13.333 2.5 -26 7.5 -38s12 -22.667 21 -32s19.833 -16.833 32.5 -22.5
s27 -8.5 43 -8.5c40 0 74.167 7.5 102.5 22.5s56.166 35.833 83.499 62.5v110z" />
    <glyph glyph-name="guillemotleft" unicode="&#xab;" horiz-adv-x="520" 
d="M428 82c0 -6.66699 -3.00098 -12.499 -9.00098 -17.499s-12.333 -7.5 -19 -7.5c-10 0 -18.667 6.66699 -26 20l-96 180c-4.66699 8 -7 15.333 -7 22c0 7.33301 2.33301 14.666 7 21.999l95 176c6.66699 14.667 15.667 22 27 22c6.66699 0 12.834 -2.5 18.501 -7.5
s8.5 -10.5 8.5 -16.5s-2.66699 -13.333 -8 -22l-92 -174l95 -176c4 -6.66699 6 -13.667 6 -21zM241.999 82.001c0 -6.66699 -2.83203 -12.5 -8.49902 -17.5s-12.167 -7.5 -19.5 -7.5c-9.33301 0 -18 6.66699 -26 20l-96 180l-4.5 11c-1.66699 4 -2.5 7.66699 -2.5 11
c0 7.33301 2.33301 14.666 7 21.999l95 176c6.66699 14.667 15.667 22 27 22c7.33301 0 13.666 -2.5 18.999 -7.5s8 -10.5 8 -16.5c0 -7.33301 -2.33301 -14.666 -7 -21.999l-93 -174l95 -176c4 -6.66699 6 -13.667 6 -21z" />
    <glyph glyph-name="logicalnot" unicode="&#xac;" horiz-adv-x="774" 
d="M681 245c0 -12.667 -2.5 -21.667 -7.5 -27s-11.5 -8 -19.5 -8s-14.5 2.66699 -19.5 8s-7.5 14.333 -7.5 27v231h-513c-12 0 -20.667 2.5 -26 7.5s-8 11.5 -8 19.5s2.66699 14.5 8 19.5s14 7.5 26 7.5h540c8 0 14.5 -2.66699 19.5 -8s7.5 -14 7.5 -26v-251z" />
    <glyph glyph-name="uni00AD" unicode="&#xad;" horiz-adv-x="779" 
d="M668 349c0 -8 -2.66699 -14.5 -8 -19.5s-14.666 -7.5 -27.999 -7.5h-487c-12 0 -20.667 2.5 -26 7.5s-8 11.5 -8 19.5s2.66699 14.5 8 19.5s14 7.5 26 7.5h487c13.333 0 22.666 -2.5 27.999 -7.5s8 -11.5 8 -19.5z" />
    <glyph glyph-name="registered" unicode="&#xae;" horiz-adv-x="1080" 
d="M963 363c0 -58.667 -11 -113.836 -33 -165.503s-52.167 -96.667 -90.5 -135s-83.166 -68.666 -134.499 -90.999s-106.333 -33.5 -165 -33.5c-59.333 0 -114.666 11 -165.999 33s-96 52.167 -134 90.5s-68 83.333 -90 135s-33 107.167 -33 166.5
c0 58.667 11 113.834 33 165.501s52 96.5 90 134.5s82.667 68 134 90s106.666 33 165.999 33c58.667 0 113.667 -11 165 -33s96.166 -52.167 134.499 -90.5s68.5 -83.166 90.5 -134.499s33 -106.333 33 -165zM920 362.998c0 52 -10.001 101.167 -30.001 147.5
s-47.167 86.666 -81.5 120.999s-74.666 61.5 -120.999 81.5s-95.5 30 -147.5 30c-52.667 0 -102 -10 -148 -30s-86.167 -47.167 -120.5 -81.5s-61.5 -74.666 -81.5 -120.999s-30 -95.5 -30 -147.5c0 -52.667 10 -102 30 -148s47.167 -86.167 81.5 -120.5
s74.5 -61.5 120.5 -81.5s95.333 -30 148 -30c52 0 101 10 147 30s86.333 47.333 121 82s62 75 82 121s30 95 30 147zM736.999 149.998c0 -5.33301 -2.33008 -10.3379 -6.99707 -15.0049s-10.667 -7 -18 -7c-8.66699 0 -16.334 5.33301 -23.001 16l-95 145
c-10.667 16.667 -22 30.834 -34 42.501s-29.667 17.5 -53 17.5h-65v-192c0 -19.333 -8.33301 -29 -25 -29s-25 9.66699 -25 29v431c0 16.667 7 25 21 25h161c19.333 0 37.666 -3.5 54.999 -10.5s32.5 -16.5 45.5 -28.5s23.167 -26 30.5 -42s11 -33 11 -51
c0 -31.333 -10.333 -58.666 -31 -81.999s-46.334 -38.666 -77.001 -45.999c12 -11.333 23.333 -25.333 34 -42l87 -141c2 -3.33301 3.83301 -6.66602 5.5 -9.99902s2.5 -6.66602 2.5 -9.99902zM663.002 480.993c0 10.667 -2.33203 21 -6.99902 31s-11 18.833 -19 26.5
s-17.333 13.667 -28 18s-22.334 6.5 -35.001 6.5h-132v-164h132c25.333 0 46.5 8.16699 63.5 24.5s25.5 35.5 25.5 57.5z" />
    <glyph glyph-name="macron" unicode="&#xaf;" horiz-adv-x="775" 
d="M597 722c0 -8 -2.66699 -14.5 -8 -19.5s-14.333 -7.5 -27 -7.5h-350c-12.667 0 -21.667 2.5 -27 7.5s-8 11.5 -8 19.5s2.66699 14.5 8 19.5s14.333 7.5 27 7.5h350c12.667 0 21.667 -2.5 27 -7.5s8 -11.5 8 -19.5z" />
    <glyph glyph-name="degree" unicode="&#xb0;" horiz-adv-x="571" 
d="M466 624c0 -25.333 -4.66699 -49 -14 -71s-22.166 -41.167 -38.499 -57.5s-35.5 -29.166 -57.5 -38.499s-45.667 -14 -71 -14s-49 4.66699 -71 14s-41 22.166 -57 38.499s-28.667 35.5 -38 57.5s-14 45.667 -14 71c0 24.667 4.66699 48 14 70s22.166 41.167 38.499 57.5
s35.5 29.166 57.5 38.499s45.333 14 70 14s48 -4.66699 70 -14s41.333 -22.166 58 -38.499s29.667 -35.5 39 -57.5s14 -45.333 14 -70zM412 624c0 16.667 -3.33301 32.667 -10 48s-15.834 28.833 -27.501 40.5s-25.167 20.834 -40.5 27.501s-31.666 10 -48.999 10
s-33.666 -3.33301 -48.999 -10s-28.666 -15.834 -39.999 -27.501s-20.333 -25.167 -27 -40.5s-10 -31.333 -10 -48c0 -17.333 3.33301 -33.666 10 -48.999s15.667 -28.833 27 -40.5s24.666 -20.834 39.999 -27.501s31.666 -10 48.999 -10s33.666 3.33301 48.999 10
s28.833 15.834 40.5 27.501s20.834 25.167 27.501 40.5s10 31.666 10 48.999z" />
    <glyph glyph-name="plusminus" unicode="&#xb1;" horiz-adv-x="641" 
d="M561 487c0 -8 -2.66699 -14.5 -8 -19.5s-14.333 -7.5 -27 -7.5h-178v-209c0 -12.667 -2.5 -21.667 -7.5 -27s-11.5 -8 -19.5 -8s-14.5 2.66699 -19.5 8s-7.5 14.333 -7.5 27v209h-180c-12 0 -20.667 2.5 -26 7.5s-8 11.5 -8 19.5s2.66699 14.5 8 19.5s14 7.5 26 7.5h180
v210c0 12.667 2.5 21.667 7.5 27s11.5 8 19.5 8s14.5 -2.66699 19.5 -8s7.5 -14.333 7.5 -27v-210h178c12.667 0 21.667 -2.5 27 -7.5s8 -11.5 8 -19.5zM561 84c0 -8 -2.66699 -14.5 -8 -19.5s-14.333 -7.5 -27 -7.5h-412c-12 0 -20.667 2.5 -26 7.5s-8 11.5 -8 19.5
s2.66699 14.5 8 19.5s14 7.5 26 7.5h412c12.667 0 21.667 -2.5 27 -7.5s8 -11.5 8 -19.5z" />
    <glyph glyph-name="twosuperior" unicode="&#xb2;" horiz-adv-x="539" 
d="M422 321c0 -14.667 -9 -22.002 -27 -22.002h-256c-6 0 -11.167 2.33301 -15.5 7s-6.5 9.66699 -6.5 15c0 6 2 11 6 15l205 218c18 19.333 31 35.5 39 48.5s12 25.833 12 38.5s-2.66699 24.834 -8 36.501s-12.833 22 -22.5 31s-20.667 16.333 -33 22s-25.5 8.5 -39.5 8.5
c-18 0 -34.833 -3.83301 -50.5 -11.5s-28.834 -18.167 -39.501 -31.5l-17.5 -21c-6.33301 -7.33301 -13.166 -11 -20.499 -11c-4.66699 0 -9.33398 2 -14.001 6s-7 9 -7 15c0 6.66699 2.66699 13.334 8 20.001l19 22c14.667 17.333 33.5 30.833 56.5 40.5
s44.167 14.5 63.5 14.5c20 0 38.833 -3.83301 56.5 -11.5s33.334 -18 47.001 -31s24.5 -28 32.5 -45s12 -34.5 12 -52.5c0 -19.333 -4.83301 -37.5 -14.5 -54.5s-24.5 -36.5 -44.5 -58.5l-172 -186h205c17.333 0 26 -7.33301 26 -22z" />
    <glyph glyph-name="threesuperior" unicode="&#xb3;" horiz-adv-x="501" 
d="M408 422c0 -21.333 -4.16406 -41.0059 -12.4971 -59.0059s-19.833 -33.667 -34.5 -47s-32 -23.666 -52 -30.999s-41.333 -11 -64 -11c-12 0 -26.667 1.83301 -44 5.5s-34 8.66699 -50 15s-29.833 13.833 -41.5 22.5s-17.5 17.667 -17.5 27
c0 6.66699 2.16699 12.334 6.5 17.001s9.5 7 15.5 7c3.33301 0 6.33301 -0.666992 9 -2s5.66699 -3.33301 9 -6c36.667 -26 74.667 -39 114 -39c16 0 31.167 2.5 45.5 7.5s26.833 12 37.5 21s19 19.5 25 31.5s9 24.667 9 38c0 12.667 -3.33301 25.334 -10 38.001
s-15.834 24 -27.501 34s-25.334 18 -41.001 24s-32.167 9 -49.5 9c-7.33301 0 -13.666 1.66699 -18.999 5s-8 9 -8 17s2.66699 13.833 8 17.5s11.666 5.5 18.999 5.5c13.333 0 26.666 1.16699 39.999 3.5s25.166 6.33301 35.499 12s18.833 13.334 25.5 23.001
s10 22.167 10 37.5c0 10.667 -2.33301 21.334 -7 32.001s-11.167 20.167 -19.5 28.5s-18.166 15 -29.499 20s-23.666 7.5 -36.999 7.5c-11.333 0 -21 -0.666992 -29 -2s-15.5 -3.16602 -22.5 -5.49902s-13.667 -5.16602 -20 -8.49902s-13.5 -7.33301 -21.5 -12l-9 -5
c-5.33301 -3.33301 -11 -5 -17 -5c-5.33301 0 -10.166 2.33301 -14.499 7s-6.5 9.66699 -6.5 15c0 8 5.33301 15.333 16 22l11 6c10 6 19.167 11 27.5 15s16.833 7.5 25.5 10.5s18 5.16699 28 6.5s22 2 36 2c18.667 0 36.167 -3.83301 52.5 -11.5s30.666 -17.667 42.999 -30
s22 -26.5 29 -42.5s10.5 -32.333 10.5 -49c0 -21.333 -5.33301 -40.833 -16 -58.5s-25.334 -32.167 -44.001 -43.5c23.333 -13.333 41.833 -31.333 55.5 -54s20.5 -45.334 20.5 -68.001z" />
    <glyph glyph-name="acute" unicode="&#xb4;" horiz-adv-x="775" 
d="M590 756c0 -4.66699 -3.66699 -8.66699 -11 -12l-306 -108l-9 17l280 162c2 2 4.33301 3 7 3c6.66699 0 12 -3.33301 16 -10l22 -45c0.666992 -2 1 -4.33301 1 -7z" />
    <glyph glyph-name="uni00B5" unicode="&#xb5;" horiz-adv-x="678" 
d="M561 21c0 -13.333 -2.50293 -22.667 -7.50293 -28s-11.5 -8 -19.5 -8c-18.667 0 -28 11.667 -28 35v71c-26 -34.667 -55.667 -60.334 -89 -77.001s-67.666 -25 -102.999 -25c-28 0 -54.333 4.83301 -79 14.5s-46 22.834 -64 39.501v-255c0 -12 -2.5 -20.667 -7.5 -26
s-11.5 -8 -19.5 -8s-14.5 2.66699 -19.5 8s-7.5 14 -7.5 26v746c0 22.667 9 34 27 34c8 0 14.5 -2.66699 19.5 -8s7.5 -14 7.5 -26v-367c0 -18 3.66699 -34.667 11 -50s17.333 -28.5 30 -39.5s27.834 -19.5 45.501 -25.5s37.167 -9 58.5 -9
c22.667 0 43.167 3.83301 61.5 11.5s35.333 18 51 31s29.834 27.833 42.501 44.5s24.667 33.667 36 51v353c0 22.667 9 34 27 34c8 0 14.5 -2.83301 19.5 -8.5s7.5 -14.5 7.5 -26.5v-512z" />
    <glyph glyph-name="paragraph" unicode="&#xb6;" horiz-adv-x="685" 
d="M568 691c0 -12.667 -8 -19.002 -24 -19.002h-73v-793c0 -16 -6 -24 -18 -24c-13.333 0 -20 8.66699 -20 26v791h-69v-791c0 -17.333 -5.66699 -26 -17 -26c-13.333 0 -20 8.66699 -20 26v488h-35c-29.333 0 -56.833 4.33301 -82.5 13s-48.167 20.834 -67.5 36.501
s-34.5 33.834 -45.5 54.501s-16.5 43 -16.5 67s5.5 46.333 16.5 67s26.167 38.667 45.5 54s41.833 27.333 67.5 36s53.167 13 82.5 13h252c16 0 24 -6.33301 24 -19z" />
    <glyph glyph-name="periodcentered" unicode="&#xb7;" horiz-adv-x="440" 
d="M327 379c0 -31.333 -10.001 -57.001 -30.001 -77.001s-45.667 -30 -77 -30c-14.667 0 -28.5 2.83301 -41.5 8.5s-24.333 13.334 -34 23.001s-17.334 21 -23.001 34s-8.5 26.833 -8.5 41.5s2.83301 28.5 8.5 41.5s13.334 24.333 23.001 34s21 17.334 34 23.001
s26.833 8.5 41.5 8.5s28.5 -2.83301 41.5 -8.5s24.333 -13.334 34 -23.001s17.334 -21 23.001 -34s8.5 -26.833 8.5 -41.5z" />
    <glyph glyph-name="cedilla" unicode="&#xb8;" horiz-adv-x="692" 
d="M456 -185c0 -25.333 -9.83398 -45.9971 -29.501 -61.9971s-46.167 -24 -79.5 -24c-12 0 -25.333 1.5 -40 4.5s-28.5 7.16699 -41.5 12.5s-24 11.333 -33 18s-13.5 13.667 -13.5 21c0 6.66699 2 12.167 6 16.5s9.33301 6.5 16 6.5c2.66699 0 4.83398 -0.333008 6.50098 -1
s4.83398 -2.33398 9.50098 -5.00098c16.667 -8.66699 32.5 -15.334 47.5 -20.001s29.167 -7 42.5 -7c18.667 0 34 4 46 12s18 18 18 30c0 10.667 -5.5 19.834 -16.5 27.501s-24.167 11.5 -39.5 11.5h-30v178h44v-137c10.667 -1.33301 21.167 -4 31.5 -8
s19.666 -9.33301 27.999 -16s15 -14.834 20 -24.501s7.5 -20.834 7.5 -33.501z" />
    <glyph glyph-name="onesuperior" unicode="&#xb9;" horiz-adv-x="482" 
d="M390 320c0 -14.667 -9 -22 -27 -22h-219c-18 0 -27 7.33301 -27 22s9 22 27 22h88v384l-77 -21c-2.66699 -0.666992 -6 -1 -10 -1c-6.66699 0 -12.167 1.83301 -16.5 5.5s-6.5 9.16699 -6.5 16.5c0 10.667 7 18 21 22l81 22c14.667 4 25 6 31 6
c14.667 0 22 -8.66699 22 -26v-408h86c18 0 27 -7.33301 27 -22z" />
    <glyph glyph-name="ordmasculine" unicode="&#xba;" horiz-adv-x="717" 
d="M592 528c0 -36 -6 -68.166 -18 -96.499s-28.5 -52.5 -49.5 -72.5s-45.833 -35.167 -74.5 -45.5s-59.334 -15.5 -92.001 -15.5s-63.167 5.33301 -91.5 16s-53 25.834 -74 45.501s-37.5 43.667 -49.5 72s-18 60.5 -18 96.5s6 68.333 18 97s28.5 53 49.5 73
s45.667 35.167 74 45.5s58.833 15.5 91.5 15.5s63.334 -5.33301 92.001 -16s53.5 -25.834 74.5 -45.501s37.5 -43.834 49.5 -72.501s18 -61 18 -97zM604 212.001c0 -18 -11.668 -27 -35.001 -27h-421c-24 0 -36 9 -36 27c0 8 2.83301 14.5 8.5 19.5s14.834 7.5 27.501 7.5
h421c12.667 0 21.667 -2.5 27 -7.5s8 -11.5 8 -19.5zM550.999 528.001c0 29.333 -5 55.667 -15 79s-23.667 43 -41 59s-37.833 28.333 -61.5 37s-48.834 13 -75.501 13c-27.333 0 -52.666 -4.16699 -75.999 -12.5s-43.5 -20.5 -60.5 -36.5s-30.5 -35.667 -40.5 -59
s-15 -50 -15 -80c0 -29.333 5 -55.666 15 -78.999s23.667 -43 41 -59s37.666 -28.167 60.999 -36.5s48.333 -12.5 75 -12.5s51.834 4.16699 75.501 12.5s44.167 20.5 61.5 36.5s31 35.667 41 59s15 49.666 15 78.999z" />
    <glyph glyph-name="guillemotright" unicode="&#xbb;" horiz-adv-x="520" 
d="M435 279c0 -6.66699 -2.33398 -14.001 -7.00098 -22.001l-96 -180c-7.33301 -13.333 -16 -20 -26 -20c-6.66699 0 -13 2.5 -19 7.5s-9 10.833 -9 17.5c0 7.33301 2 14.333 6 21l95 176l-92 174c-5.33301 8.66699 -8 16 -8 22s2.83301 11.5 8.5 16.5
s11.834 7.5 18.501 7.5c11.333 0 20.333 -7.33301 27 -22l95 -176c4.66699 -7.33301 7 -14.666 7 -21.999zM249.999 278.999c0 -3.33301 -0.833984 -7 -2.50098 -11s-3.5 -7.66699 -5.5 -11l-96 -180c-7.33301 -13.333 -15.666 -20 -24.999 -20c-7.33301 0 -14 2.5 -20 7.5
s-9 10.833 -9 17.5c0 7.33301 2 14.333 6 21l95 176l-92 174c-5.33301 8.66699 -8 16 -8 22s2.83301 11.5 8.5 16.5s12.167 7.5 19.5 7.5c10 0 19 -7.33301 27 -22l94 -176c2.66699 -4 4.66699 -7.66699 6 -11s2 -7 2 -11z" />
    <glyph glyph-name="onequarter" unicode="&#xbc;" horiz-adv-x="782" 
d="M333 485c0 -10.667 -6.33398 -16 -19.001 -16h-138c-13.333 0 -20 5.33301 -20 16s6.66699 16 20 16h54v233l-47 -12c-1.33301 -0.666992 -3.66602 -1 -6.99902 -1c-5.33301 0 -9.33301 1.5 -12 4.5s-4 6.5 -4 10.5c0 8 5 13.667 15 17l62 17c2 0.666992 5 1 9 1
c10.667 0 16 -6.33301 16 -19v-251h53c12 0 18 -5.33301 18 -16zM687.999 504c0 -9.33301 -7.00098 -18.001 -21.001 -26.001l-540 -274c-8 -4 -14.667 -6 -20 -6c-7.33301 0 -13.333 2.83301 -18 8.5s-7 11.5 -7 17.5c0 9.33301 7 18 21 26l540 274
c4.66699 2.66699 8.5 4.33398 11.5 5.00098s6.16699 1 9.5 1c6.66699 0 12.334 -2.66699 17.001 -8s7 -11.333 7 -18zM602.998 42.999c0 -5.33301 -2 -9.33203 -6 -11.999s-8.66699 -4 -14 -4h-25v-60c0 -13.333 -5.33301 -20 -16 -20c-11.333 0 -17 6.66699 -17 20v60h-109
c-5.33301 0 -9.83301 1.16699 -13.5 3.5s-5.5 6.16602 -5.5 11.499c0 3.33301 0.166992 6 0.5 8s1.5 4.66699 3.5 8l111 188c3.33301 7.33301 8 11 14 11c0.666992 0 2 -0.166992 4 -0.5s4.33301 -0.5 7 -0.5c2.66699 -0.666992 5.66699 -1 9 -1c8 -2 12 -8.66699 12 -20
v-175h25c5.33301 0 10 -1.5 14 -4.5s6 -7.16699 6 -12.5zM524.998 204l-85 -144h85v144z" />
    <glyph glyph-name="onehalf" unicode="&#xbd;" horiz-adv-x="782" 
d="M333 485c0 -10.667 -6.33398 -16 -19.001 -16h-138c-13.333 0 -20 5.33301 -20 16s6.66699 16 20 16h54v233l-47 -12c-1.33301 -0.666992 -3.66602 -1 -6.99902 -1c-5.33301 0 -9.33301 1.5 -12 4.5s-4 6.5 -4 10.5c0 8 5 13.667 15 17l62 17c2 0.666992 5 1 9 1
c10.667 0 16 -6.33301 16 -19v-251h53c12 0 18 -5.33301 18 -16zM687.999 504c0 -9.33301 -7.00098 -18.001 -21.001 -26.001l-540 -274c-8 -4 -14.667 -6 -20 -6c-7.33301 0 -13.333 2.83301 -18 8.5s-7 11.5 -7 17.5c0 9.33301 7 18 21 26l540 274
c4.66699 2.66699 8.5 4.33398 11.5 5.00098s6.16699 1 9.5 1c6.66699 0 12.334 -2.66699 17.001 -8s7 -11.333 7 -18zM610.998 -30.001c0 -10.667 -6.00098 -15.999 -18.001 -15.999h-162c-5.33301 0 -9.33301 1.66699 -12 5s-4 7 -4 11s1 8 3 12l131 136
c11.333 11.333 19.5 21 24.5 29s7.5 16 7.5 24c0 15.333 -6.33301 28.666 -19 39.999s-27.667 17 -45 17c-22 0 -40.667 -8.66699 -56 -26c-2.66699 -4 -6.33398 -8.66699 -11.001 -14s-9.66699 -8 -15 -8c-3.33301 0 -6.5 1.5 -9.5 4.5s-4.5 6.16699 -4.5 9.5
c0 8.66699 3.33301 17 10 25s14.834 15 24.501 21s20 10.833 31 14.5s20.5 5.5 28.5 5.5c12.667 0 24.834 -2.33301 36.501 -7s22 -11.167 31 -19.5s16 -17.833 21 -28.5s7.5 -22 7.5 -34c0 -13.333 -3 -25 -9 -35s-15.667 -22 -29 -36l-104 -114h124
c12 0 18 -5.33301 18 -16z" />
    <glyph glyph-name="threequarters" unicode="&#xbe;" horiz-adv-x="782" 
d="M359 551c0 -26.667 -9.83398 -48.667 -29.501 -66s-44.167 -26 -73.5 -26c-7.33301 0 -16.333 1.16699 -27 3.5s-21.167 5.5 -31.5 9.5s-19.166 8.66699 -26.499 14s-11 11.333 -11 18c0 10.667 5.33301 16 16 16c4.66699 0 8.66699 -1 12 -3
c20.667 -16.667 43.667 -25 69 -25c19.333 0 35.666 5.66699 48.999 17s20 25 20 41c0 14.667 -7.16699 28.334 -21.5 41.001s-32.166 19 -53.499 19c-5.33301 0 -10 1.33301 -14 4s-6 6.66699 -6 12c0 10 4.16699 15.667 12.5 17s16.833 2 25.5 2
c13.333 0 24.5 3.83301 33.5 11.5s13.5 17.5 13.5 29.5c0 13.333 -5.16699 25 -15.5 35s-23.5 15 -39.5 15c-14.667 0 -25.5 -1.16699 -32.5 -3.5s-15.5 -7.16602 -25.5 -14.499l-4 -2c-2 -2 -5.66699 -3 -11 -3c-4 0 -7.66699 1.66699 -11 5s-5 6.66602 -5 9.99902
c0 6 3.33301 11.667 10 17s14.834 9.66602 24.501 12.999s19.667 6 30 8s19.166 3 26.499 3c24 0 44.333 -8.16699 61 -24.5s25 -35.833 25 -58.5c0 -24.667 -11.667 -45 -35 -61c14 -8.66699 25 -19.667 33 -33s12 -27 12 -41zM687.999 504
c0 -9.33301 -7.00098 -18.001 -21.001 -26.001l-540 -274c-8 -4 -14.667 -6 -20 -6c-7.33301 0 -13.333 2.83301 -18 8.5s-7 11.5 -7 17.5c0 9.33301 7 18 21 26l540 274c4.66699 2.66699 8.5 4.33398 11.5 5.00098s6.16699 1 9.5 1c6.66699 0 12.334 -2.66699 17.001 -8
s7 -11.333 7 -18zM602.998 42.999c0 -5.33301 -2 -9.33203 -6 -11.999s-8.66699 -4 -14 -4h-25v-60c0 -13.333 -5.33301 -20 -16 -20c-11.333 0 -17 6.66699 -17 20v60h-109c-5.33301 0 -9.83301 1.16699 -13.5 3.5s-5.5 6.16602 -5.5 11.499c0 3.33301 0.166992 6 0.5 8
s1.5 4.66699 3.5 8l111 188c3.33301 7.33301 8 11 14 11c0.666992 0 2 -0.166992 4 -0.5s4.33301 -0.5 7 -0.5c2.66699 -0.666992 5.66699 -1 9 -1c8 -2 12 -8.66699 12 -20v-175h25c5.33301 0 10 -1.5 14 -4.5s6 -7.16699 6 -12.5zM524.998 204l-85 -144h85v144z" />
    <glyph glyph-name="questiondown" unicode="&#xbf;" horiz-adv-x="622" 
d="M416 678c0 -24 -9.33301 -42.501 -28 -55.501s-41.667 -19.5 -69 -19.5c-28 0 -51.333 6.33301 -70 19s-28 31.334 -28 56.001s9.33301 43.5 28 56.5s42 19.5 70 19.5c27.333 0 50.333 -6.5 69 -19.5s28 -31.833 28 -56.5zM530 104.999
c0 -8.66699 -4.33301 -18.001 -13 -28.001c-28 -28 -60.167 -49 -96.5 -63s-74.5 -21 -114.5 -21c-30.667 0 -59.167 5.66699 -85.5 17s-49 26.833 -68 46.5s-33.833 42.5 -44.5 68.5s-16 54 -16 84c0 26.667 6.16699 50.667 18.5 72s28.166 40.166 47.499 56.499
s40.833 30 64.5 41s47.167 19.833 70.5 26.5v72c0 11.333 2 20.166 6 26.499s10.667 9.5 20 9.5c18.667 0 28 -12 28 -36v-94c0 -5.33301 -1.83301 -9.5 -5.5 -12.5s-7.5 -5.5 -11.5 -7.5c-18 -6.66699 -37.667 -14.5 -59 -23.5s-41.333 -19.667 -60 -32
s-34.167 -26.666 -46.5 -42.999s-18.5 -34.833 -18.5 -55.5c0 -21.333 4.33301 -41.666 13 -60.999s20.334 -36.5 35.001 -51.5s32 -26.833 52 -35.5s41.333 -13 64 -13c13.333 0 27.833 1.66699 43.5 5s31 8 46 14s29.167 13.333 42.5 22s24.333 18 33 28c8 10 17 15 27 15
c6.66699 0 13 -2.66699 19 -8s9 -11.666 9 -18.999z" />
    <glyph glyph-name="Agrave" unicode="&#xc0;" horiz-adv-x="728" 
d="M672 12c0 -4 -2.33105 -9.00098 -6.99805 -15.001s-12 -9 -22 -9c-9.33301 0 -16 4.66699 -20 14l-12 28l-78 202h-337l-79 -202c-3.33301 -9.33301 -7 -18.666 -11 -27.999s-10.667 -14 -20 -14c-10 0 -17.167 3 -21.5 9s-6.5 11 -6.5 15c0 5.33301 1.5 11.5 4.5 18.5
l8.5 19.5l249 647c5.33301 12.667 10.666 22 15.999 28s14.666 9 27.999 9c12.667 0 22 -2.83301 28 -8.5s11.333 -15.167 16 -28.5l250 -647l9 -19.5c3.33301 -7 5 -13.167 5 -18.5zM364.002 672.999l-152 -396h303zM517.002 800.999l-306 108
c-7.33301 3.33301 -11 7.33301 -11 12c0 2.66699 0.333008 5 1 7l22 45c4 6.66699 9.33301 10 16 10c2 0 4.66699 -1 8 -3l279 -162z" />
    <glyph glyph-name="Aacute" unicode="&#xc1;" horiz-adv-x="728" 
d="M672 12c0 -4 -2.33105 -9.00098 -6.99805 -15.001s-12 -9 -22 -9c-9.33301 0 -16 4.66699 -20 14l-12 28l-78 202h-337l-79 -202c-3.33301 -9.33301 -7 -18.666 -11 -27.999s-10.667 -14 -20 -14c-10 0 -17.167 3 -21.5 9s-6.5 11 -6.5 15c0 5.33301 1.5 11.5 4.5 18.5
l8.5 19.5l249 647c5.33301 12.667 10.666 22 15.999 28s14.666 9 27.999 9c12.667 0 22 -2.83301 28 -8.5s11.333 -15.167 16 -28.5l250 -647l9 -19.5c3.33301 -7 5 -13.167 5 -18.5zM364.002 672.999l-152 -396h303zM526.002 920.999c0 -4.66699 -3.66699 -8.66699 -11 -12
l-306 -108l-9 17l280 162c2 2 4.33301 3 7 3c6.66699 0 12 -3.33301 16 -10l22 -45c0.666992 -2 1 -4.33301 1 -7z" />
    <glyph glyph-name="Acircumflex" unicode="&#xc2;" horiz-adv-x="728" 
d="M672 12c0 -4 -2.33105 -9.00098 -6.99805 -15.001s-12 -9 -22 -9c-9.33301 0 -16 4.66699 -20 14l-12 28l-78 202h-337l-79 -202c-3.33301 -9.33301 -7 -18.666 -11 -27.999s-10.667 -14 -20 -14c-10 0 -17.167 3 -21.5 9s-6.5 11 -6.5 15c0 5.33301 1.5 11.5 4.5 18.5
l8.5 19.5l249 647c5.33301 12.667 10.666 22 15.999 28s14.666 9 27.999 9c12.667 0 22 -2.83301 28 -8.5s11.333 -15.167 16 -28.5l250 -647l9 -19.5c3.33301 -7 5 -13.167 5 -18.5zM364.002 672.999l-152 -396h303zM562.002 839.999
c0 -3.33301 -1.33594 -6.49902 -4.00293 -9.49902s-5.66699 -4.5 -9 -4.5c-2.66699 0 -4.66699 0.666992 -6 2l-179 95l-179 -95c-1.33301 0 -2.16602 -0.333008 -2.49902 -1s-1.16602 -1 -2.49902 -1c-3.33301 0 -6.5 1.5 -9.5 4.5s-4.5 5.83301 -4.5 8.5
c0 2 0.333008 3.66699 1 5s1.66699 2.66602 3 3.99902l167 131c2.66699 2 6.83398 4.16699 12.501 6.5s10.5 3.5 14.5 3.5c4.66699 0 9.66699 -1.16699 15 -3.5s9.33301 -4.5 12 -6.5l168 -131c2 -3.33301 3 -6 3 -8z" />
    <glyph glyph-name="Atilde" unicode="&#xc3;" horiz-adv-x="728" 
d="M672 12c0 -4 -2.33105 -9.00098 -6.99805 -15.001s-12 -9 -22 -9c-9.33301 0 -16 4.66699 -20 14l-12 28l-78 202h-337l-79 -202c-3.33301 -9.33301 -7 -18.666 -11 -27.999s-10.667 -14 -20 -14c-10 0 -17.167 3 -21.5 9s-6.5 11 -6.5 15c0 5.33301 1.5 11.5 4.5 18.5
l8.5 19.5l249 647c5.33301 12.667 10.666 22 15.999 28s14.666 9 27.999 9c12.667 0 22 -2.83301 28 -8.5s11.333 -15.167 16 -28.5l250 -647l9 -19.5c3.33301 -7 5 -13.167 5 -18.5zM364.002 672.999l-152 -396h303zM570.002 951.999c0 -8 -3.83105 -16.667 -11.498 -26
s-17.667 -17.833 -30 -25.5s-26 -14.167 -41 -19.5s-29.833 -8 -44.5 -8c-16 0 -31.667 1.83301 -47 5.5l-46 11.5l-46 11.5c-15.333 3.66699 -30.666 5.5 -45.999 5.5c-10.667 0 -21.334 -1.83301 -32.001 -5.5s-21.334 -10.167 -32.001 -19.5
c-3.33301 -2.66699 -7.33301 -6.16699 -12 -10.5s-9.66699 -6.5 -15 -6.5c-4 0 -6.33301 1.5 -7 4.5s-1 5.83301 -1 8.5c0 11.333 4.33301 21.833 13 31.5s19.5 18 32.5 25s26.667 12.333 41 16s27.166 5.5 38.499 5.5c15.333 0 31 -1.83301 47 -5.5s32 -7.66699 48 -12
s31.667 -8.33301 47 -12s30 -5.5 44 -5.5c22 0 42.333 8 61 24l13.5 11.5c5 4.33301 10.167 6.5 15.5 6.5c1.33301 0 3.33301 -0.666992 6 -2s4 -4.33301 4 -9z" />
    <glyph glyph-name="Adieresis" unicode="&#xc4;" horiz-adv-x="728" 
d="M672 12c0 -4 -2.33105 -9.00098 -6.99805 -15.001s-12 -9 -22 -9c-9.33301 0 -16 4.66699 -20 14l-12 28l-78 202h-337l-79 -202c-3.33301 -9.33301 -7 -18.666 -11 -27.999s-10.667 -14 -20 -14c-10 0 -17.167 3 -21.5 9s-6.5 11 -6.5 15c0 5.33301 1.5 11.5 4.5 18.5
l8.5 19.5l249 647c5.33301 12.667 10.666 22 15.999 28s14.666 9 27.999 9c12.667 0 22 -2.83301 28 -8.5s11.333 -15.167 16 -28.5l250 -647l9 -19.5c3.33301 -7 5 -13.167 5 -18.5zM364.002 672.999l-152 -396h303zM572.002 896.999
c0 -19.333 -5.83203 -34.834 -17.499 -46.501s-26.834 -17.5 -45.501 -17.5s-34 6 -46 18s-18 27.333 -18 46c0 16.667 6.5 31.334 19.5 44.001s27.5 19 43.5 19c18.667 0 34 -6 46 -18s18 -27 18 -45zM284.003 896.998c0 -19.333 -5.33301 -34.835 -16 -46.502
s-25.667 -17.5 -45 -17.5c-18.667 0 -34.167 6.16699 -46.5 18.5s-18.5 27.5 -18.5 45.5c0 16.667 6.33301 31.334 19 44.001s27.667 19 45 19s32 -6.16699 44 -18.5s18 -27.166 18 -44.499z" />
    <glyph glyph-name="Aring" unicode="&#xc5;" horiz-adv-x="728" 
d="M672 12c0 -4 -2.33105 -9.00098 -6.99805 -15.001s-12 -9 -22 -9c-9.33301 0 -16 4.66699 -20 14l-12 28l-78 202h-337l-79 -202c-3.33301 -9.33301 -7 -18.666 -11 -27.999s-10.667 -14 -20 -14c-10 0 -17.167 3 -21.5 9s-6.5 11 -6.5 15c0 5.33301 1.5 11.5 4.5 18.5
l8.5 19.5l249 647c5.33301 12.667 10.666 22 15.999 28s14.666 9 27.999 9c12.667 0 22 -2.83301 28 -8.5s11.333 -15.167 16 -28.5l250 -647l9 -19.5c3.33301 -7 5 -13.167 5 -18.5zM503.002 946.999c0 -19.333 -3.50098 -37.498 -10.501 -54.498
s-16.833 -31.833 -29.5 -44.5s-27.334 -22.5 -44.001 -29.5s-35 -10.5 -55 -10.5c-19.333 0 -37.333 3.66699 -54 11s-31.167 17.166 -43.5 29.499s-22 27 -29 44s-10.5 35.167 -10.5 54.5s3.5 37.5 10.5 54.5s16.833 31.667 29.5 44s27.5 22 44.5 29s35.167 10.5 54.5 10.5
c18.667 0 36.334 -3.5 53.001 -10.5s31.334 -16.833 44.001 -29.5s22.5 -27.334 29.5 -44.001s10.5 -34.667 10.5 -54zM364.001 673.001l-152 -396h303zM457.001 946.001c0 12 -2.33203 23.5 -6.99902 34.5s-11.167 20.833 -19.5 29.5s-18 15.5 -29 20.5
s-22.833 7.5 -35.5 7.5c-26 0 -48 -8.83301 -66 -26.5s-27 -39.5 -27 -65.5c0 -13.333 2.5 -25.5 7.5 -36.5s11.667 -20.5 20 -28.5s18.166 -14.333 29.499 -19s23.333 -7 36 -7c25.333 0 46.833 8.83301 64.5 26.5s26.5 39.167 26.5 64.5z" />
    <glyph glyph-name="AE" unicode="&#xc6;" horiz-adv-x="781" 
d="M701 28c0 -9.33301 -3.33398 -16.332 -10.001 -20.999s-15.667 -7 -27 -7h-261c-23.333 0 -35 9.33301 -35 28v203h-191l-68 -201c-6 -20 -15.333 -30 -28 -30c-9.33301 0 -16.5 2.5 -21.5 7.5s-7.5 11.167 -7.5 18.5c0 6 1 12 3 18l209 641
c3.33301 9.33301 7.33301 16.166 12 20.499s13 6.5 25 6.5h363c12 0 21 -2 27 -6s9 -11 9 -21s-3.16699 -17.167 -9.5 -21.5s-15.166 -6.5 -26.499 -6.5h-241v-241h110c23.333 0 35 -9 35 -27c0 -19.333 -11.667 -29 -35 -29h-110v-305h241c12 0 21.167 -2 27.5 -6
s9.5 -11 9.5 -21zM367.999 657.001h-57l-118 -372h175v372z" />
    <glyph glyph-name="Ccedilla" unicode="&#xc7;" horiz-adv-x="781" 
d="M538 -185c0 -25.333 -9.83203 -45.9912 -29.499 -61.9912s-46.167 -24 -79.5 -24c-12 0 -25.333 1.5 -40 4.5s-28.5 7.16699 -41.5 12.5s-24 11.333 -33 18s-13.5 13.667 -13.5 21c0 6.66699 2 12.167 6 16.5s9.33301 6.5 16 6.5c2.66699 0 4.83398 -0.333008 6.50098 -1
s4.83398 -2.33398 9.50098 -5.00098c16.667 -8.66699 32.5 -15.334 47.5 -20.001s29.167 -7 42.5 -7c18.667 0 34 4 46 12s18 18 18 30c0 10.667 -5.5 19.834 -16.5 27.501s-24.167 11.5 -39.5 11.5h-30v128c-52 2 -98.333 13.167 -139 33.5s-74.834 47.166 -102.501 80.499
s-48.834 72.166 -63.501 116.499s-22 91.833 -22 142.5c0 52 6.66699 101 20 147s33.333 86 60 120s60 60.833 100 80.5s87 29.5 141 29.5c38.667 0 76.5 -7.33301 113.5 -22s70.5 -36.667 100.5 -66c32 -30 48 -51.333 48 -64c0 -7.33301 -2.5 -13.5 -7.5 -18.5
s-11.167 -7.5 -18.5 -7.5c-9.33301 0 -17.333 4 -24 12c-30 35.333 -61.167 63.5 -93.5 84.5s-69.5 31.5 -111.5 31.5c-46.667 0 -87.5 -8.66699 -122.5 -26s-64 -40.833 -87 -70.5s-40.167 -64.334 -51.5 -104.001s-17 -81.834 -17 -126.501
c0 -43.333 6.16699 -84 18.5 -122s30.333 -71.5 54 -100.5s52.667 -52.333 87 -70s73.5 -27.834 117.5 -30.501h43c38.667 3.33301 72.5 15.166 101.5 35.499s57.5 46.833 85.5 79.5c8 8 16.333 12 25 12c7.33301 0 13.666 -2.5 18.999 -7.5s8 -11.167 8 -18.5
c0 -12.667 -16 -34 -48 -64c-27.333 -25.333 -57.166 -45.333 -89.499 -60s-65.833 -23.667 -100.5 -27v-87c10.667 -1.33301 21.167 -4 31.5 -8s19.666 -9.33301 27.999 -16s15 -14.834 20 -24.501s7.5 -20.834 7.5 -33.501z" />
    <glyph glyph-name="Egrave" unicode="&#xc8;" horiz-adv-x="695" 
d="M615 27c0 -8 -2.66699 -14.5 -8 -19.5s-14.666 -7.5 -27.999 -7.5h-430c-6 0 -10.833 1.66699 -14.5 5s-5.5 11 -5.5 23v656c0 12 1.83301 19.667 5.5 23s8.5 5 14.5 5h430c13.333 0 22.666 -2.5 27.999 -7.5s8 -11.5 8 -19.5s-2.66699 -14.5 -8 -19.5
s-14.666 -7.5 -27.999 -7.5h-396v-242h214c13.333 0 22.666 -2.5 27.999 -7.5s8 -11.5 8 -19.5c0 -9.33301 -2.66699 -16.166 -8 -20.499s-14.666 -6.5 -27.999 -6.5h-212v-308h394c13.333 0 22.666 -2.33301 27.999 -7s8 -11.334 8 -20.001zM501 801l-306 108
c-7.33301 3.33301 -11 7.33301 -11 12c0 2.66699 0.333008 5 1 7l22 45c4 6.66699 9.33301 10 16 10c2 0 4.66699 -1 8 -3l279 -162z" />
    <glyph glyph-name="Eacute" unicode="&#xc9;" horiz-adv-x="695" 
d="M615 27c0 -8 -2.66699 -14.5 -8 -19.5s-14.666 -7.5 -27.999 -7.5h-430c-6 0 -10.833 1.66699 -14.5 5s-5.5 11 -5.5 23v656c0 12 1.83301 19.667 5.5 23s8.5 5 14.5 5h430c13.333 0 22.666 -2.5 27.999 -7.5s8 -11.5 8 -19.5s-2.66699 -14.5 -8 -19.5
s-14.666 -7.5 -27.999 -7.5h-396v-242h214c13.333 0 22.666 -2.5 27.999 -7.5s8 -11.5 8 -19.5c0 -9.33301 -2.66699 -16.166 -8 -20.499s-14.666 -6.5 -27.999 -6.5h-212v-308h394c13.333 0 22.666 -2.33301 27.999 -7s8 -11.334 8 -20.001zM509 921
c0 -4.66699 -3.66699 -8.66699 -11 -12l-306 -108l-9 17l280 162c2 2 4.33301 3 7 3c6.66699 0 12 -3.33301 16 -10l22 -45c0.666992 -2 1 -4.33301 1 -7z" />
    <glyph glyph-name="Ecircumflex" unicode="&#xca;" horiz-adv-x="695" 
d="M615 27c0 -8 -2.66699 -14.5 -8 -19.5s-14.666 -7.5 -27.999 -7.5h-430c-6 0 -10.833 1.66699 -14.5 5s-5.5 11 -5.5 23v656c0 12 1.83301 19.667 5.5 23s8.5 5 14.5 5h430c13.333 0 22.666 -2.5 27.999 -7.5s8 -11.5 8 -19.5s-2.66699 -14.5 -8 -19.5
s-14.666 -7.5 -27.999 -7.5h-396v-242h214c13.333 0 22.666 -2.5 27.999 -7.5s8 -11.5 8 -19.5c0 -9.33301 -2.66699 -16.166 -8 -20.499s-14.666 -6.5 -27.999 -6.5h-212v-308h394c13.333 0 22.666 -2.33301 27.999 -7s8 -11.334 8 -20.001zM546 840
c0 -3.33301 -1.33594 -6.49902 -4.00293 -9.49902s-5.66699 -4.5 -9 -4.5c-2.66699 0 -4.66699 0.666992 -6 2l-179 95l-179 -95c-1.33301 0 -2.16602 -0.333008 -2.49902 -1s-1.16602 -1 -2.49902 -1c-3.33301 0 -6.5 1.5 -9.5 4.5s-4.5 5.83301 -4.5 8.5
c0 2 0.333008 3.66699 1 5s1.66699 2.66602 3 3.99902l167 131c2.66699 2 6.83398 4.16699 12.501 6.5s10.5 3.5 14.5 3.5c4.66699 0 9.66699 -1.16699 15 -3.5s9.33301 -4.5 12 -6.5l168 -131c2 -3.33301 3 -6 3 -8z" />
    <glyph glyph-name="Edieresis" unicode="&#xcb;" horiz-adv-x="695" 
d="M615 27c0 -8 -2.66699 -14.5 -8 -19.5s-14.666 -7.5 -27.999 -7.5h-430c-6 0 -10.833 1.66699 -14.5 5s-5.5 11 -5.5 23v656c0 12 1.83301 19.667 5.5 23s8.5 5 14.5 5h430c13.333 0 22.666 -2.5 27.999 -7.5s8 -11.5 8 -19.5s-2.66699 -14.5 -8 -19.5
s-14.666 -7.5 -27.999 -7.5h-396v-242h214c13.333 0 22.666 -2.5 27.999 -7.5s8 -11.5 8 -19.5c0 -9.33301 -2.66699 -16.166 -8 -20.499s-14.666 -6.5 -27.999 -6.5h-212v-308h394c13.333 0 22.666 -2.33301 27.999 -7s8 -11.334 8 -20.001zM555 897
c0 -19.333 -5.83203 -34.834 -17.499 -46.501s-26.834 -17.5 -45.501 -17.5s-34 6 -46 18s-18 27.333 -18 46c0 16.667 6.5 31.334 19.5 44.001s27.5 19 43.5 19c18.667 0 34 -6 46 -18s18 -27 18 -45zM267.001 896.999c0 -19.333 -5.33301 -34.835 -16 -46.502
s-25.667 -17.5 -45 -17.5c-18.667 0 -34.167 6.16699 -46.5 18.5s-18.5 27.5 -18.5 45.5c0 16.667 6.33301 31.334 19 44.001s27.667 19 45 19s32 -6.16699 44 -18.5s18 -27.166 18 -44.499z" />
    <glyph glyph-name="Igrave" unicode="&#xcc;" horiz-adv-x="727" 
d="M610 27c0 -8.66699 -2.66699 -15.332 -8 -19.999s-14.666 -7 -27.999 -7h-423c-22.667 0 -34 9 -34 27c0 8 2.66699 14.5 8 19.5s14 7.5 26 7.5h186v604h-186c-22.667 0 -34 9 -34 27c0 8 2.66699 14.5 8 19.5s14 7.5 26 7.5h423c13.333 0 22.666 -2.5 27.999 -7.5
s8 -11.5 8 -19.5c0 -8.66699 -2.66699 -15.334 -8 -20.001s-14.666 -7 -27.999 -7h-184v-604h184c13.333 0 22.666 -2.5 27.999 -7.5s8 -11.5 8 -19.5zM517 801.002l-306 108c-7.33301 3.33301 -11 7.33301 -11 12c0 2.66699 0.333008 5 1 7l22 45
c4 6.66699 9.33301 10 16 10c2 0 4.66699 -1 8 -3l279 -162z" />
    <glyph glyph-name="Iacute" unicode="&#xcd;" horiz-adv-x="727" 
d="M610 27c0 -8.66699 -2.66699 -15.332 -8 -19.999s-14.666 -7 -27.999 -7h-423c-22.667 0 -34 9 -34 27c0 8 2.66699 14.5 8 19.5s14 7.5 26 7.5h186v604h-186c-22.667 0 -34 9 -34 27c0 8 2.66699 14.5 8 19.5s14 7.5 26 7.5h423c13.333 0 22.666 -2.5 27.999 -7.5
s8 -11.5 8 -19.5c0 -8.66699 -2.66699 -15.334 -8 -20.001s-14.666 -7 -27.999 -7h-184v-604h184c13.333 0 22.666 -2.5 27.999 -7.5s8 -11.5 8 -19.5zM525 921.002c0 -4.66699 -3.66699 -8.66699 -11 -12l-306 -108l-9 17l280 162c2 2 4.33301 3 7 3
c6.66699 0 12 -3.33301 16 -10l22 -45c0.666992 -2 1 -4.33301 1 -7z" />
    <glyph glyph-name="Icircumflex" unicode="&#xce;" horiz-adv-x="727" 
d="M610 27c0 -8.66699 -2.66699 -15.332 -8 -19.999s-14.666 -7 -27.999 -7h-423c-22.667 0 -34 9 -34 27c0 8 2.66699 14.5 8 19.5s14 7.5 26 7.5h186v604h-186c-22.667 0 -34 9 -34 27c0 8 2.66699 14.5 8 19.5s14 7.5 26 7.5h423c13.333 0 22.666 -2.5 27.999 -7.5
s8 -11.5 8 -19.5c0 -8.66699 -2.66699 -15.334 -8 -20.001s-14.666 -7 -27.999 -7h-184v-604h184c13.333 0 22.666 -2.5 27.999 -7.5s8 -11.5 8 -19.5zM562 840.002c0 -3.33301 -1.33594 -6.49902 -4.00293 -9.49902s-5.66699 -4.5 -9 -4.5
c-2.66699 0 -4.66699 0.666992 -6 2l-179 95l-179 -95c-1.33301 0 -2.16602 -0.333008 -2.49902 -1s-1.16602 -1 -2.49902 -1c-3.33301 0 -6.5 1.5 -9.5 4.5s-4.5 5.83301 -4.5 8.5c0 2 0.333008 3.66699 1 5s1.66699 2.66602 3 3.99902l167 131
c2.66699 2 6.83398 4.16699 12.501 6.5s10.5 3.5 14.5 3.5c4.66699 0 9.66699 -1.16699 15 -3.5s9.33301 -4.5 12 -6.5l168 -131c2 -3.33301 3 -6 3 -8z" />
    <glyph glyph-name="Idieresis" unicode="&#xcf;" horiz-adv-x="727" 
d="M610 27c0 -8.66699 -2.66699 -15.332 -8 -19.999s-14.666 -7 -27.999 -7h-423c-22.667 0 -34 9 -34 27c0 8 2.66699 14.5 8 19.5s14 7.5 26 7.5h186v604h-186c-22.667 0 -34 9 -34 27c0 8 2.66699 14.5 8 19.5s14 7.5 26 7.5h423c13.333 0 22.666 -2.5 27.999 -7.5
s8 -11.5 8 -19.5c0 -8.66699 -2.66699 -15.334 -8 -20.001s-14.666 -7 -27.999 -7h-184v-604h184c13.333 0 22.666 -2.5 27.999 -7.5s8 -11.5 8 -19.5zM571 897.002c0 -19.333 -5.83203 -34.834 -17.499 -46.501s-26.834 -17.5 -45.501 -17.5s-34 6 -46 18
s-18 27.333 -18 46c0 16.667 6.5 31.334 19.5 44.001s27.5 19 43.5 19c18.667 0 34 -6 46 -18s18 -27 18 -45zM283.001 897.001c0 -19.333 -5.33301 -34.835 -16 -46.502s-25.667 -17.5 -45 -17.5c-18.667 0 -34.167 6.16699 -46.5 18.5s-18.5 27.5 -18.5 45.5
c0 16.667 6.33301 31.334 19 44.001s27.667 19 45 19s32 -6.16699 44 -18.5s18 -27.166 18 -44.499z" />
    <glyph glyph-name="Eth" unicode="&#xd0;" horiz-adv-x="728" 
d="M661 355c0 -61.333 -8.66895 -114.166 -26.002 -158.499s-42.166 -81.166 -74.499 -110.499s-71.666 -51 -117.999 -65s-98.833 -21 -157.5 -21h-146c-7.33301 0 -12.833 1.83301 -16.5 5.5s-5.5 11.167 -5.5 22.5v321h-90c-12.667 0 -21.5 2.5 -26.5 7.5
s-7.5 11.5 -7.5 19.5s2.5 14.5 7.5 19.5s13.833 7.5 26.5 7.5h90v281c0 11.333 1.83301 18.833 5.5 22.5s9.16699 5.5 16.5 5.5h196c52.667 0 99.334 -8.83301 140.001 -26.5s74.667 -42.334 102 -74.001s48.166 -69.334 62.499 -113.001s21.5 -91.5 21.5 -143.5z
M605.998 355c0 44.667 -5.5 85.667 -16.5 123s-27.667 69.333 -50 96s-50.333 47.334 -84 62.001s-73.5 22 -119.5 22h-165v-255h192c12 0 20.667 -2.5 26 -7.5s8 -11.5 8 -19.5s-2.66699 -14.5 -8 -19.5s-14 -7.5 -26 -7.5h-192v-295h119c50.667 0 95.667 5.66699 135 17
s72.5 29.166 99.5 53.499s47.333 55.5 61 93.5s20.5 83.667 20.5 137z" />
    <glyph glyph-name="Ntilde" unicode="&#xd1;" horiz-adv-x="747" 
d="M617 11c0 -8 -3.49805 -14.5 -10.498 -19.5s-15.167 -7.5 -24.5 -7.5c-12.667 0 -22.334 1.83301 -29.001 5.5s-13.334 12.167 -20.001 25.5l-350 633v-630c0 -23.333 -9 -35 -27 -35c-8 0 -14.5 2.83301 -19.5 8.5s-7.5 14.5 -7.5 26.5v688c0 8 3.5 14.5 10.5 19.5
s15.833 7.5 26.5 7.5c12.667 0 22 -2 28 -6s12.667 -12.333 20 -25l349 -631v629c0 12 2.5 20.667 7.5 26s11.5 8 19.5 8c18 0 27 -11.333 27 -34v-689zM580.002 952c0 -8 -3.83105 -16.667 -11.498 -26s-17.667 -17.833 -30 -25.5s-26 -14.167 -41 -19.5
s-29.833 -8 -44.5 -8c-16 0 -31.667 1.83301 -47 5.5l-46 11.5l-46 11.5c-15.333 3.66699 -30.666 5.5 -45.999 5.5c-10.667 0 -21.334 -1.83301 -32.001 -5.5s-21.334 -10.167 -32.001 -19.5c-3.33301 -2.66699 -7.33301 -6.16699 -12 -10.5s-9.66699 -6.5 -15 -6.5
c-4 0 -6.33301 1.5 -7 4.5s-1 5.83301 -1 8.5c0 11.333 4.33301 21.833 13 31.5s19.5 18 32.5 25s26.667 12.333 41 16s27.166 5.5 38.499 5.5c15.333 0 31 -1.83301 47 -5.5s32 -7.66699 48 -12s31.667 -8.33301 47 -12s30 -5.5 44 -5.5c22 0 42.333 8 61 24l13.5 11.5
c5 4.33301 10.167 6.5 15.5 6.5c1.33301 0 3.33301 -0.666992 6 -2s4 -4.33301 4 -9z" />
    <glyph glyph-name="Ograve" unicode="&#xd2;" horiz-adv-x="802" 
d="M723 357c0 -50 -7.00098 -97.667 -21.001 -143s-34.667 -85.166 -62 -119.499s-61 -61.666 -101 -81.999s-86 -30.5 -138 -30.5c-51.333 0 -96.833 10.333 -136.5 31s-73.167 48.167 -100.5 82.5s-48.166 74.166 -62.499 119.499s-21.5 92.666 -21.5 141.999
c0 50 7 97.667 21 143s34.5 85.166 61.5 119.499s60.5 61.666 100.5 81.999s86 30.5 138 30.5s98 -10.167 138 -30.5s73.667 -47.666 101 -81.999s48 -74.166 62 -119.499s21 -93 21 -143zM668.999 357c0 42.667 -5.66797 83.3291 -17.001 121.996
s-28.166 72.834 -50.499 102.501s-50.333 53.167 -84 70.5s-72.5 26 -116.5 26c-44.667 0 -83.667 -8.66699 -117 -26s-61.166 -40.666 -83.499 -69.999s-39 -63.5 -50 -102.5s-16.5 -79.833 -16.5 -122.5c0 -42 5.66699 -82.5 17 -121.5s28.333 -73.167 51 -102.5
s50.5 -52.833 83.5 -70.5s71.5 -26.5 115.5 -26.5s82.833 8.66699 116.5 26s61.667 40.833 84 70.5s39.166 63.834 50.499 102.501s17 79.334 17 122.001zM555.998 800.995l-306 108c-7.33301 3.33301 -11 7.33301 -11 12c0 2.66699 0.333008 5 1 7l22 45
c4 6.66699 9.33301 10 16 10c2 0 4.66699 -1 8 -3l279 -162z" />
    <glyph glyph-name="Oacute" unicode="&#xd3;" horiz-adv-x="802" 
d="M723 357c0 -50 -7.00098 -97.667 -21.001 -143s-34.667 -85.166 -62 -119.499s-61 -61.666 -101 -81.999s-86 -30.5 -138 -30.5c-51.333 0 -96.833 10.333 -136.5 31s-73.167 48.167 -100.5 82.5s-48.166 74.166 -62.499 119.499s-21.5 92.666 -21.5 141.999
c0 50 7 97.667 21 143s34.5 85.166 61.5 119.499s60.5 61.666 100.5 81.999s86 30.5 138 30.5s98 -10.167 138 -30.5s73.667 -47.666 101 -81.999s48 -74.166 62 -119.499s21 -93 21 -143zM668.999 357c0 42.667 -5.66797 83.3291 -17.001 121.996
s-28.166 72.834 -50.499 102.501s-50.333 53.167 -84 70.5s-72.5 26 -116.5 26c-44.667 0 -83.667 -8.66699 -117 -26s-61.166 -40.666 -83.499 -69.999s-39 -63.5 -50 -102.5s-16.5 -79.833 -16.5 -122.5c0 -42 5.66699 -82.5 17 -121.5s28.333 -73.167 51 -102.5
s50.5 -52.833 83.5 -70.5s71.5 -26.5 115.5 -26.5s82.833 8.66699 116.5 26s61.667 40.833 84 70.5s39.166 63.834 50.499 102.501s17 79.334 17 122.001zM562.998 920.995c0 -4.66699 -3.66699 -8.66699 -11 -12l-306 -108l-9 17l280 162c2 2 4.33301 3 7 3
c6.66699 0 12 -3.33301 16 -10l22 -45c0.666992 -2 1 -4.33301 1 -7z" />
    <glyph glyph-name="Ocircumflex" unicode="&#xd4;" horiz-adv-x="802" 
d="M723 357c0 -50 -7.00098 -97.667 -21.001 -143s-34.667 -85.166 -62 -119.499s-61 -61.666 -101 -81.999s-86 -30.5 -138 -30.5c-51.333 0 -96.833 10.333 -136.5 31s-73.167 48.167 -100.5 82.5s-48.166 74.166 -62.499 119.499s-21.5 92.666 -21.5 141.999
c0 50 7 97.667 21 143s34.5 85.166 61.5 119.499s60.5 61.666 100.5 81.999s86 30.5 138 30.5s98 -10.167 138 -30.5s73.667 -47.666 101 -81.999s48 -74.166 62 -119.499s21 -93 21 -143zM668.999 357c0 42.667 -5.66797 83.3291 -17.001 121.996
s-28.166 72.834 -50.499 102.501s-50.333 53.167 -84 70.5s-72.5 26 -116.5 26c-44.667 0 -83.667 -8.66699 -117 -26s-61.166 -40.666 -83.499 -69.999s-39 -63.5 -50 -102.5s-16.5 -79.833 -16.5 -122.5c0 -42 5.66699 -82.5 17 -121.5s28.333 -73.167 51 -102.5
s50.5 -52.833 83.5 -70.5s71.5 -26.5 115.5 -26.5s82.833 8.66699 116.5 26s61.667 40.833 84 70.5s39.166 63.834 50.499 102.501s17 79.334 17 122.001zM598.998 839.995c0 -3.33301 -1.33594 -6.49902 -4.00293 -9.49902s-5.66699 -4.5 -9 -4.5
c-2.66699 0 -4.66699 0.666992 -6 2l-179 95l-179 -95c-1.33301 0 -2.16602 -0.333008 -2.49902 -1s-1.16602 -1 -2.49902 -1c-3.33301 0 -6.5 1.5 -9.5 4.5s-4.5 5.83301 -4.5 8.5c0 2 0.333008 3.66699 1 5s1.66699 2.66602 3 3.99902l167 131
c2.66699 2 6.83398 4.16699 12.501 6.5s10.5 3.5 14.5 3.5c4.66699 0 9.66699 -1.16699 15 -3.5s9.33301 -4.5 12 -6.5l168 -131c2 -3.33301 3 -6 3 -8z" />
    <glyph glyph-name="Otilde" unicode="&#xd5;" horiz-adv-x="802" 
d="M723 357c0 -50 -7.00098 -97.667 -21.001 -143s-34.667 -85.166 -62 -119.499s-61 -61.666 -101 -81.999s-86 -30.5 -138 -30.5c-51.333 0 -96.833 10.333 -136.5 31s-73.167 48.167 -100.5 82.5s-48.166 74.166 -62.499 119.499s-21.5 92.666 -21.5 141.999
c0 50 7 97.667 21 143s34.5 85.166 61.5 119.499s60.5 61.666 100.5 81.999s86 30.5 138 30.5s98 -10.167 138 -30.5s73.667 -47.666 101 -81.999s48 -74.166 62 -119.499s21 -93 21 -143zM668.999 357c0 42.667 -5.66797 83.3291 -17.001 121.996
s-28.166 72.834 -50.499 102.501s-50.333 53.167 -84 70.5s-72.5 26 -116.5 26c-44.667 0 -83.667 -8.66699 -117 -26s-61.166 -40.666 -83.499 -69.999s-39 -63.5 -50 -102.5s-16.5 -79.833 -16.5 -122.5c0 -42 5.66699 -82.5 17 -121.5s28.333 -73.167 51 -102.5
s50.5 -52.833 83.5 -70.5s71.5 -26.5 115.5 -26.5s82.833 8.66699 116.5 26s61.667 40.833 84 70.5s39.166 63.834 50.499 102.501s17 79.334 17 122.001zM606.998 951.995c0 -8 -3.83105 -16.667 -11.498 -26s-17.667 -17.833 -30 -25.5s-26 -14.167 -41 -19.5
s-29.833 -8 -44.5 -8c-16 0 -31.667 1.83301 -47 5.5l-46 11.5l-46 11.5c-15.333 3.66699 -30.666 5.5 -45.999 5.5c-10.667 0 -21.334 -1.83301 -32.001 -5.5s-21.334 -10.167 -32.001 -19.5c-3.33301 -2.66699 -7.33301 -6.16699 -12 -10.5s-9.66699 -6.5 -15 -6.5
c-4 0 -6.33301 1.5 -7 4.5s-1 5.83301 -1 8.5c0 11.333 4.33301 21.833 13 31.5s19.5 18 32.5 25s26.667 12.333 41 16s27.166 5.5 38.499 5.5c15.333 0 31 -1.83301 47 -5.5s32 -7.66699 48 -12s31.667 -8.33301 47 -12s30 -5.5 44 -5.5c22 0 42.333 8 61 24l13.5 11.5
c5 4.33301 10.167 6.5 15.5 6.5c1.33301 0 3.33301 -0.666992 6 -2s4 -4.33301 4 -9z" />
    <glyph glyph-name="Odieresis" unicode="&#xd6;" horiz-adv-x="802" 
d="M723 357c0 -50 -7.00098 -97.667 -21.001 -143s-34.667 -85.166 -62 -119.499s-61 -61.666 -101 -81.999s-86 -30.5 -138 -30.5c-51.333 0 -96.833 10.333 -136.5 31s-73.167 48.167 -100.5 82.5s-48.166 74.166 -62.499 119.499s-21.5 92.666 -21.5 141.999
c0 50 7 97.667 21 143s34.5 85.166 61.5 119.499s60.5 61.666 100.5 81.999s86 30.5 138 30.5s98 -10.167 138 -30.5s73.667 -47.666 101 -81.999s48 -74.166 62 -119.499s21 -93 21 -143zM668.999 357c0 42.667 -5.66797 83.3291 -17.001 121.996
s-28.166 72.834 -50.499 102.501s-50.333 53.167 -84 70.5s-72.5 26 -116.5 26c-44.667 0 -83.667 -8.66699 -117 -26s-61.166 -40.666 -83.499 -69.999s-39 -63.5 -50 -102.5s-16.5 -79.833 -16.5 -122.5c0 -42 5.66699 -82.5 17 -121.5s28.333 -73.167 51 -102.5
s50.5 -52.833 83.5 -70.5s71.5 -26.5 115.5 -26.5s82.833 8.66699 116.5 26s61.667 40.833 84 70.5s39.166 63.834 50.499 102.501s17 79.334 17 122.001zM608.998 896.995c0 -19.333 -5.83203 -34.834 -17.499 -46.501s-26.834 -17.5 -45.501 -17.5s-34 6 -46 18
s-18 27.333 -18 46c0 16.667 6.5 31.334 19.5 44.001s27.5 19 43.5 19c18.667 0 34 -6 46 -18s18 -27 18 -45zM320.999 896.994c0 -19.333 -5.33301 -34.835 -16 -46.502s-25.667 -17.5 -45 -17.5c-18.667 0 -34.167 6.16699 -46.5 18.5s-18.5 27.5 -18.5 45.5
c0 16.667 6.33301 31.334 19 44.001s27.667 19 45 19s32 -6.16699 44 -18.5s18 -27.166 18 -44.499z" />
    <glyph glyph-name="multiply" unicode="&#xd7;" horiz-adv-x="756" 
d="M616 138c0 -6.66699 -2.66602 -12.8369 -7.99902 -18.5039s-11.333 -8.5 -18 -8.5c-7.33301 0 -16.333 4.66699 -27 14l-184 185l-186 -185c-10.667 -9.33301 -19.334 -14 -26.001 -14c-6 0 -11.833 2.83301 -17.5 8.5s-8.5 11.834 -8.5 18.501
c0 8.66699 4.66699 17.334 14 26.001l186 184l-186 185c-5.33301 4 -9 8.33301 -11 13s-3 8.66699 -3 12c0 6.66699 2.83301 12.834 8.5 18.501s11.5 8.5 17.5 8.5c8 0 16.667 -4.66699 26 -14l186 -185l184 185c9.33301 9.33301 18.333 14 27 14
c6.66699 0 12.667 -2.66699 18 -8s8 -11.666 8 -18.999c0 -8 -5 -16.333 -15 -25l-184 -185l184 -184c10 -10 15 -18.667 15 -26z" />
    <glyph glyph-name="Oslash" unicode="&#xd8;" horiz-adv-x="802" 
d="M723 357c0 -50 -7.00195 -97.668 -21.002 -143.001s-34.667 -85.166 -62 -119.499s-61 -61.666 -101 -81.999s-86 -30.5 -138 -30.5c-62.667 0 -117.667 16 -165 48l-45 -76c-8.66699 -13.333 -17.667 -20 -27 -20c-7.33301 0 -13.666 2.66699 -18.999 8s-8 11 -8 17
c0 6.66699 2.33301 14.334 7 23.001l49 81c-37.333 36 -65.5 79.5 -84.5 130.5s-28.5 105.5 -28.5 163.5c0 50 7 97.667 21 143s34.5 85.166 61.5 119.499s60.5 61.666 100.5 81.999s86 30.5 138 30.5c32.667 0 62.834 -4 90.501 -12s52.834 -19.667 75.501 -35l42 70
c7.33301 13.333 16.333 20 27 20c7.33301 0 13.666 -2.5 18.999 -7.5s8 -10.833 8 -17.5s-2.33301 -14.334 -7 -23.001l-46 -75c37.333 -35.333 65.5 -78.666 84.5 -129.999s28.5 -106.333 28.5 -165zM668.998 356.999c0 48.667 -7.16699 94.498 -21.5 137.498
s-36.166 79.5 -65.499 109.5l-319 -529c39.333 -26 85.333 -39 138 -39c44 0 82.833 8.66699 116.5 26s61.667 40.833 84 70.5s39.166 63.834 50.499 102.501s17 79.334 17 122.001zM539.998 639.997c-19.333 11.333 -40.502 20.499 -63.502 27.499s-48.167 10.5 -75.5 10.5
c-44.667 0 -83.667 -8.66699 -117 -26s-61.166 -40.666 -83.499 -69.999s-39 -63.5 -50 -102.5s-16.5 -79.833 -16.5 -122.5c0 -48 7.33301 -93.5 22 -136.5s36.334 -79.5 65.001 -109.5z" />
    <glyph glyph-name="Ugrave" unicode="&#xd9;" horiz-adv-x="760" 
d="M631 245c0 -40.667 -5.83105 -77.334 -17.498 -110.001s-28.334 -60.334 -50.001 -83.001s-48 -40 -79 -52s-65.833 -18 -104.5 -18s-73.5 6 -104.5 18s-57.333 29.333 -79 52s-38.334 50.334 -50.001 83.001s-17.5 69.334 -17.5 110.001v455c0 22.667 9 34 27 34
c8 0 14.5 -2.66699 19.5 -8s7.5 -14 7.5 -26v-455c0 -32 4.66699 -60.833 14 -86.5s22.5 -47.5 39.5 -65.5s37.667 -32 62 -42s51.5 -15 81.5 -15s57.167 5 81.5 15s45 24 62 42s30.167 39.833 39.5 65.5s14 54.5 14 86.5v455c0 22.667 9 34 27 34
c8 0 14.5 -2.66699 19.5 -8s7.5 -14 7.5 -26v-455zM533.002 801l-306 108c-7.33301 3.33301 -11 7.33301 -11 12c0 2.66699 0.333008 5 1 7l22 45c4 6.66699 9.33301 10 16 10c2 0 4.66699 -1 8 -3l279 -162z" />
    <glyph glyph-name="Uacute" unicode="&#xda;" horiz-adv-x="760" 
d="M631 245c0 -40.667 -5.83105 -77.334 -17.498 -110.001s-28.334 -60.334 -50.001 -83.001s-48 -40 -79 -52s-65.833 -18 -104.5 -18s-73.5 6 -104.5 18s-57.333 29.333 -79 52s-38.334 50.334 -50.001 83.001s-17.5 69.334 -17.5 110.001v455c0 22.667 9 34 27 34
c8 0 14.5 -2.66699 19.5 -8s7.5 -14 7.5 -26v-455c0 -32 4.66699 -60.833 14 -86.5s22.5 -47.5 39.5 -65.5s37.667 -32 62 -42s51.5 -15 81.5 -15s57.167 5 81.5 15s45 24 62 42s30.167 39.833 39.5 65.5s14 54.5 14 86.5v455c0 22.667 9 34 27 34
c8 0 14.5 -2.66699 19.5 -8s7.5 -14 7.5 -26v-455zM542.002 921c0 -4.66699 -3.66699 -8.66699 -11 -12l-306 -108l-9 17l280 162c2 2 4.33301 3 7 3c6.66699 0 12 -3.33301 16 -10l22 -45c0.666992 -2 1 -4.33301 1 -7z" />
    <glyph glyph-name="Ucircumflex" unicode="&#xdb;" horiz-adv-x="760" 
d="M631 245c0 -40.667 -5.83105 -77.334 -17.498 -110.001s-28.334 -60.334 -50.001 -83.001s-48 -40 -79 -52s-65.833 -18 -104.5 -18s-73.5 6 -104.5 18s-57.333 29.333 -79 52s-38.334 50.334 -50.001 83.001s-17.5 69.334 -17.5 110.001v455c0 22.667 9 34 27 34
c8 0 14.5 -2.66699 19.5 -8s7.5 -14 7.5 -26v-455c0 -32 4.66699 -60.833 14 -86.5s22.5 -47.5 39.5 -65.5s37.667 -32 62 -42s51.5 -15 81.5 -15s57.167 5 81.5 15s45 24 62 42s30.167 39.833 39.5 65.5s14 54.5 14 86.5v455c0 22.667 9 34 27 34
c8 0 14.5 -2.66699 19.5 -8s7.5 -14 7.5 -26v-455zM578.002 840c0 -3.33301 -1.33594 -6.49902 -4.00293 -9.49902s-5.66699 -4.5 -9 -4.5c-2.66699 0 -4.66699 0.666992 -6 2l-179 95l-179 -95c-1.33301 0 -2.16602 -0.333008 -2.49902 -1s-1.16602 -1 -2.49902 -1
c-3.33301 0 -6.5 1.5 -9.5 4.5s-4.5 5.83301 -4.5 8.5c0 2 0.333008 3.66699 1 5s1.66699 2.66602 3 3.99902l167 131c2.66699 2 6.83398 4.16699 12.501 6.5s10.5 3.5 14.5 3.5c4.66699 0 9.66699 -1.16699 15 -3.5s9.33301 -4.5 12 -6.5l168 -131c2 -3.33301 3 -6 3 -8z
" />
    <glyph glyph-name="Udieresis" unicode="&#xdc;" horiz-adv-x="760" 
d="M631 245c0 -40.667 -5.83105 -77.334 -17.498 -110.001s-28.334 -60.334 -50.001 -83.001s-48 -40 -79 -52s-65.833 -18 -104.5 -18s-73.5 6 -104.5 18s-57.333 29.333 -79 52s-38.334 50.334 -50.001 83.001s-17.5 69.334 -17.5 110.001v455c0 22.667 9 34 27 34
c8 0 14.5 -2.66699 19.5 -8s7.5 -14 7.5 -26v-455c0 -32 4.66699 -60.833 14 -86.5s22.5 -47.5 39.5 -65.5s37.667 -32 62 -42s51.5 -15 81.5 -15s57.167 5 81.5 15s45 24 62 42s30.167 39.833 39.5 65.5s14 54.5 14 86.5v455c0 22.667 9 34 27 34
c8 0 14.5 -2.66699 19.5 -8s7.5 -14 7.5 -26v-455zM588.002 897c0 -19.333 -5.83203 -34.834 -17.499 -46.501s-26.834 -17.5 -45.501 -17.5s-34 6 -46 18s-18 27.333 -18 46c0 16.667 6.5 31.334 19.5 44.001s27.5 19 43.5 19c18.667 0 34 -6 46 -18s18 -27 18 -45z
M300.003 896.999c0 -19.333 -5.33301 -34.835 -16 -46.502s-25.667 -17.5 -45 -17.5c-18.667 0 -34.167 6.16699 -46.5 18.5s-18.5 27.5 -18.5 45.5c0 16.667 6.33301 31.334 19 44.001s27.667 19 45 19s32 -6.16699 44 -18.5s18 -27.166 18 -44.499z" />
    <glyph glyph-name="Yacute" unicode="&#xdd;" horiz-adv-x="690" 
d="M604 707c0 -3.33301 -0.669922 -6.66699 -2.00293 -10l-5 -12l-226 -412v-252c0 -13.333 -2.16699 -22.666 -6.5 -27.999s-11.166 -8 -20.499 -8c-7.33301 0 -13.333 2.5 -18 7.5s-7 13.167 -7 24.5v256l-226 412l-5 12c-1.33301 3.33301 -2 6.66602 -2 9.99902
c0 6.66699 2.83301 12.5 8.5 17.5s11.834 7.5 18.501 7.5c9.33301 0 18.333 -7.33301 27 -22l204 -373l206 373c8.66699 14.667 17.667 22 27 22c6.66699 0 12.834 -2.33301 18.501 -7s8.5 -10.667 8.5 -18zM505.997 920.999c0 -4.66699 -3.66699 -8.66699 -11 -12
l-306 -108l-9 17l280 162c2 2 4.33301 3 7 3c6.66699 0 12 -3.33301 16 -10l22 -45c0.666992 -2 1 -4.33301 1 -7z" />
    <glyph glyph-name="Thorn" unicode="&#xde;" horiz-adv-x="630" 
d="M556 359c0 -29.333 -6.33301 -56.667 -19 -82s-30 -47.333 -52 -66s-48.167 -33.334 -78.5 -44.001s-62.833 -16 -97.5 -16h-149v-128c0 -11.333 -2.33301 -20.5 -7 -27.5s-11.667 -10.5 -21 -10.5c-10 0 -17 3.33301 -21 10s-6 15.667 -6 27v673c0 11.333 2 20.333 6 27
s11 10 21 10c18 0 27 -10.667 27 -32v-139h167c32 0 62 -5.16699 90 -15.5s52.333 -24.666 73 -42.999s37 -39.833 49 -64.5s18 -51 18 -79zM502 354.999c0 20.667 -4.5 39.998 -13.5 57.998s-21.167 33.833 -36.5 47.5s-33.333 24.334 -54 32.001s-43 11.5 -67 11.5h-172
v-297h153c26 0 50.667 3.83301 74 11.5s43.5 18.334 60.5 32.001s30.5 29.5 40.5 47.5s15 37 15 57z" />
    <glyph glyph-name="germandbls" unicode="&#xdf;" horiz-adv-x="716" 
d="M611 212c0 -36 -4.66992 -67.8311 -14.0029 -95.498s-22.166 -51 -38.499 -70s-35.666 -33.333 -57.999 -43s-46.833 -14.5 -73.5 -14.5c-13.333 0 -28.666 0.666992 -45.999 2s-33.666 3.83301 -48.999 7.5s-28.5 8.5 -39.5 14.5s-16.5 14 -16.5 24
c0 7.33301 2.66699 14 8 20s11.666 9 18.999 9c4 0 8.33301 -1.33301 13 -4c12.667 -7.33301 29.834 -12.5 51.501 -15.5s41.834 -4.5 60.501 -4.5c18 0 35 3.66699 51 11s30.167 18.166 42.5 32.499s22.166 32.333 29.499 54s11 47.167 11 76.5
c0 71.333 -19.667 124.166 -59 158.499s-101.333 51.5 -186 51.5c-18.667 0 -28 9 -28 27c0 7.33301 2.5 13.333 7.5 18s11.833 7 20.5 7c15.333 0 31 3 47 9s30.333 14.333 43 25s23 23.334 31 38.001s12 30.667 12 48c0 18.667 -3.5 36.167 -10.5 52.5
s-16.667 30.666 -29 42.999s-26.833 22 -43.5 29s-34.334 10.5 -53.001 10.5s-36 -2.83301 -52 -8.5s-30 -13.667 -42 -24s-21.333 -22.333 -28 -36s-10 -28.5 -10 -44.5v-597c0 -23.333 -9 -35 -27 -35c-17.333 0 -26 11.667 -26 35v597
c0 23.333 4.83301 45.166 14.5 65.499s23 38 40 53s37 26.833 60 35.5s47.5 13 73.5 13c25.333 0 49.166 -5 71.499 -15s42 -23.5 59 -40.5s30.5 -37 40.5 -60s15 -47.167 15 -72.5c0 -28.667 -7 -53.667 -21 -75s-34.333 -41 -61 -59
c38.667 -12.667 70.334 -27.5 95.001 -44.5s44 -36.167 58 -57.5s23.667 -44.666 29 -69.999s8 -52.333 8 -81z" />
    <glyph glyph-name="agrave" unicode="&#xe0;" horiz-adv-x="681" 
d="M566 22c0 -24.667 -9.00488 -36.9961 -27.0049 -36.9961s-27 12.333 -27 37v52c-72 -59.333 -148.667 -89 -230 -89c-28 0 -53.667 5 -77 15s-43.333 23.333 -60 40s-29.667 36 -39 58s-14 45 -14 69c0 28.667 6.5 54.667 19.5 78s31.167 43.333 54.5 60s51 29.5 83 38.5
s66.667 13.5 104 13.5c24 0 48 -1.33301 72 -4s52.333 -7.33398 85 -14.001v77c0 29.333 -13.167 53 -39.5 71s-62.166 27 -107.499 27c-20.667 0 -38.167 -1 -52.5 -3s-27.666 -4.66699 -39.999 -8s-24.5 -7.33301 -36.5 -12s-26.333 -9.66699 -43 -15
c-5.33301 -1.33301 -9.66602 -2 -12.999 -2c-7.33301 0 -13.666 2 -18.999 6s-8 10.333 -8 19c0 8 4.33301 15.333 13 22s19.834 12.5 33.501 17.5s29 9.33301 46 13s33.667 6.66699 50 9s31.333 4.16602 45 5.49902s24.5 2 32.5 2c28 0 53.833 -3.83301 77.5 -11.5
s44.167 -18.334 61.5 -32.001s31 -29.834 41 -48.501s15 -38.667 15 -60v-394zM509.995 282.004c-20.667 6 -44.6699 11 -72.0029 15s-53.666 6 -78.999 6c-30.667 0 -59 -3.5 -85 -10.5s-48.5 -16.5 -67.5 -28.5s-33.833 -26.333 -44.5 -43s-16 -35 -16 -55
c0 -16 3.16699 -31.667 9.5 -47s15.333 -28.833 27 -40.5s25.667 -21.167 42 -28.5s34.5 -11 54.5 -11c24.667 0 47.5 2.5 68.5 7.5s40.833 12.167 59.5 21.5s36.334 20.5 53.001 33.5s33.334 27.833 50.001 44.5v136zM494.992 636.004l-306 108
c-7.33301 3.33301 -11 7.33301 -11 12c0 2.66699 0.333008 5 1 7l22 45c4 6.66699 9.33301 10 16 10c2 0 4.66699 -1 8 -3l279 -162z" />
    <glyph glyph-name="aacute" unicode="&#xe1;" horiz-adv-x="681" 
d="M566 22c0 -24.667 -9.00488 -36.9961 -27.0049 -36.9961s-27 12.333 -27 37v52c-72 -59.333 -148.667 -89 -230 -89c-28 0 -53.667 5 -77 15s-43.333 23.333 -60 40s-29.667 36 -39 58s-14 45 -14 69c0 28.667 6.5 54.667 19.5 78s31.167 43.333 54.5 60s51 29.5 83 38.5
s66.667 13.5 104 13.5c24 0 48 -1.33301 72 -4s52.333 -7.33398 85 -14.001v77c0 29.333 -13.167 53 -39.5 71s-62.166 27 -107.499 27c-20.667 0 -38.167 -1 -52.5 -3s-27.666 -4.66699 -39.999 -8s-24.5 -7.33301 -36.5 -12s-26.333 -9.66699 -43 -15
c-5.33301 -1.33301 -9.66602 -2 -12.999 -2c-7.33301 0 -13.666 2 -18.999 6s-8 10.333 -8 19c0 8 4.33301 15.333 13 22s19.834 12.5 33.501 17.5s29 9.33301 46 13s33.667 6.66699 50 9s31.333 4.16602 45 5.49902s24.5 2 32.5 2c28 0 53.833 -3.83301 77.5 -11.5
s44.167 -18.334 61.5 -32.001s31 -29.834 41 -48.501s15 -38.667 15 -60v-394zM509.995 282.004c-20.667 6 -44.6699 11 -72.0029 15s-53.666 6 -78.999 6c-30.667 0 -59 -3.5 -85 -10.5s-48.5 -16.5 -67.5 -28.5s-33.833 -26.333 -44.5 -43s-16 -35 -16 -55
c0 -16 3.16699 -31.667 9.5 -47s15.333 -28.833 27 -40.5s25.667 -21.167 42 -28.5s34.5 -11 54.5 -11c24.667 0 47.5 2.5 68.5 7.5s40.833 12.167 59.5 21.5s36.334 20.5 53.001 33.5s33.334 27.833 50.001 44.5v136zM502.992 756.004
c0 -4.66699 -3.66699 -8.66699 -11 -12l-306 -108l-9 17l280 162c2 2 4.33301 3 7 3c6.66699 0 12 -3.33301 16 -10l22 -45c0.666992 -2 1 -4.33301 1 -7z" />
    <glyph glyph-name="acircumflex" unicode="&#xe2;" horiz-adv-x="681" 
d="M566 22c0 -24.667 -9.00488 -36.9961 -27.0049 -36.9961s-27 12.333 -27 37v52c-72 -59.333 -148.667 -89 -230 -89c-28 0 -53.667 5 -77 15s-43.333 23.333 -60 40s-29.667 36 -39 58s-14 45 -14 69c0 28.667 6.5 54.667 19.5 78s31.167 43.333 54.5 60s51 29.5 83 38.5
s66.667 13.5 104 13.5c24 0 48 -1.33301 72 -4s52.333 -7.33398 85 -14.001v77c0 29.333 -13.167 53 -39.5 71s-62.166 27 -107.499 27c-20.667 0 -38.167 -1 -52.5 -3s-27.666 -4.66699 -39.999 -8s-24.5 -7.33301 -36.5 -12s-26.333 -9.66699 -43 -15
c-5.33301 -1.33301 -9.66602 -2 -12.999 -2c-7.33301 0 -13.666 2 -18.999 6s-8 10.333 -8 19c0 8 4.33301 15.333 13 22s19.834 12.5 33.501 17.5s29 9.33301 46 13s33.667 6.66699 50 9s31.333 4.16602 45 5.49902s24.5 2 32.5 2c28 0 53.833 -3.83301 77.5 -11.5
s44.167 -18.334 61.5 -32.001s31 -29.834 41 -48.501s15 -38.667 15 -60v-394zM509.995 282.004c-20.667 6 -44.6699 11 -72.0029 15s-53.666 6 -78.999 6c-30.667 0 -59 -3.5 -85 -10.5s-48.5 -16.5 -67.5 -28.5s-33.833 -26.333 -44.5 -43s-16 -35 -16 -55
c0 -16 3.16699 -31.667 9.5 -47s15.333 -28.833 27 -40.5s25.667 -21.167 42 -28.5s34.5 -11 54.5 -11c24.667 0 47.5 2.5 68.5 7.5s40.833 12.167 59.5 21.5s36.334 20.5 53.001 33.5s33.334 27.833 50.001 44.5v136zM539.992 675.004
c0 -3.33301 -1.33594 -6.49902 -4.00293 -9.49902s-5.66699 -4.5 -9 -4.5c-2.66699 0 -4.66699 0.666992 -6 2l-179 95l-179 -95c-1.33301 0 -2.16602 -0.333008 -2.49902 -1s-1.16602 -1 -2.49902 -1c-3.33301 0 -6.5 1.5 -9.5 4.5s-4.5 5.83301 -4.5 8.5
c0 2 0.333008 3.66699 1 5s1.66699 2.66602 3 3.99902l167 131c2.66699 2 6.83398 4.16699 12.501 6.5s10.5 3.5 14.5 3.5c4.66699 0 9.66699 -1.16699 15 -3.5s9.33301 -4.5 12 -6.5l168 -131c2 -3.33301 3 -6 3 -8z" />
    <glyph glyph-name="atilde" unicode="&#xe3;" horiz-adv-x="681" 
d="M566 22c0 -24.667 -9.00488 -36.9961 -27.0049 -36.9961s-27 12.333 -27 37v52c-72 -59.333 -148.667 -89 -230 -89c-28 0 -53.667 5 -77 15s-43.333 23.333 -60 40s-29.667 36 -39 58s-14 45 -14 69c0 28.667 6.5 54.667 19.5 78s31.167 43.333 54.5 60s51 29.5 83 38.5
s66.667 13.5 104 13.5c24 0 48 -1.33301 72 -4s52.333 -7.33398 85 -14.001v77c0 29.333 -13.167 53 -39.5 71s-62.166 27 -107.499 27c-20.667 0 -38.167 -1 -52.5 -3s-27.666 -4.66699 -39.999 -8s-24.5 -7.33301 -36.5 -12s-26.333 -9.66699 -43 -15
c-5.33301 -1.33301 -9.66602 -2 -12.999 -2c-7.33301 0 -13.666 2 -18.999 6s-8 10.333 -8 19c0 8 4.33301 15.333 13 22s19.834 12.5 33.501 17.5s29 9.33301 46 13s33.667 6.66699 50 9s31.333 4.16602 45 5.49902s24.5 2 32.5 2c28 0 53.833 -3.83301 77.5 -11.5
s44.167 -18.334 61.5 -32.001s31 -29.834 41 -48.501s15 -38.667 15 -60v-394zM509.995 282.004c-20.667 6 -44.6699 11 -72.0029 15s-53.666 6 -78.999 6c-30.667 0 -59 -3.5 -85 -10.5s-48.5 -16.5 -67.5 -28.5s-33.833 -26.333 -44.5 -43s-16 -35 -16 -55
c0 -16 3.16699 -31.667 9.5 -47s15.333 -28.833 27 -40.5s25.667 -21.167 42 -28.5s34.5 -11 54.5 -11c24.667 0 47.5 2.5 68.5 7.5s40.833 12.167 59.5 21.5s36.334 20.5 53.001 33.5s33.334 27.833 50.001 44.5v136zM547.992 787.004c0 -8 -3.83105 -16.667 -11.498 -26
s-17.667 -17.833 -30 -25.5s-26 -14.167 -41 -19.5s-29.833 -8 -44.5 -8c-16 0 -31.667 1.83301 -47 5.5l-46 11.5l-46 11.5c-15.333 3.66699 -30.666 5.5 -45.999 5.5c-10.667 0 -21.334 -1.83301 -32.001 -5.5s-21.334 -10.167 -32.001 -19.5
c-3.33301 -2.66699 -7.33301 -6.16699 -12 -10.5s-9.66699 -6.5 -15 -6.5c-4 0 -6.33301 1.5 -7 4.5s-1 5.83301 -1 8.5c0 11.333 4.33301 21.833 13 31.5s19.5 18 32.5 25s26.667 12.333 41 16s27.166 5.5 38.499 5.5c15.333 0 31 -1.83301 47 -5.5s32 -7.66699 48 -12
s31.667 -8.33301 47 -12s30 -5.5 44 -5.5c22 0 42.333 8 61 24l13.5 11.5c5 4.33301 10.167 6.5 15.5 6.5c1.33301 0 3.33301 -0.666992 6 -2s4 -4.33301 4 -9z" />
    <glyph glyph-name="adieresis" unicode="&#xe4;" horiz-adv-x="681" 
d="M566 22c0 -24.667 -9.00488 -36.9961 -27.0049 -36.9961s-27 12.333 -27 37v52c-72 -59.333 -148.667 -89 -230 -89c-28 0 -53.667 5 -77 15s-43.333 23.333 -60 40s-29.667 36 -39 58s-14 45 -14 69c0 28.667 6.5 54.667 19.5 78s31.167 43.333 54.5 60s51 29.5 83 38.5
s66.667 13.5 104 13.5c24 0 48 -1.33301 72 -4s52.333 -7.33398 85 -14.001v77c0 29.333 -13.167 53 -39.5 71s-62.166 27 -107.499 27c-20.667 0 -38.167 -1 -52.5 -3s-27.666 -4.66699 -39.999 -8s-24.5 -7.33301 -36.5 -12s-26.333 -9.66699 -43 -15
c-5.33301 -1.33301 -9.66602 -2 -12.999 -2c-7.33301 0 -13.666 2 -18.999 6s-8 10.333 -8 19c0 8 4.33301 15.333 13 22s19.834 12.5 33.501 17.5s29 9.33301 46 13s33.667 6.66699 50 9s31.333 4.16602 45 5.49902s24.5 2 32.5 2c28 0 53.833 -3.83301 77.5 -11.5
s44.167 -18.334 61.5 -32.001s31 -29.834 41 -48.501s15 -38.667 15 -60v-394zM509.995 282.004c-20.667 6 -44.6699 11 -72.0029 15s-53.666 6 -78.999 6c-30.667 0 -59 -3.5 -85 -10.5s-48.5 -16.5 -67.5 -28.5s-33.833 -26.333 -44.5 -43s-16 -35 -16 -55
c0 -16 3.16699 -31.667 9.5 -47s15.333 -28.833 27 -40.5s25.667 -21.167 42 -28.5s34.5 -11 54.5 -11c24.667 0 47.5 2.5 68.5 7.5s40.833 12.167 59.5 21.5s36.334 20.5 53.001 33.5s33.334 27.833 50.001 44.5v136zM547.992 732.004
c0 -19.333 -5.83203 -34.834 -17.499 -46.501s-26.834 -17.5 -45.501 -17.5s-34 6 -46 18s-18 27.333 -18 46c0 16.667 6.5 31.334 19.5 44.001s27.5 19 43.5 19c18.667 0 34 -6 46 -18s18 -27 18 -45zM259.993 732.003c0 -19.333 -5.33301 -34.835 -16 -46.502
s-25.667 -17.5 -45 -17.5c-18.667 0 -34.167 6.16699 -46.5 18.5s-18.5 27.5 -18.5 45.5c0 16.667 6.33301 31.334 19 44.001s27.667 19 45 19s32 -6.16699 44 -18.5s18 -27.166 18 -44.499z" />
    <glyph glyph-name="aring" unicode="&#xe5;" horiz-adv-x="681" 
d="M566 22c0 -24.667 -9.00488 -36.9961 -27.0049 -36.9961s-27 12.333 -27 37v52c-72 -59.333 -148.667 -89 -230 -89c-28 0 -53.667 5 -77 15s-43.333 23.333 -60 40s-29.667 36 -39 58s-14 45 -14 69c0 28.667 6.5 54.667 19.5 78s31.167 43.333 54.5 60s51 29.5 83 38.5
s66.667 13.5 104 13.5c24 0 48 -1.33301 72 -4s52.333 -7.33398 85 -14.001v77c0 29.333 -13.167 53 -39.5 71s-62.166 27 -107.499 27c-20.667 0 -38.167 -1 -52.5 -3s-27.666 -4.66699 -39.999 -8s-24.5 -7.33301 -36.5 -12s-26.333 -9.66699 -43 -15
c-5.33301 -1.33301 -9.66602 -2 -12.999 -2c-7.33301 0 -13.666 2 -18.999 6s-8 10.333 -8 19c0 8 4.33301 15.333 13 22s19.834 12.5 33.501 17.5s29 9.33301 46 13s33.667 6.66699 50 9s31.333 4.16602 45 5.49902s24.5 2 32.5 2c28 0 53.833 -3.83301 77.5 -11.5
s44.167 -18.334 61.5 -32.001s31 -29.834 41 -48.501s15 -38.667 15 -60v-394zM509.995 282.004c-20.667 6 -44.6699 11 -72.0029 15s-53.666 6 -78.999 6c-30.667 0 -59 -3.5 -85 -10.5s-48.5 -16.5 -67.5 -28.5s-33.833 -26.333 -44.5 -43s-16 -35 -16 -55
c0 -16 3.16699 -31.667 9.5 -47s15.333 -28.833 27 -40.5s25.667 -21.167 42 -28.5s34.5 -11 54.5 -11c24.667 0 47.5 2.5 68.5 7.5s40.833 12.167 59.5 21.5s36.334 20.5 53.001 33.5s33.334 27.833 50.001 44.5v136zM478.992 782.004
c0 -19.333 -3.50098 -37.498 -10.501 -54.498s-16.833 -31.833 -29.5 -44.5s-27.334 -22.5 -44.001 -29.5s-35 -10.5 -55 -10.5c-19.333 0 -37.333 3.66699 -54 11s-31.167 17.166 -43.5 29.499s-22 27 -29 44s-10.5 35.167 -10.5 54.5s3.5 37.5 10.5 54.5
s16.833 31.667 29.5 44s27.5 22 44.5 29s35.167 10.5 54.5 10.5c18.667 0 36.334 -3.5 53.001 -10.5s31.334 -16.833 44.001 -29.5s22.5 -27.334 29.5 -44.001s10.5 -34.667 10.5 -54zM432.991 781.006c0 12 -2.33203 23.5 -6.99902 34.5s-11.167 20.833 -19.5 29.5
s-18 15.5 -29 20.5s-22.833 7.5 -35.5 7.5c-26 0 -48 -8.83301 -66 -26.5s-27 -39.5 -27 -65.5c0 -13.333 2.5 -25.5 7.5 -36.5s11.667 -20.5 20 -28.5s18.166 -14.333 29.499 -19s23.333 -7 36 -7c25.333 0 46.833 8.83301 64.5 26.5s26.5 39.167 26.5 64.5z" />
    <glyph glyph-name="ae" unicode="&#xe6;" horiz-adv-x="873" 
d="M787 95c0 -6.66699 -2.16309 -13.335 -6.49609 -20.002s-9.5 -13 -15.5 -19s-12.333 -11.5 -19 -16.5s-12.667 -9.16699 -18 -12.5c-42 -28 -85.667 -42 -131 -42c-34 0 -65 9.16699 -93 27.5s-49.667 44.5 -65 78.5c-14.667 -17.333 -29 -32.5 -43 -45.5
s-28.5 -24 -43.5 -33s-31.5 -15.833 -49.5 -20.5s-38.333 -7 -61 -7c-22 0 -42.333 3.66699 -61 11s-34.5 17.833 -47.5 31.5s-23.167 29.834 -30.5 48.501s-11 39.334 -11 62.001c0 34 6.16699 62.333 18.5 85s29.166 40.667 50.499 54s46.5 22.833 75.5 28.5
s60.167 8.5 93.5 8.5h85v53c0 15.333 -0.833008 31.833 -2.5 49.5s-6.16699 34 -13.5 49s-18.333 27.5 -33 37.5s-35 15 -61 15c-21.333 0 -41 -3.66699 -59 -11s-35.667 -16.333 -53 -27c-12.667 -9.33301 -23.667 -14 -33 -14c-6 0 -11.167 2.16699 -15.5 6.5
s-6.5 10.166 -6.5 17.499c0 11.333 7.33301 22 22 32s31.667 18.667 51 26s38.333 13.166 57 17.499s32 6.5 40 6.5c14 0 27.833 -1.16699 41.5 -3.5s26.667 -6.83301 39 -13.5s23.666 -15.834 33.999 -27.501s19.166 -26.5 26.499 -44.5
c8.66699 16.667 19 30.834 31 42.501s25 20.834 39 27.501s28.333 11.5 43 14.5s28.667 4.5 42 4.5c33.333 0 61.5 -7.16699 84.5 -21.5s41.5 -33.166 55.5 -56.499s24.167 -50 30.5 -80s9.5 -61 9.5 -93c0 -9.33301 -0.166992 -17.833 -0.5 -25.5
s-1.83301 -14.167 -4.5 -19.5s-6.83398 -9.33301 -12.501 -12s-13.5 -4 -23.5 -4h-274v-48c0 -20 1.83301 -40.333 5.5 -61s10.5 -39.167 20.5 -55.5s23.5 -29.833 40.5 -40.5s38.833 -16 65.5 -16c40.667 0 78 14 112 42l29.5 24c10.333 8.66699 19.5 13 27.5 13
c6 0 10.333 -2.83301 13 -8.5s4 -10.5 4 -14.5zM729.004 342.999c0 19.333 -2 39.334 -6 60.001s-10.833 39.5 -20.5 56.5s-22.667 31 -39 42s-37.166 16.5 -62.499 16.5c-27.333 0 -49.5 -5.5 -66.5 -16.5s-30.333 -25.167 -40 -42.5s-16.334 -36.333 -20.001 -57
s-5.5 -40.334 -5.5 -59.001v-29h260v29zM415.004 260l-46.999 -0.00195312c-20.667 0 -43.834 -1 -69.501 -3s-49.667 -6.83301 -72 -14.5s-41 -19.167 -56 -34.5s-22.5 -36.666 -22.5 -63.999c0 -35.333 10.167 -61.666 30.5 -78.999s46.5 -26 78.5 -26
c14.667 0 31.167 4 49.5 12s35.5 18.5 51.5 31.5s29.5 27.333 40.5 43s16.5 31.167 16.5 46.5v88z" />
    <glyph glyph-name="ccedilla" unicode="&#xe7;" horiz-adv-x="723" 
d="M473 -185c0 -25.333 -9.83398 -45.9932 -29.501 -61.9932s-46.167 -24 -79.5 -24c-12 0 -25.333 1.5 -40 4.5s-28.5 7.16699 -41.5 12.5s-24 11.333 -33 18s-13.5 13.667 -13.5 21c0 6.66699 2 12.167 6 16.5s9.33301 6.5 16 6.5c2.66699 0 4.83398 -0.333008 6.50098 -1
s4.83398 -2.33398 9.50098 -5.00098c16.667 -8.66699 32.5 -15.334 47.5 -20.001s29.167 -7 42.5 -7c18.667 0 34 4 46 12s18 18 18 30c0 10.667 -5.5 19.834 -16.5 27.501s-24.167 11.5 -39.5 11.5h-30v130c-37.333 3.33301 -71.333 13 -102 29s-57 37 -79 63
s-39 56 -51 90s-18 70.667 -18 110c0 41.333 6.66699 79.666 20 114.999s32.166 66 56.499 92s53.333 46.333 87 61s70.834 22 111.501 22c42 0 80.5 -5.83301 115.5 -17.5s68.5 -28.834 100.5 -51.501c36 -24 54 -44 54 -60c0 -6.66699 -2.33301 -12.334 -7 -17.001
s-10.334 -7 -17.001 -7c-4 0 -7.5 0.666992 -10.5 2s-7.16699 4.66602 -12.5 9.99902c-31.333 32 -65.5 55.167 -102.5 69.5s-77.833 21.5 -122.5 21.5c-32 0 -61.667 -6.33301 -89 -19s-50.833 -29.667 -70.5 -51s-35 -46.666 -46 -75.999s-16.5 -60.333 -16.5 -93
s5.5 -63.667 16.5 -93s26.333 -55.166 46 -77.499s43.167 -40 70.5 -53s57 -19.5 89 -19.5c44.667 0 85.5 7.16699 122.5 21.5s71.167 37.5 102.5 69.5c5.33301 5.33301 9.5 8.66602 12.5 9.99902s6.5 2 10.5 2c6.66699 0 12.334 -2.33301 17.001 -7s7 -10.667 7 -18
c0 -15.333 -18 -35.333 -54 -60c-30 -20.667 -61 -36.834 -93 -48.501s-66.667 -18.167 -104 -19.5v-89c10.667 -1.33301 21.167 -4 31.5 -8s19.666 -9.33301 27.999 -16s15 -14.834 20 -24.501s7.5 -20.834 7.5 -33.501z" />
    <glyph glyph-name="egrave" unicode="&#xe8;" horiz-adv-x="737" 
d="M648 305c1.33301 -17.333 -1.33398 -28.832 -8.00098 -34.499s-17.334 -8.5 -32.001 -8.5h-464c0 -8 1.66699 -19 5 -33s8.83301 -29.5 16.5 -46.5s17.5 -34.167 29.5 -51.5s27 -33 45 -47s38.833 -25.5 62.5 -34.5s50.834 -13.5 81.501 -13.5
c18.667 0 38 1.83301 58 5.5s39.333 8.5 58 14.5s36.334 13.333 53.001 22s31.334 18 44.001 28c3.33301 3.33301 7.16602 5.5 11.499 6.5s8.16602 1.5 11.499 1.5c6.66699 0 12.5 -2.16699 17.5 -6.5s7.5 -11.166 7.5 -20.499c0 -12 -9 -24 -27 -36s-40.167 -23 -66.5 -33
s-54.666 -18 -84.999 -24s-57.833 -9 -82.5 -9c-42.667 0 -81.834 8.16699 -117.501 24.5s-66.5 38.5 -92.5 66.5s-46.167 60.667 -60.5 98s-21.5 77 -21.5 119c0 35.333 7.33301 69.5 22 102.5s34.667 62.167 60 87.5s54.833 45.666 88.5 60.999s69.5 23 107.5 23
s73.333 -6.83301 106 -20.5s61.334 -32.334 86.001 -56.001s44.5 -51.5 59.5 -83.5s23.833 -66 26.5 -102zM594 317.001c-4.66699 28.667 -13.5 55.167 -26.5 79.5s-29.333 45.5 -49 63.5s-42.167 32 -67.5 42s-52.333 15 -81 15c-39.333 0 -73.333 -8.5 -102 -25.5
s-52.167 -36.667 -70.5 -59s-31.833 -44.5 -40.5 -66.5s-13 -38.333 -13 -49h450zM522 636.001l-306 108c-7.33301 3.33301 -11 7.33301 -11 12c0 2.66699 0.333008 5 1 7l22 45c4 6.66699 9.33301 10 16 10c2 0 4.66699 -1 8 -3l279 -162z" />
    <glyph glyph-name="eacute" unicode="&#xe9;" horiz-adv-x="737" 
d="M648 305c1.33301 -17.333 -1.33398 -28.832 -8.00098 -34.499s-17.334 -8.5 -32.001 -8.5h-464c0 -8 1.66699 -19 5 -33s8.83301 -29.5 16.5 -46.5s17.5 -34.167 29.5 -51.5s27 -33 45 -47s38.833 -25.5 62.5 -34.5s50.834 -13.5 81.501 -13.5
c18.667 0 38 1.83301 58 5.5s39.333 8.5 58 14.5s36.334 13.333 53.001 22s31.334 18 44.001 28c3.33301 3.33301 7.16602 5.5 11.499 6.5s8.16602 1.5 11.499 1.5c6.66699 0 12.5 -2.16699 17.5 -6.5s7.5 -11.166 7.5 -20.499c0 -12 -9 -24 -27 -36s-40.167 -23 -66.5 -33
s-54.666 -18 -84.999 -24s-57.833 -9 -82.5 -9c-42.667 0 -81.834 8.16699 -117.501 24.5s-66.5 38.5 -92.5 66.5s-46.167 60.667 -60.5 98s-21.5 77 -21.5 119c0 35.333 7.33301 69.5 22 102.5s34.667 62.167 60 87.5s54.833 45.666 88.5 60.999s69.5 23 107.5 23
s73.333 -6.83301 106 -20.5s61.334 -32.334 86.001 -56.001s44.5 -51.5 59.5 -83.5s23.833 -66 26.5 -102zM594 317.001c-4.66699 28.667 -13.5 55.167 -26.5 79.5s-29.333 45.5 -49 63.5s-42.167 32 -67.5 42s-52.333 15 -81 15c-39.333 0 -73.333 -8.5 -102 -25.5
s-52.167 -36.667 -70.5 -59s-31.833 -44.5 -40.5 -66.5s-13 -38.333 -13 -49h450zM530 756.001c0 -4.66699 -3.66699 -8.66699 -11 -12l-306 -108l-9 17l280 162c2 2 4.33301 3 7 3c6.66699 0 12 -3.33301 16 -10l22 -45c0.666992 -2 1 -4.33301 1 -7z" />
    <glyph glyph-name="ecircumflex" unicode="&#xea;" horiz-adv-x="737" 
d="M648 305c1.33301 -17.333 -1.33398 -28.832 -8.00098 -34.499s-17.334 -8.5 -32.001 -8.5h-464c0 -8 1.66699 -19 5 -33s8.83301 -29.5 16.5 -46.5s17.5 -34.167 29.5 -51.5s27 -33 45 -47s38.833 -25.5 62.5 -34.5s50.834 -13.5 81.501 -13.5
c18.667 0 38 1.83301 58 5.5s39.333 8.5 58 14.5s36.334 13.333 53.001 22s31.334 18 44.001 28c3.33301 3.33301 7.16602 5.5 11.499 6.5s8.16602 1.5 11.499 1.5c6.66699 0 12.5 -2.16699 17.5 -6.5s7.5 -11.166 7.5 -20.499c0 -12 -9 -24 -27 -36s-40.167 -23 -66.5 -33
s-54.666 -18 -84.999 -24s-57.833 -9 -82.5 -9c-42.667 0 -81.834 8.16699 -117.501 24.5s-66.5 38.5 -92.5 66.5s-46.167 60.667 -60.5 98s-21.5 77 -21.5 119c0 35.333 7.33301 69.5 22 102.5s34.667 62.167 60 87.5s54.833 45.666 88.5 60.999s69.5 23 107.5 23
s73.333 -6.83301 106 -20.5s61.334 -32.334 86.001 -56.001s44.5 -51.5 59.5 -83.5s23.833 -66 26.5 -102zM594 317.001c-4.66699 28.667 -13.5 55.167 -26.5 79.5s-29.333 45.5 -49 63.5s-42.167 32 -67.5 42s-52.333 15 -81 15c-39.333 0 -73.333 -8.5 -102 -25.5
s-52.167 -36.667 -70.5 -59s-31.833 -44.5 -40.5 -66.5s-13 -38.333 -13 -49h450zM567 675.001c0 -3.33301 -1.33594 -6.49902 -4.00293 -9.49902s-5.66699 -4.5 -9 -4.5c-2.66699 0 -4.66699 0.666992 -6 2l-179 95l-179 -95c-1.33301 0 -2.16602 -0.333008 -2.49902 -1
s-1.16602 -1 -2.49902 -1c-3.33301 0 -6.5 1.5 -9.5 4.5s-4.5 5.83301 -4.5 8.5c0 2 0.333008 3.66699 1 5s1.66699 2.66602 3 3.99902l167 131c2.66699 2 6.83398 4.16699 12.501 6.5s10.5 3.5 14.5 3.5c4.66699 0 9.66699 -1.16699 15 -3.5s9.33301 -4.5 12 -6.5l168 -131
c2 -3.33301 3 -6 3 -8z" />
    <glyph glyph-name="edieresis" unicode="&#xeb;" horiz-adv-x="737" 
d="M648 305c1.33301 -17.333 -1.33398 -28.832 -8.00098 -34.499s-17.334 -8.5 -32.001 -8.5h-464c0 -8 1.66699 -19 5 -33s8.83301 -29.5 16.5 -46.5s17.5 -34.167 29.5 -51.5s27 -33 45 -47s38.833 -25.5 62.5 -34.5s50.834 -13.5 81.501 -13.5
c18.667 0 38 1.83301 58 5.5s39.333 8.5 58 14.5s36.334 13.333 53.001 22s31.334 18 44.001 28c3.33301 3.33301 7.16602 5.5 11.499 6.5s8.16602 1.5 11.499 1.5c6.66699 0 12.5 -2.16699 17.5 -6.5s7.5 -11.166 7.5 -20.499c0 -12 -9 -24 -27 -36s-40.167 -23 -66.5 -33
s-54.666 -18 -84.999 -24s-57.833 -9 -82.5 -9c-42.667 0 -81.834 8.16699 -117.501 24.5s-66.5 38.5 -92.5 66.5s-46.167 60.667 -60.5 98s-21.5 77 -21.5 119c0 35.333 7.33301 69.5 22 102.5s34.667 62.167 60 87.5s54.833 45.666 88.5 60.999s69.5 23 107.5 23
s73.333 -6.83301 106 -20.5s61.334 -32.334 86.001 -56.001s44.5 -51.5 59.5 -83.5s23.833 -66 26.5 -102zM594 317.001c-4.66699 28.667 -13.5 55.167 -26.5 79.5s-29.333 45.5 -49 63.5s-42.167 32 -67.5 42s-52.333 15 -81 15c-39.333 0 -73.333 -8.5 -102 -25.5
s-52.167 -36.667 -70.5 -59s-31.833 -44.5 -40.5 -66.5s-13 -38.333 -13 -49h450zM576 732.001c0 -19.333 -5.83203 -34.834 -17.499 -46.501s-26.834 -17.5 -45.501 -17.5s-34 6 -46 18s-18 27.333 -18 46c0 16.667 6.5 31.334 19.5 44.001s27.5 19 43.5 19
c18.667 0 34 -6 46 -18s18 -27 18 -45zM288.001 732c0 -19.333 -5.33301 -34.835 -16 -46.502s-25.667 -17.5 -45 -17.5c-18.667 0 -34.167 6.16699 -46.5 18.5s-18.5 27.5 -18.5 45.5c0 16.667 6.33301 31.334 19 44.001s27.667 19 45 19s32 -6.16699 44 -18.5
s18 -27.166 18 -44.499z" />
    <glyph glyph-name="igrave" unicode="&#xec;" horiz-adv-x="323" 
d="M180 21c0 -13.333 -2.5 -22.666 -7.5 -27.999s-11.5 -8 -19.5 -8c-9.33301 0 -16.333 2.66699 -21 8s-7 14.666 -7 27.999v512c0 23.333 8.66699 35 26 35c19.333 0 29 -11.333 29 -34v-513zM308 636l-306 108c-7.33301 3.33301 -11 7.33301 -11 12
c0 2.66699 0.333008 5 1 7l22 45c4 6.66699 9.33301 10 16 10c2 0 4.66699 -1 8 -3l279 -162z" />
    <glyph glyph-name="iacute" unicode="&#xed;" horiz-adv-x="323" 
d="M180 21c0 -13.333 -2.5 -22.666 -7.5 -27.999s-11.5 -8 -19.5 -8c-9.33301 0 -16.333 2.66699 -21 8s-7 14.666 -7 27.999v512c0 23.333 8.66699 35 26 35c19.333 0 29 -11.333 29 -34v-513zM316 756c0 -4.66699 -3.66699 -8.66699 -11 -12l-306 -108l-9 17l280 162
c2 2 4.33301 3 7 3c6.66699 0 12 -3.33301 16 -10l22 -45c0.666992 -2 1 -4.33301 1 -7z" />
    <glyph glyph-name="icircumflex" unicode="&#xee;" horiz-adv-x="323" 
d="M180 21c0 -13.333 -2.5 -22.666 -7.5 -27.999s-11.5 -8 -19.5 -8c-9.33301 0 -16.333 2.66699 -21 8s-7 14.666 -7 27.999v512c0 23.333 8.66699 35 26 35c19.333 0 29 -11.333 29 -34v-513zM351 675c0 -3.33301 -1.33594 -6.49902 -4.00293 -9.49902
s-5.66699 -4.5 -9 -4.5c-2.66699 0 -4.66699 0.666992 -6 2l-179 95l-179 -95c-1.33301 0 -2.16602 -0.333008 -2.49902 -1s-1.16602 -1 -2.49902 -1c-3.33301 0 -6.5 1.5 -9.5 4.5s-4.5 5.83301 -4.5 8.5c0 2 0.333008 3.66699 1 5s1.66699 2.66602 3 3.99902l167 131
c2.66699 2 6.83398 4.16699 12.501 6.5s10.5 3.5 14.5 3.5c4.66699 0 9.66699 -1.16699 15 -3.5s9.33301 -4.5 12 -6.5l168 -131c2 -3.33301 3 -6 3 -8z" />
    <glyph glyph-name="idieresis" unicode="&#xef;" horiz-adv-x="323" 
d="M180 21c0 -13.333 -2.5 -22.666 -7.5 -27.999s-11.5 -8 -19.5 -8c-9.33301 0 -16.333 2.66699 -21 8s-7 14.666 -7 27.999v512c0 23.333 8.66699 35 26 35c19.333 0 29 -11.333 29 -34v-513zM362 732c0 -19.333 -5.83203 -34.834 -17.499 -46.501
s-26.834 -17.5 -45.501 -17.5s-34 6 -46 18s-18 27.333 -18 46c0 16.667 6.5 31.334 19.5 44.001s27.5 19 43.5 19c18.667 0 34 -6 46 -18s18 -27 18 -45zM74.001 731.999c0 -19.333 -5.33301 -34.835 -16 -46.502s-25.667 -17.5 -45 -17.5
c-18.667 0 -34.167 6.16699 -46.5 18.5s-18.5 27.5 -18.5 45.5c0 16.667 6.33301 31.334 19 44.001s27.667 19 45 19s32 -6.16699 44 -18.5s18 -27.166 18 -44.499z" />
    <glyph glyph-name="eth" unicode="&#xf0;" horiz-adv-x="736" 
d="M662 330c0 -40.667 -2.66406 -77.002 -7.99707 -109.002s-14 -60.333 -26 -85s-27.333 -46.167 -46 -64.5s-41.334 -34.5 -68.001 -48.5c-22 -11.333 -46.167 -20.333 -72.5 -27s-53.833 -10 -82.5 -10c-38.667 0 -75.334 7.5 -110.001 22.5s-65 35.5 -91 61.5
s-46.5 56 -61.5 90s-22.5 70 -22.5 108c0 40 7.33301 77.167 22 111.5s34.667 64.333 60 90s55.166 45.667 89.499 60s71.5 21.5 111.5 21.5c20.667 0 43.5 -2.66699 68.5 -8s49.167 -13.5 72.5 -24.5s44.166 -24.667 62.499 -41s31.5 -35.166 39.5 -56.499l3 2
c-8.66699 33.333 -17.667 62.166 -27 86.499s-20.166 46.333 -32.499 66s-27.166 38.167 -44.499 55.5s-38 35.333 -62 54l-198 -64c-4 -1.33301 -7.5 -2.33301 -10.5 -3s-5.83301 -1 -8.5 -1c-7.33301 0 -13.5 2.5 -18.5 7.5s-7.5 12.167 -7.5 21.5c0 10 9 18 27 24l152 50
c-10.667 2.66699 -22.834 4.83398 -36.501 6.50098s-26.667 3.83398 -39 6.50098s-22.833 6 -31.5 10s-13 10 -13 18s3.16699 14.333 9.5 19s14.833 7 25.5 7c25.333 0 51.5 -4 78.5 -12s52.167 -19 75.5 -33l114 38c3.33301 1.33301 6.5 2.33301 9.5 3s5.83301 1 8.5 1
c7.33301 0 13.5 -2.66699 18.5 -8s7.5 -12.333 7.5 -21c0 -10 -9.33301 -18.667 -28 -26l-76 -25c54.667 -50 96 -105.667 124 -167s42 -130.333 42 -207zM605.003 265.998c0 34 -6.00195 65.167 -18.002 93.5s-28.833 52.666 -50.5 72.999s-47.5 36.333 -77.5 48
s-63 17.5 -99 17.5c-32.667 0 -63.167 -6 -91.5 -18s-53.166 -28.333 -74.499 -49s-38.166 -44.834 -50.499 -72.501s-18.5 -57.5 -18.5 -89.5c0 -31.333 6.5 -61.166 19.5 -89.499s30.5 -53.166 52.5 -74.499s47.333 -38.5 76 -51.5s59 -19.5 91 -19.5
c34.667 0 66.667 5.83301 96 17.5s54.833 27.834 76.5 48.501s38.5 45.167 50.5 73.5s18 59.166 18 92.499z" />
    <glyph glyph-name="ntilde" unicode="&#xf1;" horiz-adv-x="659" 
d="M555 21c0 -13.333 -2.50098 -22.6641 -7.50098 -27.9971s-11.5 -8 -19.5 -8c-9.33301 0 -16.166 2.66699 -20.499 8s-6.5 14.666 -6.5 27.999v370c0 38 -12.833 68.5 -38.5 91.5s-60.167 34.5 -103.5 34.5c-24 0 -45.167 -3.83301 -63.5 -11.5
s-34.833 -17.834 -49.5 -30.501s-28 -27.167 -40 -43.5s-23.667 -33.5 -35 -51.5v-359c0 -13.333 -2.33301 -22.666 -7 -27.999s-11.334 -8 -20.001 -8c-8 0 -14.5 2.66699 -19.5 8s-7.5 14.666 -7.5 27.999v513c0 22.667 9 34 27 34c8 0 14.5 -2.66699 19.5 -8
s7.5 -14 7.5 -26v-74c54 74 117.667 111 191 111c26.667 0 51.834 -4.5 75.501 -13.5s44.167 -21.333 61.5 -37s31 -33.834 41 -54.501s15 -43 15 -67v-378zM534.999 787.002c0 -8 -3.83105 -16.667 -11.498 -26s-17.667 -17.833 -30 -25.5s-26 -14.167 -41 -19.5
s-29.833 -8 -44.5 -8c-16 0 -31.667 1.83301 -47 5.5l-46 11.5l-46 11.5c-15.333 3.66699 -30.666 5.5 -45.999 5.5c-10.667 0 -21.334 -1.83301 -32.001 -5.5s-21.334 -10.167 -32.001 -19.5c-3.33301 -2.66699 -7.33301 -6.16699 -12 -10.5s-9.66699 -6.5 -15 -6.5
c-4 0 -6.33301 1.5 -7 4.5s-1 5.83301 -1 8.5c0 11.333 4.33301 21.833 13 31.5s19.5 18 32.5 25s26.667 12.333 41 16s27.166 5.5 38.499 5.5c15.333 0 31 -1.83301 47 -5.5s32 -7.66699 48 -12s31.667 -8.33301 47 -12s30 -5.5 44 -5.5c22 0 42.333 8 61 24l13.5 11.5
c5 4.33301 10.167 6.5 15.5 6.5c1.33301 0 3.33301 -0.666992 6 -2s4 -4.33301 4 -9z" />
    <glyph glyph-name="ograve" unicode="&#xf2;" horiz-adv-x="760" 
d="M674 277c0 -45.333 -7.49902 -86.166 -22.499 -122.499s-35.833 -67 -62.5 -92s-57.834 -44.167 -93.501 -57.5s-74.167 -20 -115.5 -20s-79.833 6.66699 -115.5 20s-66.834 32.666 -93.501 57.999s-47.5 56 -62.5 92s-22.5 76.667 -22.5 122s7.5 86 22.5 122
s35.667 66.5 62 91.5s57.5 44.167 93.5 57.5s74.667 20 116 20s79.833 -6.66699 115.5 -20s66.834 -32.5 93.501 -57.5s47.5 -55.5 62.5 -91.5s22.5 -76.667 22.5 -122zM624.001 277c0 37.333 -6.33301 70.666 -19 99.999s-30.167 54.166 -52.5 74.499
s-48.333 35.833 -78 46.5s-61.5 16 -95.5 16s-65.667 -5.33301 -95 -16s-54.833 -26.167 -76.5 -46.5s-38.667 -45.166 -51 -74.499s-18.5 -62.666 -18.5 -99.999s6.16699 -70.666 18.5 -99.999s29.333 -54.333 51 -75s47.167 -36.334 76.5 -47.001s61 -16 95 -16
s65.833 5.33301 95.5 16s55.667 26.167 78 46.5s39.833 45.333 52.5 75s19 63.167 19 100.5zM533.001 636l-306 108c-7.33301 3.33301 -11 7.33301 -11 12c0 2.66699 0.333008 5 1 7l22 45c4 6.66699 9.33301 10 16 10c2 0 4.66699 -1 8 -3l279 -162z" />
    <glyph glyph-name="oacute" unicode="&#xf3;" horiz-adv-x="760" 
d="M674 277c0 -45.333 -7.49902 -86.166 -22.499 -122.499s-35.833 -67 -62.5 -92s-57.834 -44.167 -93.501 -57.5s-74.167 -20 -115.5 -20s-79.833 6.66699 -115.5 20s-66.834 32.666 -93.501 57.999s-47.5 56 -62.5 92s-22.5 76.667 -22.5 122s7.5 86 22.5 122
s35.667 66.5 62 91.5s57.5 44.167 93.5 57.5s74.667 20 116 20s79.833 -6.66699 115.5 -20s66.834 -32.5 93.501 -57.5s47.5 -55.5 62.5 -91.5s22.5 -76.667 22.5 -122zM624.001 277c0 37.333 -6.33301 70.666 -19 99.999s-30.167 54.166 -52.5 74.499
s-48.333 35.833 -78 46.5s-61.5 16 -95.5 16s-65.667 -5.33301 -95 -16s-54.833 -26.167 -76.5 -46.5s-38.667 -45.166 -51 -74.499s-18.5 -62.666 -18.5 -99.999s6.16699 -70.666 18.5 -99.999s29.333 -54.333 51 -75s47.167 -36.334 76.5 -47.001s61 -16 95 -16
s65.833 5.33301 95.5 16s55.667 26.167 78 46.5s39.833 45.333 52.5 75s19 63.167 19 100.5zM542.001 756c0 -4.66699 -3.66699 -8.66699 -11 -12l-306 -108l-9 17l280 162c2 2 4.33301 3 7 3c6.66699 0 12 -3.33301 16 -10l22 -45c0.666992 -2 1 -4.33301 1 -7z" />
    <glyph glyph-name="ocircumflex" unicode="&#xf4;" horiz-adv-x="760" 
d="M674 277c0 -45.333 -7.49902 -86.166 -22.499 -122.499s-35.833 -67 -62.5 -92s-57.834 -44.167 -93.501 -57.5s-74.167 -20 -115.5 -20s-79.833 6.66699 -115.5 20s-66.834 32.666 -93.501 57.999s-47.5 56 -62.5 92s-22.5 76.667 -22.5 122s7.5 86 22.5 122
s35.667 66.5 62 91.5s57.5 44.167 93.5 57.5s74.667 20 116 20s79.833 -6.66699 115.5 -20s66.834 -32.5 93.501 -57.5s47.5 -55.5 62.5 -91.5s22.5 -76.667 22.5 -122zM624.001 277c0 37.333 -6.33301 70.666 -19 99.999s-30.167 54.166 -52.5 74.499
s-48.333 35.833 -78 46.5s-61.5 16 -95.5 16s-65.667 -5.33301 -95 -16s-54.833 -26.167 -76.5 -46.5s-38.667 -45.166 -51 -74.499s-18.5 -62.666 -18.5 -99.999s6.16699 -70.666 18.5 -99.999s29.333 -54.333 51 -75s47.167 -36.334 76.5 -47.001s61 -16 95 -16
s65.833 5.33301 95.5 16s55.667 26.167 78 46.5s39.833 45.333 52.5 75s19 63.167 19 100.5zM578.001 675c0 -3.33301 -1.33594 -6.49902 -4.00293 -9.49902s-5.66699 -4.5 -9 -4.5c-2.66699 0 -4.66699 0.666992 -6 2l-179 95l-179 -95
c-1.33301 0 -2.16602 -0.333008 -2.49902 -1s-1.16602 -1 -2.49902 -1c-3.33301 0 -6.5 1.5 -9.5 4.5s-4.5 5.83301 -4.5 8.5c0 2 0.333008 3.66699 1 5s1.66699 2.66602 3 3.99902l167 131c2.66699 2 6.83398 4.16699 12.501 6.5s10.5 3.5 14.5 3.5
c4.66699 0 9.66699 -1.16699 15 -3.5s9.33301 -4.5 12 -6.5l168 -131c2 -3.33301 3 -6 3 -8z" />
    <glyph glyph-name="otilde" unicode="&#xf5;" horiz-adv-x="760" 
d="M674 277c0 -45.333 -7.49902 -86.166 -22.499 -122.499s-35.833 -67 -62.5 -92s-57.834 -44.167 -93.501 -57.5s-74.167 -20 -115.5 -20s-79.833 6.66699 -115.5 20s-66.834 32.666 -93.501 57.999s-47.5 56 -62.5 92s-22.5 76.667 -22.5 122s7.5 86 22.5 122
s35.667 66.5 62 91.5s57.5 44.167 93.5 57.5s74.667 20 116 20s79.833 -6.66699 115.5 -20s66.834 -32.5 93.501 -57.5s47.5 -55.5 62.5 -91.5s22.5 -76.667 22.5 -122zM624.001 277c0 37.333 -6.33301 70.666 -19 99.999s-30.167 54.166 -52.5 74.499
s-48.333 35.833 -78 46.5s-61.5 16 -95.5 16s-65.667 -5.33301 -95 -16s-54.833 -26.167 -76.5 -46.5s-38.667 -45.166 -51 -74.499s-18.5 -62.666 -18.5 -99.999s6.16699 -70.666 18.5 -99.999s29.333 -54.333 51 -75s47.167 -36.334 76.5 -47.001s61 -16 95 -16
s65.833 5.33301 95.5 16s55.667 26.167 78 46.5s39.833 45.333 52.5 75s19 63.167 19 100.5zM586.001 787c0 -8 -3.83105 -16.667 -11.498 -26s-17.667 -17.833 -30 -25.5s-26 -14.167 -41 -19.5s-29.833 -8 -44.5 -8c-16 0 -31.667 1.83301 -47 5.5l-46 11.5l-46 11.5
c-15.333 3.66699 -30.666 5.5 -45.999 5.5c-10.667 0 -21.334 -1.83301 -32.001 -5.5s-21.334 -10.167 -32.001 -19.5c-3.33301 -2.66699 -7.33301 -6.16699 -12 -10.5s-9.66699 -6.5 -15 -6.5c-4 0 -6.33301 1.5 -7 4.5s-1 5.83301 -1 8.5c0 11.333 4.33301 21.833 13 31.5
s19.5 18 32.5 25s26.667 12.333 41 16s27.166 5.5 38.499 5.5c15.333 0 31 -1.83301 47 -5.5s32 -7.66699 48 -12s31.667 -8.33301 47 -12s30 -5.5 44 -5.5c22 0 42.333 8 61 24l13.5 11.5c5 4.33301 10.167 6.5 15.5 6.5c1.33301 0 3.33301 -0.666992 6 -2s4 -4.33301 4 -9
z" />
    <glyph glyph-name="odieresis" unicode="&#xf6;" horiz-adv-x="760" 
d="M674 277c0 -45.333 -7.49902 -86.166 -22.499 -122.499s-35.833 -67 -62.5 -92s-57.834 -44.167 -93.501 -57.5s-74.167 -20 -115.5 -20s-79.833 6.66699 -115.5 20s-66.834 32.666 -93.501 57.999s-47.5 56 -62.5 92s-22.5 76.667 -22.5 122s7.5 86 22.5 122
s35.667 66.5 62 91.5s57.5 44.167 93.5 57.5s74.667 20 116 20s79.833 -6.66699 115.5 -20s66.834 -32.5 93.501 -57.5s47.5 -55.5 62.5 -91.5s22.5 -76.667 22.5 -122zM624.001 277c0 37.333 -6.33301 70.666 -19 99.999s-30.167 54.166 -52.5 74.499
s-48.333 35.833 -78 46.5s-61.5 16 -95.5 16s-65.667 -5.33301 -95 -16s-54.833 -26.167 -76.5 -46.5s-38.667 -45.166 -51 -74.499s-18.5 -62.666 -18.5 -99.999s6.16699 -70.666 18.5 -99.999s29.333 -54.333 51 -75s47.167 -36.334 76.5 -47.001s61 -16 95 -16
s65.833 5.33301 95.5 16s55.667 26.167 78 46.5s39.833 45.333 52.5 75s19 63.167 19 100.5zM588.001 732c0 -19.333 -5.83203 -34.834 -17.499 -46.501s-26.834 -17.5 -45.501 -17.5s-34 6 -46 18s-18 27.333 -18 46c0 16.667 6.5 31.334 19.5 44.001s27.5 19 43.5 19
c18.667 0 34 -6 46 -18s18 -27 18 -45zM300.002 731.999c0 -19.333 -5.33301 -34.835 -16 -46.502s-25.667 -17.5 -45 -17.5c-18.667 0 -34.167 6.16699 -46.5 18.5s-18.5 27.5 -18.5 45.5c0 16.667 6.33301 31.334 19 44.001s27.667 19 45 19s32 -6.16699 44 -18.5
s18 -27.166 18 -44.499z" />
    <glyph glyph-name="divide" unicode="&#xf7;" horiz-adv-x="798" 
d="M458 512c0 -17.333 -5.66699 -31.5 -17 -42.5s-25 -16.5 -41 -16.5s-29.667 5.5 -41 16.5s-17 24.5 -17 40.5c0 17.333 5.66699 31.5 17 42.5s25 16.5 41 16.5s29.667 -5.5 41 -16.5s17 -24.5 17 -40.5zM705 349c0 -8 -2.66699 -14.5 -8 -19.5s-14.333 -7.5 -27 -7.5
h-543c-12.667 0 -21.667 2.5 -27 7.5s-8 11.5 -8 19.5s2.66699 14.5 8 19.5s14.333 7.5 27 7.5h543c12.667 0 21.667 -2.5 27 -7.5s8 -11.5 8 -19.5zM458 191c0 -17.333 -5.66699 -31.5 -17 -42.5s-25 -16.5 -41 -16.5s-29.667 5.5 -41 16.5s-17 24.5 -17 40.5
c0 17.333 5.66699 31.5 17 42.5s25 16.5 41 16.5s29.667 -5.5 41 -16.5s17 -24.5 17 -40.5z" />
    <glyph glyph-name="oslash" unicode="&#xf8;" horiz-adv-x="786" 
d="M700 556c0 -8 -4.66602 -16.6689 -13.999 -26.002l-70 -70c18 -24 32.167 -51.167 42.5 -81.5s15.5 -64.166 15.5 -101.499c0 -46 -7.5 -87.167 -22.5 -123.5s-35.833 -67 -62.5 -92s-57.834 -44 -93.501 -57s-74.167 -19.5 -115.5 -19.5
c-35.333 0 -68.5 4.83301 -99.5 14.5s-58.833 23.834 -83.5 42.501l-53 -53c-10 -10 -18.667 -15 -26 -15c-6 0 -12 2.83301 -18 8.5s-9 11.5 -9 17.5c0 8 5 17 15 27l50 50c-22 25.333 -39.167 54.5 -51.5 87.5s-18.5 70.5 -18.5 112.5c0 45.333 7.5 86 22.5 122
s35.667 66.5 62 91.5s57.5 44.167 93.5 57.5s74.667 20 116 20c78.667 0 144.667 -23 198 -69l70 69c9.33301 9.33301 18.333 14 27 14c7.33301 0 13.333 -2.66699 18 -8s7 -11.333 7 -18zM624.001 276.998c0 30 -4.16699 57 -12.5 81s-19.5 45.667 -33.5 65l-343 -343
c20.667 -13.333 43 -23.5 67 -30.5s49.667 -10.5 77 -10.5c34 0 65.833 5.33301 95.5 16s55.667 26.167 78 46.5s39.833 45.333 52.5 75s19 63.167 19 100.5zM540.001 460.998c-42.667 35.333 -96.333 52.998 -161 52.998c-34 0 -65.667 -5.33301 -95 -16
s-54.833 -26.167 -76.5 -46.5s-38.667 -45.166 -51 -74.499s-18.5 -62.666 -18.5 -99.999c0 -34 5 -64.5 15 -91.5s23.667 -50.167 41 -69.5z" />
    <glyph glyph-name="ugrave" unicode="&#xf9;" horiz-adv-x="678" 
d="M561 20c0 -12.667 -2.50293 -21.665 -7.50293 -26.998s-11.5 -8 -19.5 -8s-14.667 2.66699 -20 8s-8 14.666 -8 27.999v70c-26 -34.667 -55.667 -60.334 -89 -77.001s-67.666 -25 -102.999 -25c-26.667 0 -52 4.5 -76 13.5s-45 21.167 -63 36.5s-32.167 33.333 -42.5 54
s-15.5 43 -15.5 67v374c0 22.667 9 34 27 34c8 0 14.5 -2.66699 19.5 -8s7.5 -14 7.5 -26v-367c0 -18 3.66699 -34.667 11 -50s17.333 -28.5 30 -39.5s27.834 -19.5 45.501 -25.5s37.167 -9 58.5 -9c22.667 0 43.167 3.83301 61.5 11.5s35.333 18 51 31
s29.834 27.833 42.501 44.5s24.667 33.667 36 51v353c0 22.667 9 34 27 34c8 0 14.5 -2.83301 19.5 -8.5s7.5 -14.5 7.5 -26.5v-513zM492.997 636.002l-306 108c-7.33301 3.33301 -11 7.33301 -11 12c0 2.66699 0.333008 5 1 7l22 45c4 6.66699 9.33301 10 16 10
c2 0 4.66699 -1 8 -3l279 -162z" />
    <glyph glyph-name="uacute" unicode="&#xfa;" horiz-adv-x="678" 
d="M561 20c0 -12.667 -2.50293 -21.665 -7.50293 -26.998s-11.5 -8 -19.5 -8s-14.667 2.66699 -20 8s-8 14.666 -8 27.999v70c-26 -34.667 -55.667 -60.334 -89 -77.001s-67.666 -25 -102.999 -25c-26.667 0 -52 4.5 -76 13.5s-45 21.167 -63 36.5s-32.167 33.333 -42.5 54
s-15.5 43 -15.5 67v374c0 22.667 9 34 27 34c8 0 14.5 -2.66699 19.5 -8s7.5 -14 7.5 -26v-367c0 -18 3.66699 -34.667 11 -50s17.333 -28.5 30 -39.5s27.834 -19.5 45.501 -25.5s37.167 -9 58.5 -9c22.667 0 43.167 3.83301 61.5 11.5s35.333 18 51 31
s29.834 27.833 42.501 44.5s24.667 33.667 36 51v353c0 22.667 9 34 27 34c8 0 14.5 -2.83301 19.5 -8.5s7.5 -14.5 7.5 -26.5v-513zM499.997 756.002c0 -4.66699 -3.66699 -8.66699 -11 -12l-306 -108l-9 17l280 162c2 2 4.33301 3 7 3c6.66699 0 12 -3.33301 16 -10
l22 -45c0.666992 -2 1 -4.33301 1 -7z" />
    <glyph glyph-name="ucircumflex" unicode="&#xfb;" horiz-adv-x="678" 
d="M561 20c0 -12.667 -2.50293 -21.665 -7.50293 -26.998s-11.5 -8 -19.5 -8s-14.667 2.66699 -20 8s-8 14.666 -8 27.999v70c-26 -34.667 -55.667 -60.334 -89 -77.001s-67.666 -25 -102.999 -25c-26.667 0 -52 4.5 -76 13.5s-45 21.167 -63 36.5s-32.167 33.333 -42.5 54
s-15.5 43 -15.5 67v374c0 22.667 9 34 27 34c8 0 14.5 -2.66699 19.5 -8s7.5 -14 7.5 -26v-367c0 -18 3.66699 -34.667 11 -50s17.333 -28.5 30 -39.5s27.834 -19.5 45.501 -25.5s37.167 -9 58.5 -9c22.667 0 43.167 3.83301 61.5 11.5s35.333 18 51 31
s29.834 27.833 42.501 44.5s24.667 33.667 36 51v353c0 22.667 9 34 27 34c8 0 14.5 -2.83301 19.5 -8.5s7.5 -14.5 7.5 -26.5v-513zM536.997 675.002c0 -3.33301 -1.33594 -6.49902 -4.00293 -9.49902s-5.66699 -4.5 -9 -4.5c-2.66699 0 -4.66699 0.666992 -6 2l-179 95
l-179 -95c-1.33301 0 -2.16602 -0.333008 -2.49902 -1s-1.16602 -1 -2.49902 -1c-3.33301 0 -6.5 1.5 -9.5 4.5s-4.5 5.83301 -4.5 8.5c0 2 0.333008 3.66699 1 5s1.66699 2.66602 3 3.99902l167 131c2.66699 2 6.83398 4.16699 12.501 6.5s10.5 3.5 14.5 3.5
c4.66699 0 9.66699 -1.16699 15 -3.5s9.33301 -4.5 12 -6.5l168 -131c2 -3.33301 3 -6 3 -8z" />
    <glyph glyph-name="udieresis" unicode="&#xfc;" horiz-adv-x="678" 
d="M561 20c0 -12.667 -2.50293 -21.665 -7.50293 -26.998s-11.5 -8 -19.5 -8s-14.667 2.66699 -20 8s-8 14.666 -8 27.999v70c-26 -34.667 -55.667 -60.334 -89 -77.001s-67.666 -25 -102.999 -25c-26.667 0 -52 4.5 -76 13.5s-45 21.167 -63 36.5s-32.167 33.333 -42.5 54
s-15.5 43 -15.5 67v374c0 22.667 9 34 27 34c8 0 14.5 -2.66699 19.5 -8s7.5 -14 7.5 -26v-367c0 -18 3.66699 -34.667 11 -50s17.333 -28.5 30 -39.5s27.834 -19.5 45.501 -25.5s37.167 -9 58.5 -9c22.667 0 43.167 3.83301 61.5 11.5s35.333 18 51 31
s29.834 27.833 42.501 44.5s24.667 33.667 36 51v353c0 22.667 9 34 27 34c8 0 14.5 -2.83301 19.5 -8.5s7.5 -14.5 7.5 -26.5v-513zM545.997 732.002c0 -19.333 -5.83203 -34.834 -17.499 -46.501s-26.834 -17.5 -45.501 -17.5s-34 6 -46 18s-18 27.333 -18 46
c0 16.667 6.5 31.334 19.5 44.001s27.5 19 43.5 19c18.667 0 34 -6 46 -18s18 -27 18 -45zM257.998 732.001c0 -19.333 -5.33301 -34.835 -16 -46.502s-25.667 -17.5 -45 -17.5c-18.667 0 -34.167 6.16699 -46.5 18.5s-18.5 27.5 -18.5 45.5
c0 16.667 6.33301 31.334 19 44.001s27.667 19 45 19s32 -6.16699 44 -18.5s18 -27.166 18 -44.499z" />
    <glyph glyph-name="yacute" unicode="&#xfd;" horiz-adv-x="721" 
d="M653 546c0 -5.33301 -1.99805 -12.333 -5.99805 -21l-380 -744c-8 -14.667 -16.667 -22 -26 -22c-7.33301 0 -13.833 2.5 -19.5 7.5s-8.5 11.167 -8.5 18.5c0 4.66699 2 11.667 6 21l123 240l-244 476l-4 11.5c-1.33301 3.66699 -2 6.5 -2 8.5c0 7.33301 3 13.5 9 18.5
s12.667 7.5 20 7.5c9.33301 0 17.666 -7.33301 24.999 -22l225 -441l228 445c8 14.667 17 22 27 22c7.33301 0 13.666 -2.5 18.999 -7.5s8 -11.167 8 -18.5zM522.002 756c0 -4.66699 -3.66699 -8.66699 -11 -12l-306 -108l-9 17l280 162c2 2 4.33301 3 7 3
c6.66699 0 12 -3.33301 16 -10l22 -45c0.666992 -2 1 -4.33301 1 -7z" />
    <glyph glyph-name="thorn" unicode="&#xfe;" horiz-adv-x="716" 
d="M662 279c0 -38.667 -7.33301 -74.999 -22 -108.999s-34.667 -63.5 -60 -88.5s-55.166 -44.667 -89.499 -59s-71.5 -21.5 -111.5 -21.5c-48.667 0 -91.667 9.5 -129 28.5s-70.666 48.5 -99.999 88.5h-1v-322c0 -13.333 -2.33301 -22.666 -7 -27.999s-11.334 -8 -20.001 -8
c-8 0 -14.5 2.66699 -19.5 8s-7.5 14.333 -7.5 27v958c0 22.667 9 34 27 34c8 0 14.5 -2.66699 19.5 -8s7.5 -14 7.5 -26v-313l1 -1c32 42.667 66.667 72.667 104 90s79 26 125 26c40 0 77.333 -7.16699 112 -21.5s64.667 -33.833 90 -58.5s45.166 -53.834 59.499 -87.501
s21.5 -69.834 21.5 -108.501zM609 279.001c0 30.667 -6 59.5 -18 86.5s-28.333 50.667 -49 71s-45 36.333 -73 48s-58 17.5 -90 17.5s-62 -5.83301 -90 -17.5s-52.5 -27.667 -73.5 -48s-37.5 -44 -49.5 -71s-18 -55.833 -18 -86.5c0 -31.333 6 -60.5 18 -87.5
s28.5 -50.667 49.5 -71s45.5 -36.333 73.5 -48s58 -17.5 90 -17.5s62 5.83301 90 17.5s52.333 27.667 73 48s37 44 49 71s18 56.167 18 87.5z" />
    <glyph glyph-name="ydieresis" unicode="&#xff;" horiz-adv-x="721" 
d="M653 546c0 -5.33301 -1.99805 -12.333 -5.99805 -21l-380 -744c-8 -14.667 -16.667 -22 -26 -22c-7.33301 0 -13.833 2.5 -19.5 7.5s-8.5 11.167 -8.5 18.5c0 4.66699 2 11.667 6 21l123 240l-244 476l-4 11.5c-1.33301 3.66699 -2 6.5 -2 8.5c0 7.33301 3 13.5 9 18.5
s12.667 7.5 20 7.5c9.33301 0 17.666 -7.33301 24.999 -22l225 -441l228 445c8 14.667 17 22 27 22c7.33301 0 13.666 -2.5 18.999 -7.5s8 -11.167 8 -18.5zM568.002 732c0 -19.333 -5.83203 -34.834 -17.499 -46.501s-26.834 -17.5 -45.501 -17.5s-34 6 -46 18
s-18 27.333 -18 46c0 16.667 6.5 31.334 19.5 44.001s27.5 19 43.5 19c18.667 0 34 -6 46 -18s18 -27 18 -45zM280.003 731.999c0 -19.333 -5.33301 -34.835 -16 -46.502s-25.667 -17.5 -45 -17.5c-18.667 0 -34.167 6.16699 -46.5 18.5s-18.5 27.5 -18.5 45.5
c0 16.667 6.33301 31.334 19 44.001s27.667 19 45 19s32 -6.16699 44 -18.5s18 -27.166 18 -44.499z" />
    <glyph glyph-name="dotlessi" unicode="&#x131;" horiz-adv-x="323" 
d="M189 21c0 -13.333 -2.5 -22.666 -7.5 -27.999s-11.5 -8 -19.5 -8c-9.33301 0 -16.333 2.66699 -21 8s-7 14.666 -7 27.999v512c0 23.333 8.66699 35 26 35c19.333 0 29 -11.333 29 -34v-513z" />
    <glyph glyph-name="Lslash" unicode="&#x141;" horiz-adv-x="662" 
d="M600 27c0 -8 -2.66797 -14.499 -8.00098 -19.499s-14 -7.5 -26 -7.5h-427c-7.33301 0 -12.833 1.83301 -16.5 5.5s-5.5 11.167 -5.5 22.5v266l-87 -64c-9.33301 -6.66699 -17.666 -10 -24.999 -10s-13.5 3 -18.5 9s-7.5 12 -7.5 18c0 10 6.33301 19 19 27l119 86v337
c0 12.667 2.5 21.667 7.5 27s11.5 8 19.5 8s14.5 -2.66699 19.5 -8s7.5 -14.333 7.5 -27v-297l146 106c8.66699 6 16.667 9 24 9c6.66699 0 12.667 -2.83301 18 -8.5s8 -11.834 8 -18.501c0 -8.66699 -6.33301 -17.667 -19 -27l-177 -128v-279h395c22.667 0 34 -9 34 -27z
" />
    <glyph glyph-name="lslash" unicode="&#x142;" horiz-adv-x="263" 
d="M325 538c0 -10 -6.33203 -19.3311 -18.999 -27.998l-141 -99v-390c0 -13.333 -2.5 -22.666 -7.5 -27.999s-11.5 -8 -19.5 -8c-8.66699 0 -15.334 2.66699 -20.001 8s-7 14.666 -7 27.999v353l-104 -73c-9.33301 -6 -17.333 -9 -24 -9c-7.33301 0 -13.5 2.66699 -18.5 8
s-7.5 11.666 -7.5 18.999c0 8 6.66699 16.333 20 25l132 95v313c0 12 2.66699 20.667 8 26s12 8 20 8c18 0 27 -11.333 27 -34v-276l110 78c5.33301 3.33301 10 5.66602 14 6.99902s7.66699 2 11 2c6 0 11.833 -2.66699 17.5 -8s8.5 -11 8.5 -17z" />
    <glyph glyph-name="OE" unicode="&#x152;" horiz-adv-x="838" 
d="M758 28c0 -9.33301 -3.33398 -16.332 -10.001 -20.999s-15.667 -7 -27 -7h-320c-49.333 0 -93.666 8.5 -132.999 25.5s-73 41.167 -101 72.5s-49.5 69.166 -64.5 113.499s-22.5 93.833 -22.5 148.5c0 52 7.5 99.5 22.5 142.5s36.333 80 64 111s60.5 55 98.5 72
s80 25.5 126 25.5h330c24.667 0 37 -9.33301 37 -28c0 -10 -3.33301 -17.333 -10 -22s-15.667 -7 -27 -7h-249v-238h128c25.333 0 38 -9.66699 38 -29s-12.667 -29 -38 -29h-128v-301h249c24.667 0 37 -9.66699 37 -29zM415.999 654.001l-13.001 0.000976562
c-44.667 0 -83.667 -7.66699 -117 -23s-61 -36.333 -83 -63s-38.333 -58.167 -49 -94.5s-16 -75.833 -16 -118.5c0 -46 6.16699 -87.5 18.5 -124.5s29.833 -68.333 52.5 -94s50.334 -45.334 83.001 -59.001s69.667 -20.5 111 -20.5h13v597z" />
    <glyph glyph-name="oe" unicode="&#x153;" horiz-adv-x="849" 
d="M763 95c0 -6.66699 -2.16992 -13.332 -6.50293 -19.999s-9.5 -13 -15.5 -19s-12.667 -11.667 -20 -17l-17 -12c-42 -28 -86 -42 -132 -42c-15.333 0 -30.666 1.16699 -45.999 3.5s-29.833 7.16602 -43.5 14.499s-26.5 17.333 -38.5 30s-22.333 29.667 -31 51
c-9.33301 -19.333 -19.5 -35.5 -30.5 -48.5s-22.667 -23.167 -35 -30.5s-25.5 -12.5 -39.5 -15.5s-28.667 -4.5 -44 -4.5c-34.667 0 -63.5 9.5 -86.5 28.5s-41.167 43 -54.5 72s-22.833 61.167 -28.5 96.5s-8.5 69 -8.5 101c0 32.667 3.33301 66.167 10 100.5
s17.5 65.5 32.5 93.5s34.5 50.833 58.5 68.5s53.667 26.5 89 26.5c28 0 53 -6.83301 75 -20.5s42.333 -37.5 61 -71.5c16.667 34.667 37.667 58.667 63 72s60 20 104 20c32 0 59.167 -7.16699 81.5 -21.5s40.666 -33.333 54.999 -57s24.666 -51 30.999 -82
s9.5 -63.167 9.5 -96.5c0 -10 -0.333008 -18.5 -1 -25.5s-2.16699 -12.5 -4.5 -16.5s-6.16602 -6.83301 -11.499 -8.5s-12.666 -2.5 -21.999 -2.5h-274c0 -28 1.33301 -55.333 4 -82s8.5 -50.5 17.5 -71.5s22.333 -37.833 40 -50.5s41.834 -19 72.501 -19
c40 0 77.333 14 112 42c9.33301 7.33301 19 15.333 29 24s19 13 27 13c6.66699 0 11.334 -2.83301 14.001 -8.5s4 -10.5 4 -14.5zM388.997 263.002c0 12.667 -0.332031 27.8281 -0.999023 45.4951s-2.16699 35.834 -4.5 54.501s-6 37.334 -11 56.001
s-11.833 35.334 -20.5 50.001s-19.667 26.5 -33 35.5s-29.333 13.5 -48 13.5c-26.667 0 -48.5 -9.16699 -65.5 -27.5s-30.333 -40.166 -40 -65.499s-16.334 -51.666 -20.001 -78.999s-5.5 -50.333 -5.5 -69c0 -18 1.83301 -40.667 5.5 -68s10.5 -53.5 20.5 -78.5
s23.5 -46.5 40.5 -64.5s38.5 -27 64.5 -27s46.833 8.33301 62.5 25s27.5 36.667 35.5 60s13.333 47.833 16 73.5s4 47.5 4 65.5zM695.998 336.996c0 18 -1.66602 37.499 -4.99902 58.499s-9.33301 40.5 -18 58.5s-20.5 33.167 -35.5 45.5s-34.5 18.5 -58.5 18.5
c-29.333 0 -52.833 -6.16699 -70.5 -18.5s-31.334 -27.666 -41.001 -45.999s-16 -38.5 -19 -60.5s-4.5 -42.333 -4.5 -61v-16h252v21z" />
    <glyph glyph-name="Scaron" unicode="&#x160;" horiz-adv-x="738" 
d="M646 187c0 -20 -4.66504 -42.1709 -13.998 -66.5039s-24.833 -47 -46.5 -68s-49.834 -38.667 -84.501 -53s-77.334 -21.5 -128.001 -21.5c-44.667 0 -84.5 6.16699 -119.5 18.5s-64.5 28.833 -88.5 49.5s-42.167 44.667 -54.5 72s-18.5 55.666 -18.5 84.999
c0 21.333 9 32 27 32c8 0 14.5 -2.33301 19.5 -7s7.5 -12.667 7.5 -24c0 -27.333 6.33301 -51.5 19 -72.5s29.334 -39 50.001 -54s44.5 -26.333 71.5 -34s55.167 -11.5 84.5 -11.5c24.667 0 50 2.83301 76 8.5s49.833 14.834 71.5 27.501s39.334 28.834 53.001 48.501
s20.5 43.167 20.5 70.5c0 20 -4.33301 37.667 -13 53s-20 28.5 -34 39.5s-29.5 19.833 -46.5 26.5s-33.833 11.334 -50.5 14.001l-118 18c-24.667 4 -49.334 10.833 -74.001 20.5s-46.834 22.334 -66.501 38.001s-35.667 34.334 -48 56.001s-18.5 46.167 -18.5 73.5
c0 34 6.5 64 19.5 90s30.667 47.5 53 64.5s48.333 29.833 78 38.5s61.167 13 94.5 13c41.333 0 77.833 -6.83301 109.5 -20.5s58.167 -30 79.5 -49s37.5 -39 48.5 -60s16.5 -38.833 16.5 -53.5c0 -12.667 -1.16699 -22.5 -3.5 -29.5s-8.5 -10.5 -18.5 -10.5
c-8 0 -14.833 2.5 -20.5 7.5s-9.16699 12.833 -10.5 23.5c-2 14.667 -7.83301 30 -17.5 46s-23 30.833 -40 44.5s-37.5 25 -61.5 34s-51.333 13.5 -82 13.5c-25.333 0 -49.5 -2.83301 -72.5 -8.5s-43.167 -14.5 -60.5 -26.5s-31.333 -27.667 -42 -47s-16 -43 -16 -71
c0 -32 14.333 -60.333 43 -85s67.667 -40.667 117 -48l119 -18c23.333 -4 46.333 -10.833 69 -20.5s43 -22.5 61 -38.5s32.5 -34.667 43.5 -56s16.5 -45.333 16.5 -72zM569.002 961.996c0 -1.33301 -0.498047 -2.83203 -1.49805 -4.49902s-2.16699 -3.16699 -3.5 -4.5
l-167 -131c-2.66699 -2 -6.83398 -4.16699 -12.501 -6.5s-10.834 -3.5 -15.501 -3.5c-3.33301 0 -7.83301 1 -13.5 3s-10.167 4.33301 -13.5 7l-167 131c-2.66699 4 -4 6.66699 -4 8c0 2.66699 1.5 5.5 4.5 8.5s6.16699 4.5 9.5 4.5c1.33301 0 2.5 -0.166992 3.5 -0.5
s1.83301 -0.5 2.5 -0.5l178 -95l180 95c0.666992 0.666992 2.66699 1 6 1s6.5 -1.33301 9.5 -4s4.5 -5.33398 4.5 -8.00098z" />
    <glyph glyph-name="scaron" unicode="&#x161;" horiz-adv-x="677" 
d="M584 150c0 -25.333 -5.83008 -48.502 -17.4971 -69.502s-28.167 -39 -49.5 -54s-46.833 -26.5 -76.5 -34.5s-62.834 -12 -99.501 -12c-56.667 0 -101.5 6.5 -134.5 19.5s-58 28.167 -75 45.5s-27.833 34.833 -32.5 52.5s-7 31.167 -7 40.5s2.5 17.166 7.5 23.499
s12.167 9.5 21.5 9.5c19.333 0 29 -12 29 -36c0 -14.667 4.83301 -28.167 14.5 -40.5s22.834 -23 39.501 -32s36.5 -16 59.5 -21s48.167 -7.5 75.5 -7.5c28 0 53.667 2.66699 77 8s43.5 13 60.5 23s30.167 21.667 39.5 35s14 28 14 44c0 26.667 -6.83301 47.5 -20.5 62.5
s-30.334 26.5 -50.001 34.5s-40.167 13.333 -61.5 16l-56 7c-26 3.33301 -52 7.5 -78 12.5s-49.667 13 -71 24s-38.666 26.167 -51.999 45.5s-20 45 -20 77c0 20 5.33301 39 16 57s25.667 33.5 45 46.5s42 23.333 68 31s54.667 11.5 86 11.5
c20.667 0 43.834 -2.5 69.501 -7.5s49.834 -13 72.501 -24s41.667 -25.5 57 -43.5s23 -40.333 23 -67c0 -8 -1.33301 -15 -4 -21s-7.66699 -9.33301 -15 -10s-14.5 1.66602 -21.5 6.99902s-10.833 13 -11.5 23c-2.66699 28 -19.334 49.833 -50.001 65.5
s-70.334 23.5 -119.001 23.5c-23.333 0 -44.833 -2.33301 -64.5 -7s-36.834 -11.167 -51.501 -19.5s-26 -18.166 -34 -29.499s-12 -23.666 -12 -36.999c0 -24 6.16699 -42.667 18.5 -56s27.666 -23.166 45.999 -29.499s38.166 -10.666 59.499 -12.999l59 -6.5
c21.333 -2 45 -5.5 71 -10.5s50.5 -13.5 73.5 -25.5s42.333 -28.333 58 -49s23.5 -48 23.5 -82zM538.003 796.998c0 -1.33301 -0.498047 -2.83203 -1.49805 -4.49902s-2.16699 -3.16699 -3.5 -4.5l-167 -131c-2.66699 -2 -6.83398 -4.16699 -12.501 -6.5
s-10.834 -3.5 -15.501 -3.5c-3.33301 0 -7.83301 1 -13.5 3s-10.167 4.33301 -13.5 7l-167 131c-2.66699 4 -4 6.66699 -4 8c0 2.66699 1.5 5.5 4.5 8.5s6.16699 4.5 9.5 4.5c1.33301 0 2.5 -0.166992 3.5 -0.5s1.83301 -0.5 2.5 -0.5l178 -95l180 95
c0.666992 0.666992 2.66699 1 6 1s6.5 -1.33301 9.5 -4s4.5 -5.33398 4.5 -8.00098z" />
    <glyph glyph-name="Ydieresis" unicode="&#x178;" horiz-adv-x="690" 
d="M604 707c0 -3.33301 -0.669922 -6.66699 -2.00293 -10l-5 -12l-226 -412v-252c0 -13.333 -2.16699 -22.666 -6.5 -27.999s-11.166 -8 -20.499 -8c-7.33301 0 -13.333 2.5 -18 7.5s-7 13.167 -7 24.5v256l-226 412l-5 12c-1.33301 3.33301 -2 6.66602 -2 9.99902
c0 6.66699 2.83301 12.5 8.5 17.5s11.834 7.5 18.501 7.5c9.33301 0 18.333 -7.33301 27 -22l204 -373l206 373c8.66699 14.667 17.667 22 27 22c6.66699 0 12.834 -2.33301 18.501 -7s8.5 -10.667 8.5 -18zM551.997 896.999c0 -19.333 -5.83203 -34.834 -17.499 -46.501
s-26.834 -17.5 -45.501 -17.5s-34 6 -46 18s-18 27.333 -18 46c0 16.667 6.5 31.334 19.5 44.001s27.5 19 43.5 19c18.667 0 34 -6 46 -18s18 -27 18 -45zM263.998 896.998c0 -19.333 -5.33301 -34.835 -16 -46.502s-25.667 -17.5 -45 -17.5
c-18.667 0 -34.167 6.16699 -46.5 18.5s-18.5 27.5 -18.5 45.5c0 16.667 6.33301 31.334 19 44.001s27.667 19 45 19s32 -6.16699 44 -18.5s18 -27.166 18 -44.499z" />
    <glyph glyph-name="Zcaron" unicode="&#x17d;" horiz-adv-x="690" 
d="M598 685c0 -7.33301 -3.00098 -15.002 -9.00098 -23.002l-419 -608h388c12.667 0 21.834 -2.5 27.501 -7.5s8.5 -11.5 8.5 -19.5c0 -18 -12 -27 -36 -27h-437c-7.33301 0 -14 2.33301 -20 7s-9 10.667 -9 18s3.33301 15.333 10 24l415 609h-380
c-13.333 0 -22.666 2.33301 -27.999 7s-8 11.334 -8 20.001c0 8 2.66699 14.5 8 19.5s14.666 7.5 27.999 7.5h435c6 0 11.833 -2.66699 17.5 -8s8.5 -11.666 8.5 -18.999zM543.999 961.998c0 -1.33301 -0.498047 -2.83203 -1.49805 -4.49902s-2.16699 -3.16699 -3.5 -4.5
l-167 -131c-2.66699 -2 -6.83398 -4.16699 -12.501 -6.5s-10.834 -3.5 -15.501 -3.5c-3.33301 0 -7.83301 1 -13.5 3s-10.167 4.33301 -13.5 7l-167 131c-2.66699 4 -4 6.66699 -4 8c0 2.66699 1.5 5.5 4.5 8.5s6.16699 4.5 9.5 4.5c1.33301 0 2.5 -0.166992 3.5 -0.5
s1.83301 -0.5 2.5 -0.5l178 -95l180 95c0.666992 0.666992 2.66699 1 6 1s6.5 -1.33301 9.5 -4s4.5 -5.33398 4.5 -8.00098z" />
    <glyph glyph-name="zcaron" unicode="&#x17e;" horiz-adv-x="688" 
d="M597 522c0 -7.33301 -0.668945 -15.001 -2.00195 -23.001s-6.66602 -16.333 -15.999 -25l-420 -420h390c23.333 0 35 -9 35 -27c0 -8 -2.83301 -14.5 -8.5 -19.5s-14.5 -7.5 -26.5 -7.5h-424c-11.333 0 -19.666 3.33301 -24.999 10s-8 14.667 -8 24
c0 6.66699 0.833008 14 2.5 22s7.5 16.667 17.5 26l418 420h-391c-12.667 0 -21.5 2.33301 -26.5 7s-7.5 11.334 -7.5 20.001c0 8 2.5 14.5 7.5 19.5s13.833 7.5 26.5 7.5h424c12 0 20.667 -3.33301 26 -10s8 -14.667 8 -24zM543.998 796.999
c0 -1.33301 -0.498047 -2.83203 -1.49805 -4.49902s-2.16699 -3.16699 -3.5 -4.5l-167 -131c-2.66699 -2 -6.83398 -4.16699 -12.501 -6.5s-10.834 -3.5 -15.501 -3.5c-3.33301 0 -7.83301 1 -13.5 3s-10.167 4.33301 -13.5 7l-167 131c-2.66699 4 -4 6.66699 -4 8
c0 2.66699 1.5 5.5 4.5 8.5s6.16699 4.5 9.5 4.5c1.33301 0 2.5 -0.166992 3.5 -0.5s1.83301 -0.5 2.5 -0.5l178 -95l180 95c0.666992 0.666992 2.66699 1 6 1s6.5 -1.33301 9.5 -4s4.5 -5.33398 4.5 -8.00098z" />
    <glyph glyph-name="florin" unicode="&#x192;" horiz-adv-x="728" 
d="M648 738c0 -8 -2.50391 -14.501 -7.50391 -19.501s-11.167 -7.5 -18.5 -7.5c-2 0 -5.66699 0.666992 -11 2c-12 2.66699 -23.667 5.66699 -35 9s-23.666 5 -36.999 5c-22 0 -42.333 -3.83301 -61 -11.5s-34.834 -18.334 -48.501 -32.001s-24.167 -30.167 -31.5 -49.5
s-11 -40.333 -11 -63v-90h126c24.667 0 37 -9 37 -27c0 -18.667 -12.333 -28 -37 -28h-126v-394c0 -28 -5 -54.333 -15 -79s-23.667 -46 -41 -64s-37.666 -32.333 -60.999 -43s-48.666 -16 -75.999 -16c-32 0 -59 4.33301 -81 13s-33 19.667 -33 33c0 9.33301 2.5 16 7.5 20
s11.167 6 18.5 6c2.66699 0 5.33398 -0.166992 8.00098 -0.5s5.66699 -1.16602 9 -2.49902c16.667 -5.33301 29.834 -9.16602 39.501 -11.499s20.834 -3.5 33.501 -3.5c20 0 38.5 3.83301 55.5 11.5s31.667 18.5 44 32.5s22 30.5 29 49.5s10.5 39.5 10.5 61.5v387h-114
c-23.333 0 -35 9.33301 -35 28c0 18 11.667 27 35 27h114v90c0 29.333 5.16699 56.833 15.5 82.5s24.333 48 42 67s38.667 33.833 63 44.5s50.5 16 78.5 16c33.333 0 60.666 -4 81.999 -12s32 -18.333 32 -31z" />
    <glyph glyph-name="circumflex" unicode="&#x2c6;" horiz-adv-x="763" 
d="M579 675c0 -3.33301 -1.33594 -6.49902 -4.00293 -9.49902s-5.66699 -4.5 -9 -4.5c-2.66699 0 -4.66699 0.666992 -6 2l-179 95l-179 -95c-1.33301 0 -2.16602 -0.333008 -2.49902 -1s-1.16602 -1 -2.49902 -1c-3.33301 0 -6.5 1.5 -9.5 4.5s-4.5 5.83301 -4.5 8.5
c0 2 0.333008 3.66699 1 5s1.66699 2.66602 3 3.99902l167 131c2.66699 2 6.83398 4.16699 12.501 6.5s10.5 3.5 14.5 3.5c4.66699 0 9.66699 -1.16699 15 -3.5s9.33301 -4.5 12 -6.5l168 -131c2 -3.33301 3 -6 3 -8z" />
    <glyph glyph-name="caron" unicode="&#x2c7;" horiz-adv-x="775" 
d="M587 797c0 -1.33301 -0.498047 -2.83203 -1.49805 -4.49902s-2.16699 -3.16699 -3.5 -4.5l-167 -131c-2.66699 -2 -6.83398 -4.16699 -12.501 -6.5s-10.834 -3.5 -15.501 -3.5c-3.33301 0 -7.83301 1 -13.5 3s-10.167 4.33301 -13.5 7l-167 131
c-2.66699 4 -4 6.66699 -4 8c0 2.66699 1.5 5.5 4.5 8.5s6.16699 4.5 9.5 4.5c1.33301 0 2.5 -0.166992 3.5 -0.5s1.83301 -0.5 2.5 -0.5l178 -95l180 95c0.666992 0.666992 2.66699 1 6 1s6.5 -1.33301 9.5 -4s4.5 -5.33398 4.5 -8.00098z" />
    <glyph glyph-name="uni02C9" unicode="&#x2c9;" horiz-adv-x="775" 
d="M597 722c0 -8 -2.66699 -14.5 -8 -19.5s-14.333 -7.5 -27 -7.5h-350c-12.667 0 -21.667 2.5 -27 7.5s-8 11.5 -8 19.5s2.66699 14.5 8 19.5s14.333 7.5 27 7.5h350c12.667 0 21.667 -2.5 27 -7.5s8 -11.5 8 -19.5z" />
    <glyph glyph-name="breve" unicode="&#x2d8;" horiz-adv-x="756" 
d="M599 804c0 -23.333 -7.83008 -43 -23.4971 -59s-34.667 -29.333 -57 -40s-46.166 -18.334 -71.499 -23.001s-48 -7 -68 -7s-42.833 2.33301 -68.5 7s-49.834 12.334 -72.501 23.001s-41.834 24 -57.501 40s-23.5 35.667 -23.5 59c0 4 0.333008 7.66699 1 11s3 5 7 5
c8 0 17.333 -6.66699 28 -20c12 -16 25.167 -28.333 39.5 -37s29.5 -15.167 45.5 -19.5s32.333 -7 49 -8s33.667 -1.5 51 -1.5c16.667 0 33.5 0.5 50.5 1.5s33.5 3.66699 49.5 8s31.167 11 45.5 20s27.166 21.167 38.499 36.5c5.33301 7.33301 10.666 12.5 15.999 15.5
s9.33301 4.5 12 4.5c6 0 9 -5.33301 9 -16z" />
    <glyph glyph-name="dotaccent" unicode="&#x2d9;" horiz-adv-x="749" 
d="M438 732c0 -19.333 -5.49902 -34.835 -16.499 -46.502s-26.167 -17.5 -45.5 -17.5c-18.667 0 -34.167 6.16699 -46.5 18.5s-18.5 27.5 -18.5 45.5c0 16.667 6.5 31.334 19.5 44.001s27.833 19 44.5 19c17.333 0 32.166 -6.16699 44.499 -18.5s18.5 -27.166 18.5 -44.499z
" />
    <glyph glyph-name="ring" unicode="&#x2da;" horiz-adv-x="732" 
d="M504 782c0 -19.333 -3.50098 -37.498 -10.501 -54.498s-16.833 -31.833 -29.5 -44.5s-27.334 -22.5 -44.001 -29.5s-35 -10.5 -55 -10.5c-19.333 0 -37.333 3.66699 -54 11s-31.167 17.166 -43.5 29.499s-22 27 -29 44s-10.5 35.167 -10.5 54.5s3.5 37.5 10.5 54.5
s16.833 31.667 29.5 44s27.5 22 44.5 29s35.167 10.5 54.5 10.5c18.667 0 36.334 -3.5 53.001 -10.5s31.334 -16.833 44.001 -29.5s22.5 -27.334 29.5 -44.001s10.5 -34.667 10.5 -54zM457.999 781.002c0 12 -2.33203 23.5 -6.99902 34.5s-11.167 20.833 -19.5 29.5
s-18 15.5 -29 20.5s-22.833 7.5 -35.5 7.5c-26 0 -48 -8.83301 -66 -26.5s-27 -39.5 -27 -65.5c0 -13.333 2.5 -25.5 7.5 -36.5s11.667 -20.5 20 -28.5s18.166 -14.333 29.499 -19s23.333 -7 36 -7c25.333 0 46.833 8.83301 64.5 26.5s26.5 39.167 26.5 64.5z" />
    <glyph glyph-name="ogonek" unicode="&#x2db;" horiz-adv-x="743" 
d="M528 -157c0 -11.333 -4.49805 -22.332 -13.498 -32.999s-20.167 -20 -33.5 -28s-27.333 -14.5 -42 -19.5s-27.334 -7.5 -38.001 -7.5c-24.667 0 -45.334 7.16699 -62.001 21.5s-25 33.5 -25 57.5c0 22 4.16699 42.667 12.5 62s19.333 37.333 33 54s29.167 32 46.5 46
s35 26.667 53 38h17c-11.333 -9.33301 -22.333 -19.5 -33 -30.5s-20.334 -22.833 -29.001 -35.5s-15.667 -26.167 -21 -40.5s-8 -29.5 -8 -45.5c0 -20.667 5 -38.834 15 -54.501s27.667 -23.5 53 -23.5c10.667 0 20 2 28 6s14.833 8.5 20.5 13.5s10.334 9.66699 14.001 14
s6.5 6.5 8.5 6.5c2.66699 0 4 -0.333008 4 -1z" />
    <glyph glyph-name="tilde" unicode="&#x2dc;" horiz-adv-x="750" 
d="M581 787c0 -8 -3.83105 -16.667 -11.498 -26s-17.667 -17.833 -30 -25.5s-26 -14.167 -41 -19.5s-29.833 -8 -44.5 -8c-16 0 -31.667 1.83301 -47 5.5l-46 11.5l-46 11.5c-15.333 3.66699 -30.666 5.5 -45.999 5.5c-10.667 0 -21.334 -1.83301 -32.001 -5.5
s-21.334 -10.167 -32.001 -19.5c-3.33301 -2.66699 -7.33301 -6.16699 -12 -10.5s-9.66699 -6.5 -15 -6.5c-4 0 -6.33301 1.5 -7 4.5s-1 5.83301 -1 8.5c0 11.333 4.33301 21.833 13 31.5s19.5 18 32.5 25s26.667 12.333 41 16s27.166 5.5 38.499 5.5
c15.333 0 31 -1.83301 47 -5.5s32 -7.66699 48 -12s31.667 -8.33301 47 -12s30 -5.5 44 -5.5c22 0 42.333 8 61 24l13.5 11.5c5 4.33301 10.167 6.5 15.5 6.5c1.33301 0 3.33301 -0.666992 6 -2s4 -4.33301 4 -9z" />
    <glyph glyph-name="hungarumlaut" unicode="&#x2dd;" horiz-adv-x="775" 
d="M665 768c0 -4 -2.99902 -7.33398 -8.99902 -10.001l-203 -110l-13 15l165 144l10.5 8c3.66699 2.66699 7.16699 4 10.5 4c2.66699 0 5.66699 -2 9 -6l27 -33c1.33301 -2 2.16602 -4.16699 2.49902 -6.5s0.5 -4.16602 0.5 -5.49902zM462.001 768.999
c0 -4.66699 -2.99902 -8.33398 -8.99902 -11.001l-202 -110l-12 15l163 144c9.33301 7.33301 16 11 20 11c2.66699 0 4.66699 -0.666992 6 -2s3 -2.66602 5 -3.99902l26 -32c1.33301 -2 2.16602 -4 2.49902 -6s0.5 -3.66699 0.5 -5z" />
    <glyph glyph-name="Delta" unicode="&#x394;" 
d="M550 371c0 -28 -8.83398 -50.832 -26.501 -68.499s-40.5 -26.5 -68.5 -26.5h-73c11.333 -16.667 17 -35.334 17 -56.001c0 -28 -8.83301 -50.833 -26.5 -68.5s-40.5 -26.5 -68.5 -26.5h-254v254c0 28 8.83301 50.833 26.5 68.5s40.5 26.5 68.5 26.5
c20.667 0 39.334 -5.66699 56.001 -17v73c0 28 8.83301 50.833 26.5 68.5s40.5 26.5 68.5 26.5s50.833 -8.83301 68.5 -26.5s26.5 -40.5 26.5 -68.5v-64h64c28 0 50.833 -8.83301 68.5 -26.5s26.5 -40.5 26.5 -68.5zM532.999 371.001
c0 23.333 -7.16895 42.168 -21.502 56.501s-33.166 21.5 -56.499 21.5h-81v81c0 23.333 -7.16699 42.166 -21.5 56.499s-33.166 21.5 -56.499 21.5s-42.166 -7.16699 -56.499 -21.5s-21.5 -33.166 -21.5 -56.499v-237h237c23.333 0 42.166 7.16699 56.499 21.5
s21.5 33.166 21.5 56.499z" />
    <glyph glyph-name="Omega" unicode="&#x3a9;" 
d="M550 371c0 -28 -8.83398 -50.832 -26.501 -68.499s-40.5 -26.5 -68.5 -26.5h-73c11.333 -16.667 17 -35.334 17 -56.001c0 -28 -8.83301 -50.833 -26.5 -68.5s-40.5 -26.5 -68.5 -26.5h-254v254c0 28 8.83301 50.833 26.5 68.5s40.5 26.5 68.5 26.5
c20.667 0 39.334 -5.66699 56.001 -17v73c0 28 8.83301 50.833 26.5 68.5s40.5 26.5 68.5 26.5s50.833 -8.83301 68.5 -26.5s26.5 -40.5 26.5 -68.5v-64h64c28 0 50.833 -8.83301 68.5 -26.5s26.5 -40.5 26.5 -68.5zM532.999 371.001
c0 23.333 -7.16895 42.168 -21.502 56.501s-33.166 21.5 -56.499 21.5h-81v81c0 23.333 -7.16699 42.166 -21.5 56.499s-33.166 21.5 -56.499 21.5s-42.166 -7.16699 -56.499 -21.5s-21.5 -33.166 -21.5 -56.499v-237h237c23.333 0 42.166 7.16699 56.499 21.5
s21.5 33.166 21.5 56.499z" />
    <glyph glyph-name="mu" unicode="&#x3bc;" horiz-adv-x="678" 
d="M561 21c0 -13.333 -2.50293 -22.667 -7.50293 -28s-11.5 -8 -19.5 -8c-18.667 0 -28 11.667 -28 35v71c-26 -34.667 -55.667 -60.334 -89 -77.001s-67.666 -25 -102.999 -25c-28 0 -54.333 4.83301 -79 14.5s-46 22.834 -64 39.501v-255c0 -12 -2.5 -20.667 -7.5 -26
s-11.5 -8 -19.5 -8s-14.5 2.66699 -19.5 8s-7.5 14 -7.5 26v746c0 22.667 9 34 27 34c8 0 14.5 -2.66699 19.5 -8s7.5 -14 7.5 -26v-367c0 -18 3.66699 -34.667 11 -50s17.333 -28.5 30 -39.5s27.834 -19.5 45.501 -25.5s37.167 -9 58.5 -9
c22.667 0 43.167 3.83301 61.5 11.5s35.333 18 51 31s29.834 27.833 42.501 44.5s24.667 33.667 36 51v353c0 22.667 9 34 27 34c8 0 14.5 -2.83301 19.5 -8.5s7.5 -14.5 7.5 -26.5v-512z" />
    <glyph glyph-name="pi" unicode="&#x3c0;" horiz-adv-x="843" 
d="M774 319c0 -9.33301 -3.16602 -17.166 -9.49902 -23.499s-17.166 -13.5 -32.499 -21.5l-313 -158c-15.333 -8.66699 -28 -13 -38 -13c-7.33301 0 -13.666 2.5 -18.999 7.5s-8 11.5 -8 19.5c0 7.33301 3.66699 14.166 11 20.499s18 13.166 32 20.499l248 121h-549
c-11.333 0 -18.666 3.33301 -21.999 10s-5 14.667 -5 24v434c0 23.333 9 35 27 35c8 0 14.5 -2.66699 19.5 -8s7.5 -14.333 7.5 -27v-414h522l-248 120c-28.667 14 -43 27.667 -43 41c0 8 2.66699 14.5 8 19.5s11.666 7.5 18.999 7.5c5.33301 0 11.166 -1.16699 17.499 -3.5
s13.166 -5.16602 20.499 -8.49902l313 -159c15.333 -8 26.166 -15 32.499 -21s9.5 -13.667 9.5 -23z" />
    <glyph glyph-name="endash" unicode="&#x2013;" horiz-adv-x="800" 
d="M707 349c0 -8 -2.66699 -14.5 -8 -19.5s-14 -7.5 -26 -7.5h-546c-12.667 0 -21.667 2.5 -27 7.5s-8 11.5 -8 19.5s2.66699 14.5 8 19.5s14.333 7.5 27 7.5h546c12 0 20.667 -2.5 26 -7.5s8 -11.5 8 -19.5z" />
    <glyph glyph-name="emdash" unicode="&#x2014;" horiz-adv-x="938" 
d="M846 349c0 -8 -2.66699 -14.5 -8 -19.5s-14 -7.5 -26 -7.5h-685c-12.667 0 -21.667 2.5 -27 7.5s-8 11.5 -8 19.5s2.66699 14.5 8 19.5s14.333 7.5 27 7.5h685c12 0 20.667 -2.5 26 -7.5s8 -11.5 8 -19.5z" />
    <glyph glyph-name="quoteleft" unicode="&#x2018;" horiz-adv-x="353" 
d="M200 435c-1.33301 -4.66699 -2.50391 -8.00098 -3.50391 -10.001s-4.16699 -3 -9.5 -3h-94c-3.33301 0 -6.16602 1 -8.49902 3s-3.5 4.66699 -3.5 8c0 2.66699 0.333008 4.66699 1 6l139 288c2.66699 4 5.33398 6 8.00098 6s5.33398 -0.666992 8.00098 -2l29 -11
c1.33301 -1.33301 2.83301 -2.66602 4.5 -3.99902s1.83398 -4 0.500977 -8z" />
    <glyph glyph-name="quoteright" unicode="&#x2019;" horiz-adv-x="353" 
d="M273 701c0 -2.66699 -0.331055 -4.66699 -0.998047 -6l-139 -288c-3.33301 -4 -6 -6 -8 -6c-2.66699 0 -5.33398 0.666992 -8.00098 2l-28 12c-2 0.666992 -3.66699 1.66699 -5 3s-1.33301 4 0 8l70 273c1.33301 4.66699 2.5 8 3.5 10s4.16699 3 9.5 3h94
c3.33301 0 6.16602 -1 8.49902 -3s3.5 -4.66699 3.5 -8z" />
    <glyph glyph-name="quotesinglbase" unicode="&#x201a;" horiz-adv-x="353" 
d="M273 130c0 -2 -0.331055 -3.99902 -0.998047 -5.99902l-139 -288c-4 -4 -6.66699 -6 -8 -6c-0.666992 0 -1.83398 0.166992 -3.50098 0.5s-3.16699 1.16602 -4.5 2.49902l-28 11c-2 0.666992 -3.66699 1.66699 -5 3s-1.33301 4 0 8l70 273
c1.33301 5.33301 2.5 8.83301 3.5 10.5s4.16699 2.5 9.5 2.5h94c3.33301 0 6.16602 -0.833008 8.49902 -2.5s3.5 -4.5 3.5 -8.5z" />
    <glyph glyph-name="quotedblleft" unicode="&#x201c;" horiz-adv-x="561" 
d="M200 435c-1.33301 -4.66699 -2.50391 -8.00098 -3.50391 -10.001s-4.16699 -3 -9.5 -3h-94c-3.33301 0 -6.16602 1 -8.49902 3s-3.5 4.66699 -3.5 8c0 2.66699 0.333008 4.66699 1 6l139 288c2.66699 4 5.33398 6 8.00098 6s5.33398 -0.666992 8.00098 -2l29 -11
c1.33301 -1.33301 2.83301 -2.66602 4.5 -3.99902s1.83398 -4 0.500977 -8zM407.996 434.999c-1.33301 -4.66699 -2.50293 -8 -3.50293 -10s-4.16699 -3 -9.5 -3h-94c-3.33301 0 -6.16602 1 -8.49902 3s-3.5 4.66699 -3.5 8c0 2.66699 0.333008 4.66699 1 6l139 288
c2.66699 4 5.33398 6 8.00098 6s5.33398 -0.666992 8.00098 -2l29 -11l4 -4c1.33301 -1.33301 1.33301 -4 0 -8z" />
    <glyph glyph-name="quotedblright" unicode="&#x201d;" horiz-adv-x="561" 
d="M481 701c0 -2.66699 -0.332031 -4.66699 -0.999023 -6l-139 -288c-3.33301 -4 -6 -6 -8 -6c-2.66699 0 -5.33398 0.666992 -8.00098 2l-29 12c-1.33301 0.666992 -2.66602 1.66699 -3.99902 3s-1.33301 4 0 8l70 273c1.33301 4.66699 2.5 8 3.5 10s4.16699 3 9.5 3h94
c3.33301 0 6.16602 -1 8.49902 -3s3.5 -4.66699 3.5 -8zM272.001 701c0 -2.66699 -0.330078 -4.66699 -0.99707 -6l-139 -288c-3.33301 -4 -6 -6 -8 -6c-2.66699 0 -5.33398 0.666992 -8.00098 2l-29 12c-1.33301 0.666992 -2.83301 1.66699 -4.5 3s-1.83398 4 -0.500977 8
l71 273c1.33301 4.66699 2.5 8 3.5 10s4.16699 3 9.5 3h94c3.33301 0 6.16602 -1 8.49902 -3s3.5 -4.66699 3.5 -8z" />
    <glyph glyph-name="quotedblbase" unicode="&#x201e;" horiz-adv-x="561" 
d="M481 130c0 -2 -0.332031 -3.99902 -0.999023 -5.99902l-139 -288c-4 -4 -6.66699 -6 -8 -6c-0.666992 0 -1.83398 0.166992 -3.50098 0.5s-3.16699 1.16602 -4.5 2.49902l-29 11c-1.33301 0.666992 -2.66602 1.66699 -3.99902 3s-1.33301 4 0 8l70 273
c1.33301 5.33301 2.5 8.83301 3.5 10.5s4.16699 2.5 9.5 2.5h94c3.33301 0 6.16602 -0.833008 8.49902 -2.5s3.5 -4.5 3.5 -8.5zM273.001 130.001c0 -2 -0.331055 -3.99902 -0.998047 -5.99902l-139 -288c-4 -4 -6.66699 -6 -8 -6
c-0.666992 0 -1.83398 0.166992 -3.50098 0.5s-3.16699 1.16602 -4.5 2.49902l-28 11c-2 0.666992 -3.66699 1.66699 -5 3s-1.33301 4 0 8l70 273c1.33301 5.33301 2.5 8.83301 3.5 10.5s4.16699 2.5 9.5 2.5h94c3.33301 0 6.16602 -0.833008 8.49902 -2.5
s3.5 -4.5 3.5 -8.5z" />
    <glyph glyph-name="dagger" unicode="&#x2020;" horiz-adv-x="595" 
d="M515 496c0 -17.333 -11 -26 -33 -26h-159v-514c0 -22 -8.33301 -33 -25 -33c-17.333 0 -26 11 -26 33v514h-159c-22 0 -33 8.66699 -33 26s11 26 33 26h159v198c0 22.667 8.66699 34 26 34c16.667 0 25 -11.333 25 -34v-198h159c22 0 33 -8.66699 33 -26z" />
    <glyph glyph-name="daggerdbl" unicode="&#x2021;" horiz-adv-x="595" 
d="M515 181c0 -8 -2.50098 -14.333 -7.50098 -19s-13.833 -7 -26.5 -7h-158v-199c0 -22 -8.33301 -33 -25 -33c-17.333 0 -26 11 -26 33v199h-156c-13.333 0 -22.666 2.33301 -27.999 7s-8 11 -8 19c0 17.333 11.333 26 34 26h158v263h-159c-22 0 -33 8.66699 -33 26
s11 26 33 26h159v198c0 22.667 8.66699 34 26 34c16.667 0 25 -11.333 25 -34v-198h159c22 0 33 -8.66699 33 -26s-11 -26 -33 -26h-159v-263h158c12.667 0 21.5 -2.16699 26.5 -6.5s7.5 -10.833 7.5 -19.5z" />
    <glyph glyph-name="bullet" unicode="&#x2022;" horiz-adv-x="541" 
d="M427 383c0 -22 -4 -42.499 -12 -61.499s-19 -35.667 -33 -50s-30.5 -25.5 -49.5 -33.5s-39.5 -12 -61.5 -12s-42.5 4 -61.5 12s-35.667 19.167 -50 33.5s-25.5 31 -33.5 50s-12 39.5 -12 61.5c0 20.667 4 40.5 12 59.5s19.167 35.667 33.5 50s31 25.666 50 33.999
s39.5 12.5 61.5 12.5s42.5 -4 61.5 -12s35.5 -19 49.5 -33s25 -30.5 33 -49.5s12 -39.5 12 -61.5z" />
    <glyph glyph-name="ellipsis" unicode="&#x2026;" horiz-adv-x="792" 
d="M700 57c0 -21.333 -7.16895 -39.166 -21.502 -53.499s-32.166 -21.5 -53.499 -21.5s-39.166 7.16699 -53.499 21.5s-21.5 31.5 -21.5 51.5c0 21.333 7.16699 39.5 21.5 54.5s31.833 22.5 52.5 22.5c21.333 0 39.333 -7.33301 54 -22s22 -32.334 22 -53.001zM470.998 57
c0 -21.333 -7.16504 -39.166 -21.498 -53.499s-31.833 -21.5 -52.5 -21.5c-21.333 0 -39.333 7.16699 -54 21.5s-22 31.5 -22 51.5c0 21.333 7.16699 39.5 21.5 54.5s32.166 22.5 53.499 22.5s39.166 -7.33301 53.499 -22s21.5 -32.334 21.5 -53.001zM242 57
c0 -21.333 -7.16895 -39.168 -21.502 -53.501s-32.166 -21.5 -53.499 -21.5s-39.166 7.16699 -53.499 21.5s-21.5 31.5 -21.5 51.5c0 21.333 7.16699 39.5 21.5 54.5s31.833 22.5 52.5 22.5c22 0 40.167 -7.16699 54.5 -21.5s21.5 -32.166 21.5 -53.499z" />
    <glyph glyph-name="perthousand" unicode="&#x2030;" horiz-adv-x="1033" 
d="M941 135c0 -20.667 -4 -40.167 -12 -58.5s-19 -34.333 -33 -48s-30.333 -24.5 -49 -32.5s-38.334 -12 -59.001 -12s-40.167 4 -58.5 12s-34.333 18.833 -48 32.5s-24.5 29.667 -32.5 48s-12 37.833 -12 58.5s4 40.334 12 59.001s18.833 35 32.5 49s29.667 25 48 33
s37.833 12 58.5 12s40.334 -4 59.001 -12s35 -19 49 -33s25 -30.333 33 -49s12 -38.334 12 -59.001zM396 605c0 -20.667 -4 -40.167 -12 -58.5s-18.833 -34.333 -32.5 -48s-29.834 -24.5 -48.501 -32.5s-38.334 -12 -59.001 -12c-21.333 0 -41.166 4 -59.499 12
s-34.333 18.833 -48 32.5s-24.5 29.667 -32.5 48s-12 37.833 -12 58.5c0 21.333 4 41.333 12 60s18.833 34.834 32.5 48.501s29.667 24.5 48 32.5s38.166 12 59.499 12c20.667 0 40.334 -4 59.001 -12s34.834 -18.833 48.501 -32.5s24.5 -29.834 32.5 -48.501
s12 -38.667 12 -60zM566 471c0 -3.33301 -1.16895 -6.83398 -3.50195 -10.501s-6.16602 -6.16699 -11.499 -7.5l-429 -174c-5.33301 -1.33301 -9 -2 -11 -2c-5.33301 0 -9.66602 1.66699 -12.999 5s-5 7.33301 -5 12c0 6.66699 5.33301 12.334 16 17.001l429 174
c4 2 8 3 12 3s7.66699 -1.66699 11 -5s5 -7.33301 5 -12zM541.998 134.999c0 -20.667 -4 -40.167 -12 -58.5s-18.667 -34.333 -32 -48s-29.333 -24.5 -48 -32.5s-38.334 -12 -59.001 -12s-40.167 4 -58.5 12s-34.5 18.833 -48.5 32.5s-25 29.667 -33 48s-12 37.833 -12 58.5
s4 40.334 12 59.001s19 35 33 49s30.167 25 48.5 33s37.833 12 58.5 12s40.334 -4 59.001 -12s34.667 -19 48 -33s24 -30.333 32 -49s12 -38.334 12 -59.001zM903.998 134.999c0 16 -3 31 -9 45s-14.333 26.333 -25 37s-23 19 -37 25s-29 9 -45 9s-31 -3 -45 -9
s-26 -14.333 -36 -25s-18 -23 -24 -37s-9 -29 -9 -45c0 -15.333 3 -30 9 -44s14 -26.167 24 -36.5s22 -18.5 36 -24.5s29 -9 45 -9s31 3 45 9s26.333 14.167 37 24.5s19 22.5 25 36.5s9 28.667 9 44zM357.998 604.999c0 16 -3 31 -9 45s-14.167 26.333 -24.5 37
s-22.5 19 -36.5 25s-28.667 9 -44 9c-16 0 -31 -3 -45 -9s-26.333 -14.333 -37 -25s-19 -23 -25 -37s-9 -29 -9 -45s3 -30.833 9 -44.5s14.333 -25.667 25 -36s23 -18.5 37 -24.5s29 -9 45 -9c15.333 0 30 3 44 9s26.167 14.167 36.5 24.5s18.5 22.333 24.5 36
s9 28.5 9 44.5zM505.998 134.999c0 16 -3 31 -9 45s-14.333 26.333 -25 37s-22.834 19 -36.501 25s-28.5 9 -44.5 9s-31 -3 -45 -9s-26.167 -14.333 -36.5 -25s-18.5 -23 -24.5 -37s-9 -29 -9 -45c0 -15.333 3 -30 9 -44s14.167 -26.167 24.5 -36.5s22.5 -18.5 36.5 -24.5
s29 -9 45 -9s30.833 3 44.5 9s25.834 14.167 36.501 24.5s19 22.5 25 36.5s9 28.667 9 44z" />
    <glyph glyph-name="guilsinglleft" unicode="&#x2039;" horiz-adv-x="347" 
d="M242 82c0 -6.66699 -2.83203 -12.5 -8.49902 -17.5s-12.167 -7.5 -19.5 -7.5c-9.33301 0 -18 6.66699 -26 20l-96 180l-4.5 11c-1.66699 4 -2.5 7.66699 -2.5 11c0 7.33301 2.33301 14.666 7 21.999l95 176c6.66699 14.667 15.667 22 27 22
c7.33301 0 13.666 -2.5 18.999 -7.5s8 -10.5 8 -16.5c0 -7.33301 -2.33301 -14.666 -7 -21.999l-93 -174l95 -176c4 -6.66699 6 -13.667 6 -21z" />
    <glyph glyph-name="guilsinglright" unicode="&#x203a;" horiz-adv-x="347" 
d="M262 279c0 -3.33301 -0.832031 -7 -2.49902 -11l-4.5 -11l-96 -180c-8 -13.333 -16.667 -20 -26 -20c-7.33301 0 -13.833 2.5 -19.5 7.5s-8.5 10.833 -8.5 17.5c0 7.33301 2 14.333 6 21l94 176l-92 174c-4.66699 7.33301 -7 14.666 -7 21.999c0 6 2.66699 11.5 8 16.5
s11.666 7.5 18.999 7.5c11.333 0 20.333 -7.33301 27 -22l95 -176c4.66699 -7.33301 7 -14.666 7 -21.999z" />
    <glyph glyph-name="fraction" unicode="&#x2044;" horiz-adv-x="775" 
d="M688 504c0 -9.33301 -7.00098 -18.001 -21.001 -26.001l-540 -274c-8 -4 -14.667 -6 -20 -6c-7.33301 0 -13.333 2.83301 -18 8.5s-7 11.5 -7 17.5c0 9.33301 7 18 21 26l540 274c4.66699 2.66699 8.5 4.33398 11.5 5.00098s6.16699 1 9.5 1
c6.66699 0 12.334 -2.66699 17.001 -8s7 -11.333 7 -18z" />
    <glyph glyph-name="Euro" unicode="&#x20ac;" horiz-adv-x="868" 
d="M801 135c0 -12.667 -15.9971 -33.998 -47.9971 -63.998c-30.667 -28.667 -64.334 -50.5 -101.001 -65.5s-74.334 -22.5 -113.001 -22.5c-46.667 0 -89 7 -127 21s-71.167 33.333 -99.5 58s-52 54.167 -71 88.5s-32.833 71.5 -41.5 111.5h-71c-12 0 -20.667 2.5 -26 7.5
s-8 11.5 -8 19.5s2.66699 14.5 8 19.5s14 7.5 26 7.5h64c-0.666992 7.33301 -1 14 -1 20v21c0 9.33301 0.166992 18.166 0.5 26.499s0.833008 17.166 1.5 26.499h-64c-12 0 -20.667 2.5 -26 7.5s-8 11.5 -8 19.5s2.66699 14.5 8 19.5s14 7.5 26 7.5h72
c7.33301 38.667 19.333 74.5 36 107.5s38 61.5 64 85.5s56.667 42.833 92 56.5s75 20.5 119 20.5c38.667 0 76.5 -7.33301 113.5 -22s70.5 -36.667 100.5 -66c32 -30 48 -51.333 48 -64c0 -7.33301 -2.5 -13.5 -7.5 -18.5s-11.167 -7.5 -18.5 -7.5c-8.66699 0 -17 4 -25 12
c-30 35.333 -61 63.5 -93 84.5s-69.333 31.5 -112 31.5c-36.667 0 -69.667 -5.5 -99 -16.5s-55 -26.167 -77 -45.5s-40.333 -42.5 -55 -69.5s-25.667 -56.5 -33 -88.5h332c12 0 20.667 -2.5 26 -7.5s8 -11.5 8 -19.5s-2.66699 -14.5 -8 -19.5s-14 -7.5 -26 -7.5h-342l-2 -27
c-0.666992 -8.66699 -1 -17.334 -1 -26.001v-21c0 -6 0.666992 -12.667 2 -20h291c12.667 0 21.5 -2.5 26.5 -7.5s7.5 -11.5 7.5 -19.5s-2.5 -14.5 -7.5 -19.5s-13.833 -7.5 -26.5 -7.5h-282c8 -33.333 20.167 -64 36.5 -92s36.833 -52.167 61.5 -72.5
s52.834 -36.166 84.501 -47.499s67.167 -17 106.5 -17c44 0 82.167 10.5 114.5 31.5s63.166 49.167 92.499 84.5c6.66699 8 15 12 25 12c7.33301 0 13.666 -2.5 18.999 -7.5s8 -11.167 8 -18.5z" />
    <glyph glyph-name="trademark" unicode="&#x2122;" horiz-adv-x="745" 
d="M642 437c0 -14.667 -5.6709 -22 -17.0039 -22c-6 -1.33301 -10.833 0 -14.5 4s-5.5 9.33301 -5.5 16l-7 257l-60 -156c-4.66699 -11.333 -14 -17 -28 -17c-7.33301 0 -12.666 1.33301 -15.999 4s-6.33301 7 -9 13l-62 156l-7 -258c0 -14.667 -6.33301 -21.667 -19 -21
c-11.333 0 -17 7.33301 -17 22l9 296c0 10.667 3.33301 17.5 10 20.5s12.334 4.5 17.001 4.5c14 0 23.333 -5.33301 28 -16l66 -173l67 173c4.66699 10.667 14.334 16 29.001 16c5.33301 0 10.833 -1.5 16.5 -4.5s8.83398 -9.83301 9.50098 -20.5zM357.996 739
c0 -12 -7.33301 -18 -22 -18h-102v-286c0 -13.333 -6.33301 -20 -19 -20c-11.333 0 -17 6.66699 -17 20v286h-102c-14.667 0 -22 6 -22 18c0 11.333 7.33301 17 22 17h240c14.667 0 22 -5.66699 22 -17z" />
    </font>
</defs>
</svg>
