<?xml version="1.0" standalone="no"?>
<!DOCTYPE svg PUBLIC "-//W3C//DTD SVG 1.1//EN" "http://www.w3.org/Graphics/SVG/1.1/DTD/svg11.dtd" >
<svg xmlns="http://www.w3.org/2000/svg">
<metadata>
This is a custom SVG webfont generated by Font Squirrel.
Copyright   : Copyright c Underware 2003 All rights reserved
Designer    : wwwunderwarenl
Foundry     : Underware
Foundry URL : wwwunderwarenl
</metadata>
<defs>
<font id="webfontl8CACG9s" horiz-adv-x="1536" >
<font-face units-per-em="2048" ascent="1638" descent="-410" />
<missing-glyph horiz-adv-x="768" />
<glyph unicode=" "  horiz-adv-x="768" />
<glyph unicode="&#x09;" horiz-adv-x="768" />
<glyph unicode="&#xa0;" horiz-adv-x="768" />
<glyph unicode="!" horiz-adv-x="1280" d="M1014 2038v-236h-236v236h236zM758 1782v-236h-236v236h236zM758 1526v-236h-236v236h236zM758 1270v-236h-236v236h236zM758 1014v-236h-236v236h236zM758 502v-236h-236v236h236zM758 246v-236h-236v236h236zM758 2038v-236h-236v236h236z" />
<glyph unicode="&#x22;" d="M1270 2038v-236h-236v236h236zM1270 1782v-236h-236v236h236zM1270 1526v-236h-236v236h236zM502 2038v-236h-236v236h236zM502 1782v-236h-236v236h236zM502 1526v-236h-236v236h236z" />
<glyph unicode="#" d="M1014 1782v-236h-236v236h236zM1014 1526v-236h-236v236h236zM1270 1526v-236h-236v236h236zM1014 1270v-236h-236v236h236zM1270 758v-236h-236v236h236zM502 1782v-236h-236v236h236zM1014 1014v-236h-236v236h236zM502 1526v-236h-236v236h236zM758 1526v-236h-236 v236h236zM1014 758v-236h-236v236h236zM502 1270v-236h-236v236h236zM1014 502v-236h-236v236h236zM246 1526v-236h-236v236h236zM502 1014v-236h-236v236h236zM758 758v-236h-236v236h236zM502 758v-236h-236v236h236zM246 758v-236h-236v236h236zM502 502v-236h-236v236 h236z" />
<glyph unicode="$" d="M1014 2294v-236h-236v236h236zM1014 2038v-236h-236v236h236zM1270 1782v-236h-236v236h236zM1014 1782v-236h-236v236h236zM758 1782v-236h-236v236h236zM1270 758v-236h-236v236h236zM1014 1014v-236h-236v236h236zM502 1270v-236h-236v236h236zM758 1014v-236h-236 v236h236zM1014 246v-236h-236v236h236zM758 246v-236h-236v236h236zM758 -10v-236h-236v236h236zM502 246v-236h-236v236h236zM758 -266v-236h-236v236h236zM502 1526v-236h-236v236h236zM1270 502v-236h-236v236h236z" />
<glyph unicode="%" d="M1270 1782v-236h-236v236h236zM1270 1526v-236h-236v236h236zM758 1782v-236h-236v236h236zM1014 1270v-236h-236v236h236zM502 1782v-236h-236v236h236zM502 1526v-236h-236v236h236zM1014 1014v-236h-236v236h236zM1270 502v-236h-236v236h236zM1270 246v-236h-236v236 h236zM758 758v-236h-236v236h236zM1014 246v-236h-236v236h236zM502 502v-236h-236v236h236zM502 246v-236h-236v236h236z" />
<glyph unicode="&#x26;" horiz-adv-x="1792" d="M1270 1782v-236h-236v236h236zM1014 1782v-236h-236v236h236zM1782 1014v-236h-236v236h236zM758 1782v-236h-236v236h236zM1526 1014v-236h-236v236h236zM1270 1014v-236h-236v236h236zM502 1526v-236h-236v236h236zM1270 758v-236h-236v236h236zM502 1270v-236h-236 v236h236zM758 1014v-236h-236v236h236zM1270 502v-236h-236v236h236zM502 758v-236h-236v236h236zM1014 246v-236h-236v236h236zM502 502v-236h-236v236h236zM758 246v-236h-236v236h236zM502 246v-236h-236v236h236z" />
<glyph unicode="'" horiz-adv-x="768" d="M502 2038v-236h-236v236h236zM502 1782v-236h-236v236h236zM502 1526v-236h-236v236h236z" />
<glyph unicode="(" d="M1014 2038v-236h-236v236h236zM758 1782v-236h-236v236h236zM502 1526v-236h-236v236h236zM502 1270v-236h-236v236h236zM502 1014v-236h-236v236h236zM502 758v-236h-236v236h236zM502 502v-236h-236v236h236zM502 246v-236h-236v236h236zM502 -10v-236h-236v236h236z M758 -266v-236h-236v236h236zM1270 2038v-236h-236v236h236z" />
<glyph unicode=")" d="M1014 2038v-236h-236v236h236zM1270 1782v-236h-236v236h236zM1270 1526v-236h-236v236h236zM1270 1270v-236h-236v236h236zM1270 1014v-236h-236v236h236zM1270 758v-236h-236v236h236zM1270 502v-236h-236v236h236zM1270 246v-236h-236v236h236zM1014 -10v-236h-236 v236h236zM758 -266v-236h-236v236h236zM502 -266v-236h-236v236h236z" />
<glyph unicode="*" horiz-adv-x="2304" d="M2038 1526v-236h-236v236h236zM1270 2038v-236h-236v236h236zM1782 1526v-236h-236v236h236zM1270 1782v-236h-236v236h236zM1526 1526v-236h-236v236h236zM1270 1526v-236h-236v236h236zM1526 1270v-236h-236v236h236zM1014 1526v-236h-236v236h236zM1270 1270v-236 h-236v236h236zM1526 1014v-236h-236v236h236zM1782 758v-236h-236v236h236zM758 1526v-236h-236v236h236zM1014 1270v-236h-236v236h236zM502 1526v-236h-236v236h236zM1014 1014v-236h-236v236h236zM758 758v-236h-236v236h236z" />
<glyph unicode="+" d="M1014 1526v-236h-236v236h236zM1526 1014v-236h-236v236h236zM1014 1270v-236h-236v236h236zM1270 1014v-236h-236v236h236zM1014 1014v-236h-236v236h236zM758 1014v-236h-236v236h236zM1014 758v-236h-236v236h236zM1014 502v-236h-236v236h236zM502 1014v-236h-236 v236h236z" />
<glyph unicode="," horiz-adv-x="1024" d="M758 502v-236h-236v236h236zM758 246v-236h-236v236h236zM758 -10v-236h-236v236h236zM502 -266v-236h-236v236h236z" />
<glyph unicode="-" d="M1270 758v-236h-236v236h236zM1014 758v-236h-236v236h236zM758 758v-236h-236v236h236zM502 758v-236h-236v236h236z" />
<glyph unicode="." horiz-adv-x="1024" d="M758 502v-236h-236v236h236zM758 246v-236h-236v236h236z" />
<glyph unicode="/" d="M1270 1782v-236h-236v236h236zM1270 1526v-236h-236v236h236zM1270 1270v-236h-236v236h236zM1014 1014v-236h-236v236h236zM758 758v-236h-236v236h236zM502 502v-236h-236v236h236zM502 246v-236h-236v236h236z" />
<glyph unicode="0" d="M1014 1782v-236h-236v236h236zM1270 1526v-236h-236v236h236zM758 1782v-236h-236v236h236zM1270 1270v-236h-236v236h236zM1270 1014v-236h-236v236h236zM502 1526v-236h-236v236h236zM1270 758v-236h-236v236h236zM502 1270v-236h-236v236h236zM1270 502v-236h-236v236 h236zM502 1014v-236h-236v236h236zM502 758v-236h-236v236h236zM1014 246v-236h-236v236h236zM502 502v-236h-236v236h236zM758 246v-236h-236v236h236zM1270 1782v-236h-236v236h236zM502 246v-236h-236v236h236z" />
<glyph unicode="1" horiz-adv-x="1280" d="M1014 1782v-236h-236v236h236zM1014 1526v-236h-236v236h236zM758 1526v-236h-236v236h236zM1014 1270v-236h-236v236h236zM1014 1014v-236h-236v236h236zM502 1270v-236h-236v236h236zM1014 758v-236h-236v236h236zM1014 502v-236h-236v236h236zM1014 246v-236h-236v236 h236z" />
<glyph unicode="2" d="M1014 1782v-236h-236v236h236zM1270 1526v-236h-236v236h236zM758 1782v-236h-236v236h236zM1270 1270v-236h-236v236h236zM1014 1014v-236h-236v236h236zM758 758v-236h-236v236h236zM1014 246v-236h-236v236h236zM502 502v-236h-236v236h236zM758 246v-236h-236v236 h236zM502 246v-236h-236v236h236zM1270 502v-236h-236v236h236zM1270 246v-236h-236v236h236zM1270 1782v-236h-236v236h236z" />
<glyph unicode="3" d="M1270 1782v-236h-236v236h236zM1014 1782v-236h-236v236h236zM1270 1526v-236h-236v236h236zM758 1782v-236h-236v236h236zM1270 1270v-236h-236v236h236zM1014 1014v-236h-236v236h236zM758 1014v-236h-236v236h236zM1270 502v-236h-236v236h236zM1014 246v-236h-236 v236h236zM758 246v-236h-236v236h236zM502 246v-236h-236v236h236zM1270 758v-236h-236v236h236zM502 502v-236h-236v236h236z" />
<glyph unicode="4" d="M1270 1782v-236h-236v236h236zM1014 1782v-236h-236v236h236zM1270 1526v-236h-236v236h236zM1270 1270v-236h-236v236h236zM758 1526v-236h-236v236h236zM1270 1014v-236h-236v236h236zM1270 758v-236h-236v236h236zM502 1270v-236h-236v236h236zM1014 758v-236h-236 v236h236zM1270 502v-236h-236v236h236zM502 1014v-236h-236v236h236zM758 758v-236h-236v236h236zM1270 246v-236h-236v236h236zM502 758v-236h-236v236h236z" />
<glyph unicode="5" d="M1270 1782v-236h-236v236h236zM1014 1782v-236h-236v236h236zM758 1782v-236h-236v236h236zM758 1526v-236h-236v236h236zM1270 758v-236h-236v236h236zM758 1270v-236h-236v236h236zM1270 502v-236h-236v236h236zM1014 246v-236h-236v236h236zM758 246v-236h-236v236 h236zM502 246v-236h-236v236h236zM1014 1014v-236h-236v236h236zM758 1014v-236h-236v236h236z" />
<glyph unicode="6" d="M1270 1782v-236h-236v236h236zM1014 1782v-236h-236v236h236zM758 1526v-236h-236v236h236zM1270 758v-236h-236v236h236zM502 1270v-236h-236v236h236zM758 1014v-236h-236v236h236zM1270 502v-236h-236v236h236zM502 1014v-236h-236v236h236zM502 758v-236h-236v236 h236zM1014 246v-236h-236v236h236zM502 502v-236h-236v236h236zM758 246v-236h-236v236h236zM1014 1014v-236h-236v236h236zM502 246v-236h-236v236h236zM1270 1014v-236h-236v236h236z" />
<glyph unicode="7" d="M1270 1782v-236h-236v236h236zM1014 1782v-236h-236v236h236zM1270 1526v-236h-236v236h236zM758 1782v-236h-236v236h236zM1270 1270v-236h-236v236h236zM502 1782v-236h-236v236h236zM1014 1014v-236h-236v236h236zM758 758v-236h-236v236h236zM758 502v-236h-236v236 h236zM758 246v-236h-236v236h236z" />
<glyph unicode="8" d="M1014 1782v-236h-236v236h236zM1270 1526v-236h-236v236h236zM758 1782v-236h-236v236h236zM1270 1270v-236h-236v236h236zM502 1526v-236h-236v236h236zM1014 1014v-236h-236v236h236zM1270 758v-236h-236v236h236zM502 1270v-236h-236v236h236zM758 1014v-236h-236v236 h236zM1270 502v-236h-236v236h236zM502 758v-236h-236v236h236zM1014 246v-236h-236v236h236zM502 502v-236h-236v236h236zM758 246v-236h-236v236h236zM502 246v-236h-236v236h236zM1270 1782v-236h-236v236h236z" />
<glyph unicode="9" d="M1014 1782v-236h-236v236h236zM1270 1526v-236h-236v236h236zM758 1782v-236h-236v236h236zM1270 1270v-236h-236v236h236zM1270 1014v-236h-236v236h236zM502 1526v-236h-236v236h236zM1270 758v-236h-236v236h236zM502 1270v-236h-236v236h236zM1014 502v-236h-236v236 h236zM758 246v-236h-236v236h236zM502 246v-236h-236v236h236zM758 1014v-236h-236v236h236zM1270 1782v-236h-236v236h236zM1014 1014v-236h-236v236h236zM502 1014v-236h-236v236h236z" />
<glyph unicode=":" horiz-adv-x="1024" d="M758 1270v-236h-236v236h236zM758 1014v-236h-236v236h236zM758 502v-236h-236v236h236zM758 246v-236h-236v236h236z" />
<glyph unicode=";" horiz-adv-x="1024" d="M758 1270v-236h-236v236h236zM758 1014v-236h-236v236h236zM758 502v-236h-236v236h236zM758 246v-236h-236v236h236zM758 -10v-236h-236v236h236zM502 -266v-236h-236v236h236z" />
<glyph unicode="&#x3c;" d="M1270 1782v-236h-236v236h236zM1014 1526v-236h-236v236h236zM758 1270v-236h-236v236h236zM502 1014v-236h-236v236h236zM502 758v-236h-236v236h236zM758 502v-236h-236v236h236zM1014 246v-236h-236v236h236z" />
<glyph unicode="=" d="M1270 1270v-236h-236v236h236zM1014 1270v-236h-236v236h236zM758 1270v-236h-236v236h236zM1270 758v-236h-236v236h236zM502 1270v-236h-236v236h236zM1014 758v-236h-236v236h236zM758 758v-236h-236v236h236zM502 758v-236h-236v236h236z" />
<glyph unicode="&#x3e;" d="M758 1782v-236h-236v236h236zM1014 1526v-236h-236v236h236zM1270 1270v-236h-236v236h236zM1270 1014v-236h-236v236h236zM1014 758v-236h-236v236h236zM758 502v-236h-236v236h236zM502 246v-236h-236v236h236z" />
<glyph unicode="?" d="M1270 2038v-236h-236v236h236zM1270 1782v-236h-236v236h236zM1014 2038v-236h-236v236h236zM1270 1526v-236h-236v236h236zM758 2038v-236h-236v236h236zM758 502v-236h-236v236h236zM758 246v-236h-236v236h236zM1014 1270v-236h-236v236h236zM758 1014v-236h-236v236 h236z" />
<glyph unicode="@" horiz-adv-x="2048" d="M758 -10v-236h-236v236h236zM502 502v-236h-236v236h236zM502 758v-236h-236v236h236zM502 1014v-236h-236v236h236zM502 1270v-236h-236v236h236zM1014 502v-236h-236v236h236zM1270 502v-236h-236v236h236zM1014 758v-236h-236v236h236zM1270 758v-236h-236v236h236z M758 1526v-236h-236v236h236zM1270 1014v-236h-236v236h236zM1526 1014v-236h-236v236h236zM1782 1014v-236h-236v236h236zM1782 1270v-236h-236v236h236zM502 246v-236h-236v236h236zM502 -10v-236h-236v236h236zM1014 1270v-236h-236v236h236zM1270 1526v-236h-236v236 h236zM1014 1526v-236h-236v236h236zM1782 1526v-236h-236v236h236zM1526 1526v-236h-236v236h236zM1270 -10v-236h-236v236h236zM1014 -10v-236h-236v236h236zM1526 -10v-236h-236v236h236zM1526 502v-236h-236v236h236zM1526 758v-236h-236v236h236zM1014 1014v-236h-236 v236h236zM1270 1270v-236h-236v236h236zM1526 1270v-236h-236v236h236zM1782 758v-236h-236v236h236z" />
<glyph unicode="A" d="M1014 1782v-236h-236v236h236zM1270 1526v-236h-236v236h236zM758 1782v-236h-236v236h236zM1270 1270v-236h-236v236h236zM1270 1014v-236h-236v236h236zM502 1526v-236h-236v236h236zM1270 758v-236h-236v236h236zM502 1270v-236h-236v236h236zM1014 758v-236h-236v236 h236zM1270 502v-236h-236v236h236zM502 1014v-236h-236v236h236zM758 758v-236h-236v236h236zM1270 246v-236h-236v236h236zM502 758v-236h-236v236h236zM502 502v-236h-236v236h236zM502 246v-236h-236v236h236zM1270 1782v-236h-236v236h236z" />
<glyph unicode="B" d="M1014 1782v-236h-236v236h236zM1270 1782v-236h-236v236h236zM758 1782v-236h-236v236h236zM1270 1526v-236h-236v236h236zM502 1782v-236h-236v236h236zM502 1526v-236h-236v236h236zM1014 1014v-236h-236v236h236zM1270 758v-236h-236v236h236zM502 1270v-236h-236v236 h236zM758 1014v-236h-236v236h236zM1270 502v-236h-236v236h236zM502 1014v-236h-236v236h236zM502 758v-236h-236v236h236zM1014 246v-236h-236v236h236zM502 502v-236h-236v236h236zM758 246v-236h-236v236h236zM502 246v-236h-236v236h236zM1270 1270v-236h-236v236h236z " />
<glyph unicode="C" d="M1270 1782v-236h-236v236h236zM1014 1782v-236h-236v236h236zM758 1782v-236h-236v236h236zM502 1526v-236h-236v236h236zM502 1270v-236h-236v236h236zM502 1014v-236h-236v236h236zM1270 502v-236h-236v236h236zM502 758v-236h-236v236h236zM1014 246v-236h-236v236 h236zM502 502v-236h-236v236h236zM758 246v-236h-236v236h236zM502 246v-236h-236v236h236z" />
<glyph unicode="D" d="M758 1782v-236h-236v236h236zM1270 1526v-236h-236v236h236zM1270 1270v-236h-236v236h236zM502 1782v-236h-236v236h236zM1270 1014v-236h-236v236h236zM502 1526v-236h-236v236h236zM1270 758v-236h-236v236h236zM502 1270v-236h-236v236h236zM502 1014v-236h-236v236 h236zM1014 502v-236h-236v236h236zM502 758v-236h-236v236h236zM502 502v-236h-236v236h236zM758 246v-236h-236v236h236zM502 246v-236h-236v236h236zM1014 1782v-236h-236v236h236z" />
<glyph unicode="E" d="M1270 1782v-236h-236v236h236zM1014 1782v-236h-236v236h236zM758 1782v-236h-236v236h236zM1270 502v-236h-236v236h236zM502 1526v-236h-236v236h236zM1014 1014v-236h-236v236h236zM502 1270v-236h-236v236h236zM758 1014v-236h-236v236h236zM502 1014v-236h-236v236 h236zM502 758v-236h-236v236h236zM1014 246v-236h-236v236h236zM502 502v-236h-236v236h236zM758 246v-236h-236v236h236zM502 246v-236h-236v236h236z" />
<glyph unicode="F" horiz-adv-x="1280" d="M1270 1782v-236h-236v236h236zM1014 1782v-236h-236v236h236zM758 1782v-236h-236v236h236zM1270 1526v-236h-236v236h236zM502 1526v-236h-236v236h236zM1014 758v-236h-236v236h236zM502 1270v-236h-236v236h236zM758 758v-236h-236v236h236zM502 1014v-236h-236v236 h236zM502 758v-236h-236v236h236zM502 502v-236h-236v236h236zM502 246v-236h-236v236h236z" />
<glyph unicode="G" d="M1270 1782v-236h-236v236h236zM1014 1782v-236h-236v236h236zM758 1782v-236h-236v236h236zM502 1526v-236h-236v236h236zM1270 758v-236h-236v236h236zM502 1270v-236h-236v236h236zM1014 758v-236h-236v236h236zM1270 502v-236h-236v236h236zM502 1014v-236h-236v236 h236zM502 758v-236h-236v236h236zM1014 246v-236h-236v236h236zM502 502v-236h-236v236h236zM758 246v-236h-236v236h236zM1270 1526v-236h-236v236h236zM502 246v-236h-236v236h236z" />
<glyph unicode="H" d="M1270 1782v-236h-236v236h236zM1270 1526v-236h-236v236h236zM1270 1270v-236h-236v236h236zM502 1782v-236h-236v236h236zM1270 1014v-236h-236v236h236zM502 1526v-236h-236v236h236zM1014 1014v-236h-236v236h236zM1270 758v-236h-236v236h236zM502 1270v-236h-236 v236h236zM758 1014v-236h-236v236h236zM1270 502v-236h-236v236h236zM502 1014v-236h-236v236h236zM1270 246v-236h-236v236h236zM502 758v-236h-236v236h236zM502 502v-236h-236v236h236zM502 246v-236h-236v236h236z" />
<glyph unicode="I" horiz-adv-x="1280" d="M1014 1782v-236h-236v236h236zM758 1782v-236h-236v236h236zM502 1782v-236h-236v236h236zM758 1526v-236h-236v236h236zM758 1270v-236h-236v236h236zM758 1014v-236h-236v236h236zM758 758v-236h-236v236h236zM758 502v-236h-236v236h236zM1014 246v-236h-236v236h236z M758 246v-236h-236v236h236zM502 246v-236h-236v236h236z" />
<glyph unicode="J" d="M1270 1782v-236h-236v236h236zM1014 1782v-236h-236v236h236zM1270 1526v-236h-236v236h236zM758 1782v-236h-236v236h236zM1270 1270v-236h-236v236h236zM1270 1014v-236h-236v236h236zM1270 758v-236h-236v236h236zM1270 502v-236h-236v236h236zM502 502v-236h-236v236 h236zM1014 246v-236h-236v236h236zM502 246v-236h-236v236h236zM758 246v-236h-236v236h236z" />
<glyph unicode="K" d="M1270 1782v-236h-236v236h236zM1270 1526v-236h-236v236h236zM502 1782v-236h-236v236h236zM1014 1270v-236h-236v236h236zM502 1526v-236h-236v236h236zM502 1270v-236h-236v236h236zM758 1014v-236h-236v236h236zM1014 758v-236h-236v236h236zM1270 502v-236h-236v236 h236zM502 1014v-236h-236v236h236zM1270 246v-236h-236v236h236zM502 758v-236h-236v236h236zM502 502v-236h-236v236h236zM502 246v-236h-236v236h236z" />
<glyph unicode="L" horiz-adv-x="1280" d="M502 1782v-236h-236v236h236zM502 1526v-236h-236v236h236zM502 1270v-236h-236v236h236zM502 1014v-236h-236v236h236zM502 758v-236h-236v236h236zM1014 246v-236h-236v236h236zM502 502v-236h-236v236h236zM758 246v-236h-236v236h236zM1270 502v-236h-236v236h236z M502 246v-236h-236v236h236z" />
<glyph unicode="M" horiz-adv-x="2048" d="M1782 1782v-236h-236v236h236zM1782 1526v-236h-236v236h236zM1782 1270v-236h-236v236h236zM1526 1270v-236h-236v236h236zM1782 1014v-236h-236v236h236zM1782 758v-236h-236v236h236zM502 1782v-236h-236v236h236zM1782 502v-236h-236v236h236zM502 1526v-236h-236 v236h236zM758 1270v-236h-236v236h236zM1014 1014v-236h-236v236h236zM1782 246v-236h-236v236h236zM502 1270v-236h-236v236h236zM502 1014v-236h-236v236h236zM502 758v-236h-236v236h236zM502 502v-236h-236v236h236zM502 246v-236h-236v236h236zM1270 1014v-236h-236 v236h236z" />
<glyph unicode="N" d="M1270 1782v-236h-236v236h236zM1270 1526v-236h-236v236h236zM1270 1270v-236h-236v236h236zM502 1782v-236h-236v236h236zM1270 1014v-236h-236v236h236zM502 1526v-236h-236v236h236zM758 1270v-236h-236v236h236zM1014 1014v-236h-236v236h236zM1270 758v-236h-236 v236h236zM502 1270v-236h-236v236h236zM1270 502v-236h-236v236h236zM502 1014v-236h-236v236h236zM1270 246v-236h-236v236h236zM502 758v-236h-236v236h236zM502 502v-236h-236v236h236zM502 246v-236h-236v236h236z" />
<glyph unicode="O" d="M1014 1782v-236h-236v236h236zM1270 1526v-236h-236v236h236zM758 1782v-236h-236v236h236zM1270 1270v-236h-236v236h236zM1270 1014v-236h-236v236h236zM502 1526v-236h-236v236h236zM1270 758v-236h-236v236h236zM502 1270v-236h-236v236h236zM1270 502v-236h-236v236 h236zM502 1014v-236h-236v236h236zM502 758v-236h-236v236h236zM1014 246v-236h-236v236h236zM502 502v-236h-236v236h236zM758 246v-236h-236v236h236zM1270 1782v-236h-236v236h236zM502 246v-236h-236v236h236z" />
<glyph unicode="P" d="M1014 1782v-236h-236v236h236zM1270 1526v-236h-236v236h236zM758 1782v-236h-236v236h236zM1270 1270v-236h-236v236h236zM502 1782v-236h-236v236h236zM502 1526v-236h-236v236h236zM1014 1014v-236h-236v236h236zM502 1270v-236h-236v236h236zM758 1014v-236h-236v236 h236zM502 1014v-236h-236v236h236zM502 758v-236h-236v236h236zM502 502v-236h-236v236h236zM502 246v-236h-236v236h236zM1270 1782v-236h-236v236h236z" />
<glyph unicode="Q" d="M1014 1782v-236h-236v236h236zM1270 1526v-236h-236v236h236zM758 1782v-236h-236v236h236zM1270 1270v-236h-236v236h236zM1270 1014v-236h-236v236h236zM502 1526v-236h-236v236h236zM1270 758v-236h-236v236h236zM502 1270v-236h-236v236h236zM1270 502v-236h-236v236 h236zM502 1014v-236h-236v236h236zM1782 -266v-236h-236v236h236zM502 758v-236h-236v236h236zM1014 246v-236h-236v236h236zM1270 -10v-236h-236v236h236zM1526 -266v-236h-236v236h236zM502 502v-236h-236v236h236zM758 246v-236h-236v236h236zM1270 1782v-236h-236v236 h236zM502 246v-236h-236v236h236z" />
<glyph unicode="R" d="M1014 1782v-236h-236v236h236zM1270 1526v-236h-236v236h236zM758 1782v-236h-236v236h236zM1270 1270v-236h-236v236h236zM502 1782v-236h-236v236h236zM502 1526v-236h-236v236h236zM1014 1014v-236h-236v236h236zM502 1270v-236h-236v236h236zM758 1014v-236h-236v236 h236zM1014 758v-236h-236v236h236zM1270 502v-236h-236v236h236zM502 1014v-236h-236v236h236zM1270 246v-236h-236v236h236zM502 758v-236h-236v236h236zM502 502v-236h-236v236h236zM502 246v-236h-236v236h236zM1270 1782v-236h-236v236h236z" />
<glyph unicode="S" d="M1270 1782v-236h-236v236h236zM1014 1782v-236h-236v236h236zM758 1782v-236h-236v236h236zM502 1526v-236h-236v236h236zM1270 758v-236h-236v236h236zM502 1270v-236h-236v236h236zM1270 502v-236h-236v236h236zM1014 246v-236h-236v236h236zM758 246v-236h-236v236 h236zM502 246v-236h-236v236h236zM502 502v-236h-236v236h236zM1014 1014v-236h-236v236h236zM758 1014v-236h-236v236h236z" />
<glyph unicode="T" horiz-adv-x="1280" d="M1270 1782v-236h-236v236h236zM1014 1782v-236h-236v236h236zM758 1782v-236h-236v236h236zM502 1782v-236h-236v236h236zM758 1526v-236h-236v236h236zM246 1782v-236h-236v236h236zM758 1270v-236h-236v236h236zM758 1014v-236h-236v236h236zM758 758v-236h-236v236 h236zM758 502v-236h-236v236h236zM758 246v-236h-236v236h236z" />
<glyph unicode="U" d="M1270 1782v-236h-236v236h236zM1270 1526v-236h-236v236h236zM1270 1270v-236h-236v236h236zM502 1782v-236h-236v236h236zM1270 1014v-236h-236v236h236zM502 1526v-236h-236v236h236zM1270 758v-236h-236v236h236zM502 1270v-236h-236v236h236zM1270 502v-236h-236v236 h236zM502 1014v-236h-236v236h236zM502 758v-236h-236v236h236zM1014 246v-236h-236v236h236zM502 502v-236h-236v236h236zM758 246v-236h-236v236h236zM502 246v-236h-236v236h236z" />
<glyph unicode="V" d="M1270 1782v-236h-236v236h236zM1270 1526v-236h-236v236h236zM1270 1270v-236h-236v236h236zM502 1782v-236h-236v236h236zM1270 1014v-236h-236v236h236zM502 1526v-236h-236v236h236zM1270 758v-236h-236v236h236zM502 1270v-236h-236v236h236zM502 1014v-236h-236v236 h236zM1014 502v-236h-236v236h236zM502 758v-236h-236v236h236zM502 502v-236h-236v236h236zM758 246v-236h-236v236h236z" />
<glyph unicode="W" horiz-adv-x="2048" d="M1782 1782v-236h-236v236h236zM1782 1526v-236h-236v236h236zM1782 1270v-236h-236v236h236zM1782 1014v-236h-236v236h236zM1782 758v-236h-236v236h236zM502 1782v-236h-236v236h236zM1782 502v-236h-236v236h236zM502 1526v-236h-236v236h236zM1270 758v-236h-236v236 h236zM1526 502v-236h-236v236h236zM1782 246v-236h-236v236h236zM502 1270v-236h-236v236h236zM1014 758v-236h-236v236h236zM502 1014v-236h-236v236h236zM502 758v-236h-236v236h236zM758 502v-236h-236v236h236zM502 502v-236h-236v236h236zM502 246v-236h-236v236h236z " />
<glyph unicode="X" d="M1270 1782v-236h-236v236h236zM1270 1526v-236h-236v236h236zM1270 1270v-236h-236v236h236zM502 1782v-236h-236v236h236zM502 1526v-236h-236v236h236zM1014 1014v-236h-236v236h236zM1270 758v-236h-236v236h236zM502 1270v-236h-236v236h236zM758 1014v-236h-236v236 h236zM1270 502v-236h-236v236h236zM1270 246v-236h-236v236h236zM502 758v-236h-236v236h236zM502 502v-236h-236v236h236zM502 246v-236h-236v236h236z" />
<glyph unicode="Y" d="M1270 1782v-236h-236v236h236zM1270 1526v-236h-236v236h236zM502 1782v-236h-236v236h236zM1014 1270v-236h-236v236h236zM502 1526v-236h-236v236h236zM502 1270v-236h-236v236h236zM758 1014v-236h-236v236h236zM758 758v-236h-236v236h236zM758 502v-236h-236v236 h236zM758 246v-236h-236v236h236z" />
<glyph unicode="Z" d="M1270 1782v-236h-236v236h236zM1014 1782v-236h-236v236h236zM1270 1526v-236h-236v236h236zM758 1782v-236h-236v236h236zM502 1782v-236h-236v236h236zM1014 1270v-236h-236v236h236zM758 1014v-236h-236v236h236zM1270 246v-236h-236v236h236zM502 758v-236h-236v236 h236zM1014 246v-236h-236v236h236zM502 502v-236h-236v236h236zM758 246v-236h-236v236h236zM502 246v-236h-236v236h236zM1270 502v-236h-236v236h236z" />
<glyph unicode="[" d="M1014 2038v-236h-236v236h236zM758 2038v-236h-236v236h236zM1270 2038v-236h-236v236h236zM502 1782v-236h-236v236h236zM502 1526v-236h-236v236h236zM502 1270v-236h-236v236h236zM502 1014v-236h-236v236h236zM502 758v-236h-236v236h236zM502 502v-236h-236v236h236 zM502 246v-236h-236v236h236zM1014 -266v-236h-236v236h236zM502 -10v-236h-236v236h236zM758 -266v-236h-236v236h236zM502 -266v-236h-236v236h236z" />
<glyph unicode="\" d="M502 1782v-236h-236v236h236zM502 1526v-236h-236v236h236zM502 1270v-236h-236v236h236zM758 1014v-236h-236v236h236zM1014 758v-236h-236v236h236zM1270 502v-236h-236v236h236zM1270 246v-236h-236v236h236z" />
<glyph unicode="]" d="M1270 2038v-236h-236v236h236zM1014 2038v-236h-236v236h236zM1270 1782v-236h-236v236h236zM758 2038v-236h-236v236h236zM1270 1526v-236h-236v236h236zM1270 1270v-236h-236v236h236zM1270 1014v-236h-236v236h236zM1270 758v-236h-236v236h236zM1270 502v-236h-236 v236h236zM1270 246v-236h-236v236h236zM1270 -10v-236h-236v236h236zM502 -266v-236h-236v236h236zM1014 -266v-236h-236v236h236zM758 -266v-236h-236v236h236z" />
<glyph unicode="^" horiz-adv-x="1792" d="M1014 2038v-236h-236v236h236zM1270 1782v-236h-236v236h236zM1526 1526v-236h-236v236h236zM758 1782v-236h-236v236h236zM502 1526v-236h-236v236h236z" />
<glyph unicode="_" horiz-adv-x="1024" d="M1014 246v-236h-236v236h236zM758 246v-236h-236v236h236zM502 246v-236h-236v236h236zM246 246v-236h-236v236h236z" />
<glyph unicode="`" horiz-adv-x="1024" d="M502 2294v-236h-236v236h236zM758 2038v-236h-236v236h236z" />
<glyph unicode="a" d="M1270 1270v-236h-236v236h236zM1014 1270v-236h-236v236h236zM1270 1014v-236h-236v236h236zM758 1270v-236h-236v236h236zM1270 758v-236h-236v236h236zM1270 502v-236h-236v236h236zM502 1014v-236h-236v236h236zM1014 502v-236h-236v236h236zM1270 246v-236h-236v236 h236zM502 758v-236h-236v236h236zM502 502v-236h-236v236h236zM758 246v-236h-236v236h236zM502 246v-236h-236v236h236z" />
<glyph unicode="b" d="M502 2038v-236h-236v236h236zM1270 1270v-236h-236v236h236zM502 1782v-236h-236v236h236zM1014 1270v-236h-236v236h236zM1270 1014v-236h-236v236h236zM502 1526v-236h-236v236h236zM1270 758v-236h-236v236h236zM502 1270v-236h-236v236h236zM758 1014v-236h-236v236 h236zM1270 502v-236h-236v236h236zM502 1014v-236h-236v236h236zM502 758v-236h-236v236h236zM1014 246v-236h-236v236h236zM502 502v-236h-236v236h236zM758 246v-236h-236v236h236zM502 246v-236h-236v236h236z" />
<glyph unicode="c" horiz-adv-x="1280" d="M1270 1270v-236h-236v236h236zM1014 1270v-236h-236v236h236zM758 1270v-236h-236v236h236zM502 1014v-236h-236v236h236zM502 758v-236h-236v236h236zM1014 246v-236h-236v236h236zM502 502v-236h-236v236h236zM758 246v-236h-236v236h236zM502 246v-236h-236v236h236z " />
<glyph unicode="d" d="M1270 2038v-236h-236v236h236zM1270 1782v-236h-236v236h236zM1270 1526v-236h-236v236h236zM1270 1270v-236h-236v236h236zM1014 1270v-236h-236v236h236zM1270 1014v-236h-236v236h236zM758 1270v-236h-236v236h236zM1270 758v-236h-236v236h236zM1270 502v-236h-236 v236h236zM502 1014v-236h-236v236h236zM1014 502v-236h-236v236h236zM1270 246v-236h-236v236h236zM502 758v-236h-236v236h236zM502 502v-236h-236v236h236zM758 246v-236h-236v236h236zM502 246v-236h-236v236h236z" />
<glyph unicode="e" d="M1270 1270v-236h-236v236h236zM1014 1270v-236h-236v236h236zM1270 1014v-236h-236v236h236zM758 1270v-236h-236v236h236zM1014 758v-236h-236v236h236zM502 1014v-236h-236v236h236zM758 758v-236h-236v236h236zM502 758v-236h-236v236h236zM1014 246v-236h-236v236 h236zM502 502v-236h-236v236h236zM758 246v-236h-236v236h236zM502 246v-236h-236v236h236z" />
<glyph unicode="f" horiz-adv-x="768" d="M1014 2038v-236h-236v236h236zM758 2038v-236h-236v236h236zM502 1782v-236h-236v236h236zM502 1526v-236h-236v236h236zM758 1270v-236h-236v236h236zM502 1270v-236h-236v236h236zM246 1270v-236h-236v236h236zM502 1014v-236h-236v236h236zM502 758v-236h-236v236h236 zM502 502v-236h-236v236h236zM502 246v-236h-236v236h236zM502 -10v-236h-236v236h236zM246 -266v-236h-236v236h236zM-10 -266v-236h-236v236h236z" />
<glyph unicode="g" d="M1270 1270v-236h-236v236h236zM1014 1270v-236h-236v236h236zM1270 1014v-236h-236v236h236zM758 1270v-236h-236v236h236zM1270 758v-236h-236v236h236zM1270 502v-236h-236v236h236zM502 1014v-236h-236v236h236zM1014 502v-236h-236v236h236zM1270 246v-236h-236v236 h236zM502 758v-236h-236v236h236zM1270 -10v-236h-236v236h236zM502 502v-236h-236v236h236zM758 246v-236h-236v236h236zM502 246v-236h-236v236h236zM1014 -266v-236h-236v236h236zM758 -266v-236h-236v236h236zM502 -266v-236h-236v236h236z" />
<glyph unicode="h" d="M502 2038v-236h-236v236h236zM1270 1270v-236h-236v236h236zM502 1782v-236h-236v236h236zM1014 1270v-236h-236v236h236zM1270 1014v-236h-236v236h236zM502 1526v-236h-236v236h236zM1270 758v-236h-236v236h236zM502 1270v-236h-236v236h236zM758 1014v-236h-236v236 h236zM1270 502v-236h-236v236h236zM502 1014v-236h-236v236h236zM1270 246v-236h-236v236h236zM502 758v-236h-236v236h236zM502 502v-236h-236v236h236zM502 246v-236h-236v236h236z" />
<glyph unicode="i" horiz-adv-x="768" d="M502 2038v-236h-236v236h236zM502 1270v-236h-236v236h236zM502 1014v-236h-236v236h236zM502 758v-236h-236v236h236zM502 502v-236h-236v236h236zM502 246v-236h-236v236h236z" />
<glyph unicode="j" horiz-adv-x="768" d="M502 2038v-236h-236v236h236zM502 1270v-236h-236v236h236zM502 1014v-236h-236v236h236zM502 758v-236h-236v236h236zM502 502v-236h-236v236h236zM502 246v-236h-236v236h236zM502 -10v-236h-236v236h236zM246 -266v-236h-236v236h236zM-10 -266v-236h-236v236h236z " />
<glyph unicode="k" d="M502 2038v-236h-236v236h236zM1270 1270v-236h-236v236h236zM502 1782v-236h-236v236h236zM1270 1014v-236h-236v236h236zM502 1526v-236h-236v236h236zM502 1270v-236h-236v236h236zM1014 758v-236h-236v236h236zM1014 502v-236h-236v236h236zM502 1014v-236h-236v236 h236zM758 758v-236h-236v236h236zM1270 246v-236h-236v236h236zM502 758v-236h-236v236h236zM502 502v-236h-236v236h236zM502 246v-236h-236v236h236zM1014 1270v-236h-236v236h236z" />
<glyph unicode="l" horiz-adv-x="768" d="M502 2038v-236h-236v236h236zM502 1782v-236h-236v236h236zM502 1526v-236h-236v236h236zM502 1270v-236h-236v236h236zM502 1014v-236h-236v236h236zM502 758v-236h-236v236h236zM502 502v-236h-236v236h236zM502 246v-236h-236v236h236z" />
<glyph unicode="m" horiz-adv-x="2304" d="M2038 1270v-236h-236v236h236zM1782 1270v-236h-236v236h236zM2038 1014v-236h-236v236h236zM2038 758v-236h-236v236h236zM1270 1270v-236h-236v236h236zM1526 1014v-236h-236v236h236zM2038 502v-236h-236v236h236zM1014 1270v-236h-236v236h236zM1270 1014v-236h-236 v236h236zM2038 246v-236h-236v236h236zM1270 758v-236h-236v236h236zM502 1270v-236h-236v236h236zM758 1014v-236h-236v236h236zM1270 502v-236h-236v236h236zM502 1014v-236h-236v236h236zM1270 246v-236h-236v236h236zM502 758v-236h-236v236h236zM502 502v-236h-236v236 h236zM502 246v-236h-236v236h236z" />
<glyph unicode="n" d="M1270 1270v-236h-236v236h236zM1014 1270v-236h-236v236h236zM1270 1014v-236h-236v236h236zM1270 758v-236h-236v236h236zM502 1270v-236h-236v236h236zM758 1014v-236h-236v236h236zM1270 502v-236h-236v236h236zM502 1014v-236h-236v236h236zM1270 246v-236h-236v236 h236zM502 758v-236h-236v236h236zM502 502v-236h-236v236h236zM502 246v-236h-236v236h236z" />
<glyph unicode="o" d="M1270 1270v-236h-236v236h236zM1014 1270v-236h-236v236h236zM1270 1014v-236h-236v236h236zM758 1270v-236h-236v236h236zM1270 758v-236h-236v236h236zM1270 502v-236h-236v236h236zM502 1014v-236h-236v236h236zM502 758v-236h-236v236h236zM1014 246v-236h-236v236 h236zM502 502v-236h-236v236h236zM758 246v-236h-236v236h236zM502 246v-236h-236v236h236z" />
<glyph unicode="p" d="M1270 1270v-236h-236v236h236zM1014 1270v-236h-236v236h236zM1270 1014v-236h-236v236h236zM1270 758v-236h-236v236h236zM502 1270v-236h-236v236h236zM758 1014v-236h-236v236h236zM1270 502v-236h-236v236h236zM502 1014v-236h-236v236h236zM502 758v-236h-236v236 h236zM1014 246v-236h-236v236h236zM502 502v-236h-236v236h236zM758 246v-236h-236v236h236zM502 246v-236h-236v236h236zM502 -10v-236h-236v236h236zM502 -266v-236h-236v236h236z" />
<glyph unicode="q" d="M1270 1270v-236h-236v236h236zM1014 1270v-236h-236v236h236zM1270 1014v-236h-236v236h236zM758 1270v-236h-236v236h236zM1270 758v-236h-236v236h236zM1270 502v-236h-236v236h236zM502 1014v-236h-236v236h236zM1014 502v-236h-236v236h236zM1270 246v-236h-236v236 h236zM502 758v-236h-236v236h236zM1270 -10v-236h-236v236h236zM1526 -266v-236h-236v236h236zM502 502v-236h-236v236h236zM758 246v-236h-236v236h236zM1270 -266v-236h-236v236h236zM502 246v-236h-236v236h236z" />
<glyph unicode="r" horiz-adv-x="1024" d="M1014 1270v-236h-236v236h236zM502 1270v-236h-236v236h236zM758 1014v-236h-236v236h236zM502 1014v-236h-236v236h236zM502 758v-236h-236v236h236zM502 502v-236h-236v236h236zM502 246v-236h-236v236h236z" />
<glyph unicode="s" d="M1270 1270v-236h-236v236h236zM1014 1270v-236h-236v236h236zM1270 1014v-236h-236v236h236zM1270 758v-236h-236v236h236zM758 1014v-236h-236v236h236zM1270 502v-236h-236v236h236zM502 758v-236h-236v236h236zM1014 246v-236h-236v236h236zM758 246v-236h-236v236 h236zM502 246v-236h-236v236h236z" />
<glyph unicode="t" horiz-adv-x="1280" d="M502 1782v-236h-236v236h236zM1014 1270v-236h-236v236h236zM502 1526v-236h-236v236h236zM758 1270v-236h-236v236h236zM502 1270v-236h-236v236h236zM502 1014v-236h-236v236h236zM1014 502v-236h-236v236h236zM502 758v-236h-236v236h236zM502 502v-236h-236v236h236z M758 246v-236h-236v236h236zM502 246v-236h-236v236h236z" />
<glyph unicode="u" d="M1270 1270v-236h-236v236h236zM1270 1014v-236h-236v236h236zM1270 758v-236h-236v236h236zM502 1270v-236h-236v236h236zM1270 502v-236h-236v236h236zM502 1014v-236h-236v236h236zM1014 502v-236h-236v236h236zM1270 246v-236h-236v236h236zM502 758v-236h-236v236 h236zM502 502v-236h-236v236h236zM758 246v-236h-236v236h236zM502 246v-236h-236v236h236z" />
<glyph unicode="v" d="M1270 1270v-236h-236v236h236zM1270 1014v-236h-236v236h236zM1270 758v-236h-236v236h236zM502 1270v-236h-236v236h236zM502 1014v-236h-236v236h236zM1014 502v-236h-236v236h236zM502 758v-236h-236v236h236zM502 502v-236h-236v236h236zM758 246v-236h-236v236h236z M502 246v-236h-236v236h236z" />
<glyph unicode="w" horiz-adv-x="2304" d="M2038 1270v-236h-236v236h236zM2038 1014v-236h-236v236h236zM2038 758v-236h-236v236h236zM1270 1270v-236h-236v236h236zM1270 1014v-236h-236v236h236zM1782 502v-236h-236v236h236zM1270 758v-236h-236v236h236zM502 1270v-236h-236v236h236zM1270 502v-236h-236v236 h236zM1526 246v-236h-236v236h236zM502 1014v-236h-236v236h236zM1014 502v-236h-236v236h236zM1270 246v-236h-236v236h236zM502 758v-236h-236v236h236zM502 502v-236h-236v236h236zM758 246v-236h-236v236h236zM502 246v-236h-236v236h236z" />
<glyph unicode="x" d="M1270 1270v-236h-236v236h236zM1270 1014v-236h-236v236h236zM502 1270v-236h-236v236h236zM1014 758v-236h-236v236h236zM1270 502v-236h-236v236h236zM502 1014v-236h-236v236h236zM758 758v-236h-236v236h236zM1270 246v-236h-236v236h236zM502 502v-236h-236v236h236 zM502 246v-236h-236v236h236z" />
<glyph unicode="y" d="M1270 1270v-236h-236v236h236zM1270 1014v-236h-236v236h236zM1270 758v-236h-236v236h236zM502 1270v-236h-236v236h236zM1270 502v-236h-236v236h236zM502 1014v-236h-236v236h236zM1014 502v-236h-236v236h236zM1270 246v-236h-236v236h236zM502 758v-236h-236v236 h236zM1270 -10v-236h-236v236h236zM502 502v-236h-236v236h236zM758 246v-236h-236v236h236zM502 246v-236h-236v236h236zM1014 -266v-236h-236v236h236zM758 -266v-236h-236v236h236zM502 -266v-236h-236v236h236z" />
<glyph unicode="z" d="M1270 1270v-236h-236v236h236zM1014 1270v-236h-236v236h236zM758 1270v-236h-236v236h236zM1014 1014v-236h-236v236h236zM502 1270v-236h-236v236h236zM758 758v-236h-236v236h236zM1270 246v-236h-236v236h236zM1014 246v-236h-236v236h236zM502 502v-236h-236v236 h236zM758 246v-236h-236v236h236zM502 246v-236h-236v236h236z" />
<glyph unicode="{" horiz-adv-x="1792" d="M1270 2038v-236h-236v236h236zM1014 2038v-236h-236v236h236zM758 1782v-236h-236v236h236zM758 1526v-236h-236v236h236zM758 1270v-236h-236v236h236zM502 758v-236h-236v236h236zM758 502v-236h-236v236h236zM246 758v-236h-236v236h236zM758 246v-236h-236v236h236z M1270 -266v-236h-236v236h236zM758 -10v-236h-236v236h236zM1014 -266v-236h-236v236h236zM758 -266v-236h-236v236h236zM758 1014v-236h-236v236h236zM1526 2038v-236h-236v236h236z" />
<glyph unicode="|" horiz-adv-x="768" d="M502 2038v-236h-236v236h236zM502 1782v-236h-236v236h236zM502 1526v-236h-236v236h236zM502 1270v-236h-236v236h236zM502 1014v-236h-236v236h236zM502 758v-236h-236v236h236zM502 502v-236h-236v236h236zM502 246v-236h-236v236h236zM502 -10v-236h-236v236h236z M502 -266v-236h-236v236h236z" />
<glyph unicode="}" horiz-adv-x="1792" d="M1014 2038v-236h-236v236h236zM1270 1782v-236h-236v236h236zM758 2038v-236h-236v236h236zM1270 1526v-236h-236v236h236zM1782 1270v-236h-236v236h236zM1526 1270v-236h-236v236h236zM1270 1014v-236h-236v236h236zM1270 502v-236h-236v236h236zM1270 246v-236h-236 v236h236zM1270 -10v-236h-236v236h236zM1014 -266v-236h-236v236h236zM758 -266v-236h-236v236h236zM1270 2038v-236h-236v236h236zM1270 758v-236h-236v236h236zM502 -266v-236h-236v236h236z" />
<glyph unicode="~" d="M1270 2038v-236h-236v236h236zM758 2038v-236h-236v236h236zM1014 1782v-236h-236v236h236zM502 1782v-236h-236v236h236z" />
<glyph unicode="&#xa1;" horiz-adv-x="1280" d="M758 1782v-236h-236v236h236zM758 1526v-236h-236v236h236zM758 1014v-236h-236v236h236zM758 758v-236h-236v236h236zM758 502v-236h-236v236h236zM758 246v-236h-236v236h236zM758 -10v-236h-236v236h236zM502 -10v-236h-236v236h236z" />
<glyph unicode="&#xa2;" d="M1014 1782v-236h-236v236h236zM1014 1526v-236h-236v236h236zM1270 1270v-236h-236v236h236zM1014 1270v-236h-236v236h236zM758 1270v-236h-236v236h236zM1270 502v-236h-236v236h236zM1014 246v-236h-236v236h236zM502 758v-236h-236v236h236zM758 246v-236h-236v236 h236zM758 -10v-236h-236v236h236zM758 -266v-236h-236v236h236zM502 246v-236h-236v236h236zM502 502v-236h-236v236h236zM502 1014v-236h-236v236h236z" />
<glyph unicode="&#xa3;" d="M1270 1782v-236h-236v236h236zM1014 1782v-236h-236v236h236zM758 1526v-236h-236v236h236zM1270 758v-236h-236v236h236zM758 1270v-236h-236v236h236zM1014 758v-236h-236v236h236zM1526 246v-236h-236v236h236zM758 1014v-236h-236v236h236zM758 758v-236h-236v236 h236zM1014 -10v-236h-236v236h236zM758 502v-236h-236v236h236zM758 246v-236h-236v236h236zM502 246v-236h-236v236h236zM1270 -10v-236h-236v236h236zM1270 1526v-236h-236v236h236z" />
<glyph unicode="&#xa4;" d="M1270 1782v-236h-236v236h236zM1014 1782v-236h-236v236h236zM758 1526v-236h-236v236h236zM1270 1014v-236h-236v236h236zM758 1270v-236h-236v236h236zM1014 1014v-236h-236v236h236zM758 1014v-236h-236v236h236zM246 1014v-236h-236v236h236zM758 758v-236h-236v236 h236zM1270 246v-236h-236v236h236zM758 502v-236h-236v236h236zM1014 246v-236h-236v236h236zM502 1014v-236h-236v236h236zM1526 1782v-236h-236v236h236zM758 246v-236h-236v236h236z" />
<glyph unicode="&#xa5;" d="M1526 1782v-236h-236v236h236zM1270 1526v-236h-236v236h236zM502 1782v-236h-236v236h236zM758 1526v-236h-236v236h236zM1014 1270v-236h-236v236h236zM1526 758v-236h-236v236h236zM1014 1014v-236h-236v236h236zM1270 758v-236h-236v236h236zM1014 758v-236h-236v236 h236zM758 758v-236h-236v236h236zM1014 502v-236h-236v236h236zM502 758v-236h-236v236h236zM1014 246v-236h-236v236h236z" />
<glyph unicode="&#xa6;" horiz-adv-x="768" d="M502 2038v-236h-236v236h236zM502 1782v-236h-236v236h236zM502 1526v-236h-236v236h236zM502 1270v-236h-236v236h236zM502 502v-236h-236v236h236zM502 246v-236h-236v236h236zM502 -10v-236h-236v236h236zM502 -266v-236h-236v236h236z" />
<glyph unicode="&#xa7;" d="M1270 2038v-236h-236v236h236zM1014 2038v-236h-236v236h236zM758 2038v-236h-236v236h236zM502 1782v-236h-236v236h236zM758 1526v-236h-236v236h236zM1014 1270v-236h-236v236h236zM1270 1014v-236h-236v236h236zM1270 758v-236h-236v236h236zM502 1270v-236h-236v236 h236zM502 1014v-236h-236v236h236zM758 758v-236h-236v236h236zM1014 502v-236h-236v236h236zM1270 246v-236h-236v236h236zM1014 -10v-236h-236v236h236zM758 -10v-236h-236v236h236zM502 -10v-236h-236v236h236z" />
<glyph unicode="&#xa8;" horiz-adv-x="1280" d="M1014 2038v-236h-236v236h236zM502 2038v-236h-236v236h236z" />
<glyph unicode="&#xa9;" horiz-adv-x="2560" d="M1782 2038v-236h-236v236h236zM2038 1782v-236h-236v236h236zM2294 1526v-236h-236v236h236zM1526 2038v-236h-236v236h236zM2294 1270v-236h-236v236h236zM1270 2038v-236h-236v236h236zM1782 1526v-236h-236v236h236zM2294 1014v-236h-236v236h236zM1014 2038v-236 h-236v236h236zM1526 1526v-236h-236v236h236zM2294 758v-236h-236v236h236zM1270 1526v-236h-236v236h236zM758 1782v-236h-236v236h236zM1782 758v-236h-236v236h236zM2038 502v-236h-236v236h236zM1014 1270v-236h-236v236h236zM1526 758v-236h-236v236h236zM502 1526 v-236h-236v236h236zM1014 1014v-236h-236v236h236zM1270 758v-236h-236v236h236zM1782 246v-236h-236v236h236zM502 1270v-236h-236v236h236zM1526 246v-236h-236v236h236zM502 1014v-236h-236v236h236zM1270 246v-236h-236v236h236zM502 758v-236h-236v236h236zM758 502 v-236h-236v236h236zM1014 246v-236h-236v236h236z" />
<glyph unicode="&#xaa;" d="M1270 2038v-236h-236v236h236zM1014 2038v-236h-236v236h236zM1270 1782v-236h-236v236h236zM758 2038v-236h-236v236h236zM1270 1526v-236h-236v236h236zM1270 1270v-236h-236v236h236zM502 1782v-236h-236v236h236zM1014 1270v-236h-236v236h236zM1270 1014v-236h-236 v236h236zM502 1526v-236h-236v236h236zM502 1270v-236h-236v236h236zM758 1014v-236h-236v236h236zM502 1014v-236h-236v236h236z" />
<glyph unicode="&#xab;" horiz-adv-x="2048" d="M1782 1270v-236h-236v236h236zM1526 1014v-236h-236v236h236zM1014 1270v-236h-236v236h236zM1270 758v-236h-236v236h236zM1270 502v-236h-236v236h236zM1526 246v-236h-236v236h236zM758 1014v-236h-236v236h236zM502 758v-236h-236v236h236zM502 502v-236h-236v236 h236zM758 246v-236h-236v236h236z" />
<glyph unicode="&#xac;" d="M1270 1014v-236h-236v236h236zM1270 758v-236h-236v236h236zM1014 1014v-236h-236v236h236zM1270 502v-236h-236v236h236zM758 1014v-236h-236v236h236zM1270 246v-236h-236v236h236zM502 1014v-236h-236v236h236z" />
<glyph unicode="&#xad;" d="M1270 758v-236h-236v236h236zM1014 758v-236h-236v236h236zM758 758v-236h-236v236h236zM502 758v-236h-236v236h236z" />
<glyph unicode="&#xae;" horiz-adv-x="2304" d="M1526 2038v-236h-236v236h236zM1782 1782v-236h-236v236h236zM2038 1526v-236h-236v236h236zM1270 2038v-236h-236v236h236zM2038 1270v-236h-236v236h236zM1014 2038v-236h-236v236h236zM1526 1526v-236h-236v236h236zM2038 1014v-236h-236v236h236zM1270 1526v-236 h-236v236h236zM758 1782v-236h-236v236h236zM1014 1526v-236h-236v236h236zM1270 1270v-236h-236v236h236zM1526 1014v-236h-236v236h236zM1782 758v-236h-236v236h236zM1014 1270v-236h-236v236h236zM502 1526v-236h-236v236h236zM1014 1014v-236h-236v236h236zM1526 502 v-236h-236v236h236zM502 1270v-236h-236v236h236zM1270 502v-236h-236v236h236zM502 1014v-236h-236v236h236zM758 758v-236h-236v236h236zM1014 502v-236h-236v236h236z" />
<glyph unicode="&#xaf;" horiz-adv-x="1280" d="M1014 2038v-236h-236v236h236zM758 2038v-236h-236v236h236zM502 2038v-236h-236v236h236z" />
<glyph unicode="&#x2c9;" horiz-adv-x="1280" d="M1014 2038v-236h-236v236h236zM758 2038v-236h-236v236h236zM502 2038v-236h-236v236h236z" />
<glyph unicode="&#xb0;" d="M1014 2294v-236h-236v236h236zM1270 2038v-236h-236v236h236zM758 2294v-236h-236v236h236zM1270 1782v-236h-236v236h236zM502 2038v-236h-236v236h236zM1014 1526v-236h-236v236h236zM502 1782v-236h-236v236h236zM758 1526v-236h-236v236h236z" />
<glyph unicode="&#xb1;" d="M1014 1782v-236h-236v236h236zM1526 1270v-236h-236v236h236zM1014 1526v-236h-236v236h236zM1270 1270v-236h-236v236h236zM1014 1270v-236h-236v236h236zM758 1270v-236h-236v236h236zM1014 1014v-236h-236v236h236zM502 1270v-236h-236v236h236zM1014 758v-236h-236 v236h236zM1526 246v-236h-236v236h236zM1270 246v-236h-236v236h236zM1014 246v-236h-236v236h236zM758 246v-236h-236v236h236zM502 246v-236h-236v236h236z" />
<glyph unicode="&#xb2;" horiz-adv-x="1280" d="M758 1782v-236h-236v236h236zM1014 1526v-236h-236v236h236zM502 1782v-236h-236v236h236zM1014 1014v-236h-236v236h236zM502 1270v-236h-236v236h236zM758 1014v-236h-236v236h236zM502 1014v-236h-236v236h236z" />
<glyph unicode="&#xb3;" horiz-adv-x="1280" d="M1014 1782v-236h-236v236h236zM758 1782v-236h-236v236h236zM502 1782v-236h-236v236h236zM758 1526v-236h-236v236h236zM1014 1270v-236h-236v236h236zM758 1014v-236h-236v236h236zM502 1014v-236h-236v236h236z" />
<glyph unicode="&#xb4;" horiz-adv-x="1024" d="M758 2294v-236h-236v236h236zM502 2038v-236h-236v236h236z" />
<glyph unicode="&#xb5;" d="M1270 1270v-236h-236v236h236zM1270 1014v-236h-236v236h236zM1270 758v-236h-236v236h236zM1270 502v-236h-236v236h236zM1526 246v-236h-236v236h236zM502 1270v-236h-236v236h236zM502 1014v-236h-236v236h236zM502 758v-236h-236v236h236zM1014 246v-236h-236v236 h236zM502 502v-236h-236v236h236zM758 246v-236h-236v236h236zM502 246v-236h-236v236h236zM502 -10v-236h-236v236h236zM502 -266v-236h-236v236h236z" />
<glyph unicode="&#x3bc;" d="M1270 1270v-236h-236v236h236zM1270 1014v-236h-236v236h236zM1270 758v-236h-236v236h236zM1270 502v-236h-236v236h236zM1526 246v-236h-236v236h236zM502 1270v-236h-236v236h236zM502 1014v-236h-236v236h236zM502 758v-236h-236v236h236zM1014 246v-236h-236v236 h236zM502 502v-236h-236v236h236zM758 246v-236h-236v236h236zM502 246v-236h-236v236h236zM502 -10v-236h-236v236h236zM502 -266v-236h-236v236h236z" />
<glyph unicode="&#xb6;" horiz-adv-x="2304" d="M2038 1526v-236h-236v236h236zM1782 1526v-236h-236v236h236zM1526 1526v-236h-236v236h236zM1526 1270v-236h-236v236h236zM1014 1526v-236h-236v236h236zM1526 1014v-236h-236v236h236zM758 1526v-236h-236v236h236zM1014 1270v-236h-236v236h236zM1526 758v-236h-236 v236h236zM758 1270v-236h-236v236h236zM1014 1014v-236h-236v236h236zM1526 502v-236h-236v236h236zM502 1270v-236h-236v236h236zM758 1014v-236h-236v236h236zM1014 758v-236h-236v236h236zM1526 246v-236h-236v236h236zM502 1014v-236h-236v236h236zM758 758v-236h-236 v236h236zM1014 502v-236h-236v236h236zM502 758v-236h-236v236h236zM758 502v-236h-236v236h236zM1526 -10v-236h-236v236h236zM1270 -266v-236h-236v236h236zM1014 -266v-236h-236v236h236z" />
<glyph unicode="&#xb7;" horiz-adv-x="1280" d="M758 758v-236h-236v236h236zM758 1014v-236h-236v236h236z" />
<glyph unicode="&#x2219;" horiz-adv-x="1280" d="M758 758v-236h-236v236h236zM758 1014v-236h-236v236h236z" />
<glyph unicode="&#xb8;" horiz-adv-x="1280" d="M1014 -10v-236h-236v236h236zM758 -266v-236h-236v236h236zM502 -266v-236h-236v236h236z" />
<glyph unicode="&#xb9;" horiz-adv-x="1024" d="M758 1782v-236h-236v236h236zM758 1526v-236h-236v236h236zM502 1526v-236h-236v236h236zM758 1270v-236h-236v236h236zM758 1014v-236h-236v236h236z" />
<glyph unicode="&#xba;" d="M1270 2038v-236h-236v236h236zM1014 2038v-236h-236v236h236zM1270 1782v-236h-236v236h236zM758 2038v-236h-236v236h236zM1270 1526v-236h-236v236h236zM1270 1270v-236h-236v236h236zM502 1782v-236h-236v236h236zM502 1526v-236h-236v236h236zM1014 1014v-236h-236 v236h236zM502 1270v-236h-236v236h236zM758 1014v-236h-236v236h236zM502 1014v-236h-236v236h236z" />
<glyph unicode="&#xbb;" horiz-adv-x="2048" d="M1526 1270v-236h-236v236h236zM1782 1014v-236h-236v236h236zM1782 758v-236h-236v236h236zM1526 502v-236h-236v236h236zM758 1270v-236h-236v236h236zM1014 1014v-236h-236v236h236zM1014 758v-236h-236v236h236zM1270 246v-236h-236v236h236zM758 502v-236h-236v236 h236zM502 246v-236h-236v236h236z" />
<glyph unicode="&#xbc;" horiz-adv-x="2816" d="M2550 1014v-236h-236v236h236zM2294 758v-236h-236v236h236zM2550 502v-236h-236v236h236zM2294 502v-236h-236v236h236zM2550 246v-236h-236v236h236zM2038 502v-236h-236v236h236zM2038 1782v-236h-236v236h236zM2038 1526v-236h-236v236h236zM758 1782v-236h-236v236 h236zM1782 1270v-236h-236v236h236zM758 1526v-236h-236v236h236zM502 1526v-236h-236v236h236zM758 1270v-236h-236v236h236zM1526 1014v-236h-236v236h236zM758 1014v-236h-236v236h236zM1270 758v-236h-236v236h236zM1014 502v-236h-236v236h236zM1014 246v-236h-236v236 h236z" />
<glyph unicode="&#xbd;" horiz-adv-x="3072" d="M2038 1782v-236h-236v236h236zM2550 1014v-236h-236v236h236zM2806 758v-236h-236v236h236zM2038 1526v-236h-236v236h236zM2294 1014v-236h-236v236h236zM758 1782v-236h-236v236h236zM1782 1270v-236h-236v236h236zM2806 246v-236h-236v236h236zM758 1526v-236h-236 v236h236zM2294 502v-236h-236v236h236zM2550 246v-236h-236v236h236zM502 1526v-236h-236v236h236zM758 1270v-236h-236v236h236zM1526 1014v-236h-236v236h236zM2294 246v-236h-236v236h236zM758 1014v-236h-236v236h236zM1270 758v-236h-236v236h236zM1014 502v-236h-236 v236h236zM1014 246v-236h-236v236h236z" />
<glyph unicode="&#xbe;" horiz-adv-x="3072" d="M2806 1014v-236h-236v236h236zM1014 1782v-236h-236v236h236zM758 1782v-236h-236v236h236zM2550 758v-236h-236v236h236zM2806 502v-236h-236v236h236zM502 1782v-236h-236v236h236zM758 1526v-236h-236v236h236zM1014 1270v-236h-236v236h236zM2550 502v-236h-236v236 h236zM2806 246v-236h-236v236h236zM2294 502v-236h-236v236h236zM758 1014v-236h-236v236h236zM502 1014v-236h-236v236h236zM2294 1782v-236h-236v236h236zM2294 1526v-236h-236v236h236zM2038 1270v-236h-236v236h236zM1782 1014v-236h-236v236h236zM1526 758v-236h-236 v236h236zM1270 502v-236h-236v236h236zM1270 246v-236h-236v236h236z" />
<glyph unicode="&#xbf;" d="M1014 1782v-236h-236v236h236zM1014 1526v-236h-236v236h236zM1014 1014v-236h-236v236h236zM758 758v-236h-236v236h236zM1014 -10v-236h-236v236h236zM502 502v-236h-236v236h236zM758 -10v-236h-236v236h236zM502 246v-236h-236v236h236zM502 -10v-236h-236v236h236z " />
<glyph unicode="&#xc0;" d="M758 2550v-236h-236v236h236zM1014 2294v-236h-236v236h236zM1014 1782v-236h-236v236h236zM1270 1526v-236h-236v236h236zM758 1782v-236h-236v236h236zM1270 1270v-236h-236v236h236zM1270 1014v-236h-236v236h236zM502 1526v-236h-236v236h236zM1270 758v-236h-236 v236h236zM502 1270v-236h-236v236h236zM1014 758v-236h-236v236h236zM1270 502v-236h-236v236h236zM502 1014v-236h-236v236h236zM758 758v-236h-236v236h236zM1270 246v-236h-236v236h236zM502 758v-236h-236v236h236zM502 502v-236h-236v236h236zM502 246v-236h-236v236 h236zM1270 1782v-236h-236v236h236z" />
<glyph unicode="&#xc1;" d="M1014 2550v-236h-236v236h236zM758 2294v-236h-236v236h236zM1014 1782v-236h-236v236h236zM1270 1526v-236h-236v236h236zM758 1782v-236h-236v236h236zM1270 1270v-236h-236v236h236zM1270 1014v-236h-236v236h236zM502 1526v-236h-236v236h236zM1270 758v-236h-236 v236h236zM502 1270v-236h-236v236h236zM1014 758v-236h-236v236h236zM1270 502v-236h-236v236h236zM502 1014v-236h-236v236h236zM758 758v-236h-236v236h236zM1270 246v-236h-236v236h236zM502 758v-236h-236v236h236zM502 502v-236h-236v236h236zM502 246v-236h-236v236 h236zM1270 1782v-236h-236v236h236z" />
<glyph unicode="&#xc2;" d="M1014 2550v-236h-236v236h236zM1270 2294v-236h-236v236h236zM758 2294v-236h-236v236h236zM1014 1782v-236h-236v236h236zM1270 1526v-236h-236v236h236zM758 1782v-236h-236v236h236zM1270 1270v-236h-236v236h236zM1270 1014v-236h-236v236h236zM502 1526v-236h-236 v236h236zM1270 758v-236h-236v236h236zM502 1270v-236h-236v236h236zM1014 758v-236h-236v236h236zM1270 502v-236h-236v236h236zM502 1014v-236h-236v236h236zM758 758v-236h-236v236h236zM1270 246v-236h-236v236h236zM502 758v-236h-236v236h236zM502 502v-236h-236v236 h236zM502 246v-236h-236v236h236zM1270 1782v-236h-236v236h236z" />
<glyph unicode="&#xc3;" d="M1270 2550v-236h-236v236h236zM758 2550v-236h-236v236h236zM1014 2294v-236h-236v236h236zM502 2294v-236h-236v236h236zM1014 1782v-236h-236v236h236zM1270 1526v-236h-236v236h236zM758 1782v-236h-236v236h236zM1270 1270v-236h-236v236h236zM1270 1014v-236h-236 v236h236zM502 1526v-236h-236v236h236zM1270 758v-236h-236v236h236zM502 1270v-236h-236v236h236zM1014 758v-236h-236v236h236zM1270 502v-236h-236v236h236zM502 1014v-236h-236v236h236zM758 758v-236h-236v236h236zM1270 246v-236h-236v236h236zM502 758v-236h-236v236 h236zM502 502v-236h-236v236h236zM502 246v-236h-236v236h236zM1270 1782v-236h-236v236h236z" />
<glyph unicode="&#xc4;" d="M1270 2294v-236h-236v236h236zM758 2294v-236h-236v236h236zM1014 1782v-236h-236v236h236zM1270 1526v-236h-236v236h236zM758 1782v-236h-236v236h236zM1270 1270v-236h-236v236h236zM1270 1014v-236h-236v236h236zM502 1526v-236h-236v236h236zM1270 758v-236h-236 v236h236zM502 1270v-236h-236v236h236zM1014 758v-236h-236v236h236zM1270 502v-236h-236v236h236zM502 1014v-236h-236v236h236zM758 758v-236h-236v236h236zM1270 246v-236h-236v236h236zM502 758v-236h-236v236h236zM502 502v-236h-236v236h236zM502 246v-236h-236v236 h236zM1270 1782v-236h-236v236h236z" />
<glyph unicode="&#xc5;" d="M1014 2550v-236h-236v236h236zM1270 2294v-236h-236v236h236zM758 2294v-236h-236v236h236zM1014 2038v-236h-236v236h236zM1014 1782v-236h-236v236h236zM1270 1526v-236h-236v236h236zM758 1782v-236h-236v236h236zM1270 1270v-236h-236v236h236zM1270 1014v-236h-236 v236h236zM502 1526v-236h-236v236h236zM1270 758v-236h-236v236h236zM502 1270v-236h-236v236h236zM1014 758v-236h-236v236h236zM1270 502v-236h-236v236h236zM502 1014v-236h-236v236h236zM758 758v-236h-236v236h236zM1270 246v-236h-236v236h236zM502 758v-236h-236v236 h236zM502 502v-236h-236v236h236zM502 246v-236h-236v236h236zM1270 1782v-236h-236v236h236z" />
<glyph unicode="&#xc6;" horiz-adv-x="2304" d="M2038 1782v-236h-236v236h236zM1782 1782v-236h-236v236h236zM1526 1782v-236h-236v236h236zM1270 1782v-236h-236v236h236zM1014 1782v-236h-236v236h236zM1270 1526v-236h-236v236h236zM1782 1014v-236h-236v236h236zM758 1782v-236h-236v236h236zM1270 1270v-236h-236 v236h236zM1526 1014v-236h-236v236h236zM1270 1014v-236h-236v236h236zM2038 502v-236h-236v236h236zM502 1526v-236h-236v236h236zM1014 1014v-236h-236v236h236zM1270 758v-236h-236v236h236zM1782 246v-236h-236v236h236zM502 1270v-236h-236v236h236zM758 1014v-236 h-236v236h236zM1270 502v-236h-236v236h236zM1526 246v-236h-236v236h236zM502 1014v-236h-236v236h236zM1270 246v-236h-236v236h236zM502 758v-236h-236v236h236zM502 502v-236h-236v236h236zM502 246v-236h-236v236h236z" />
<glyph unicode="&#xc7;" d="M1270 1782v-236h-236v236h236zM1014 1782v-236h-236v236h236zM758 1782v-236h-236v236h236zM502 1526v-236h-236v236h236zM502 1270v-236h-236v236h236zM502 1014v-236h-236v236h236zM502 758v-236h-236v236h236zM1014 246v-236h-236v236h236zM1014 -10v-236h-236v236 h236zM502 502v-236h-236v236h236zM758 246v-236h-236v236h236zM758 -266v-236h-236v236h236zM502 -266v-236h-236v236h236zM1270 502v-236h-236v236h236zM502 246v-236h-236v236h236z" />
<glyph unicode="&#xc8;" d="M758 2550v-236h-236v236h236zM1014 2294v-236h-236v236h236zM1270 1782v-236h-236v236h236zM1014 1782v-236h-236v236h236zM758 1782v-236h-236v236h236zM1270 502v-236h-236v236h236zM502 1526v-236h-236v236h236zM1014 1014v-236h-236v236h236zM502 1270v-236h-236v236 h236zM758 1014v-236h-236v236h236zM502 1014v-236h-236v236h236zM502 758v-236h-236v236h236zM1014 246v-236h-236v236h236zM502 502v-236h-236v236h236zM758 246v-236h-236v236h236zM502 246v-236h-236v236h236z" />
<glyph unicode="&#xc9;" d="M1014 2550v-236h-236v236h236zM758 2294v-236h-236v236h236zM1270 1782v-236h-236v236h236zM1014 1782v-236h-236v236h236zM758 1782v-236h-236v236h236zM1270 502v-236h-236v236h236zM502 1526v-236h-236v236h236zM1014 1014v-236h-236v236h236zM502 1270v-236h-236v236 h236zM758 1014v-236h-236v236h236zM502 1014v-236h-236v236h236zM502 758v-236h-236v236h236zM1014 246v-236h-236v236h236zM502 502v-236h-236v236h236zM758 246v-236h-236v236h236zM502 246v-236h-236v236h236z" />
<glyph unicode="&#xca;" d="M1014 2550v-236h-236v236h236zM1270 2294v-236h-236v236h236zM758 2294v-236h-236v236h236zM1270 1782v-236h-236v236h236zM1014 1782v-236h-236v236h236zM758 1782v-236h-236v236h236zM1270 502v-236h-236v236h236zM502 1526v-236h-236v236h236zM1014 1014v-236h-236 v236h236zM502 1270v-236h-236v236h236zM758 1014v-236h-236v236h236zM502 1014v-236h-236v236h236zM502 758v-236h-236v236h236zM1014 246v-236h-236v236h236zM502 502v-236h-236v236h236zM758 246v-236h-236v236h236zM502 246v-236h-236v236h236z" />
<glyph unicode="&#xcb;" d="M1270 2294v-236h-236v236h236zM758 2294v-236h-236v236h236zM1270 1782v-236h-236v236h236zM1014 1782v-236h-236v236h236zM758 1782v-236h-236v236h236zM1270 502v-236h-236v236h236zM502 1526v-236h-236v236h236zM1014 1014v-236h-236v236h236zM502 1270v-236h-236v236 h236zM758 1014v-236h-236v236h236zM502 1014v-236h-236v236h236zM502 758v-236h-236v236h236zM1014 246v-236h-236v236h236zM502 502v-236h-236v236h236zM758 246v-236h-236v236h236zM502 246v-236h-236v236h236z" />
<glyph unicode="&#xcc;" horiz-adv-x="1280" d="M502 2550v-236h-236v236h236zM758 2294v-236h-236v236h236zM1014 1782v-236h-236v236h236zM758 1782v-236h-236v236h236zM502 1782v-236h-236v236h236zM758 1526v-236h-236v236h236zM758 1270v-236h-236v236h236zM758 1014v-236h-236v236h236zM758 758v-236h-236v236h236 zM758 502v-236h-236v236h236zM1014 246v-236h-236v236h236zM758 246v-236h-236v236h236zM502 246v-236h-236v236h236z" />
<glyph unicode="&#xcd;" horiz-adv-x="1280" d="M1014 2550v-236h-236v236h236zM758 2294v-236h-236v236h236zM1014 1782v-236h-236v236h236zM758 1782v-236h-236v236h236zM502 1782v-236h-236v236h236zM758 1526v-236h-236v236h236zM758 1270v-236h-236v236h236zM758 1014v-236h-236v236h236zM758 758v-236h-236v236 h236zM758 502v-236h-236v236h236zM1014 246v-236h-236v236h236zM758 246v-236h-236v236h236zM502 246v-236h-236v236h236z" />
<glyph unicode="&#xce;" horiz-adv-x="1280" d="M758 2550v-236h-236v236h236zM1014 2294v-236h-236v236h236zM502 2294v-236h-236v236h236zM1014 1782v-236h-236v236h236zM758 1782v-236h-236v236h236zM502 1782v-236h-236v236h236zM758 1526v-236h-236v236h236zM758 1270v-236h-236v236h236zM758 1014v-236h-236v236 h236zM758 758v-236h-236v236h236zM758 502v-236h-236v236h236zM1014 246v-236h-236v236h236zM758 246v-236h-236v236h236zM502 246v-236h-236v236h236z" />
<glyph unicode="&#xcf;" horiz-adv-x="1280" d="M1014 2294v-236h-236v236h236zM502 2294v-236h-236v236h236zM1014 1782v-236h-236v236h236zM758 1782v-236h-236v236h236zM502 1782v-236h-236v236h236zM758 1526v-236h-236v236h236zM758 1270v-236h-236v236h236zM758 1014v-236h-236v236h236zM758 758v-236h-236v236 h236zM758 502v-236h-236v236h236zM1014 246v-236h-236v236h236zM758 246v-236h-236v236h236zM502 246v-236h-236v236h236z" />
<glyph unicode="&#xd0;" d="M758 1782v-236h-236v236h236zM1014 1782v-236h-236v236h236zM1270 1270v-236h-236v236h236zM502 1782v-236h-236v236h236zM1270 1014v-236h-236v236h236zM502 1526v-236h-236v236h236zM1270 758v-236h-236v236h236zM502 1270v-236h-236v236h236zM758 1014v-236h-236v236 h236zM502 1014v-236h-236v236h236zM1014 502v-236h-236v236h236zM246 1014v-236h-236v236h236zM502 758v-236h-236v236h236zM502 502v-236h-236v236h236zM758 246v-236h-236v236h236zM502 246v-236h-236v236h236zM1270 1526v-236h-236v236h236z" />
<glyph unicode="&#xd1;" d="M1270 2550v-236h-236v236h236zM758 2550v-236h-236v236h236zM1014 2294v-236h-236v236h236zM1270 1782v-236h-236v236h236zM502 2294v-236h-236v236h236zM1270 1526v-236h-236v236h236zM1270 1270v-236h-236v236h236zM502 1782v-236h-236v236h236zM1270 1014v-236h-236 v236h236zM502 1526v-236h-236v236h236zM758 1270v-236h-236v236h236zM1014 1014v-236h-236v236h236zM1270 758v-236h-236v236h236zM502 1270v-236h-236v236h236zM1270 502v-236h-236v236h236zM502 1014v-236h-236v236h236zM1270 246v-236h-236v236h236zM502 758v-236h-236 v236h236zM502 502v-236h-236v236h236zM502 246v-236h-236v236h236z" />
<glyph unicode="&#xd2;" d="M758 2550v-236h-236v236h236zM1014 2294v-236h-236v236h236zM1014 1782v-236h-236v236h236zM1270 1526v-236h-236v236h236zM758 1782v-236h-236v236h236zM1270 1270v-236h-236v236h236zM1270 1014v-236h-236v236h236zM502 1526v-236h-236v236h236zM1270 758v-236h-236 v236h236zM502 1270v-236h-236v236h236zM1270 502v-236h-236v236h236zM502 1014v-236h-236v236h236zM502 758v-236h-236v236h236zM1014 246v-236h-236v236h236zM502 502v-236h-236v236h236zM758 246v-236h-236v236h236zM1270 1782v-236h-236v236h236zM502 246v-236h-236v236 h236z" />
<glyph unicode="&#xd3;" d="M1014 2550v-236h-236v236h236zM758 2294v-236h-236v236h236zM1014 1782v-236h-236v236h236zM1270 1526v-236h-236v236h236zM758 1782v-236h-236v236h236zM1270 1270v-236h-236v236h236zM1270 1014v-236h-236v236h236zM502 1526v-236h-236v236h236zM1270 758v-236h-236 v236h236zM502 1270v-236h-236v236h236zM1270 502v-236h-236v236h236zM502 1014v-236h-236v236h236zM502 758v-236h-236v236h236zM1014 246v-236h-236v236h236zM502 502v-236h-236v236h236zM758 246v-236h-236v236h236zM1270 1782v-236h-236v236h236zM502 246v-236h-236v236 h236z" />
<glyph unicode="&#xd4;" d="M1014 2550v-236h-236v236h236zM1270 2294v-236h-236v236h236zM758 2294v-236h-236v236h236zM1014 1782v-236h-236v236h236zM1270 1526v-236h-236v236h236zM758 1782v-236h-236v236h236zM1270 1270v-236h-236v236h236zM1270 1014v-236h-236v236h236zM502 1526v-236h-236 v236h236zM1270 758v-236h-236v236h236zM502 1270v-236h-236v236h236zM1270 502v-236h-236v236h236zM502 1014v-236h-236v236h236zM502 758v-236h-236v236h236zM1014 246v-236h-236v236h236zM502 502v-236h-236v236h236zM758 246v-236h-236v236h236zM1270 1782v-236h-236v236 h236zM502 246v-236h-236v236h236z" />
<glyph unicode="&#xd5;" d="M1270 2550v-236h-236v236h236zM758 2550v-236h-236v236h236zM1014 2294v-236h-236v236h236zM502 2294v-236h-236v236h236zM1014 1782v-236h-236v236h236zM1270 1526v-236h-236v236h236zM758 1782v-236h-236v236h236zM1270 1270v-236h-236v236h236zM1270 1014v-236h-236 v236h236zM502 1526v-236h-236v236h236zM1270 758v-236h-236v236h236zM502 1270v-236h-236v236h236zM1270 502v-236h-236v236h236zM502 1014v-236h-236v236h236zM502 758v-236h-236v236h236zM1014 246v-236h-236v236h236zM502 502v-236h-236v236h236zM758 246v-236h-236v236 h236zM1270 1782v-236h-236v236h236zM502 246v-236h-236v236h236z" />
<glyph unicode="&#xd6;" d="M1270 2294v-236h-236v236h236zM758 2294v-236h-236v236h236zM1014 1782v-236h-236v236h236zM1270 1526v-236h-236v236h236zM758 1782v-236h-236v236h236zM1270 1270v-236h-236v236h236zM1270 1014v-236h-236v236h236zM502 1526v-236h-236v236h236zM1270 758v-236h-236 v236h236zM502 1270v-236h-236v236h236zM1270 502v-236h-236v236h236zM502 1014v-236h-236v236h236zM502 758v-236h-236v236h236zM1014 246v-236h-236v236h236zM502 502v-236h-236v236h236zM758 246v-236h-236v236h236zM1270 1782v-236h-236v236h236zM502 246v-236h-236v236 h236z" />
<glyph unicode="&#xd7;" d="M1270 1526v-236h-236v236h236zM1270 1270v-236h-236v236h236zM502 1526v-236h-236v236h236zM1014 1014v-236h-236v236h236zM1270 758v-236h-236v236h236zM502 1270v-236h-236v236h236zM758 1014v-236h-236v236h236zM1270 502v-236h-236v236h236zM502 758v-236h-236v236 h236zM502 502v-236h-236v236h236z" />
<glyph unicode="&#xd8;" d="M1014 1782v-236h-236v236h236zM1270 1526v-236h-236v236h236zM758 1782v-236h-236v236h236zM1270 1270v-236h-236v236h236zM1014 1270v-236h-236v236h236zM1270 1014v-236h-236v236h236zM502 1526v-236h-236v236h236zM1270 758v-236h-236v236h236zM502 1270v-236h-236 v236h236zM758 1014v-236h-236v236h236zM1270 502v-236h-236v236h236zM502 1014v-236h-236v236h236zM502 758v-236h-236v236h236zM1014 246v-236h-236v236h236zM502 502v-236h-236v236h236zM758 246v-236h-236v236h236zM1270 1782v-236h-236v236h236zM502 246v-236h-236v236 h236z" />
<glyph unicode="&#xd9;" d="M758 2550v-236h-236v236h236zM1014 2294v-236h-236v236h236zM1270 1782v-236h-236v236h236zM1270 1526v-236h-236v236h236zM1270 1270v-236h-236v236h236zM502 1782v-236h-236v236h236zM1270 1014v-236h-236v236h236zM502 1526v-236h-236v236h236zM1270 758v-236h-236 v236h236zM502 1270v-236h-236v236h236zM1270 502v-236h-236v236h236zM502 1014v-236h-236v236h236zM502 758v-236h-236v236h236zM1014 246v-236h-236v236h236zM502 502v-236h-236v236h236zM758 246v-236h-236v236h236zM502 246v-236h-236v236h236z" />
<glyph unicode="&#xda;" d="M1014 2550v-236h-236v236h236zM758 2294v-236h-236v236h236zM1270 1782v-236h-236v236h236zM1270 1526v-236h-236v236h236zM1270 1270v-236h-236v236h236zM502 1782v-236h-236v236h236zM1270 1014v-236h-236v236h236zM502 1526v-236h-236v236h236zM1270 758v-236h-236 v236h236zM502 1270v-236h-236v236h236zM1270 502v-236h-236v236h236zM502 1014v-236h-236v236h236zM502 758v-236h-236v236h236zM1014 246v-236h-236v236h236zM502 502v-236h-236v236h236zM758 246v-236h-236v236h236zM502 246v-236h-236v236h236z" />
<glyph unicode="&#xdb;" d="M1014 2550v-236h-236v236h236zM1270 2294v-236h-236v236h236zM758 2294v-236h-236v236h236zM1270 1782v-236h-236v236h236zM1270 1526v-236h-236v236h236zM1270 1270v-236h-236v236h236zM502 1782v-236h-236v236h236zM1270 1014v-236h-236v236h236zM502 1526v-236h-236 v236h236zM1270 758v-236h-236v236h236zM502 1270v-236h-236v236h236zM1270 502v-236h-236v236h236zM502 1014v-236h-236v236h236zM502 758v-236h-236v236h236zM1014 246v-236h-236v236h236zM502 502v-236h-236v236h236zM758 246v-236h-236v236h236zM502 246v-236h-236v236 h236z" />
<glyph unicode="&#xdc;" d="M1270 2294v-236h-236v236h236zM758 2294v-236h-236v236h236zM1270 1782v-236h-236v236h236zM1270 1526v-236h-236v236h236zM1270 1270v-236h-236v236h236zM502 1782v-236h-236v236h236zM1270 1014v-236h-236v236h236zM502 1526v-236h-236v236h236zM1270 758v-236h-236 v236h236zM502 1270v-236h-236v236h236zM1270 502v-236h-236v236h236zM502 1014v-236h-236v236h236zM502 758v-236h-236v236h236zM1014 246v-236h-236v236h236zM502 502v-236h-236v236h236zM758 246v-236h-236v236h236zM502 246v-236h-236v236h236z" />
<glyph unicode="&#xdd;" d="M1014 2550v-236h-236v236h236zM758 2294v-236h-236v236h236zM1270 1782v-236h-236v236h236zM1270 1526v-236h-236v236h236zM502 1782v-236h-236v236h236zM1014 1270v-236h-236v236h236zM502 1526v-236h-236v236h236zM502 1270v-236h-236v236h236zM758 1014v-236h-236v236 h236zM758 758v-236h-236v236h236zM758 502v-236h-236v236h236zM758 246v-236h-236v236h236z" />
<glyph unicode="&#xde;" d="M1014 1782v-236h-236v236h236zM1270 1526v-236h-236v236h236zM502 2038v-236h-236v236h236zM758 1782v-236h-236v236h236zM1270 1270v-236h-236v236h236zM502 1782v-236h-236v236h236zM502 1526v-236h-236v236h236zM1014 1014v-236h-236v236h236zM502 1270v-236h-236v236 h236zM758 1014v-236h-236v236h236zM502 1014v-236h-236v236h236zM502 758v-236h-236v236h236zM502 502v-236h-236v236h236zM502 246v-236h-236v236h236zM1270 1782v-236h-236v236h236z" />
<glyph unicode="&#xdf;" horiz-adv-x="1792" d="M1270 2038v-236h-236v236h236zM1014 2038v-236h-236v236h236zM1270 1782v-236h-236v236h236zM758 2038v-236h-236v236h236zM1014 1526v-236h-236v236h236zM502 1782v-236h-236v236h236zM1014 1270v-236h-236v236h236zM1270 1014v-236h-236v236h236zM1526 758v-236h-236 v236h236zM502 1526v-236h-236v236h236zM1526 502v-236h-236v236h236zM502 1270v-236h-236v236h236zM502 1014v-236h-236v236h236zM1270 246v-236h-236v236h236zM502 758v-236h-236v236h236zM1014 246v-236h-236v236h236zM502 502v-236h-236v236h236zM502 246v-236h-236v236 h236zM502 -10v-236h-236v236h236zM246 -266v-236h-236v236h236zM-10 -266v-236h-236v236h236z" />
<glyph unicode="&#xe0;" d="M758 2294v-236h-236v236h236zM1014 2038v-236h-236v236h236zM1270 1270v-236h-236v236h236zM1014 1270v-236h-236v236h236zM1270 1014v-236h-236v236h236zM758 1270v-236h-236v236h236zM1270 758v-236h-236v236h236zM1270 502v-236h-236v236h236zM502 1014v-236h-236v236 h236zM1014 502v-236h-236v236h236zM1270 246v-236h-236v236h236zM502 758v-236h-236v236h236zM502 502v-236h-236v236h236zM758 246v-236h-236v236h236zM502 246v-236h-236v236h236z" />
<glyph unicode="&#xe1;" d="M1270 2294v-236h-236v236h236zM1014 2038v-236h-236v236h236zM1270 1270v-236h-236v236h236zM1014 1270v-236h-236v236h236zM1270 1014v-236h-236v236h236zM758 1270v-236h-236v236h236zM1270 758v-236h-236v236h236zM1270 502v-236h-236v236h236zM502 1014v-236h-236 v236h236zM1014 502v-236h-236v236h236zM1270 246v-236h-236v236h236zM502 758v-236h-236v236h236zM502 502v-236h-236v236h236zM758 246v-236h-236v236h236zM502 246v-236h-236v236h236z" />
<glyph unicode="&#xe2;" d="M1014 2294v-236h-236v236h236zM1270 2038v-236h-236v236h236zM758 2038v-236h-236v236h236zM1270 1270v-236h-236v236h236zM1014 1270v-236h-236v236h236zM1270 1014v-236h-236v236h236zM758 1270v-236h-236v236h236zM1270 758v-236h-236v236h236zM1270 502v-236h-236 v236h236zM502 1014v-236h-236v236h236zM1014 502v-236h-236v236h236zM1270 246v-236h-236v236h236zM502 758v-236h-236v236h236zM502 502v-236h-236v236h236zM758 246v-236h-236v236h236zM502 246v-236h-236v236h236z" />
<glyph unicode="&#xe3;" d="M1270 2294v-236h-236v236h236zM758 2294v-236h-236v236h236zM1014 2038v-236h-236v236h236zM502 2038v-236h-236v236h236zM1270 1270v-236h-236v236h236zM1014 1270v-236h-236v236h236zM1270 1014v-236h-236v236h236zM758 1270v-236h-236v236h236zM1270 758v-236h-236 v236h236zM1270 502v-236h-236v236h236zM502 1014v-236h-236v236h236zM1014 502v-236h-236v236h236zM1270 246v-236h-236v236h236zM502 758v-236h-236v236h236zM502 502v-236h-236v236h236zM758 246v-236h-236v236h236zM502 246v-236h-236v236h236z" />
<glyph unicode="&#xe4;" d="M1270 2038v-236h-236v236h236zM758 2038v-236h-236v236h236zM1270 1270v-236h-236v236h236zM1014 1270v-236h-236v236h236zM1270 1014v-236h-236v236h236zM758 1270v-236h-236v236h236zM1270 758v-236h-236v236h236zM1270 502v-236h-236v236h236zM502 1014v-236h-236v236 h236zM1014 502v-236h-236v236h236zM1270 246v-236h-236v236h236zM502 758v-236h-236v236h236zM502 502v-236h-236v236h236zM758 246v-236h-236v236h236zM502 246v-236h-236v236h236z" />
<glyph unicode="&#xe5;" d="M1014 2294v-236h-236v236h236zM1270 2038v-236h-236v236h236zM758 2038v-236h-236v236h236zM1014 1782v-236h-236v236h236zM1270 1270v-236h-236v236h236zM1014 1270v-236h-236v236h236zM1270 1014v-236h-236v236h236zM758 1270v-236h-236v236h236zM1270 758v-236h-236 v236h236zM1270 502v-236h-236v236h236zM502 1014v-236h-236v236h236zM1014 502v-236h-236v236h236zM1270 246v-236h-236v236h236zM502 758v-236h-236v236h236zM502 502v-236h-236v236h236zM758 246v-236h-236v236h236zM502 246v-236h-236v236h236z" />
<glyph unicode="&#xe6;" horiz-adv-x="2304" d="M2038 1270v-236h-236v236h236zM1782 1270v-236h-236v236h236zM2038 1014v-236h-236v236h236zM1526 1270v-236h-236v236h236zM1270 1270v-236h-236v236h236zM1782 758v-236h-236v236h236zM1014 1270v-236h-236v236h236zM1270 1014v-236h-236v236h236zM1526 758v-236h-236 v236h236zM758 1270v-236h-236v236h236zM1270 758v-236h-236v236h236zM1782 246v-236h-236v236h236zM1270 502v-236h-236v236h236zM1526 246v-236h-236v236h236zM502 1014v-236h-236v236h236zM1014 502v-236h-236v236h236zM1270 246v-236h-236v236h236zM502 758v-236h-236 v236h236zM502 502v-236h-236v236h236zM758 246v-236h-236v236h236zM502 246v-236h-236v236h236z" />
<glyph unicode="&#xe7;" horiz-adv-x="1280" d="M1270 1270v-236h-236v236h236zM1014 1270v-236h-236v236h236zM758 1270v-236h-236v236h236zM502 1014v-236h-236v236h236zM502 758v-236h-236v236h236zM1014 246v-236h-236v236h236zM1014 -10v-236h-236v236h236zM502 502v-236h-236v236h236zM758 246v-236h-236v236h236z M502 246v-236h-236v236h236zM758 -266v-236h-236v236h236zM502 -266v-236h-236v236h236z" />
<glyph unicode="&#xe8;" d="M758 2294v-236h-236v236h236zM1014 2038v-236h-236v236h236zM1270 1270v-236h-236v236h236zM1014 1270v-236h-236v236h236zM1270 1014v-236h-236v236h236zM758 1270v-236h-236v236h236zM1014 758v-236h-236v236h236zM502 1014v-236h-236v236h236zM758 758v-236h-236v236 h236zM502 758v-236h-236v236h236zM1014 246v-236h-236v236h236zM502 502v-236h-236v236h236zM758 246v-236h-236v236h236zM502 246v-236h-236v236h236z" />
<glyph unicode="&#xe9;" d="M1270 2294v-236h-236v236h236zM1014 2038v-236h-236v236h236zM1270 1270v-236h-236v236h236zM1014 1270v-236h-236v236h236zM1270 1014v-236h-236v236h236zM758 1270v-236h-236v236h236zM1014 758v-236h-236v236h236zM502 1014v-236h-236v236h236zM758 758v-236h-236v236 h236zM502 758v-236h-236v236h236zM1014 246v-236h-236v236h236zM502 502v-236h-236v236h236zM758 246v-236h-236v236h236zM502 246v-236h-236v236h236z" />
<glyph unicode="&#xea;" d="M1014 2294v-236h-236v236h236zM1270 2038v-236h-236v236h236zM758 2038v-236h-236v236h236zM1270 1270v-236h-236v236h236zM1014 1270v-236h-236v236h236zM1270 1014v-236h-236v236h236zM758 1270v-236h-236v236h236zM1014 758v-236h-236v236h236zM502 1014v-236h-236 v236h236zM758 758v-236h-236v236h236zM502 758v-236h-236v236h236zM1014 246v-236h-236v236h236zM502 502v-236h-236v236h236zM758 246v-236h-236v236h236zM502 246v-236h-236v236h236z" />
<glyph unicode="&#xeb;" d="M1270 2038v-236h-236v236h236zM758 2038v-236h-236v236h236zM1270 1270v-236h-236v236h236zM1014 1270v-236h-236v236h236zM1270 1014v-236h-236v236h236zM758 1270v-236h-236v236h236zM1014 758v-236h-236v236h236zM502 1014v-236h-236v236h236zM758 758v-236h-236v236 h236zM502 758v-236h-236v236h236zM1014 246v-236h-236v236h236zM502 502v-236h-236v236h236zM758 246v-236h-236v236h236zM502 246v-236h-236v236h236z" />
<glyph unicode="&#xec;" horiz-adv-x="768" d="M246 2294v-236h-236v236h236zM502 2038v-236h-236v236h236zM502 1270v-236h-236v236h236zM502 1014v-236h-236v236h236zM502 758v-236h-236v236h236zM502 502v-236h-236v236h236zM502 246v-236h-236v236h236z" />
<glyph unicode="&#xed;" horiz-adv-x="768" d="M758 2294v-236h-236v236h236zM502 2038v-236h-236v236h236zM502 1270v-236h-236v236h236zM502 1014v-236h-236v236h236zM502 758v-236h-236v236h236zM502 502v-236h-236v236h236zM502 246v-236h-236v236h236z" />
<glyph unicode="&#xee;" horiz-adv-x="768" d="M502 2294v-236h-236v236h236zM758 2038v-236h-236v236h236zM246 2038v-236h-236v236h236zM502 1270v-236h-236v236h236zM502 1014v-236h-236v236h236zM502 758v-236h-236v236h236zM502 502v-236h-236v236h236zM502 246v-236h-236v236h236z" />
<glyph unicode="&#xef;" horiz-adv-x="768" d="M758 2038v-236h-236v236h236zM246 2038v-236h-236v236h236zM502 1270v-236h-236v236h236zM502 1014v-236h-236v236h236zM502 758v-236h-236v236h236zM502 502v-236h-236v236h236zM502 246v-236h-236v236h236z" />
<glyph unicode="&#xf0;" d="M1014 2038v-236h-236v236h236zM502 2038v-236h-236v236h236zM758 1782v-236h-236v236h236zM1014 1526v-236h-236v236h236zM1270 1270v-236h-236v236h236zM1270 1014v-236h-236v236h236zM502 1526v-236h-236v236h236zM1014 1014v-236h-236v236h236zM1270 758v-236h-236 v236h236zM758 1014v-236h-236v236h236zM1270 502v-236h-236v236h236zM502 758v-236h-236v236h236zM1014 246v-236h-236v236h236zM502 502v-236h-236v236h236zM758 246v-236h-236v236h236zM502 246v-236h-236v236h236z" />
<glyph unicode="&#xf1;" d="M1270 2294v-236h-236v236h236zM758 2294v-236h-236v236h236zM1014 2038v-236h-236v236h236zM502 2038v-236h-236v236h236zM1270 1270v-236h-236v236h236zM1014 1270v-236h-236v236h236zM1270 1014v-236h-236v236h236zM1270 758v-236h-236v236h236zM502 1270v-236h-236 v236h236zM758 1014v-236h-236v236h236zM1270 502v-236h-236v236h236zM502 1014v-236h-236v236h236zM1270 246v-236h-236v236h236zM502 758v-236h-236v236h236zM502 502v-236h-236v236h236zM502 246v-236h-236v236h236z" />
<glyph unicode="&#xf2;" d="M758 2294v-236h-236v236h236zM1014 2038v-236h-236v236h236zM1270 1270v-236h-236v236h236zM1014 1270v-236h-236v236h236zM1270 1014v-236h-236v236h236zM758 1270v-236h-236v236h236zM1270 758v-236h-236v236h236zM1270 502v-236h-236v236h236zM502 1014v-236h-236v236 h236zM502 758v-236h-236v236h236zM1014 246v-236h-236v236h236zM502 502v-236h-236v236h236zM758 246v-236h-236v236h236zM502 246v-236h-236v236h236z" />
<glyph unicode="&#xf3;" d="M1270 2294v-236h-236v236h236zM1014 2038v-236h-236v236h236zM1270 1270v-236h-236v236h236zM1014 1270v-236h-236v236h236zM1270 1014v-236h-236v236h236zM758 1270v-236h-236v236h236zM1270 758v-236h-236v236h236zM1270 502v-236h-236v236h236zM502 1014v-236h-236 v236h236zM502 758v-236h-236v236h236zM1014 246v-236h-236v236h236zM502 502v-236h-236v236h236zM758 246v-236h-236v236h236zM502 246v-236h-236v236h236z" />
<glyph unicode="&#xf4;" d="M1014 2294v-236h-236v236h236zM1270 2038v-236h-236v236h236zM758 2038v-236h-236v236h236zM1270 1270v-236h-236v236h236zM1014 1270v-236h-236v236h236zM1270 1014v-236h-236v236h236zM758 1270v-236h-236v236h236zM1270 758v-236h-236v236h236zM1270 502v-236h-236 v236h236zM502 1014v-236h-236v236h236zM502 758v-236h-236v236h236zM1014 246v-236h-236v236h236zM502 502v-236h-236v236h236zM758 246v-236h-236v236h236zM502 246v-236h-236v236h236z" />
<glyph unicode="&#xf5;" d="M1270 2294v-236h-236v236h236zM758 2294v-236h-236v236h236zM1014 2038v-236h-236v236h236zM502 2038v-236h-236v236h236zM1270 1270v-236h-236v236h236zM1014 1270v-236h-236v236h236zM1270 1014v-236h-236v236h236zM758 1270v-236h-236v236h236zM1270 758v-236h-236 v236h236zM1270 502v-236h-236v236h236zM502 1014v-236h-236v236h236zM502 758v-236h-236v236h236zM1014 246v-236h-236v236h236zM502 502v-236h-236v236h236zM758 246v-236h-236v236h236zM502 246v-236h-236v236h236z" />
<glyph unicode="&#xf6;" d="M1270 2038v-236h-236v236h236zM758 2038v-236h-236v236h236zM1270 1270v-236h-236v236h236zM1014 1270v-236h-236v236h236zM1270 1014v-236h-236v236h236zM758 1270v-236h-236v236h236zM1270 758v-236h-236v236h236zM1270 502v-236h-236v236h236zM502 1014v-236h-236v236 h236zM502 758v-236h-236v236h236zM1014 246v-236h-236v236h236zM502 502v-236h-236v236h236zM758 246v-236h-236v236h236zM502 246v-236h-236v236h236z" />
<glyph unicode="&#xf7;" d="M1014 1526v-236h-236v236h236zM1526 1014v-236h-236v236h236zM1270 1014v-236h-236v236h236zM1014 1014v-236h-236v236h236zM758 1014v-236h-236v236h236zM502 1014v-236h-236v236h236zM1014 502v-236h-236v236h236z" />
<glyph unicode="&#xf8;" d="M1270 1270v-236h-236v236h236zM1014 1270v-236h-236v236h236zM1270 1014v-236h-236v236h236zM758 1270v-236h-236v236h236zM1014 1014v-236h-236v236h236zM1270 758v-236h-236v236h236zM1270 502v-236h-236v236h236zM502 1014v-236h-236v236h236zM758 758v-236h-236v236 h236zM502 758v-236h-236v236h236zM1014 246v-236h-236v236h236zM502 502v-236h-236v236h236zM758 246v-236h-236v236h236zM502 246v-236h-236v236h236z" />
<glyph unicode="&#xf9;" d="M758 2294v-236h-236v236h236zM1014 2038v-236h-236v236h236zM1270 1270v-236h-236v236h236zM1270 1014v-236h-236v236h236zM1270 758v-236h-236v236h236zM502 1270v-236h-236v236h236zM1270 502v-236h-236v236h236zM502 1014v-236h-236v236h236zM1014 502v-236h-236v236 h236zM1270 246v-236h-236v236h236zM502 758v-236h-236v236h236zM502 502v-236h-236v236h236zM758 246v-236h-236v236h236zM502 246v-236h-236v236h236z" />
<glyph unicode="&#xfa;" d="M1270 2294v-236h-236v236h236zM1014 2038v-236h-236v236h236zM1270 1270v-236h-236v236h236zM1270 1014v-236h-236v236h236zM1270 758v-236h-236v236h236zM502 1270v-236h-236v236h236zM1270 502v-236h-236v236h236zM502 1014v-236h-236v236h236zM1014 502v-236h-236v236 h236zM1270 246v-236h-236v236h236zM502 758v-236h-236v236h236zM502 502v-236h-236v236h236zM758 246v-236h-236v236h236zM502 246v-236h-236v236h236z" />
<glyph unicode="&#xfb;" d="M1014 2294v-236h-236v236h236zM1270 2038v-236h-236v236h236zM758 2038v-236h-236v236h236zM1270 1270v-236h-236v236h236zM1270 1014v-236h-236v236h236zM1270 758v-236h-236v236h236zM502 1270v-236h-236v236h236zM1270 502v-236h-236v236h236zM502 1014v-236h-236v236 h236zM1014 502v-236h-236v236h236zM1270 246v-236h-236v236h236zM502 758v-236h-236v236h236zM502 502v-236h-236v236h236zM758 246v-236h-236v236h236zM502 246v-236h-236v236h236z" />
<glyph unicode="&#xfc;" d="M1270 2038v-236h-236v236h236zM758 2038v-236h-236v236h236zM1270 1270v-236h-236v236h236zM1270 1014v-236h-236v236h236zM1270 758v-236h-236v236h236zM502 1270v-236h-236v236h236zM1270 502v-236h-236v236h236zM502 1014v-236h-236v236h236zM1014 502v-236h-236v236 h236zM1270 246v-236h-236v236h236zM502 758v-236h-236v236h236zM502 502v-236h-236v236h236zM758 246v-236h-236v236h236zM502 246v-236h-236v236h236z" />
<glyph unicode="&#xfd;" d="M1270 1270v-236h-236v236h236zM1270 1014v-236h-236v236h236zM1270 758v-236h-236v236h236zM502 1270v-236h-236v236h236zM1270 502v-236h-236v236h236zM502 1014v-236h-236v236h236zM1014 502v-236h-236v236h236zM1270 246v-236h-236v236h236zM502 758v-236h-236v236 h236zM1270 -10v-236h-236v236h236zM502 502v-236h-236v236h236zM758 246v-236h-236v236h236zM502 246v-236h-236v236h236zM1014 -266v-236h-236v236h236zM758 -266v-236h-236v236h236zM502 -266v-236h-236v236h236zM1270 2294v-236h-236v236h236zM1014 2038v-236h-236v236 h236z" />
<glyph unicode="&#xfe;" d="M1270 1270v-236h-236v236h236zM502 1782v-236h-236v236h236zM1014 1270v-236h-236v236h236zM1270 1014v-236h-236v236h236zM502 1526v-236h-236v236h236zM1270 758v-236h-236v236h236zM502 1270v-236h-236v236h236zM758 1014v-236h-236v236h236zM1270 502v-236h-236v236 h236zM502 1014v-236h-236v236h236zM502 758v-236h-236v236h236zM1014 246v-236h-236v236h236zM502 502v-236h-236v236h236zM758 246v-236h-236v236h236zM502 246v-236h-236v236h236zM502 -10v-236h-236v236h236zM502 -266v-236h-236v236h236z" />
<glyph unicode="&#xff;" d="M1270 2038v-236h-236v236h236zM758 2038v-236h-236v236h236zM1270 1270v-236h-236v236h236zM1270 1014v-236h-236v236h236zM1270 758v-236h-236v236h236zM502 1270v-236h-236v236h236zM1270 502v-236h-236v236h236zM502 1014v-236h-236v236h236zM1014 502v-236h-236v236 h236zM1270 246v-236h-236v236h236zM502 758v-236h-236v236h236zM1270 -10v-236h-236v236h236zM502 502v-236h-236v236h236zM758 246v-236h-236v236h236zM502 246v-236h-236v236h236zM1014 -266v-236h-236v236h236zM758 -266v-236h-236v236h236zM502 -266v-236h-236v236h236z " />
<glyph unicode="&#x152;" horiz-adv-x="2304" d="M2038 1782v-236h-236v236h236zM1782 1782v-236h-236v236h236zM1526 1782v-236h-236v236h236zM1014 1782v-236h-236v236h236zM1270 1526v-236h-236v236h236zM1782 1014v-236h-236v236h236zM758 1782v-236h-236v236h236zM1270 1270v-236h-236v236h236zM1526 1014v-236h-236 v236h236zM1270 1014v-236h-236v236h236zM2038 502v-236h-236v236h236zM502 1526v-236h-236v236h236zM1270 758v-236h-236v236h236zM1782 246v-236h-236v236h236zM502 1270v-236h-236v236h236zM1270 502v-236h-236v236h236zM1526 246v-236h-236v236h236zM502 1014v-236h-236 v236h236zM502 758v-236h-236v236h236zM1014 246v-236h-236v236h236zM502 502v-236h-236v236h236zM758 246v-236h-236v236h236zM502 246v-236h-236v236h236z" />
<glyph unicode="&#x153;" horiz-adv-x="2304" d="M2038 1270v-236h-236v236h236zM1782 1270v-236h-236v236h236zM2038 1014v-236h-236v236h236zM1526 1270v-236h-236v236h236zM1270 1270v-236h-236v236h236zM1782 758v-236h-236v236h236zM1014 1270v-236h-236v236h236zM1270 1014v-236h-236v236h236zM1526 758v-236h-236 v236h236zM758 1270v-236h-236v236h236zM1270 758v-236h-236v236h236zM1782 246v-236h-236v236h236zM1270 502v-236h-236v236h236zM1526 246v-236h-236v236h236zM502 1014v-236h-236v236h236zM502 758v-236h-236v236h236zM1014 246v-236h-236v236h236zM502 502v-236h-236v236 h236zM758 246v-236h-236v236h236zM502 246v-236h-236v236h236z" />
<glyph unicode="&#x178;" d="M1270 2294v-236h-236v236h236zM758 2294v-236h-236v236h236zM1270 1782v-236h-236v236h236zM1270 1526v-236h-236v236h236zM502 1782v-236h-236v236h236zM1014 1270v-236h-236v236h236zM502 1526v-236h-236v236h236zM502 1270v-236h-236v236h236zM758 1014v-236h-236v236 h236zM758 758v-236h-236v236h236zM758 502v-236h-236v236h236zM758 246v-236h-236v236h236z" />
<glyph unicode="&#x2c6;" horiz-adv-x="1280" d="M758 2294v-236h-236v236h236zM1014 2038v-236h-236v236h236zM502 2038v-236h-236v236h236z" />
<glyph unicode="&#x2dc;" d="M1270 2294v-236h-236v236h236zM758 2294v-236h-236v236h236zM1014 2038v-236h-236v236h236zM502 2038v-236h-236v236h236z" />
<glyph unicode="&#x2000;" horiz-adv-x="1273" />
<glyph unicode="&#x2001;" horiz-adv-x="2549" />
<glyph unicode="&#x2002;" horiz-adv-x="1273" />
<glyph unicode="&#x2003;" horiz-adv-x="2549" />
<glyph unicode="&#x2004;" horiz-adv-x="849" />
<glyph unicode="&#x2005;" horiz-adv-x="636" />
<glyph unicode="&#x2006;" horiz-adv-x="423" />
<glyph unicode="&#x2007;" horiz-adv-x="423" />
<glyph unicode="&#x2008;" horiz-adv-x="317" />
<glyph unicode="&#x2009;" horiz-adv-x="509" />
<glyph unicode="&#x200a;" horiz-adv-x="141" />
<glyph unicode="&#x2010;" d="M1270 758v-236h-236v236h236zM1014 758v-236h-236v236h236zM758 758v-236h-236v236h236zM502 758v-236h-236v236h236z" />
<glyph unicode="&#x2011;" d="M1270 758v-236h-236v236h236zM1014 758v-236h-236v236h236zM758 758v-236h-236v236h236zM502 758v-236h-236v236h236z" />
<glyph unicode="&#x2012;" d="M1270 758v-236h-236v236h236zM1014 758v-236h-236v236h236zM758 758v-236h-236v236h236zM502 758v-236h-236v236h236z" />
<glyph unicode="&#x2013;" horiz-adv-x="2048" d="M1526 758v-236h-236v236h236zM1270 758v-236h-236v236h236zM1014 758v-236h-236v236h236zM758 758v-236h-236v236h236zM502 758v-236h-236v236h236zM1782 758v-236h-236v236h236z" />
<glyph unicode="&#x2014;" horiz-adv-x="2816" d="M2294 758v-236h-236v236h236zM2038 758v-236h-236v236h236zM1782 758v-236h-236v236h236zM1526 758v-236h-236v236h236zM1270 758v-236h-236v236h236zM1014 758v-236h-236v236h236zM758 758v-236h-236v236h236zM502 758v-236h-236v236h236zM246 758v-236h-236v236h236z M2550 758v-236h-236v236h236zM2806 758v-236h-236v236h236z" />
<glyph unicode="&#x2018;" horiz-adv-x="1024" d="M758 2038v-236h-236v236h236zM502 1782v-236h-236v236h236zM502 1526v-236h-236v236h236z" />
<glyph unicode="&#x2019;" horiz-adv-x="1024" d="M758 2038v-236h-236v236h236zM758 1782v-236h-236v236h236zM502 1526v-236h-236v236h236z" />
<glyph unicode="&#x201a;" horiz-adv-x="1024" d="M758 502v-236h-236v236h236zM758 246v-236h-236v236h236zM502 -10v-236h-236v236h236z" />
<glyph unicode="&#x201c;" d="M1270 2038v-236h-236v236h236zM758 2038v-236h-236v236h236zM1014 1782v-236h-236v236h236zM1014 1526v-236h-236v236h236zM502 1782v-236h-236v236h236zM502 1526v-236h-236v236h236z" />
<glyph unicode="&#x201d;" d="M1270 2038v-236h-236v236h236zM1270 1782v-236h-236v236h236zM758 2038v-236h-236v236h236zM758 1782v-236h-236v236h236zM1014 1526v-236h-236v236h236zM502 1526v-236h-236v236h236z" />
<glyph unicode="&#x201e;" d="M1270 502v-236h-236v236h236zM1270 246v-236h-236v236h236zM758 502v-236h-236v236h236zM758 246v-236h-236v236h236zM1014 -10v-236h-236v236h236zM502 -10v-236h-236v236h236z" />
<glyph unicode="&#x2022;" horiz-adv-x="1792" d="M1270 1014v-236h-236v236h236zM1014 1014v-236h-236v236h236zM1270 758v-236h-236v236h236zM1014 758v-236h-236v236h236zM1270 502v-236h-236v236h236zM1014 502v-236h-236v236h236zM758 502v-236h-236v236h236zM758 758v-236h-236v236h236zM758 1014v-236h-236v236h236 z" />
<glyph unicode="&#x2026;" horiz-adv-x="2560" d="M2294 502v-236h-236v236h236zM2294 246v-236h-236v236h236zM1526 502v-236h-236v236h236zM1526 246v-236h-236v236h236zM758 502v-236h-236v236h236zM758 246v-236h-236v236h236z" />
<glyph unicode="&#x202f;" horiz-adv-x="509" />
<glyph unicode="&#x2039;" horiz-adv-x="1280" d="M1014 1270v-236h-236v236h236zM758 1014v-236h-236v236h236zM502 758v-236h-236v236h236zM502 502v-236h-236v236h236zM758 246v-236h-236v236h236z" />
<glyph unicode="&#x203a;" horiz-adv-x="1280" d="M758 1270v-236h-236v236h236zM1014 1014v-236h-236v236h236zM1014 758v-236h-236v236h236zM758 502v-236h-236v236h236zM502 246v-236h-236v236h236z" />
<glyph unicode="&#x205f;" horiz-adv-x="636" />
<glyph unicode="&#x20ac;" d="M1270 1782v-236h-236v236h236zM1014 1782v-236h-236v236h236zM758 1526v-236h-236v236h236zM1270 1014v-236h-236v236h236zM758 1270v-236h-236v236h236zM1014 1014v-236h-236v236h236zM758 1014v-236h-236v236h236zM246 1014v-236h-236v236h236zM758 758v-236h-236v236 h236zM1270 246v-236h-236v236h236zM758 502v-236h-236v236h236zM1014 246v-236h-236v236h236zM502 1014v-236h-236v236h236zM1526 1782v-236h-236v236h236zM758 246v-236h-236v236h236z" />
<glyph unicode="&#x2122;" horiz-adv-x="2816" d="M2550 1782v-236h-236v236h236zM2550 1526v-236h-236v236h236zM2294 1526v-236h-236v236h236zM2550 1270v-236h-236v236h236zM2550 1014v-236h-236v236h236zM1526 1782v-236h-236v236h236zM1782 1526v-236h-236v236h236zM2038 1270v-236h-236v236h236zM1526 1526v-236 h-236v236h236zM1014 1782v-236h-236v236h236zM1526 1270v-236h-236v236h236zM758 1782v-236h-236v236h236zM1526 1014v-236h-236v236h236zM502 1782v-236h-236v236h236zM758 1526v-236h-236v236h236zM758 1270v-236h-236v236h236zM758 1014v-236h-236v236h236z" />
<glyph unicode="&#xe000;" horiz-adv-x="1270" d="M0 1270h1270v-1270h-1270v1270z" />
<glyph unicode="&#xfb01;" d="M1270 2038v-236h-236v236h236zM1014 2038v-236h-236v236h236zM758 2038v-236h-236v236h236zM1270 1270v-236h-236v236h236zM502 1782v-236h-236v236h236zM1014 1270v-236h-236v236h236zM1270 1014v-236h-236v236h236zM502 1526v-236h-236v236h236zM758 1270v-236h-236 v236h236zM1270 758v-236h-236v236h236zM502 1270v-236h-236v236h236zM1270 502v-236h-236v236h236zM246 1270v-236h-236v236h236zM502 1014v-236h-236v236h236zM1270 246v-236h-236v236h236zM502 758v-236h-236v236h236zM502 502v-236h-236v236h236zM502 246v-236h-236v236 h236zM502 -10v-236h-236v236h236zM246 -266v-236h-236v236h236zM-10 -266v-236h-236v236h236z" />
<glyph unicode="&#xfb02;" d="M1270 2038v-236h-236v236h236zM1014 2038v-236h-236v236h236zM1270 1782v-236h-236v236h236zM758 2038v-236h-236v236h236zM1270 1526v-236h-236v236h236zM1270 1270v-236h-236v236h236zM502 1782v-236h-236v236h236zM1270 1014v-236h-236v236h236zM502 1526v-236h-236 v236h236zM758 1270v-236h-236v236h236zM1270 758v-236h-236v236h236zM502 1270v-236h-236v236h236zM1270 502v-236h-236v236h236zM246 1270v-236h-236v236h236zM502 1014v-236h-236v236h236zM1270 246v-236h-236v236h236zM502 758v-236h-236v236h236zM502 502v-236h-236v236 h236zM502 246v-236h-236v236h236zM502 -10v-236h-236v236h236zM246 -266v-236h-236v236h236zM-10 -266v-236h-236v236h236zM1270 2294v-236h-236v236h236z" />
<glyph unicode="&#xfb03;" horiz-adv-x="2304" d="M2038 2038v-236h-236v236h236zM2038 1270v-236h-236v236h236zM2038 1014v-236h-236v236h236zM2038 758v-236h-236v236h236zM2038 502v-236h-236v236h236zM2038 246v-236h-236v236h236zM1782 2038v-236h-236v236h236zM1526 2038v-236h-236v236h236zM1270 1782v-236h-236 v236h236zM1270 1526v-236h-236v236h236zM1526 1270v-236h-236v236h236zM1270 1270v-236h-236v236h236zM1014 1270v-236h-236v236h236zM1270 1014v-236h-236v236h236zM1270 758v-236h-236v236h236zM1270 502v-236h-236v236h236zM1270 246v-236h-236v236h236zM1270 -10v-236 h-236v236h236zM1014 -266v-236h-236v236h236zM758 -266v-236h-236v236h236zM1014 2038v-236h-236v236h236zM758 2038v-236h-236v236h236zM502 1782v-236h-236v236h236zM502 1526v-236h-236v236h236zM758 1270v-236h-236v236h236zM502 1270v-236h-236v236h236zM246 1270v-236 h-236v236h236zM502 1014v-236h-236v236h236zM502 758v-236h-236v236h236zM502 502v-236h-236v236h236zM502 246v-236h-236v236h236zM502 -10v-236h-236v236h236zM246 -266v-236h-236v236h236zM-10 -266v-236h-236v236h236z" />
<glyph unicode="&#xfb04;" horiz-adv-x="2304" d="M2038 2038v-236h-236v236h236zM2038 1782v-236h-236v236h236zM2038 1526v-236h-236v236h236zM2038 1270v-236h-236v236h236zM2038 1014v-236h-236v236h236zM2038 758v-236h-236v236h236zM2038 502v-236h-236v236h236zM2038 246v-236h-236v236h236zM1782 2038v-236h-236 v236h236zM1526 2038v-236h-236v236h236zM1270 1782v-236h-236v236h236zM1270 1526v-236h-236v236h236zM1526 1270v-236h-236v236h236zM1270 1270v-236h-236v236h236zM1014 1270v-236h-236v236h236zM1270 1014v-236h-236v236h236zM1270 758v-236h-236v236h236zM1270 502v-236 h-236v236h236zM1270 246v-236h-236v236h236zM1270 -10v-236h-236v236h236zM1014 -266v-236h-236v236h236zM758 -266v-236h-236v236h236zM1014 2038v-236h-236v236h236zM758 2038v-236h-236v236h236zM502 1782v-236h-236v236h236zM502 1526v-236h-236v236h236zM758 1270v-236 h-236v236h236zM502 1270v-236h-236v236h236zM246 1270v-236h-236v236h236zM502 1014v-236h-236v236h236zM502 758v-236h-236v236h236zM502 502v-236h-236v236h236zM502 246v-236h-236v236h236zM502 -10v-236h-236v236h236zM246 -266v-236h-236v236h236zM-10 -266v-236h-236 v236h236z" />
</font>
</defs>
</svg>
