<?xml version="1.0" standalone="no"?>
<!DOCTYPE svg PUBLIC "-//W3C//DTD SVG 1.1//EN" "http://www.w3.org/Graphics/SVG/1.1/DTD/svg11.dtd" >
<svg xmlns="http://www.w3.org/2000/svg">
<metadata>
This is a custom SVG webfont generated by Font Squirrel.
</metadata>
<defs>
<font id="webfontbfrlsWzs" horiz-adv-x="1000" >
<font-face units-per-em="1000" ascent="800" descent="-200" />
<missing-glyph horiz-adv-x="500" />
<glyph unicode=" "  horiz-adv-x="500" />
<glyph unicode="&#x09;" horiz-adv-x="500" />
<glyph unicode="&#xa0;" horiz-adv-x="500" />
<glyph unicode="A" d="M125 747v-243h493v243h-493zM125 -4h-132v883h757v-883h-132v376h-493v-376z" />
<glyph unicode="B" d="M125 372v-243h493v243h-493zM125 747v-243h493v243h-493zM-7 -4v883h757v-382h-125v-118h125v-383h-757z" />
<glyph unicode="C" d="M-7 -4v883h757v-132h-625v-618h625v-133h-757z" />
<glyph unicode="D" d="M125 129h493v618h-493v-618zM625 -4h-632v883h632v-125h125v-632h-125v-126z" />
<glyph unicode="E" d="M-7 879h757v-132h-625v-243h500v-132h-500v-243h625v-133h-757v883z" />
<glyph unicode="F" d="M125 -4h-132v883h757v-132h-625v-243h500v-132h-500v-376z" />
<glyph unicode="G" d="M-7 -4v883h757v-132h-625v-618h493v243h-375v132h507v-508h-757z" />
<glyph unicode="H" d="M125 -4h-132v883h132v-375h493v375h132v-883h-132v376h-493v-376z" />
<glyph unicode="I" horiz-adv-x="375" d="M125 -4h-132v883h132v-883z" />
<glyph unicode="J" d="M-7 -4v383h132v-250h493v750h132v-883h-757z" />
<glyph unicode="K" d="M125 -4h-132v883h132v-375h493v375h132v-382h-125v-118h125v-383h-132v376h-493v-376z" />
<glyph unicode="L" d="M750 -4h-757v883h132v-750h625v-133z" />
<glyph unicode="M" horiz-adv-x="1375" d="M125 -4h-132v883h1132v-883h-132v751h-368v-751h-132v751h-368v-751z" />
<glyph unicode="N" d="M125 -4h-132v883h757v-883h-132v751h-493v-751z" />
<glyph unicode="O" d="M125 129h493v618h-493v-618zM-7 -4v883h757v-883h-757z" />
<glyph unicode="P" d="M125 747v-243h493v243h-493zM125 -4h-132v883h757v-507h-625v-376z" />
<glyph unicode="Q" d="M125 129h493v618h-493v-618zM750 -254h-382v250h-375v883h757v-883h-250v-118h250v-132z" />
<glyph unicode="R" d="M125 747v-243h493v243h-493zM125 -4h-132v883h757v-382h-125v-118h125v-383h-132v376h-493v-376z" />
<glyph unicode="S" d="M750 -4h-757v133h625v243h-625v507h757v-132h-625v-243h625v-508z" />
<glyph unicode="T" horiz-adv-x="1125" d="M500 -4h-132v751h-375v132h882v-132h-375v-751z" />
<glyph unicode="U" d="M-7 -4v883h132v-750h493v750h132v-883h-757z" />
<glyph unicode="V" d="M243 -4v126h-125v125h-125v632h132v-625h125v-125h243v125h125v625h132v-632h-125v-125h-125v-126h-257z" />
<glyph unicode="W" horiz-adv-x="1375" d="M-7 -4v883h132v-750h368v750h132v-750h368v750h132v-883h-1132z" />
<glyph unicode="X" d="M125 -4h-132v383h125v118h-125v382h132v-375h493v375h132v-382h-125v-118h125v-383h-132v376h-493v-376z" />
<glyph unicode="Y" d="M-7 -4v133h625v243h-625v507h132v-375h493v375h132v-883h-757z" />
<glyph unicode="Z" d="M118 129v125h125v125h125v125h125v125h125v118h-625v132h757v-257h-125v-125h-125v-125h-125v-125h-125v-118h500v-133h-757v133h125z" />
<glyph unicode="a" d="M125 747v-243h493v243h-493zM125 -4h-132v883h757v-883h-132v376h-493v-376z" />
<glyph unicode="b" d="M125 372v-243h493v243h-493zM125 747v-243h493v243h-493zM-7 -4v883h757v-382h-125v-118h125v-383h-757z" />
<glyph unicode="c" d="M-7 -4v883h757v-132h-625v-618h625v-133h-757z" />
<glyph unicode="d" d="M125 129h493v618h-493v-618zM625 -4h-632v883h632v-125h125v-632h-125v-126z" />
<glyph unicode="e" d="M-7 879h757v-132h-625v-243h500v-132h-500v-243h625v-133h-757v883z" />
<glyph unicode="f" d="M125 -4h-132v883h757v-132h-625v-243h500v-132h-500v-376z" />
<glyph unicode="g" d="M-7 -4v883h757v-132h-625v-618h493v243h-375v132h507v-508h-757z" />
<glyph unicode="h" d="M125 -4h-132v883h132v-375h493v375h132v-883h-132v376h-493v-376z" />
<glyph unicode="i" horiz-adv-x="375" d="M125 -4h-132v883h132v-883z" />
<glyph unicode="j" d="M-7 -4v383h132v-250h493v750h132v-883h-757z" />
<glyph unicode="k" d="M125 -4h-132v883h132v-375h493v375h132v-382h-125v-118h125v-383h-132v376h-493v-376z" />
<glyph unicode="l" d="M750 -4h-757v883h132v-750h625v-133z" />
<glyph unicode="m" horiz-adv-x="1375" d="M125 -4h-132v883h1132v-883h-132v751h-368v-751h-132v751h-368v-751z" />
<glyph unicode="n" d="M125 -4h-132v883h757v-883h-132v751h-493v-751z" />
<glyph unicode="o" d="M125 129h493v618h-493v-618zM-7 -4v883h757v-883h-757z" />
<glyph unicode="p" d="M125 747v-243h493v243h-493zM125 -4h-132v883h757v-507h-625v-376z" />
<glyph unicode="q" d="M125 129h493v618h-493v-618zM750 -254h-382v250h-375v883h757v-883h-250v-118h250v-132z" />
<glyph unicode="r" d="M125 747v-243h493v243h-493zM125 -4h-132v883h757v-382h-125v-118h125v-383h-132v376h-493v-376z" />
<glyph unicode="s" d="M750 -4h-757v133h625v243h-625v507h757v-132h-625v-243h625v-508z" />
<glyph unicode="t" horiz-adv-x="1125" d="M500 -4h-132v751h-375v132h882v-132h-375v-751z" />
<glyph unicode="u" d="M-7 -4v883h132v-750h493v750h132v-883h-757z" />
<glyph unicode="v" d="M243 -4v126h-125v125h-125v632h132v-625h125v-125h243v125h125v625h132v-632h-125v-125h-125v-126h-257z" />
<glyph unicode="w" horiz-adv-x="1375" d="M-7 -4v883h132v-750h368v750h132v-750h368v750h132v-883h-1132z" />
<glyph unicode="x" d="M125 -4h-132v383h125v118h-125v382h132v-375h493v375h132v-382h-125v-118h125v-383h-132v376h-493v-376z" />
<glyph unicode="y" d="M-7 -4v133h625v243h-625v507h132v-375h493v375h132v-883h-757z" />
<glyph unicode="z" d="M118 129v125h125v125h125v125h125v125h125v118h-625v132h757v-257h-125v-125h-125v-125h-125v-125h-125v-118h500v-133h-757v133h125z" />
<glyph unicode="&#xaa;" d="M125 747v-243h493v243h-493zM125 -4h-132v883h757v-883h-132v376h-493v-376z" />
<glyph unicode="&#xba;" d="M125 129h493v618h-493v-618zM-7 -4v883h757v-883h-757z" />
<glyph unicode="&#x152;" horiz-adv-x="2000" d="M993 879h757v-132h-625v-243h500v-132h-500v-243h625v-133h-757v883zM125 129h493v618h-493v-618zM-7 -4v883h757v-883h-757z" />
<glyph unicode="&#x153;" horiz-adv-x="2000" d="M993 879h757v-132h-625v-243h500v-132h-500v-243h625v-133h-757v883zM125 129h493v618h-493v-618zM-7 -4v883h757v-883h-757z" />
<glyph unicode="&#x2000;" horiz-adv-x="562" />
<glyph unicode="&#x2001;" horiz-adv-x="1125" />
<glyph unicode="&#x2002;" horiz-adv-x="562" />
<glyph unicode="&#x2003;" horiz-adv-x="1125" />
<glyph unicode="&#x2004;" horiz-adv-x="375" />
<glyph unicode="&#x2005;" horiz-adv-x="281" />
<glyph unicode="&#x2006;" horiz-adv-x="187" />
<glyph unicode="&#x2007;" horiz-adv-x="187" />
<glyph unicode="&#x2008;" horiz-adv-x="140" />
<glyph unicode="&#x2009;" horiz-adv-x="225" />
<glyph unicode="&#x200a;" horiz-adv-x="62" />
<glyph unicode="&#x2013;" horiz-adv-x="500" d="M100 250v100h300v-100h-300z" />
<glyph unicode="&#x2014;" d="M100 250v100h800v-100h-800z" />
<glyph unicode="&#x202f;" horiz-adv-x="225" />
<glyph unicode="&#x205f;" horiz-adv-x="281" />
<glyph unicode="&#x2122;" horiz-adv-x="2500" d="M1250 -4h-132v883h1132v-883h-132v751h-368v-751h-132v751h-368v-751zM500 -4h-132v751h-375v132h882v-132h-375v-751z" />
</font>
</defs>
</svg>
